<svg width="40" height="40" viewBox="0 0 40 40" fill="none" xmlns="http://www.w3.org/2000/svg">
<path d="M11.8514 8.76562L10.0311 12.1016L11.2967 12.7969L24.7967 13.8516L27.0389 12.0547L24.5232 12.4688L25.6404 9.66406L11.8514 8.76562ZM27.0311 9.82813L28.7342 11.9609L27.9607 20L28.1795 29.3828L31.5857 32.7656L30.6404 28.7656L31.0701 19.9453L29.0936 11.375L27.0311 9.82813ZM26.9373 13.5078L24.2342 15.8047L11.5467 14.6563L8.94512 18.1094L7.89824 27.8438L21.4295 30.0391L7.76699 29.0703L7.19824 34.3594L22.4529 36.4453L23.1404 19.5312L26.9373 13.5078ZM27.4139 14.9766L24.5076 20L24.0232 34.5234L26.8279 29.7891L26.8514 20L27.4139 14.9766ZM27.6951 30.6875L24.0232 36.9141L31.2732 34.5234L27.6951 30.6875Z" fill="#C37C0B"/>
</svg>
