<svg width="171" height="174" viewBox="0 0 171 174" fill="none" xmlns="http://www.w3.org/2000/svg">
<path d="M68.8834 -98.3934C74.7413 -104.251 84.2387 -104.251 90.0966 -98.3934L272.451 83.961C278.309 89.8189 278.309 99.3164 272.451 105.174L214.507 163.118C208.65 168.976 199.152 168.976 193.294 163.118L10.9398 -19.2366C5.08198 -25.0945 5.08197 -34.592 10.9398 -40.4498L68.8834 -98.3934Z" fill="#FAE68E"/>
<path d="M112.668 14.6096L120.588 6.69L122.104 8.20603L119.887 17.1665L119.083 16.3632L127.987 14.0892L129.492 15.5939L121.595 23.5361L119.875 21.8164L125.147 16.5216L125.464 16.8384L118.37 18.6373L117.545 17.8114L119.287 10.6611L119.672 11.0458L114.388 16.3293L112.668 14.6096ZM126.28 28.4019C125.586 27.708 125.111 26.9613 124.854 26.1618C124.605 25.3698 124.571 24.5967 124.752 23.8425C124.941 23.0807 125.337 22.3981 125.94 21.7947C126.551 21.1837 127.23 20.784 127.977 20.5954C128.738 20.4069 129.497 20.4257 130.251 20.652C131.013 20.8707 131.703 21.2893 132.321 21.9078C132.917 22.5037 133.324 23.1674 133.543 23.899C133.777 24.6307 133.796 25.3736 133.6 26.1278C133.411 26.8745 132.989 27.576 132.332 28.2322C132.265 28.3001 132.182 28.3755 132.084 28.4585C131.993 28.5339 131.906 28.6055 131.823 28.6734L126.879 23.7293L127.909 22.6998L131.925 26.7161L130.941 26.3428C131.258 26.026 131.469 25.6866 131.574 25.3246C131.68 24.9625 131.684 24.6043 131.586 24.2498C131.495 23.8877 131.299 23.5558 130.997 23.2542C130.696 22.9525 130.36 22.7526 129.991 22.6545C129.636 22.5565 129.274 22.564 128.904 22.6772C128.542 22.7827 128.199 22.9977 127.875 23.322L127.603 23.5936C127.271 23.9254 127.049 24.2912 126.936 24.691C126.838 25.0907 126.853 25.4905 126.981 25.8902C127.124 26.29 127.377 26.6709 127.739 27.0329C128.063 27.3573 128.395 27.5911 128.735 27.7344C129.082 27.8852 129.455 27.9644 129.855 27.972L129.776 29.9292C129.18 29.967 128.584 29.8614 127.988 29.6125C127.4 29.356 126.83 28.9525 126.28 28.4019ZM132.444 34.5663C131.924 34.0458 131.482 33.4839 131.12 32.8805C130.773 32.2771 130.555 31.7416 130.464 31.274L132.32 30.5952C132.425 31.0477 132.61 31.5191 132.874 32.0094C133.153 32.4996 133.477 32.9296 133.847 33.2991C134.254 33.7064 134.59 33.944 134.854 34.0119C135.125 34.0873 135.348 34.0383 135.521 33.8648C135.665 33.7215 135.702 33.548 135.634 33.3444C135.582 33.1407 135.465 32.9107 135.284 32.6543C135.103 32.3978 134.899 32.1187 134.673 31.817C134.454 31.5229 134.243 31.2136 134.039 30.8893C133.843 30.5574 133.7 30.218 133.609 29.8711C133.519 29.5241 133.515 29.1734 133.598 28.8189C133.689 28.4719 133.907 28.125 134.254 27.778C134.639 27.3934 135.088 27.1633 135.601 27.0879C136.121 27.02 136.675 27.1143 137.264 27.3707C137.86 27.6197 138.452 28.0383 139.04 28.6266C139.455 29.0414 139.832 29.509 140.171 30.0295C140.511 30.5499 140.737 31.0402 140.85 31.5003L139.006 32.1678C138.885 31.7001 138.704 31.2853 138.463 30.9233C138.237 30.5612 137.984 30.2407 137.705 29.9616C137.313 29.5694 136.973 29.3356 136.687 29.2601C136.4 29.1847 136.174 29.23 136.008 29.3959C135.857 29.5468 135.808 29.724 135.861 29.9276C135.921 30.1388 136.038 30.3764 136.211 30.6404C136.385 30.9044 136.581 31.1835 136.8 31.4776C137.034 31.7718 137.249 32.0848 137.445 32.4167C137.641 32.7485 137.78 33.0842 137.863 33.4236C137.961 33.763 137.969 34.1099 137.886 34.4644C137.81 34.8114 137.599 35.1584 137.252 35.5053C136.875 35.8824 136.426 36.1049 135.906 36.1728C135.393 36.2332 134.839 36.1313 134.243 35.8673C133.655 35.6109 133.055 35.1772 132.444 34.5663ZM138.896 41.0179C138.179 40.3014 137.802 39.5622 137.764 38.8004C137.734 38.0311 138.081 37.2844 138.805 36.5603L144.145 31.2202L145.91 32.9852L140.593 38.3026C140.336 38.5591 140.204 38.8268 140.197 39.1059C140.197 39.3774 140.314 39.6301 140.547 39.8639C140.827 40.143 141.14 40.3051 141.487 40.3504L140.717 42.0701C140.408 42.0173 140.091 41.8966 139.767 41.708C139.458 41.5195 139.167 41.2894 138.896 41.0179ZM140.366 33.1209L141.724 31.7633L145.944 35.9833L144.586 37.341L140.366 33.1209ZM144.833 46.774L151.055 40.5515C151.742 39.8651 152.492 39.5219 153.307 39.5219C154.129 39.5144 154.917 39.8877 155.671 40.642C155.928 40.8984 156.147 41.17 156.328 41.4566C156.516 41.7507 156.637 42.0374 156.69 42.3164L154.947 43.131C154.917 42.9651 154.861 42.8029 154.778 42.6445C154.695 42.4861 154.585 42.3391 154.449 42.2033C154.193 41.9468 153.918 41.8224 153.624 41.8299C153.344 41.8375 153.058 41.9883 152.764 42.2825L152.198 42.8482L151.485 43.6514L146.598 48.539L144.833 46.774ZM148.487 41.2416L149.845 39.884L154.065 44.104L152.707 45.4616L148.487 41.2416ZM151.722 53.8438C151.073 53.1951 150.632 52.4823 150.398 51.7055C150.172 50.9361 150.145 50.1706 150.319 49.4088C150.507 48.647 150.903 47.9644 151.507 47.361C152.118 46.7501 152.8 46.3541 153.554 46.1731C154.324 45.9921 155.089 46.0185 155.851 46.2523C156.628 46.4861 157.341 46.9273 157.989 47.576C158.63 48.2171 159.068 48.9261 159.302 49.7029C159.543 50.4723 159.573 51.2341 159.392 51.9883C159.211 52.7426 158.811 53.4289 158.193 54.0474C157.59 54.6508 156.907 55.0468 156.145 55.2354C155.391 55.4164 154.625 55.39 153.848 55.1562C153.072 54.9223 152.363 54.4849 151.722 53.8438ZM153.17 52.3956C153.464 52.6898 153.796 52.8859 154.165 52.9839C154.535 53.082 154.912 53.0744 155.297 52.9613C155.689 52.8406 156.058 52.6068 156.405 52.2598C156.76 51.9054 156.994 51.5358 157.107 51.1511C157.22 50.7664 157.228 50.3893 157.129 50.0197C157.031 49.6502 156.835 49.3183 156.541 49.0241C156.247 48.73 155.915 48.5339 155.546 48.4358C155.176 48.3378 154.795 48.3415 154.403 48.4471C154.018 48.5603 153.649 48.7941 153.294 49.1486C152.947 49.4955 152.713 49.8651 152.593 50.2573C152.487 50.6495 152.483 51.0304 152.581 51.4C152.679 51.7696 152.876 52.1015 153.17 52.3956ZM156.329 58.2705L162.416 52.1837L164.102 53.8695L162.382 55.5892L162.642 54.8538C163.253 54.6049 163.868 54.5709 164.486 54.752C165.113 54.9254 165.712 55.2988 166.285 55.872L164.656 57.5012C164.588 57.4182 164.524 57.3466 164.464 57.2862C164.411 57.2183 164.351 57.1505 164.283 57.0826C163.8 56.5999 163.268 56.3472 162.688 56.3246C162.122 56.3019 161.549 56.581 160.968 57.1618L158.094 60.0355L156.329 58.2705ZM96.2632 33.7408C95.7503 33.2279 95.4147 32.666 95.2563 32.0551C95.0979 31.4441 95.1394 30.7992 95.3808 30.1204C95.6372 29.4416 96.1199 28.7477 96.8289 28.0387C97.5454 27.3222 98.2356 26.8357 98.8993 26.5792C99.5631 26.3228 100.2 26.2738 100.811 26.4322C101.422 26.5905 101.996 26.9375 102.531 27.473C103.104 28.0462 103.485 28.6911 103.674 29.4077C103.877 30.1242 103.877 30.8483 103.674 31.5799C103.478 32.3191 103.063 33.0054 102.429 33.639C101.788 34.2801 101.098 34.6987 100.359 34.8948C99.6272 35.0985 98.9031 35.0985 98.1866 34.8948C97.4776 34.6987 96.8365 34.314 96.2632 33.7408ZM90.5611 32.2474L98.8428 23.9658L100.528 25.6515L99.284 26.896L97.4399 28.6723L95.7541 30.5843L92.3261 34.0123L90.5611 32.2474ZM97.4059 31.9872C97.7001 32.2813 98.0282 32.4737 98.3902 32.5642C98.7598 32.6622 99.1369 32.6547 99.5216 32.5416C99.9213 32.4284 100.295 32.1984 100.642 31.8514C100.996 31.4969 101.226 31.1236 101.332 30.7314C101.445 30.3467 101.452 29.9696 101.354 29.6C101.264 29.238 101.072 28.9099 100.777 28.6157C100.483 28.3215 100.151 28.1254 99.7818 28.0274C99.4122 27.9293 99.0351 27.9369 98.6504 28.05C98.2658 28.1632 97.8962 28.397 97.5417 28.7515C97.1947 29.0984 96.9609 29.468 96.8402 29.8602C96.7271 30.2449 96.7195 30.622 96.8176 30.9916C96.9156 31.3612 97.1118 31.693 97.4059 31.9872ZM103.498 40.9751C102.804 40.2812 102.328 39.5345 102.072 38.735C101.823 37.9431 101.789 37.17 101.97 36.4157C102.159 35.6539 102.555 34.9713 103.158 34.3679C103.769 33.757 104.448 33.3572 105.195 33.1687C105.956 32.9801 106.714 32.999 107.469 33.2252C108.23 33.444 108.921 33.8626 109.539 34.4811C110.135 35.0769 110.542 35.7407 110.761 36.4723C110.995 37.2039 111.014 37.9468 110.818 38.7011C110.629 39.4478 110.207 40.1492 109.55 40.8054C109.482 40.8733 109.4 40.9487 109.301 41.0317C109.211 41.1071 109.124 41.1788 109.041 41.2467L104.097 36.3026L105.127 35.273L109.143 39.2894L108.159 38.916C108.476 38.5993 108.687 38.2598 108.792 37.8978C108.898 37.5358 108.902 37.1775 108.804 36.823C108.713 36.461 108.517 36.1291 108.215 35.8274C107.914 35.5257 107.578 35.3258 107.208 35.2278C106.854 35.1297 106.492 35.1373 106.122 35.2504C105.76 35.356 105.417 35.5709 105.093 35.8953L104.821 36.1668C104.489 36.4987 104.267 36.8645 104.154 37.2642C104.056 37.664 104.071 38.0637 104.199 38.4635C104.342 38.8632 104.595 39.2441 104.957 39.6062C105.281 39.9305 105.613 40.1643 105.953 40.3076C106.3 40.4585 106.673 40.5377 107.073 40.5452L106.993 42.5025C106.398 42.5402 105.802 42.4346 105.206 42.1857C104.618 41.9293 104.048 41.5257 103.498 40.9751ZM117.582 42.5235C118.064 43.0062 118.396 43.5342 118.577 44.1074C118.773 44.6807 118.781 45.2765 118.6 45.895C118.426 46.5059 118.03 47.1207 117.412 47.7391L113.927 51.2238L112.162 49.4588L115.375 46.2457C115.866 45.7555 116.118 45.2841 116.133 44.8315C116.156 44.3865 115.971 43.9679 115.579 43.5757C115.3 43.2966 114.987 43.1043 114.64 42.9987C114.308 42.8931 113.957 42.8969 113.588 43.01C113.226 43.1307 112.856 43.3796 112.479 43.7567L109.47 46.7662L107.705 45.0012L113.791 38.9144L115.477 40.6002L113.791 42.2859L113.984 41.46C114.61 41.2715 115.236 41.2715 115.862 41.46C116.488 41.6486 117.061 42.0031 117.582 42.5235ZM116.148 58.0155C115.575 57.4423 115.092 56.8163 114.7 56.1374C114.308 55.4737 114.074 54.8251 113.999 54.1915L115.967 53.6258C116.012 54.0934 116.171 54.5837 116.442 55.0966C116.714 55.6246 117.042 56.0809 117.427 56.4655C118.053 57.0916 118.645 57.4046 119.203 57.4046C119.769 57.4121 120.327 57.1406 120.877 56.59L121.794 55.6736L123.434 54.2594L124.95 52.6981L126.263 51.3857L127.937 53.0601L122.869 58.1287C121.737 59.26 120.61 59.7993 119.486 59.7465C118.362 59.6937 117.249 59.1167 116.148 58.0155ZM118.456 55.1645C117.891 54.5988 117.498 53.9652 117.28 53.2638C117.076 52.5623 117.053 51.8533 117.212 51.1368C117.385 50.4202 117.766 49.7678 118.354 49.1795C118.95 48.5837 119.603 48.2028 120.312 48.0368C121.036 47.8709 121.745 47.8935 122.439 48.1047C123.14 48.3234 123.774 48.7157 124.339 49.2813C124.852 49.7942 125.199 50.3524 125.38 50.9558C125.569 51.5516 125.554 52.1776 125.335 52.8338C125.124 53.4825 124.679 54.1462 124 54.8251C123.329 55.4963 122.665 55.9413 122.009 56.1601C121.36 56.3713 120.734 56.3863 120.131 56.2053C119.527 56.0243 118.969 55.6774 118.456 55.1645ZM120.255 54.067C120.564 54.3763 120.9 54.5912 121.262 54.7119C121.632 54.8251 121.997 54.8364 122.359 54.7459C122.721 54.6553 123.05 54.463 123.344 54.1689C123.645 53.8672 123.838 53.5391 123.921 53.1846C124.011 52.8225 123.996 52.4605 123.875 52.0984C123.762 51.7289 123.551 51.3895 123.242 51.0802C122.933 50.771 122.593 50.5598 122.224 50.4466C121.862 50.326 121.496 50.3071 121.126 50.3901C120.772 50.473 120.444 50.6654 120.142 50.9671C119.848 51.2612 119.655 51.5893 119.565 51.9514C119.482 52.321 119.497 52.6905 119.61 53.0601C119.731 53.4222 119.946 53.7578 120.255 54.067ZM126.423 63.9009C125.729 63.2069 125.254 62.4602 124.998 61.6607C124.749 60.8688 124.715 60.0957 124.896 59.3414C125.084 58.5796 125.48 57.897 126.084 57.2937C126.695 56.6827 127.374 56.283 128.12 56.0944C128.882 55.9058 129.64 55.9247 130.394 56.151C131.156 56.3697 131.846 56.7883 132.465 57.4068C133.061 58.0026 133.468 58.6664 133.687 59.398C133.92 60.1296 133.939 60.8726 133.743 61.6268C133.555 62.3735 133.132 63.075 132.476 63.7312C132.408 63.799 132.325 63.8745 132.227 63.9574C132.137 64.0329 132.05 64.1045 131.967 64.1724L127.023 59.2283L128.052 58.1987L132.069 62.2151L131.085 61.8418C131.401 61.525 131.612 61.1856 131.718 60.8235C131.824 60.4615 131.827 60.1032 131.729 59.7487C131.639 59.3867 131.443 59.0548 131.141 58.7531C130.839 58.4514 130.504 58.2515 130.134 58.1535C129.78 58.0554 129.418 58.063 129.048 58.1761C128.686 58.2817 128.343 58.4967 128.019 58.821L127.747 59.0925C127.415 59.4244 127.193 59.7902 127.079 60.19C126.981 60.5897 126.997 60.9895 127.125 61.3892C127.268 61.789 127.521 62.1699 127.883 62.5319C128.207 62.8562 128.539 63.09 128.878 63.2333C129.225 63.3842 129.599 63.4634 129.998 63.4709L129.919 65.4282C129.323 65.4659 128.727 65.3603 128.132 65.1114C127.543 64.855 126.974 64.4515 126.423 63.9009ZM140.507 65.4492C140.99 65.932 141.322 66.4599 141.503 67.0332C141.699 67.6064 141.707 68.2022 141.525 68.8207C141.352 69.4317 140.956 70.0464 140.338 70.6649L136.853 74.1495L135.088 72.3845L138.301 69.1715C138.791 68.6812 139.044 68.2098 139.059 67.7572C139.082 67.3122 138.897 66.8936 138.505 66.5014C138.226 66.2223 137.913 66.03 137.566 65.9244C137.234 65.8188 136.883 65.8226 136.514 65.9357C136.151 66.0564 135.782 66.3053 135.405 66.6824L132.395 69.6919L130.63 67.9269L136.717 61.8402L138.403 63.5259L136.717 65.2117L136.909 64.3858C137.536 64.1972 138.162 64.1972 138.788 64.3858C139.414 64.5743 139.987 64.9288 140.507 65.4492ZM141.427 78.9048C140.733 78.2109 140.258 77.4642 140.002 76.6647C139.753 75.8727 139.719 75.0996 139.9 74.3454C140.088 73.5836 140.484 72.901 141.088 72.2976C141.699 71.6866 142.378 71.2869 143.124 71.0983C143.886 70.9098 144.644 70.9286 145.398 71.1549C146.16 71.3736 146.85 71.7922 147.469 72.4107C148.065 73.0066 148.472 73.6703 148.691 74.4019C148.924 75.1335 148.943 75.8765 148.747 76.6307C148.559 77.3774 148.136 78.0789 147.48 78.7351C147.412 78.803 147.329 78.8784 147.231 78.9613C147.141 79.0368 147.054 79.1084 146.971 79.1763L142.027 74.2322L143.056 73.2027L147.073 77.219L146.088 76.8457C146.405 76.5289 146.616 76.1895 146.722 75.8274C146.828 75.4654 146.831 75.1071 146.733 74.7526C146.643 74.3906 146.447 74.0587 146.145 73.757C145.843 73.4553 145.508 73.2555 145.138 73.1574C144.784 73.0594 144.422 73.0669 144.052 73.18C143.69 73.2856 143.347 73.5006 143.022 73.8249L142.751 74.0965C142.419 74.4283 142.197 74.7941 142.083 75.1939C141.985 75.5936 142 75.9934 142.129 76.3931C142.272 76.7929 142.525 77.1738 142.887 77.5358C143.211 77.8601 143.543 78.094 143.882 78.2373C144.229 78.3881 144.603 78.4673 145.002 78.4749L144.923 80.4321C144.327 80.4698 143.731 80.3642 143.136 80.1153C142.547 79.8589 141.978 79.4554 141.427 78.9048Z" fill="#062F4B"/>
</svg>
