<svg width="426" height="426" viewBox="0 0 426 426" fill="none" xmlns="http://www.w3.org/2000/svg">
<path d="M199.859 0.463614C178.216 2.46424 169.971 3.91924 155.603 7.98111C154.633 8.28424 152.814 8.76924 151.662 9.07236C148.146 10.0424 139.901 12.8311 138.81 13.4374C138.204 13.8011 137.476 14.0436 137.112 14.0436C136.749 14.0436 135.172 14.5892 133.596 15.3167C132.02 16.0442 130.201 16.8324 129.534 17.0749C125.23 18.833 111.529 25.8049 106.012 29.018C72.9105 48.3574 45.2049 76.7299 26.7749 110.074C24.2286 114.742 18.2874 126.564 18.2874 127.049C18.2874 127.231 17.7418 128.564 17.1355 130.019C10.6486 144.509 4.88927 165.546 2.16114 184.521C0.827393 193.554 0.281768 223.806 1.31239 233.142C3.43427 253.694 8.10239 272.912 15.3774 291.403C19.0755 300.8 28.2299 319.048 31.6855 323.959C32.3524 324.807 32.8374 325.656 32.8374 325.838C32.8374 326.747 43.3255 341.297 47.933 346.875C58.2393 359.242 63.453 364.638 73.153 373.004C88.4305 386.16 101.041 394.647 118.379 403.377C122.926 405.621 126.806 407.5 126.988 407.5C127.231 407.5 128.867 408.167 130.626 409.016C133.536 410.289 145.418 414.654 151.056 416.472C154.209 417.442 166.637 420.595 170.456 421.383C172.275 421.747 175.185 422.292 176.822 422.596C185.37 424.293 198.768 425.384 211.681 425.384C228.656 425.384 238.841 424.536 252.3 422.111C276.247 417.685 300.254 408.591 321.716 395.799C324.383 394.162 327.111 392.526 327.778 392.162C328.445 391.737 329.112 391.313 329.294 391.071C329.476 390.889 331.052 389.919 332.81 388.827C344.389 381.795 365.366 362.88 375.975 349.906C377.491 348.087 378.885 346.451 379.067 346.269C379.249 346.087 380.582 344.329 382.098 342.328C383.553 340.327 384.947 338.569 385.129 338.387C385.857 337.781 395.86 322.261 398.527 317.472C413.866 290.372 422.656 261.454 425.506 228.959C425.991 223.321 425.93 202.042 425.384 195.616C420.352 135.294 390.282 80.3674 342.025 43.3255C330.324 34.353 309.833 22.3492 297.769 17.4386C296.253 16.8324 293.889 15.8624 292.494 15.1955C291.039 14.5892 289.645 14.0436 289.281 14.0436C288.917 14.0436 288.19 13.8011 287.584 13.4374C286.25 12.7099 276.792 9.55736 272.185 8.28424C270.245 7.79924 267.214 7.01111 265.516 6.52611C261.272 5.37424 251.209 3.37361 245.934 2.58549C243.631 2.22174 239.629 1.67611 237.144 1.31236C232.657 0.645489 204.588 -0.0213863 199.859 0.463614ZM71.9405 143.478C80.4887 145.964 89.4005 151.784 92.4318 156.876C92.6743 157.361 92.6743 158.149 92.4318 158.634C91.4012 160.392 84.1868 167.425 83.338 167.425C82.9137 167.425 80.7918 166.031 78.7305 164.272C70.0612 157.058 59.6943 155.421 50.7824 159.786C41.5068 164.394 37.4449 171.305 37.3843 182.581C37.3843 188.522 37.5055 189.189 39.3243 192.887C41.6886 197.677 45.6899 201.86 50.2368 204.164C53.1468 205.619 54.6018 205.922 59.573 206.104C68.4849 206.467 74.7293 204.224 80.0643 198.707C81.3374 197.374 82.7924 196.525 83.6412 196.525C85.3993 196.525 93.4624 204.042 93.4624 205.619C93.4624 207.013 85.9449 214.046 82.2468 216.167C78.003 218.532 71.4555 220.593 65.6355 221.381C53.268 223.079 40.8399 219.138 32.3524 210.893C23.8043 202.587 20.3486 193.312 20.8336 180.156C21.0761 174.761 21.4399 172.154 22.6524 168.819C27.6236 154.451 39.7486 144.448 54.1774 142.69C59.6336 141.962 68.1212 142.387 71.9405 143.478ZM149.844 143.478C163.121 146.994 174.033 157.725 178.095 171.366C179.732 176.943 179.611 188.219 177.792 193.797C173.366 207.559 163.302 216.895 148.631 220.836C147.116 221.26 142.932 221.563 139.234 221.624C127.17 221.624 118.925 218.289 110.68 210.166C102.799 202.406 99.2824 193.736 99.2824 182.278C99.2824 164.454 110.013 149.419 126.564 144.084C133.111 141.962 143.236 141.72 149.844 143.478ZM229.566 144.751C235.567 147.176 240.781 151.177 240.781 153.36C240.781 154.512 234.658 162.272 233.446 162.696C232.476 163.06 231.324 162.696 229.02 161.181C225.019 158.634 222.533 157.786 217.986 157.301C213.439 156.876 210.408 157.786 208.347 160.211C206.467 162.514 206.407 165.182 208.226 167.849C209.681 169.971 212.348 171.426 223.806 176.337C234.052 180.702 238.053 183.794 240.781 189.553C242.357 192.827 242.6 194.039 242.6 198.283C242.6 204.588 241.084 208.771 237.144 213.076C231.687 219.017 225.261 221.502 215.016 221.624C207.256 221.684 203.436 220.896 197.495 217.926C192.16 215.258 186.219 209.741 186.219 207.498C186.219 205.74 192.463 197.737 193.797 197.737C194.221 197.737 195.676 198.647 197.131 199.677C198.586 200.769 200.587 202.284 201.617 203.072C208.529 208.104 220.532 208.104 224.049 203.072C226.534 199.556 224.473 194.161 219.866 192.039C216.531 190.523 212.894 188.947 209.135 187.492C201.072 184.4 194.585 179.611 192.463 175.185C190.159 170.335 189.856 169.183 189.856 164.818C189.917 155.3 195.494 147.601 205.012 144.024C208.407 142.751 217.441 142.084 222.291 142.811C224.291 143.054 227.565 143.963 229.566 144.751ZM268.608 149.662C272.124 153.239 278.551 159.786 282.855 164.212C289.281 170.881 290.857 172.154 291.706 171.669C292.312 171.366 296.738 166.94 301.467 161.908C306.256 156.816 312.137 150.632 314.562 148.146L318.866 143.539L322.807 143.296C325.05 143.175 327.232 143.357 328.021 143.721L329.294 144.448V181.975C329.294 218.471 329.233 219.562 328.142 220.169C326.626 220.957 306.559 220.957 305.044 220.169C302.558 218.835 301.77 212.045 303.831 210.166C306.074 208.165 307.347 205.437 308.621 199.981C310.257 193.191 310.379 181.308 308.924 177.852L308.014 175.609L305.226 178.641C303.71 180.277 301.77 182.581 300.921 183.733C299.466 185.612 299.163 185.734 296.92 185.309C293.464 184.642 288.736 184.582 286.432 185.188C284.189 185.734 283.704 185.37 278.429 179.004C275.337 175.306 274.731 175.488 273.64 180.641C272.67 185.127 272.731 191.19 273.882 196.222C274.367 198.586 275.034 201.496 275.277 202.709C275.822 205.194 277.156 207.498 279.399 209.923C280.794 211.439 280.854 211.863 280.491 215.016C279.763 220.775 279.763 220.775 266.001 220.775C256.059 220.775 254.058 220.593 253.27 219.805C252.421 218.956 252.3 214.712 252.3 182.157C252.3 150.874 252.421 145.236 253.149 144.448C253.755 143.781 255.331 143.417 258.12 143.296L262.182 143.114L268.608 149.662ZM376.642 143.599C378.036 143.963 378.157 144.327 389.373 174.215C390.343 176.822 391.919 181.066 392.889 183.612C393.859 186.219 397.133 195.009 400.225 203.194C404.287 213.924 405.621 218.289 405.196 218.956C404.772 219.684 403.256 219.866 397.436 219.866H390.222L389.434 218.168C389.009 217.259 387.797 214.167 386.827 211.196C385.796 208.286 384.644 205.558 384.22 205.134C383.129 204.042 363.365 203.376 359.909 204.346L357.484 205.012L354.756 212.409L352.028 219.866L344.632 220.047C337.357 220.229 337.175 220.169 336.872 218.835C336.629 217.926 338.206 212.954 341.479 204.406C344.147 197.252 347.421 188.644 348.694 185.309C349.967 181.975 352.331 175.67 354.029 171.366C355.666 167.001 358.333 160.089 359.849 155.906C363.789 145.539 364.335 144.387 365.851 143.781C367.184 143.236 374.762 143.114 376.642 143.599ZM279.46 259.211C282.673 260.848 285.644 263.879 287.341 267.092C288.675 269.639 288.917 270.972 288.917 275.034C288.978 279.278 288.736 280.309 287.159 283.158C280.248 295.707 262 295.101 256.18 282.127C254.24 277.944 254.179 271.639 255.937 267.881C257.514 264.607 261.636 260.302 264.425 259.09C268.851 257.15 275.58 257.211 279.46 259.211ZM86.3087 258.362C94.3112 260.606 96.7968 270.912 90.7343 276.974C89.2187 278.429 85.7024 279.581 82.6105 279.581C80.9737 279.581 79.3974 279.884 79.1549 280.248C78.973 280.612 78.7912 283.037 78.7912 285.644C78.8518 291.282 78.3668 291.827 74.2443 291.585L71.3343 291.403L71.1524 275.095C71.0312 262.424 71.213 258.666 71.7587 258.241C72.9105 257.574 83.6412 257.635 86.3087 258.362ZM110.68 258.726C111.468 259.514 111.65 261.394 111.65 270.124C111.65 279.824 111.771 280.733 112.923 282.249C114.681 284.492 118.682 284.492 120.986 282.249L122.562 280.612V269.821C122.562 257.817 122.562 257.756 126.806 257.756C130.989 257.756 131.05 257.877 131.05 269.154C131.05 274.731 130.747 280.369 130.444 281.642C129.595 285.522 126.927 288.796 123.169 290.615C117.409 293.464 111.953 292.616 107.346 288.069C105.527 286.311 104.254 284.492 103.829 282.916C102.92 279.521 102.92 259.454 103.89 258.484C104.981 257.392 109.589 257.574 110.68 258.726ZM164.03 259.757C170.153 264.486 170.517 271.094 164.879 276.247L162.211 278.611L165.121 284.067C166.758 287.038 168.031 289.887 167.91 290.433C167.789 291.161 166.819 291.464 163.969 291.585L160.211 291.767L156.997 285.522C154.209 280.127 153.602 279.278 152.269 279.278C150.753 279.278 150.753 279.339 150.571 285.462L150.389 291.706H147.176C145.115 291.706 143.66 291.403 143.236 290.857C142.447 289.948 142.326 260.302 143.054 259.151C143.842 257.999 145.357 257.817 153.542 257.938C161.544 258.059 161.847 258.12 164.03 259.757ZM200.769 258.362C201.678 258.847 201.981 259.636 201.981 261.697C201.981 265.274 201.011 265.759 193.615 265.577L187.734 265.456V268.123V270.791L192.706 270.851C195.494 270.912 198.101 271.094 198.647 271.336C199.738 271.761 199.92 276.55 198.829 277.641C198.344 278.126 196.101 278.369 192.706 278.369H187.371L187.552 281.218L187.734 284.128L194.039 284.31C197.556 284.371 200.769 284.795 201.193 285.159C202.163 285.947 202.224 290.009 201.254 290.979C200.223 292.009 181.308 292.009 180.277 290.979C179.307 290.009 179.247 259.514 180.217 258.544C181.126 257.635 199.132 257.514 200.769 258.362ZM234.901 258.484C235.81 258.969 235.931 260.242 235.931 271.7V284.371L241.872 284.552L247.753 284.734V288.069V291.403H238.053H228.353L228.171 275.398C228.05 264.364 228.232 259.151 228.717 258.605C229.444 257.696 233.203 257.635 234.901 258.484ZM302.679 258.362C303.286 258.726 303.831 259.272 303.831 259.514C303.831 260.06 308.196 269.821 309.287 271.821C309.651 272.427 309.894 273.337 309.894 273.822C309.894 274.307 310.257 274.731 310.682 274.731C311.409 274.731 312.076 273.458 316.744 263.152C318.987 258.302 319.594 257.756 322.928 257.756C326.687 257.756 327.839 259.151 326.262 261.879C325.656 262.97 319.836 275.277 316.805 282.006C312.016 292.616 310.803 293.949 309.106 290.372C308.621 289.281 307.166 286.189 305.953 283.522C303.771 278.914 301.467 273.882 297.769 265.941C295.041 260.121 294.737 259.211 295.526 258.423C296.374 257.574 301.103 257.574 302.679 258.362ZM356.514 258.302C357.06 258.666 357.363 259.939 357.363 261.697C357.363 263.455 357.06 264.789 356.514 265.092C356.029 265.395 353.119 265.637 350.027 265.577C346.875 265.516 344.086 265.759 343.783 266.062C343.419 266.426 343.237 267.638 343.359 268.729L343.541 270.791L348.572 270.851C355.241 270.972 355.362 271.033 355.362 274.671C355.362 278.247 355.302 278.247 348.087 278.49L343.541 278.672V281.4V284.128L350.088 284.31C357.121 284.492 357.424 284.613 357.424 288.069C357.424 291.767 357.545 291.706 346.632 291.706C340.146 291.706 336.508 291.464 336.205 291.039C336.023 290.676 335.841 283.279 335.902 274.549C335.962 262.606 336.144 258.605 336.69 258.241C337.781 257.574 355.484 257.635 356.514 258.302Z" fill="black"/>
<path d="M131.535 159.119C124.927 161.484 119.592 166.758 117.106 173.306C115.348 178.034 115.591 187.249 117.591 192.281C119.349 196.707 124.078 201.496 129.231 203.982C132.808 205.74 133.717 205.861 139.234 205.922C144.872 205.922 145.6 205.801 149.237 203.982C154.148 201.557 158.634 197.192 160.696 192.887C162.151 189.856 162.272 188.886 162.272 182.278C162.272 175.67 162.151 174.7 160.696 171.608C155.482 160.453 142.811 155.057 131.535 159.119Z" fill="black"/>
<path d="M368.821 172.396C368.033 174.518 366.639 178.277 365.669 180.762C363.183 187.37 363.062 187.795 364.153 188.886C365.548 190.28 376.642 190.28 378.036 188.886C378.582 188.401 379.006 187.855 379.006 187.795C379.006 187.613 376.581 180.944 374.096 174.094C373.368 172.275 372.701 170.274 372.519 169.668C371.853 167.425 370.216 168.577 368.821 172.396Z" fill="black"/>
<path d="M266.971 267.274C262.97 269.881 261.576 274.549 263.576 278.793C265.213 282.188 267.881 283.825 271.882 283.825C274.974 283.825 275.58 283.582 277.641 281.703C278.914 280.551 280.309 278.551 280.794 277.217C281.461 275.095 281.461 274.428 280.551 272.124C278.247 266.001 272.246 263.879 266.971 267.274Z" fill="black"/>
<path d="M78.7306 266.062C78.6093 266.365 78.6093 267.517 78.6699 268.669C78.7306 269.82 78.8518 271.154 78.8518 271.518C78.9124 272.609 83.2168 272.488 84.8537 271.336C86.4299 270.245 86.6118 267.941 85.2174 266.607C84.2474 265.637 79.2156 265.213 78.7306 266.062Z" fill="black"/>
<path d="M150.874 266.062C150.632 266.244 150.45 267.577 150.45 269.032C150.45 271.942 150.935 272.306 155.239 272.306C159.726 272.306 162.272 269.639 160.332 266.911C159.604 265.819 158.816 265.637 155.361 265.637C153.117 265.637 151.056 265.819 150.874 266.062Z" fill="black"/>
</svg>
