<svg width="185" height="33" viewBox="0 0 185 33" fill="none" xmlns="http://www.w3.org/2000/svg">
<mask id="mask0_314_3418" style="mask-type:luminance" maskUnits="userSpaceOnUse" x="0" y="0" width="185" height="33">
<path d="M0 3.53321e-08H184.832V33H0V3.53321e-08Z" fill="white"/>
</mask>
<g mask="url(#mask0_314_3418)">
<path d="M0 33H184.832V3.53321e-08H0V33Z" fill="white"/>
</g>
<path d="M33.1965 32.0351H183.943V0.982178H33.1965V32.0351Z" fill="#292526"/>
<path d="M0.969238 32.0351H31.9994V0.982178H0.969238V32.0351Z" fill="white"/>
<path d="M1.9519 31.0525H31.0167V1.96533H1.9519V31.0525Z" fill="white"/>
<path d="M46.1365 8.42853C46.7842 8.28113 47.3336 8.2052 47.7535 8.2052C48.5173 8.2052 49.2007 8.3794 49.7948 8.72333C50.3799 9.0628 50.84 9.58541 51.166 10.2733C51.4966 10.979 51.6618 11.7562 51.6618 12.5826C51.6618 13.7662 51.3179 14.7444 50.639 15.4859C49.9556 16.2274 49.1694 16.5847 48.2359 16.5847C47.9679 16.5847 47.6329 16.5624 47.2487 16.5177C46.9227 16.4731 46.543 16.4105 46.1365 16.3391V8.42853ZM51.778 7.02152C50.7194 6.64185 49.2632 6.44531 47.4542 6.44531H39.8474V7.56199H40.8882C41.5626 7.56199 42.0495 7.74513 42.38 8.11586C42.5006 8.2588 42.7016 8.72333 42.7016 10.2777V23.2758C42.7016 24.6918 42.5498 25.1474 42.456 25.2948C42.1478 25.7593 41.6341 25.9871 40.8882 25.9871H39.8474V27.1083H48.9863V25.9871H47.9411C47.2711 25.9871 46.7887 25.8085 46.476 25.4377C46.3465 25.2948 46.1365 24.8258 46.1365 23.2758V17.7863C46.6368 17.8935 47.1326 17.9783 47.6016 18.0409C48.1733 18.1123 48.7094 18.1481 49.1962 18.1481C51.2196 18.1481 52.8143 17.6031 53.9399 16.5222C55.0655 15.4413 55.6327 14.0208 55.6327 12.3056C55.6327 11.0371 55.2575 9.92041 54.5116 8.99133C53.7746 8.07119 52.8545 7.41012 51.778 7.02152Z" fill="white"/>
<path d="M75.4248 6.32495H75.1389V7.44163H76.1707C76.8407 7.44163 77.3276 7.62029 77.6537 7.99549C77.7787 8.13843 77.9931 8.61637 77.9931 10.1574V18.2734C77.9931 20.3549 77.8055 21.8378 77.4437 22.6909C77.0909 23.5173 76.4119 24.2096 75.4337 24.7501C74.4466 25.295 73.3031 25.572 72.039 25.572C71.0608 25.572 70.2256 25.3978 69.5645 25.0538C68.9034 24.7144 68.3942 24.2811 68.0458 23.763C67.6929 23.2403 67.4473 22.4899 67.3133 21.5296C67.1703 20.5469 67.0989 19.6581 67.0989 18.8942V10.1574C67.0989 8.83523 67.2686 8.30816 67.4115 8.09823C67.7063 7.65602 68.1977 7.44163 68.9123 7.44163H69.9531V6.32495H60.8142V7.44163H61.8416C62.4937 7.44163 62.9627 7.60243 63.2396 7.91956C63.4362 8.14289 63.6684 8.71463 63.6684 10.1574V17.9964C63.6684 20.471 63.8292 22.1192 64.1598 23.0349C64.6511 24.3704 65.4998 25.4469 66.6835 26.2375C67.8627 27.0281 69.5913 27.4257 71.8336 27.4257C73.8927 27.4257 75.5543 27.0103 76.7693 26.1884C77.9842 25.3665 78.8106 24.357 79.2304 23.1957C79.6414 22.0611 79.8468 20.4576 79.8468 18.4252V10.3048C79.8468 8.91117 80.0076 8.46003 80.1059 8.31263C80.4766 7.72302 80.9858 7.44163 81.6692 7.44163H82.701V6.32495H82.4152" fill="white"/>
<path d="M95.324 8.39733C96.1548 8.23653 96.8382 8.15166 97.334 8.15166C98.5266 8.15166 99.4959 8.51793 100.215 9.24154C100.939 9.97408 101.296 10.9031 101.296 12.0868C101.296 13.2884 100.854 14.2532 99.9515 15.0304C99.0492 15.8076 97.669 16.2051 95.8555 16.2051C95.7796 16.2051 95.6813 16.2007 95.5294 16.1962C95.4758 16.1962 95.4044 16.1917 95.324 16.1917V8.39733ZM106.781 25.1966C106.138 24.7812 105.343 23.9147 104.423 22.6238C104.418 22.6193 101.403 18.4519 100.51 17.2146C102.042 16.8126 103.212 16.1739 103.985 15.3029C104.834 14.347 105.267 13.199 105.267 11.8992C105.267 10.6798 104.887 9.61227 104.141 8.72787C103.404 7.85686 102.493 7.24939 101.43 6.92332C100.394 6.60172 98.7812 6.44092 96.6327 6.44092H89.0393V7.55759H90.0711C90.7456 7.55759 91.228 7.74073 91.5541 8.11146C91.6836 8.2544 91.8935 8.7234 91.8935 10.2733V23.2715C91.8935 24.6829 91.7283 25.1385 91.6345 25.2859C91.3263 25.7549 90.8171 25.9827 90.0711 25.9827H89.0393V27.0994H98.1782V25.9827H97.1151C96.454 25.9827 95.9806 25.8041 95.6634 25.4333C95.5339 25.2904 95.324 24.8214 95.324 23.2715V17.7149C95.3731 17.7193 95.4267 17.7238 95.4758 17.7238C95.6054 17.7283 95.7438 17.7283 95.8868 17.7283C96.1726 17.7283 96.53 17.7193 96.9409 17.7059L103.677 26.9833L103.762 27.0994H109.582V26.014L109.323 25.9872C108.277 25.8711 107.424 25.6075 106.781 25.1966Z" fill="white"/>
<path d="M115.741 6.44995H115.455V7.56663H116.447C116.867 7.56663 117.273 7.67383 117.662 7.88823C117.903 8.0267 118.064 8.19196 118.135 8.37956C118.216 8.5761 118.31 9.06743 118.31 10.2824V23.276C118.31 24.7634 118.122 25.2369 118.01 25.3843C117.698 25.7908 117.184 25.9918 116.447 25.9918H115.455V27.1085H124.594V25.9918H123.589C123.174 25.9918 122.772 25.8846 122.397 25.6746C122.146 25.5317 121.981 25.3664 121.91 25.1833C121.829 24.9868 121.74 24.491 121.74 23.276V10.2824C121.74 8.79497 121.932 8.32597 122.044 8.17857C122.361 7.76763 122.866 7.56663 123.589 7.56663H124.594V6.44995H124.304" fill="white"/>
<path d="M154.588 7.27612V6.44531H147.021V7.56199H148.009C148.71 7.56199 149.224 7.74065 149.532 8.09352C149.661 8.23646 149.876 8.70547 149.876 10.2286V20.9889L137.999 6.55252L137.914 6.44531H132.04V7.56199H132.33C132.88 7.56199 133.291 7.60665 133.545 7.68706C134.095 7.86572 134.51 8.0578 134.792 8.2588C135.051 8.45087 135.462 8.8752 135.993 9.50053V23.325C135.993 24.7275 135.823 25.1876 135.716 25.3395C135.417 25.7772 134.894 25.9871 134.126 25.9871H133.139V27.1038H140.706V25.9871H139.705C139.008 25.9871 138.495 25.8085 138.177 25.4556C138.057 25.3171 137.851 24.8526 137.851 23.325V11.7473L150.698 27.3272L150.782 27.4299H151.729V10.2286C151.729 8.82607 151.904 8.366 152.006 8.21413C152.31 7.77639 152.824 7.56199 153.583 7.56199H154.588" fill="white"/>
<path d="M167.885 11.6134L170.784 18.6976H164.808L167.885 11.6134ZM179.409 25.9828C178.659 25.9381 178.074 25.7371 177.667 25.3798C177.239 25.0091 176.747 24.1649 176.211 22.8695L169.373 6.17745L169.297 5.99878H168.319L168.243 6.17298L161.06 22.664C160.466 24.0889 159.926 25.0359 159.452 25.4825C159.336 25.5942 158.992 25.8086 157.974 25.9873L157.737 26.0319V27.0995H164.616V26.0051L164.348 25.9828C163.222 25.9024 162.784 25.7282 162.619 25.5942C162.396 25.42 162.289 25.2279 162.289 25.0091C162.289 24.7723 162.373 24.2944 162.771 23.3742C162.771 23.3742 163.781 21.056 164.062 20.4084H171.486C171.74 21.0292 172.598 23.1196 172.598 23.1241C172.977 24.013 173.17 24.6651 173.17 25.0537C173.17 25.286 173.067 25.4825 172.852 25.6523C172.696 25.7773 172.312 25.9426 171.401 25.9828L171.124 25.9962V27.0995H179.682V26.0007" fill="white"/>
<path d="M0.969238 32.0351H31.9994V0.982178H0.969238V32.0351Z" fill="#ED2232"/>
<path d="M2.0188 30.9274H30.829V2.09033H2.0188V30.9274Z" fill="white"/>
<path d="M3.18921 12.0735H12.0511V3.20264H3.18921V12.0735Z" fill="#ED2232"/>
<path d="M20.9175 12.0735H29.7839V3.20264H20.9175V12.0735Z" fill="#ED2232"/>
<path d="M12.051 20.9443H20.9174V12.073H12.051V20.9443Z" fill="#ED2232"/>
<path d="M3.18921 29.8197H12.0511V20.9443H3.18921V29.8197Z" fill="#ED2232"/>
<path d="M20.9175 29.8197H29.7839V20.9443H20.9175V29.8197Z" fill="#ED2232"/>
</svg>
