<svg width="169" height="169" viewBox="0 0 169 169" fill="none" xmlns="http://www.w3.org/2000/svg">
<g clip-path="url(#clip0_149_1794)">
<path fill-rule="evenodd" clip-rule="evenodd" d="M81.6845 67.5175C83.195 67.5175 84.4396 66.2729 84.4396 64.7398C84.4396 63.2067 83.1958 61.963 81.6845 61.963C80.9565 61.9759 80.2626 62.2742 79.7523 62.7936C79.242 63.3131 78.956 64.0121 78.956 64.7403C78.956 65.4684 79.242 66.1675 79.7523 66.6869C80.2626 67.2063 80.9565 67.5046 81.6845 67.5175ZM81.6845 73.8704C83.195 73.8704 84.4396 72.6258 84.4396 71.0927C84.4396 69.5605 83.1958 68.3159 81.6845 68.3159C80.9482 68.3163 80.2422 68.609 79.7215 69.1297C79.2009 69.6504 78.9082 70.3564 78.9077 71.0927C78.9079 71.8292 79.2005 72.5354 79.7212 73.0562C80.2419 73.5771 80.9481 73.8699 81.6845 73.8704ZM71.577 72.2711C71.5772 73.0077 71.8699 73.7141 72.3908 74.2349C72.9116 74.7558 73.618 75.0485 74.3546 75.0487C74.904 75.0487 75.4411 74.8858 75.8978 74.5806C76.3546 74.2754 76.7107 73.8416 76.9209 73.334C77.1311 72.8265 77.1861 72.268 77.079 71.7292C76.9718 71.1903 76.7072 70.6954 76.3188 70.3069C75.9303 69.9185 75.4354 69.6539 74.8965 69.5467C74.3577 69.4396 73.7992 69.4946 73.2917 69.7048C72.7841 69.915 72.3503 70.2711 72.0451 70.7279C71.7399 71.1846 71.577 71.7217 71.577 72.2711ZM89.1051 74.7141C89.8414 74.7136 90.5474 74.4209 91.0681 73.9002C91.5887 73.3796 91.8814 72.6736 91.8819 71.9372C91.8819 71.2006 91.5892 70.494 91.0683 69.9731C90.5474 69.4522 89.8409 69.1596 89.1042 69.1596C88.3675 69.1596 87.661 69.4522 87.1401 69.9731C86.6192 70.494 86.3265 71.2006 86.3265 71.9372C86.327 72.6739 86.6199 73.3801 87.1409 73.9009C87.662 74.4216 88.3684 74.7141 89.1051 74.7141ZM90.4595 68.4501C91.969 68.4501 93.2136 67.2055 93.2136 65.6733C93.2136 64.1402 91.969 62.8956 90.4595 62.8956C89.7229 62.8956 89.0165 63.1882 88.4957 63.709C87.9748 64.2299 87.6822 64.9363 87.6822 65.6728C87.6822 66.4094 87.9748 67.1158 88.4957 67.6367C89.0165 68.1575 89.7229 68.4501 90.4595 68.4501ZM72.8878 68.5834C74.42 68.5834 75.6646 67.3171 75.6646 65.8058C75.6641 65.0694 75.3714 64.3634 74.8508 63.8428C74.3301 63.3221 73.6241 63.0294 72.8878 63.0289C72.1513 63.0292 71.4451 63.3218 70.9242 63.8425C70.4034 64.3631 70.1106 65.0693 70.1101 65.8058C70.1101 67.3171 71.3547 68.5834 72.8878 68.5834ZM96.1247 71.7377C95.6122 71.7377 95.1241 71.8701 94.7014 72.1368C93.8795 72.604 93.3461 73.4921 93.3461 74.5145C93.3461 75.5142 93.8786 76.4032 94.7014 76.8921C95.1232 77.1361 95.6122 77.2913 96.1247 77.2913C97.6569 77.2913 98.9015 76.0249 98.9015 74.5145C98.9013 73.7781 98.6086 73.0719 98.0879 72.5512C97.5672 72.0305 96.8611 71.7379 96.1247 71.7377ZM98.857 65.8284C97.3231 65.8284 96.0802 67.0948 96.0802 68.6052C96.0802 69.3417 96.3728 70.048 96.8935 70.5687C97.4143 71.0895 98.1206 71.3821 98.857 71.3821C99.5935 71.3821 100.3 71.0895 100.821 70.5687C101.341 70.048 101.634 69.3417 101.634 68.6052C101.634 67.0948 100.389 65.8284 98.857 65.8284ZM94.7023 78.4688C86.506 74.1589 77.8418 73.8704 69.045 78.3136C68.9117 78.3807 68.801 78.447 68.6894 78.4914C67.8449 79.1582 67.5791 79.7578 67.8902 80.313C68.068 80.8237 68.5116 80.8909 69.045 80.7566C69.2446 80.7122 69.4669 80.6459 69.6891 80.557C78.0858 76.0693 86.6612 75.7591 94.5253 80.646C94.5916 80.6677 94.636 80.6904 94.7023 80.7122C95.0805 80.8682 95.4579 80.8229 95.9687 80.4455C96.1473 79.8232 95.9905 79.3351 95.6131 78.9569C95.3167 78.7811 95.0128 78.6182 94.7023 78.4688Z" fill="#CC2229"/>
<path fill-rule="evenodd" clip-rule="evenodd" d="M94.3702 81.4234C87.4604 76.8023 79.3748 76.3796 70.0438 81.0233C69.3108 81.6012 69.0668 82.1564 69.3335 82.6453C69.5558 83.2894 70.2225 83.1343 70.9546 82.8676C78.5303 78.8243 86.282 78.535 93.3931 82.9565C93.7915 83.156 94.1697 83.156 94.6822 82.7569C94.6822 82.7342 94.6822 82.7124 94.7022 82.6898C94.7686 82.4499 94.7686 82.1966 94.7022 81.9568C94.6346 81.7555 94.5209 81.5729 94.3702 81.4234ZM70.3105 74.6705C70.3104 74.207 70.1944 73.7509 69.9733 73.3436C69.7521 72.9363 69.4328 72.5907 69.0441 72.3381C68.5952 72.045 68.0699 71.8904 67.5337 71.8936C66.0233 71.8936 64.756 73.1374 64.756 74.6705C64.756 76.2035 66.0224 77.4473 67.5337 77.4473C68.0889 77.4473 68.5996 77.2921 69.0441 77.0028C69.4326 76.7501 69.7519 76.4045 69.9731 75.9972C70.1942 75.5899 70.3102 75.1339 70.3105 74.6705ZM67.2888 68.7386C67.2953 68.3697 67.2282 68.0033 67.0915 67.6606C66.9548 67.318 66.7513 67.006 66.4927 66.7428C66.2341 66.4797 65.9257 66.2707 65.5855 66.1281C65.2453 65.9855 64.88 65.9121 64.5111 65.9121C64.1422 65.9122 63.777 65.9857 63.4368 66.1285C63.0966 66.2712 62.7883 66.4803 62.5298 66.7435C62.2713 67.0067 62.0678 67.3187 61.9312 67.6614C61.7947 68.0041 61.7277 68.3706 61.7343 68.7394C61.7473 69.4675 62.0457 70.1613 62.5652 70.6715C63.0847 71.1818 63.7838 71.4676 64.512 71.4675C65.2402 71.4674 65.9392 71.1813 66.4585 70.6709C66.9779 70.1605 67.276 69.4666 67.2888 68.7386ZM52.9166 88.9537C53.2269 87.7544 53.0718 86.9543 52.4268 86.577C51.7827 86.0209 51.0942 85.8431 50.3612 86.0436C50.2061 86.1107 50.0283 86.1769 49.8505 86.2658C48.0062 88.2434 46.1402 90.1983 44.275 92.175C42.2975 90.1974 40.387 88.3323 38.3876 86.3538C37.6764 85.8649 36.8327 85.9764 36.2322 86.3538C36.0544 86.4654 35.8993 86.577 35.7877 86.7094C35.0992 87.642 35.0103 88.6644 35.521 89.4871C35.7651 89.7312 35.9873 89.9761 36.2313 90.2201C38.2525 92.4191 40.2972 94.6189 42.341 96.8179V105.104C42.8744 106.192 43.5848 106.725 44.4511 106.637C45.5624 106.637 46.162 106.104 46.5394 105.26V96.6401C47.8058 95.107 49.094 93.5521 50.3603 92.019C51.2276 90.9984 52.0721 89.9543 52.9166 88.9537ZM62.7349 85.6444C61.7125 85.3768 60.9577 85.6879 60.4025 86.488C59.7802 87.2428 59.1806 88.0211 58.5801 88.7977C55.7362 92.4417 53.0483 96.2182 50.3603 99.9947C49.5158 101.216 48.6495 102.416 47.7831 103.639C47.5164 104.706 47.7831 105.527 48.5823 106.104C49.182 106.483 49.7816 106.637 50.3595 106.571C50.71 106.52 51.0487 106.407 51.3592 106.237C52.3588 104.948 53.3367 103.639 54.3364 102.35H60.0016V105.016C60.3572 106.06 61.112 106.593 62.2895 106.593C63.467 106.593 64.1782 106.016 64.4222 104.838V87.3326C64.268 86.244 63.7128 85.667 62.7349 85.6444ZM58.581 97.9518C58.1591 97.9518 57.7146 97.9518 57.2919 97.9736C57.6722 97.2906 58.1031 96.6372 58.581 96.0187C58.9592 95.5297 59.3811 95.0634 59.8256 94.5971C59.8256 95.7075 59.87 96.8405 59.87 97.9291C59.4246 97.9291 59.0037 97.9291 58.581 97.9518ZM26.8576 86.088C21.9263 86.088 17.7715 89.5316 16.7056 94.1308C16.5505 94.8856 16.4389 95.663 16.4389 96.4631C16.4389 97.2632 16.5496 98.0407 16.7056 98.7963C17.7724 103.417 21.9263 106.86 26.8576 106.86C30.9671 106.86 34.544 104.439 36.2322 100.952C36.9015 99.5501 37.2507 98.0172 37.2546 96.464C37.2546 94.8647 36.8763 93.3316 36.2322 91.9772C34.5449 88.5101 30.9679 86.088 26.8576 86.088ZM26.8576 102.084C23.7479 102.084 21.2369 99.5511 21.2369 96.4631C21.2369 93.3752 23.747 90.8433 26.8576 90.8433C29.9447 90.8433 32.4775 93.3752 32.4775 96.4631C32.4775 99.5511 29.9456 102.084 26.8576 102.084Z" fill="#CC2229"/>
<path fill-rule="evenodd" clip-rule="evenodd" d="M16.7056 103.705L13.4398 98.9062C13.9732 98.2839 14.5284 97.6851 15.0845 97.0846C15.9055 95.6849 16.3508 94.1971 16.2175 92.5751C15.9281 90.5975 15.284 89.0871 14.1519 88.1763C12.9299 86.9317 11.4186 86.1987 9.50904 86.2658C9.41926 86.2658 9.35302 86.2876 9.28591 86.2876C7.73104 86.5099 6.33217 86.977 4.97688 87.9985C3.91008 88.9311 3.1553 90.0423 2.55566 91.6425L2.82236 104.482C3.08906 106.214 3.91095 107.059 5.24358 107.037C6.31038 106.993 6.99892 106.393 7.33186 105.26C7.35452 103.461 7.39897 101.639 7.42076 99.8178C7.31007 99.5729 7.39897 99.3507 7.64301 99.2173C8.24265 99.3507 8.35334 99.7952 8.57559 100.173C8.79784 100.484 9.04275 100.773 9.28591 101.062C10.7301 102.906 12.197 104.728 13.6621 106.55C14.6617 107.016 15.5507 106.95 16.3055 106.328C16.4615 106.128 16.6167 105.928 16.7056 105.705C17.0167 105.083 17.083 104.461 16.75 103.772C16.75 103.749 16.7274 103.727 16.7056 103.705ZM9.28504 95.3972C7.97508 95.3972 6.93094 94.3531 6.93094 93.0641C6.93094 91.775 7.97508 90.7091 9.28504 90.7091C10.5741 90.7091 11.6182 91.7759 11.6182 93.0641C11.6182 94.3522 10.5741 95.3972 9.28504 95.3972ZM143.798 85.5999C142.577 85.5999 141.71 86.1778 141.465 87.5993V104.616C141.844 105.993 142.687 106.393 143.709 106.371C144.82 106.349 145.753 105.927 146.308 104.594V87.5104C145.952 86.1778 145.13 85.5328 143.798 85.5999ZM163.326 85.4657C162.237 85.511 161.571 86.0654 161.238 86.9544V97.1064C159.039 93.4632 156.839 89.7974 154.64 86.1769C153.906 85.4439 152.907 85.2661 151.618 85.6662C150.663 85.9991 150.064 86.665 149.797 87.6647V104.659C149.841 105.77 150.597 106.281 152.063 106.237C153.218 106.148 153.929 105.616 154.218 104.659C154.196 101.128 154.196 97.5727 154.174 94.0402C156.329 97.7231 158.476 101.411 160.615 105.103C161.104 105.859 161.837 106.325 163.148 106.125C164.37 106.081 165.148 105.415 165.615 104.304V86.9988C165.192 85.9555 164.414 85.4448 163.326 85.4657ZM136.023 85.6444C134.934 85.688 134.268 86.244 133.935 87.1322V97.2842C131.736 93.641 129.536 89.9752 127.337 86.3538C126.626 85.6209 125.605 85.4439 124.315 85.8431C123.383 86.1769 122.761 86.8428 122.494 87.8425V104.859C122.538 105.948 123.294 106.458 124.782 106.414C125.916 106.325 126.625 105.792 126.915 104.859C126.893 101.305 126.893 97.7505 126.87 94.218L133.335 105.281C133.802 106.036 134.534 106.502 135.845 106.303C137.089 106.259 137.845 105.593 138.311 104.481V87.1757C137.888 86.1333 137.133 85.6217 136.023 85.6444ZM100.767 99.7063C99.4122 101.039 98.0795 101.816 96.8132 101.994C95.1023 102.216 93.7696 101.928 92.8806 101.105C91.6822 100.216 90.9039 99.1276 90.5483 97.8176C90.259 96.6401 90.2807 95.419 90.6146 94.1309C91.0146 92.9525 91.7703 92.0426 92.8806 91.3758C93.8594 90.7317 94.9689 90.4868 96.1691 90.465C97.7013 90.5313 98.9677 91.2869 100.079 92.1541C101.211 92.9534 102.122 92.9534 103.145 92.1986C103.855 91.2433 104.056 90.2654 103.256 89.0662C102.988 88.6217 101.611 85.8449 95.8797 85.7342C90.1483 85.6008 85.4819 90.377 85.4819 96.1084C85.4819 101.839 90.1483 106.505 95.8797 106.505C101.611 106.505 103.033 103.772 103.656 102.729C104.078 101.685 103.988 100.818 103.366 100.173C102.679 99.5067 101.879 99.2618 100.767 99.7063ZM110.919 88.7986C110.325 88.0191 109.717 87.2491 109.098 86.4889C108.543 85.6888 107.787 85.3786 106.766 85.6453C105.787 85.6671 105.21 86.2449 105.076 87.3335V104.839C105.3 106.016 106.009 106.594 107.186 106.594C108.386 106.594 109.141 106.062 109.497 105.017V102.351H115.162C116.161 103.64 117.139 104.949 118.138 106.238C119.05 106.727 119.983 106.683 120.916 106.105C121.716 105.527 121.982 104.706 121.716 103.64C118.161 98.6621 114.673 93.6419 110.919 88.7986ZM110.919 97.9518C110.498 97.93 110.053 97.93 109.63 97.93C109.63 96.8414 109.675 95.7084 109.675 94.598C110.119 95.0643 110.541 95.5306 110.919 96.0195C111.386 96.6192 111.808 97.2641 112.209 97.9745C111.764 97.9518 111.341 97.9518 110.919 97.9518ZM77.1976 101.883H71.8218V87.3762C71.7556 85.0883 67.2896 85.1101 67.2896 87.3762V104.971C67.3568 105.704 67.6226 106.104 68.1115 106.171H77.1976C79.53 106.126 79.5744 101.795 77.1976 101.883Z" fill="#CC2229"/>
</g>
<defs>
<clipPath id="clip0_149_1794">
<rect width="168" height="168" fill="white" transform="translate(0.0839233 0.5)"/>
</clipPath>
</defs>
</svg>
