<svg width="523" height="408" viewBox="0 0 523 408" fill="none" xmlns="http://www.w3.org/2000/svg">
<g clip-path="url(#clip0_315_3001)">
<path d="M125.056 126.623L124.534 250.809L87.9573 255.337C50.1618 260.214 24.7326 264.046 9.05699 267.529L0 269.445L0.348346 326.226L0.870864 383.18L13.9338 386.141C78.552 401.12 226.773 411.57 312.64 406.868C380.742 403.21 466.609 393.282 513.462 383.877L522.519 382.135L522.17 327.096L521.648 272.058L504.231 268.052C476.363 261.782 439.612 255.337 418.015 252.899L397.985 250.634L397.114 129.759C396.417 35.3568 395.721 8.88253 394.153 8.18584C392.412 7.66332 391.889 34.6601 391.889 139.164V270.839H130.63V7.83749L261.782 7.48915C333.715 7.48915 393.805 7.31497 395.024 7.31497C396.069 7.48915 397.114 6.44411 397.114 5.05073C397.114 3.13482 374.82 2.6123 261.259 2.6123H125.404L125.056 126.623ZM175.74 293.655C181.314 295.571 182.533 298.358 179.224 301.667C177.831 303.061 175.915 303.061 172.257 301.667C168.425 300.1 166.683 300.274 165.116 301.841C162.503 304.454 164.419 306.37 172.954 309.157C190.197 314.556 184.101 335.108 165.638 333.018C161.632 332.496 156.93 330.928 155.362 329.361C152.75 326.922 152.75 326.4 155.188 323.787C157.452 321.697 158.672 321.523 162.503 323.265C167.728 325.529 172.431 324.31 172.431 320.652C172.431 319.084 169.47 317.169 165.464 315.949C161.632 314.73 157.626 312.814 156.581 311.421C153.098 307.241 154.317 299.925 159.194 295.745C164.419 291.217 167.728 290.868 175.74 293.655ZM220.155 294.178C227.47 297.313 229.212 300.1 225.902 303.409C223.464 305.847 222.767 305.847 219.284 303.235C213.884 299.403 209.704 299.751 205.35 304.106C200.125 309.331 201.344 319.433 207.788 323.09C212.143 325.529 213.013 325.355 217.89 322.568C222.07 320.304 223.986 319.955 225.728 321.523C229.386 324.484 228.689 326.226 222.593 330.057C215.278 334.412 207.962 334.412 200.996 330.232C190.893 324.135 188.803 306.892 197.338 299.229C206.047 291.391 210.923 290.346 220.155 294.178ZM431.949 296.79C442.225 304.28 443.096 318.039 433.865 327.271C429.162 331.799 427.072 332.67 419.931 332.67C410.177 332.67 405.126 329.186 401.12 319.955C399.378 315.601 399.204 312.64 400.598 307.589C404.429 293.307 419.931 287.907 431.949 296.79ZM61.8314 297.835C64.2698 300.1 66.1857 303.931 66.1857 306.196C66.1857 311.421 59.7413 317.517 52.6002 318.91C47.7234 319.955 47.0267 320.652 47.0267 325.877C47.0267 331.102 46.5042 331.799 42.6724 331.799H38.318V293.481H47.8975C55.9095 293.481 58.3479 294.178 61.8314 297.835ZM99.4527 296.616C104.155 300.622 104.678 309.331 100.498 314.033C97.8852 316.82 98.0593 317.691 101.891 324.484L106.071 331.799H101.02C96.8401 331.799 95.2726 330.58 92.3116 324.658C87.9573 316.298 84.4739 316.646 84.4739 325.355C84.4739 331.277 83.9513 331.799 79.7712 331.799H74.8943V293.481H85.1705C92.4858 293.481 96.4918 294.352 99.4527 296.616ZM142.822 297.835C142.822 301.841 142.299 302.19 134.113 302.19C126.798 302.19 125.404 302.712 125.404 305.499C125.404 307.937 126.624 308.634 132.023 308.46C137.422 308.286 138.467 308.982 138.99 312.118C139.512 315.775 138.816 316.124 132.546 316.124C126.275 316.124 125.404 316.472 125.404 320.478C125.404 324.484 125.927 324.832 134.984 324.832C143.344 324.832 144.563 325.18 144.563 328.316C144.563 331.451 143.344 331.799 129.759 331.799H114.954V293.481H128.888C142.648 293.481 142.822 293.481 142.822 297.835ZM261.956 297.139C267.181 301.319 267.878 307.241 263.524 313.685C260.911 317.865 260.911 318.388 264.569 325.006L268.4 331.799H263.175C258.647 331.799 257.253 330.58 254.292 324.832C252.377 321 249.938 317.865 249.067 317.865C248.022 317.865 247.326 321 247.326 324.832C247.326 331.102 246.977 331.799 242.971 331.799H238.617V293.481H248.022C254.815 293.481 258.473 294.526 261.956 297.139ZM287.385 312.64V331.799H278.677V293.481H287.385V312.64ZM323.613 296.268C326.4 298.184 327.445 300.622 327.445 305.499C327.445 313.511 323.439 317.517 314.556 319.084C308.809 319.955 308.286 320.478 308.286 325.877C308.286 331.277 307.763 331.799 303.932 331.799H299.577V293.481H309.679C315.95 293.481 321.175 294.526 323.613 296.268ZM370.64 297.313C370.292 300.448 368.898 301.493 364.021 301.841L357.925 302.364L358.448 316.994L358.97 331.799H348.346V302.19H342.25C336.85 302.19 336.154 301.667 336.154 297.835V293.481H353.745C370.814 293.481 371.162 293.481 370.64 297.313ZM388.406 312.64V331.799H379.697V293.481H388.406V312.64ZM467.132 304.802C471.312 310.898 474.969 316.124 475.492 316.124C476.015 316.124 476.015 311.072 475.84 304.802L475.144 293.481H485.942V331.799H481.066C477.234 331.799 474.969 329.883 468.525 320.304L460.687 308.634L460.165 320.304C459.642 331.277 459.468 331.799 455.462 331.799H451.108V293.481H455.462C458.946 293.481 461.384 295.919 467.132 304.802ZM219.632 349.739C226.947 354.616 229.386 362.453 226.599 371.685C223.812 381.09 218.064 384.399 203.956 384.748L192.461 384.922L191.939 365.24L191.416 345.733H202.563C211.272 345.733 214.929 346.604 219.632 349.739ZM247.326 347.823V367.679C247.326 385.793 247.326 385.967 243.494 385.444C239.662 384.922 239.488 384.225 238.965 365.24L238.443 345.559L242.971 346.081C245.41 346.43 247.326 347.126 247.326 347.823ZM287.385 350.087C287.385 354.093 286.863 354.442 278.677 354.442C271.187 354.442 269.968 354.964 269.968 357.925C269.968 360.886 271.187 361.408 276.935 361.408C282.683 361.408 283.902 361.931 283.902 364.892C283.902 367.853 282.683 368.375 276.935 368.375C270.665 368.375 269.968 368.724 269.968 372.73C269.968 376.736 270.491 377.084 279.722 377.084C288.953 377.084 289.301 377.258 288.779 380.916C288.256 384.573 287.211 384.922 274.845 385.444L261.259 385.967V345.733H274.322C287.037 345.733 287.385 345.907 287.385 350.087ZM330.928 350.087C330.928 353.919 330.232 354.442 324.832 354.442H318.736V385.967L314.034 385.444C310.782 385.096 308.983 379.813 308.634 369.595L308.112 354.442H302.19C296.791 354.442 296.094 353.919 296.094 350.087V345.733H330.928V350.087Z" fill="#0056A3"/>
<path d="M414.009 304.106C405.823 310.376 409.829 324.832 419.757 324.832C424.808 324.832 430.207 318.736 430.207 312.989C430.207 302.887 421.498 298.01 414.009 304.106Z" fill="#0056A3"/>
<path d="M47.0264 305.673C47.0264 310.376 47.5489 311.073 51.0323 310.55C53.8191 310.202 54.8641 308.809 54.8641 305.673C54.8641 302.538 53.8191 301.145 51.0323 300.797C47.5489 300.274 47.0264 300.971 47.0264 305.673Z" fill="#0056A3"/>
<path d="M84.2998 303.06C83.6032 304.454 83.7773 306.892 84.2998 308.46C85.6932 312.117 93.0085 310.898 93.7052 306.718C94.7502 301.319 86.2157 298.009 84.2998 303.06Z" fill="#0056A3"/>
<path d="M247.325 305.673C247.325 310.376 247.848 311.073 251.331 310.55C254.118 310.202 255.163 308.809 255.163 305.673C255.163 302.538 254.118 301.145 251.331 300.797C247.848 300.274 247.325 300.971 247.325 305.673Z" fill="#0056A3"/>
<path d="M309.854 300.797C309.854 301.145 309.332 303.583 308.983 306.196C308.287 310.724 308.461 311.073 312.989 310.55C320.827 309.679 320.13 300.622 312.293 300.448C311.073 300.448 310.028 300.622 309.854 300.797Z" fill="#0056A3"/>
<path d="M202.041 365.763C202.041 376.388 202.215 377.084 206.047 377.084C212.665 377.084 217.716 372.382 217.716 365.937C217.716 359.145 213.188 354.442 206.743 354.442C202.215 354.442 202.041 354.616 202.041 365.763Z" fill="#0056A3"/>
<path d="M399.675 2.6123H125.405V271.187H399.675V2.6123Z" fill="white" stroke="#606060" stroke-width="5.22519" stroke-miterlimit="10"/>
<g clip-path="url(#clip1_315_3001)">
<path d="M393.15 60.6403C387.986 60.4865 382.827 60.3273 377.663 60.4865C366.874 60.6403 355.924 61.4253 345.129 63.1386C343.567 63.4515 342 63.6053 340.438 63.9183C317.605 67.8222 294.925 75.3171 273.027 85.9361C271.465 86.7159 269.898 87.4956 268.336 88.2806C263.799 90.6198 259.421 92.9642 254.884 95.6217C253.322 96.5552 251.755 97.3402 250.193 98.4329C227.046 112.176 204.68 129.977 182.628 151.369C181.066 152.775 179.499 154.334 177.937 155.899C174.967 159.023 171.992 161.988 169.022 165.112C168.868 165.266 168.555 165.579 168.395 165.892C166.988 167.298 165.739 168.703 164.331 170.263C164.177 170.263 163.864 170.417 163.864 170.73L169.336 165.733C169.49 165.579 169.649 165.266 169.803 165.107C173.713 161.203 176.37 158.546 177.623 157.299C179.031 155.894 180.593 154.334 182.314 152.769C204.68 131.377 227.36 113.73 250.193 99.987C251.755 98.8944 253.322 98.1147 254.884 97.1758C259.421 94.5237 263.799 92.1792 268.336 89.8348C269.898 89.055 271.465 88.2753 273.027 87.4903C294.925 76.8712 317.599 69.3763 340.438 65.4724C342 65.3186 343.567 65.0057 345.129 64.6927C349.199 64.0668 353.103 63.6 357.173 63.1333C368.903 61.4147 380.947 60.635 393.144 60.635L393.15 60.6403Z" fill="#6F85C2"/>
<path d="M393.149 60.6404C380.952 60.6404 368.908 61.4201 357.178 63.1387C353.108 63.9184 349.204 64.6981 345.134 65.4831C343.572 65.9499 342.005 66.2629 340.443 66.7349V152.775H273.032L268.341 157.458H345.134V67.5094C357.018 65.0111 369.062 62.9795 380.952 62.046C386.583 61.4201 392.214 61.1072 398 60.9533C396.438 60.7995 394.871 60.7995 393.149 60.6404Z" fill="#08296C"/>
<path d="M340.444 66.7296C342.006 66.2628 343.573 65.9498 345.135 65.4778C349.204 64.698 353.109 63.9183 357.178 63.1333C353.109 63.6001 349.204 64.0721 345.135 64.6927C343.573 65.0057 342.006 65.3186 340.444 65.4725C317.61 69.3764 294.931 76.8713 273.032 87.4903C271.47 88.27 269.903 89.0498 268.341 89.8348C263.804 92.1793 259.427 94.5184 254.89 97.1758C253.328 98.1147 251.761 98.8944 250.199 99.9871C227.365 113.73 204.686 131.372 182.32 152.769H250.199V104.363C251.761 103.424 253.328 102.332 254.89 101.552C259.427 98.8997 263.804 96.5552 268.341 94.0569C269.903 93.2772 271.47 92.4975 273.032 91.7125V152.769H340.444V66.7296Z" fill="#17479E"/>
<path d="M268.341 95.9293L273.032 91.7124C271.47 92.4921 269.903 93.2718 268.341 94.0569C263.804 96.5552 259.426 98.8996 254.889 101.552C253.327 102.331 251.76 103.424 250.198 104.363V152.769H182.319C180.598 154.334 179.036 155.894 177.628 157.299C176.375 158.551 173.718 161.203 169.808 165.107C169.654 165.261 169.495 165.574 169.341 165.733C169.495 165.579 169.654 165.266 169.968 165.107C174.659 160.89 177.788 158.392 179.196 157.453H254.895V103.111C259.432 100.613 263.809 98.1146 268.346 95.9293H268.341Z" fill="#08296C"/>
<path d="M273.032 91.7178L268.341 95.9346V157.458L273.032 152.775V91.7178Z" fill="#536493"/>
<path d="M351.233 52.9864C357.178 52.5196 363.277 52.2067 369.376 52.0476C359.994 51.5808 350.92 51.8937 341.851 53.2994H341.697C341.23 53.4532 340.916 53.4532 340.444 53.4532C318.078 56.5774 295.398 63.7593 273.032 74.6913C271.47 75.3172 269.903 76.0969 268.341 76.8767C263.804 79.2211 259.427 81.5603 254.89 84.0586C253.328 84.9974 251.761 85.931 250.199 86.8698C227.679 100.3 205.153 117.475 182.633 138.247C181.071 139.806 179.504 141.212 177.942 142.617C175.907 144.649 173.878 146.675 171.684 148.707C166.679 154.016 161.516 159.479 156.357 165.102C156.203 165.256 156.044 165.569 155.73 165.882C154.476 167.287 153.228 168.693 151.98 170.252C150.418 171.812 148.85 173.53 147.289 175.249C147.134 175.562 146.975 175.716 146.662 175.875C145.721 177.127 144.786 178.373 144.005 179.625C145.1 178.219 146.194 176.967 147.289 175.721C149.01 173.849 150.731 171.971 152.452 170.258C153.701 168.693 155.268 167.293 156.517 165.887C156.83 165.574 156.984 165.261 157.143 165.107C158.084 164.327 158.865 163.235 159.8 162.455C163.71 158.238 167.62 154.334 171.684 150.277C173.719 148.245 175.753 146.219 177.942 144.187C179.504 142.782 181.071 141.376 182.633 139.817C205.153 118.738 227.679 101.557 250.199 88.1269C251.761 87.1881 253.328 86.2545 254.89 85.4748C259.427 82.8174 263.804 80.4782 268.341 78.1337C269.903 77.354 271.47 76.5743 273.032 75.7893C295.398 64.8573 318.078 57.6753 340.444 54.3973C342.005 54.2435 343.573 53.9306 345.135 53.6176C347.169 53.4638 349.204 53.3047 351.233 52.9917V52.9864Z" fill="#9E0B0F"/>
<path d="M369.376 52.0528C366.874 51.899 364.371 51.7399 362.023 51.4269C356.238 51.114 350.76 51.114 345.129 51.2731H340.438C317.759 52.6787 295.239 58.3012 273.027 68.4482C271.465 69.0741 269.898 69.8538 268.336 70.6335C263.799 72.6651 259.421 75.0042 254.884 77.5025C253.322 78.4414 251.755 79.3749 250.193 80.1546C227.36 93.7388 204.834 111.853 182.628 134.656C181.066 136.374 179.499 137.934 177.937 139.652C170.43 147.614 162.923 156.048 155.571 165.107C155.257 165.261 155.103 165.574 154.944 165.887C154.63 166.041 154.476 166.354 154.163 166.826C153.223 167.918 152.288 169.011 151.347 170.263C150.099 171.822 148.691 173.541 147.283 175.106C147.129 175.419 146.97 175.732 146.656 175.885C146.97 175.732 147.124 175.572 147.283 175.259C148.845 173.541 150.412 171.822 151.974 170.263C153.228 168.698 154.476 167.298 155.725 165.892C156.038 165.579 156.192 165.266 156.352 165.112C161.51 159.49 166.674 154.027 171.679 148.717C173.867 146.532 175.748 144.187 177.937 142.002C179.499 140.283 181.066 138.724 182.628 137.159C204.84 114.202 227.36 95.9347 250.193 82.5044C251.755 81.5656 253.322 80.4729 254.884 79.6932C259.421 77.0411 263.799 74.6966 268.336 72.6651C269.898 71.8853 271.465 71.1056 273.027 70.4797C295.233 60.3274 317.759 54.5511 340.438 53.4585C340.906 53.3046 341.219 53.3046 341.692 53.3046H341.846C350.915 51.899 359.988 51.5861 369.37 52.0528H369.376Z" fill="#E77C60"/>
<path d="M340.444 53.4585C317.764 54.5512 295.244 60.3275 273.032 70.4798C271.47 71.1057 269.903 71.8854 268.341 72.6651C263.804 74.6966 259.427 77.0358 254.89 79.6932C253.328 80.4729 251.761 81.5656 250.199 82.5045C227.365 95.9348 204.84 114.203 182.633 137.159C181.071 138.719 179.504 140.283 177.942 142.002C175.754 144.187 173.878 146.532 171.684 148.717C173.873 146.686 175.908 144.659 177.942 142.628C179.504 141.222 181.071 139.817 182.633 138.257C205.153 117.486 227.679 100.311 250.199 86.8804C251.761 85.9416 253.328 85.008 254.89 84.0692C259.427 81.5709 263.804 79.2264 268.341 76.8873C269.903 76.1075 271.47 75.3278 273.032 74.7019C295.398 63.7699 318.078 56.588 340.444 53.4638V53.4585Z" fill="#DF1A22"/>
<path d="M340.443 37.6836L345.134 33H268.341V62.8257L273.032 56.8902V37.6836H340.443Z" fill="#E77C60"/>
<path d="M345.134 33L340.443 37.6836V42.834C317.764 43.147 295.244 47.8306 273.032 56.8902L268.341 62.8257C269.903 62.0459 271.47 61.4201 273.032 60.6403C295.238 51.2731 317.764 46.2765 340.443 45.6506H345.134V33Z" fill="#9E0B0F"/>
<path d="M340.444 42.8394V37.689H273.032V56.8956C295.239 47.836 317.764 43.1523 340.444 42.8394Z" fill="#DF1A22"/>
<path d="M250.199 67.6684V37.6836H182.633V118.886C204.845 97.1811 227.365 80.0007 250.199 67.6684Z" fill="#DF1A22"/>
<path d="M250.199 37.6836V67.6684C227.365 80.0061 204.84 97.1812 182.633 118.886L178.096 128.879C179.504 127.32 181.066 125.755 182.633 124.196C204.845 102.178 227.365 84.6897 250.199 71.88C251.76 71.1003 253.328 70.1614 254.89 69.3817V33L250.199 37.6836Z" fill="#9E0B0F"/>
<path d="M250.198 37.6836L254.889 33H177.942V129.038L178.096 128.885L182.633 118.891V37.6836H250.198Z" fill="#E77C60"/>
<path d="M309.631 176.511L289.613 179.948C293.682 180.261 295.871 182.6 296.025 187.443V231.325C296.025 236.476 293.836 239.133 289.613 239.133H316.202C311.825 239.133 309.636 236.481 309.636 231.325V176.511H309.631Z" fill="black"/>
<path d="M260.675 179.943C264.898 180.256 267.087 182.595 267.246 187.438V231.32C267.246 236.47 265.058 239.128 260.675 239.128H287.264C283.041 239.128 280.852 236.475 280.852 231.32V176.506L260.675 179.943Z" fill="black"/>
<path d="M245.348 189.157C247.383 189.157 248.945 188.69 250.512 187.438C251.92 186.191 252.547 184.786 252.547 183.067C252.547 181.508 251.92 179.943 250.512 178.85C248.95 177.758 247.383 177.132 245.348 177.132C243.314 177.132 241.438 177.758 240.184 178.85C238.622 179.943 237.996 181.508 237.996 183.067C237.996 184.786 238.622 186.191 240.184 187.438C241.433 188.69 243.314 189.157 245.348 189.157Z" fill="black"/>
<path d="M223.923 185.725C223.923 180.569 226.112 178.071 230.489 177.917H203.9C208.123 178.071 210.312 180.569 210.312 185.725V199.781H182.001V185.725C182.001 180.569 184.349 178.071 188.568 177.917H161.978C166.356 178.071 168.544 180.569 168.544 185.725V231.325C168.544 236.475 166.356 239.133 161.978 239.133H188.568C184.344 239.133 182.001 236.481 182.001 231.325V205.09H210.312V231.325C210.312 236.475 208.123 239.133 203.9 239.133H230.489C226.112 239.133 223.923 236.481 223.923 231.325V185.725Z" fill="black"/>
<path d="M252.074 231.32V196.185L232.056 199.776C236.12 199.929 238.314 202.274 238.468 206.957V231.32C238.468 236.47 236.28 239.128 232.056 239.128H258.646C254.268 239.128 252.074 236.475 252.074 231.32Z" fill="black"/>
<path d="M320.426 178.225C319.331 179.317 318.55 180.569 318.55 181.975C318.396 182.754 318.864 183.534 319.331 184.319C320.112 185.099 320.426 185.725 320.58 185.879C321.834 188.223 321.361 190.562 319.331 192.907C318.705 193.686 318.55 193.999 318.864 194.312C319.177 194.625 319.331 194.779 319.645 194.779C319.958 194.779 320.272 194.625 320.739 194.312C324.336 191.814 327.152 189.47 328.713 187.443C330.589 185.258 331.375 183.539 331.216 181.821C331.216 180.415 330.589 179.323 329.494 178.23C328.246 177.291 326.679 176.67 324.803 176.67C323.082 176.67 321.674 177.296 320.426 178.23V178.225Z" fill="black"/>
<path d="M359.054 197.744C356.865 196.964 354.203 196.651 351.079 196.185C348.11 196.031 344.667 195.872 340.911 195.872C337.782 195.872 334.653 196.185 331.056 197.123C327.614 198.062 324.798 199.468 322.769 201.34C320.734 203.059 319.64 205.244 319.64 207.589C319.64 210.087 320.888 212.431 323.55 214.304C326.052 216.335 330.902 218.362 337.936 220.393C344.975 222.425 349.512 224.297 351.228 225.703C352.79 227.108 353.73 228.981 353.576 230.699C353.576 232.572 352.323 233.977 350.447 234.916C348.413 235.855 345.91 236.322 342.473 236.475C339.031 236.322 336.215 236.009 333.559 235.696C330.902 235.229 329.022 234.449 327.614 233.044C326.052 231.792 324.331 229.453 322.45 226.016C321.201 226.016 320.415 226.169 320.102 226.328C319.948 226.328 319.634 226.641 319.634 227.108C319.634 227.888 320.102 230.858 321.042 235.542C321.196 236.168 321.196 236.794 321.196 237.101C321.35 237.727 321.51 238.348 322.137 238.661C327.922 240.22 334.18 241.005 341.219 241.005C344.189 241.005 347.478 240.538 351.228 239.6C354.984 238.82 357.641 237.414 359.675 235.383C361.551 233.351 362.958 231.166 363.431 228.981C363.899 226.636 363.745 224.61 362.491 222.578C361.397 220.547 359.362 218.828 356.705 217.428C353.89 215.869 349.666 213.991 344.035 211.965C338.25 209.933 334.961 208.374 333.867 207.435C332.613 206.496 331.991 205.403 331.991 203.844C332.145 202.284 332.932 201.346 334.648 200.72C336.21 200.094 338.404 199.627 341.214 199.314C344.184 199.001 347.159 199.627 350.129 201.033C353.098 202.438 355.287 204.624 357.008 207.748H360.291L359.978 206.029C359.824 202.279 359.511 199.627 359.038 197.755L359.054 197.744Z" fill="black"/>
<path d="M347.727 184.377V179.275H350.867C351.547 179.275 352.051 179.386 352.37 179.609C352.694 179.832 352.854 180.176 352.854 180.648C352.854 180.945 352.779 181.211 352.625 181.444C352.477 181.672 352.269 181.842 352.004 181.943C352.232 182.038 352.386 182.155 352.477 182.293C352.567 182.431 352.62 182.675 352.636 183.03C352.636 183.067 352.636 183.11 352.641 183.173C352.668 183.804 352.758 184.208 352.912 184.383H351.478C351.441 184.33 351.414 184.266 351.398 184.202C351.382 184.133 351.371 184.064 351.371 183.99V183.645C351.371 183.179 351.313 182.871 351.191 182.722C351.069 182.579 350.835 182.505 350.484 182.505H349.007V184.383H347.727V184.377ZM349.007 181.449H350.452C350.835 181.449 351.106 181.402 351.26 181.311C351.414 181.221 351.494 181.067 351.494 180.85C351.494 180.633 351.419 180.5 351.276 180.415C351.132 180.33 350.84 180.288 350.399 180.288H349.007V181.449Z" fill="black"/>
<path d="M350.325 187.47C346.771 187.47 343.875 184.94 343.875 181.826C343.875 178.712 346.771 176.182 350.325 176.182C353.879 176.182 356.774 178.712 356.774 181.826C356.774 184.94 353.879 187.47 350.325 187.47ZM350.325 177.164C347.313 177.164 344.858 179.254 344.858 181.826C344.858 184.399 347.313 186.488 350.325 186.488C353.337 186.488 355.792 184.399 355.792 181.826C355.792 179.254 353.337 177.164 350.325 177.164Z" fill="black"/>
</g>
</g>
<defs>
<clipPath id="clip0_315_3001">
<rect width="522.519" height="408" fill="white"/>
</clipPath>
<clipPath id="clip1_315_3001">
<rect width="254" height="208" fill="white" transform="translate(144 33)"/>
</clipPath>
</defs>
</svg>
