<svg width="409" height="332" viewBox="0 0 409 332" fill="none" xmlns="http://www.w3.org/2000/svg">
<path d="M291.417 0.593457C287.971 1.23952 288.617 2.45986 292.494 2.67521C296.442 2.89056 298.811 1.8138 297.016 0.665242C295.867 -0.0526042 295.078 -0.124389 291.417 0.593457Z" fill="#6E6A5C"/>
<path d="M305.917 0.737095C305.128 2.02922 307.137 2.81885 311.229 2.81885C313.957 2.81885 314.962 2.53171 314.818 1.95743C314.244 0.234603 306.85 -0.770382 305.917 0.737095Z" fill="#6E6A5C"/>
<path d="M274.835 3.03424C273.471 3.53673 272.179 4.32637 272.035 4.90064C271.748 5.69027 272.394 5.76206 275.194 5.33135C279.285 4.75707 281.439 3.75209 280.865 2.7471C280.29 1.88569 277.85 1.95747 274.835 3.03424Z" fill="#6E6A5C"/>
<path d="M322.572 2.67523C321.925 3.752 324.007 4.75698 328.099 5.33126C331.616 5.90554 332.693 4.97234 330.109 3.60843C327.955 2.38809 323.074 1.8856 322.572 2.67523Z" fill="#6E6A5C"/>
<path d="M258.97 7.41308C255.812 8.56163 254.878 11.1459 257.965 10.428C261.698 9.49483 264.785 7.84378 264.354 7.12594C263.78 6.19274 262.129 6.26452 258.97 7.41308Z" fill="#6E6A5C"/>
<path d="M338.651 7.41275C338.651 8.34595 344.107 10.7148 346.332 10.7148C348.557 10.7148 346.978 8.63309 343.891 7.55632C339.8 6.12063 338.651 6.12063 338.651 7.41275Z" fill="#6E6A5C"/>
<path d="M244.111 13.8017C241.096 15.3091 239.947 17.1755 242.101 17.1755C244.039 17.1755 248.92 14.3042 248.92 13.2274C248.92 11.7917 247.772 11.9353 244.111 13.8017Z" fill="#6E6A5C"/>
<path d="M353.726 13.8019C353.726 14.8787 360.761 19.0422 361.407 18.3243C362.268 17.4629 360.833 15.7401 358.105 14.3044C354.731 12.6533 353.726 12.5098 353.726 13.8019Z" fill="#6E6A5C"/>
<path d="M229.682 22.2006C226.595 24.4259 225.877 25.7898 227.744 25.7898C229.323 25.7898 234.635 22.1288 234.348 21.2674C233.845 19.7599 232.625 20.047 229.682 22.2006Z" fill="#6E6A5C"/>
<path d="M367.652 22.3442C367.078 23.2056 372.103 27.9434 373.682 27.9434C375.405 27.9434 374.543 25.8616 371.887 23.7081C368.944 21.2674 368.442 21.1238 367.652 22.3442Z" fill="#6E6A5C"/>
<path d="M216.617 31.9635C213.889 34.4042 213.459 35.8398 215.397 35.8398C216.761 35.8398 221.786 30.8867 221.283 30.0971C220.565 28.8767 219.632 29.2357 216.617 31.9635Z" fill="#6E6A5C"/>
<path d="M379.209 32.9683C378.779 33.6862 383.588 39.429 384.665 39.429C386.101 39.429 385.167 36.3422 383.229 34.3322C381.004 32.1787 379.927 31.748 379.209 32.9683Z" fill="#6E6A5C"/>
<path d="M205.491 42.3721C203.122 44.4538 202.117 47.3252 203.768 47.3252C204.773 47.3252 209.439 42.1567 209.439 41.0082C209.439 39.5725 208.218 40.0032 205.491 42.3721Z" fill="#6E6A5C"/>
<path d="M388.9 45.4587C388.9 46.9662 392.059 51.2733 393.423 51.4886C395.146 51.8475 394.93 50.6272 392.777 47.3251C390.91 44.5255 388.9 43.5205 388.9 45.4587Z" fill="#6E6A5C"/>
<path d="M101.044 50.9146C100.111 51.5606 100.111 51.7042 101.044 52.3502C101.618 52.7809 102.767 52.9245 103.557 52.7092C104.346 52.5656 106.069 52.3502 107.361 52.3502C108.94 52.3502 109.658 51.9913 109.658 51.2735C109.658 50.4838 108.797 50.1967 105.925 50.1967C103.844 50.1967 101.618 50.5556 101.044 50.9146Z" fill="#6E6A5C"/>
<path d="M117.698 51.058C118.057 52.063 124.446 53.2833 126.097 52.709C126.887 52.4219 126.887 52.1348 126.169 51.2733C125.02 49.9094 117.267 49.6941 117.698 51.058Z" fill="#6E6A5C"/>
<path d="M86.8309 52.35C84.0313 52.9961 83.5288 53.4268 84.1748 54.4317C84.462 54.9342 85.7541 55.0778 87.6205 54.7907C91.2815 54.2164 93.3633 53.2114 92.789 52.2782C92.2865 51.5604 90.2047 51.5604 86.8309 52.35Z" fill="#6E6A5C"/>
<path d="M134.496 52.2782C133.85 53.2832 135.931 54.2164 140.023 54.7907C142.751 55.2214 143.397 55.0778 143.397 54.2164C143.397 53.0679 142.464 52.7089 137.941 51.9911C136.147 51.704 134.711 51.8475 134.496 52.2782Z" fill="#6E6A5C"/>
<path d="M194.795 54.719C192.928 57.1597 192.354 59.5286 193.574 59.5286C194.508 59.5286 198.671 54.3601 198.671 53.2833C198.671 51.5605 196.589 52.3501 194.795 54.719Z" fill="#6E6A5C"/>
<path d="M71.1099 56.1547C68.0232 57.3033 66.7311 58.5954 68.1668 59.1697C69.4589 59.6722 75.9913 57.3033 76.2067 56.2983C76.3502 55.2215 73.766 55.1497 71.1099 56.1547Z" fill="#6E6A5C"/>
<path d="M150.575 55.8675C150.575 56.8725 153.16 57.9492 157.108 58.5235C160.123 59.026 160.984 58.021 158.472 56.6571C156.246 55.4368 150.575 54.8625 150.575 55.8675Z" fill="#6E6A5C"/>
<path d="M396.079 58.7387C396.079 59.9591 398.16 64.3379 399.237 65.1994C400.96 66.635 401.391 64.7686 400.027 61.2512C399.165 59.0259 398.448 58.0927 397.443 58.0927C396.725 58.0927 396.079 58.3798 396.079 58.7387Z" fill="#6E6A5C"/>
<path d="M167.373 60.3183C166.727 61.4668 167.732 62.2565 171.465 63.4768C175.269 64.7689 175.987 64.6971 175.341 62.9743C174.839 61.6822 167.947 59.3851 167.373 60.3183Z" fill="#6E6A5C"/>
<path d="M55.389 62.3282C52.733 63.9793 51.9434 64.9843 52.8766 65.6303C53.8098 66.1328 60.8446 62.6154 60.8446 61.6822C60.8446 60.5336 57.7579 60.8926 55.389 62.3282Z" fill="#6E6A5C"/>
<path d="M187.186 65.6302C186.611 66.2763 185.606 66.4916 184.171 66.2045C181.371 65.6302 181.658 67.3531 184.601 68.7888C186.468 69.6502 186.755 69.5784 188.406 67.9273C189.411 66.9224 189.985 65.7738 189.77 65.3431C189.052 64.2663 188.262 64.3381 187.186 65.6302Z" fill="#6E6A5C"/>
<path d="M41.1041 70.4399C38.3763 72.4499 37.802 73.3831 38.5917 74.1727C39.3095 74.8906 46.488 70.5835 46.488 69.5067C46.488 68.2864 43.2576 68.8606 41.1041 70.4399Z" fill="#6E6A5C"/>
<path d="M402.037 75.4648C402.468 78.9823 403.544 80.7051 404.837 79.9155C405.698 79.3412 405.554 76.9723 404.406 74.2445C402.755 70.3681 401.534 71.0142 402.037 75.4648Z" fill="#6E6A5C"/>
<path d="M28.1829 80.7049C25.6704 83.002 25.3833 84.6531 27.3932 84.6531C28.47 84.6531 32.8489 80.2024 32.8489 79.0539C32.8489 77.4746 30.8389 78.1925 28.1829 80.7049Z" fill="#6E6A5C"/>
<path d="M406.129 90.037C406.129 92.9083 406.416 93.9851 407.134 93.9851C408.282 93.9851 409 92.4776 409 90.037C409 87.5963 408.282 86.0888 407.134 86.0888C406.416 86.0888 406.129 87.1656 406.129 90.037Z" fill="#6E6A5C"/>
<path d="M17.4151 92.4778C15.6204 95.0621 15.4769 96.8567 17.0561 96.8567C17.9893 96.8567 22.0811 90.9704 21.6503 90.2525C20.8607 88.9604 19.3532 89.8218 17.4151 92.4778Z" fill="#6E6A5C"/>
<path d="M406.631 101.594C405.841 102.456 406.057 108.916 406.918 109.491C407.995 110.137 409 108.414 409 105.758C409 103.461 407.493 100.733 406.631 101.594Z" fill="#6E6A5C"/>
<path d="M9.01616 105.829C7.4369 109.132 7.58047 110.28 9.44687 109.562C10.739 109.06 13.6104 103.676 12.9643 103.03C11.8158 101.881 10.4519 102.886 9.01616 105.829Z" fill="#6E6A5C"/>
<path d="M171.178 109.132C168.522 109.85 167.086 111.07 167.086 112.649C167.086 114.516 172.254 118.894 175.485 119.756C179.218 120.833 179.505 120.761 181.73 119.038C184.314 117.028 184.458 111.788 182.017 110.208C179.935 108.988 173.834 108.342 171.178 109.132Z" fill="#6E6A60"/>
<path d="M4.20683 117.602C2.98649 119.828 2.9147 123.776 4.06326 123.776C5.06824 123.776 7.22178 117.89 6.57572 116.813C5.92966 115.808 4.92467 116.167 4.20683 117.602Z" fill="#6E6A5C"/>
<path d="M225.447 117.028C224.226 117.387 221.57 119.325 219.632 121.335L216.043 124.996L211.449 121.335C205.706 116.669 204.988 116.669 202.619 121.192C201.686 122.986 201.184 126.719 200.681 134.831L199.963 146.029L196.661 151.772C189.842 163.832 187.545 165.913 185.822 161.606C184.53 158.448 181.443 138.563 181.443 133.323C181.443 128.944 181.228 128.37 179.648 127.293C177.567 125.929 172.901 125.211 170.388 125.858C167.947 126.504 167.23 130.38 167.876 140.932C169.024 159.453 173.044 169.431 180.797 172.876C186.252 175.317 190.99 172.948 195.943 165.195C198.887 160.601 199.03 160.458 199.245 162.539C199.604 166.918 200.179 167.923 203.194 169.718C207.357 172.087 210.085 172.015 212.526 169.503C214.32 167.636 214.464 166.99 215.182 156.797C216.33 139.568 216.617 137.702 218.914 132.821C220.996 128.442 227.098 121.263 228.749 121.263C230.328 121.263 230.974 124.565 232.051 137.558C233.917 161.391 236.717 167.923 244.972 167.923C248.274 167.923 251.218 166.416 253.515 163.473C255.166 161.319 255.381 161.247 256.601 162.396C258.827 164.334 262.99 165.77 266.723 165.77C271.676 165.77 276.629 163.042 283.808 156.222L289.981 150.408L289.694 160.96L289.479 171.441L277.921 183.142C261.626 199.724 257.822 205.467 257.032 215.158C256.673 219.465 256.888 220.685 258.468 224.131C259.903 227.361 261.124 228.653 264.426 230.878C268.518 233.606 268.589 233.606 275.768 233.606C282.803 233.606 283.162 233.534 287.756 230.95C298.093 225.136 301.826 217.67 304.912 196.709C305.917 189.961 306.133 185.367 305.846 178.619C305.558 172.446 305.702 169.144 306.276 168.067C307.425 165.913 307.927 166.057 309.507 169C310.296 170.364 312.019 172.374 313.455 173.523C315.536 175.102 316.757 175.461 319.987 175.461C324.797 175.389 328.745 173.307 333.626 168.354C337.503 164.262 338.651 164.191 338.651 167.708C338.651 170.866 340.661 174.527 343.245 176.25C345.614 177.758 349.491 177.112 353.295 174.527C357.028 171.943 372.533 155.72 376.482 150.121C380.071 145.096 380.071 143.517 376.482 146.89C375.261 148.111 373.467 149.331 372.605 149.546C371.816 149.834 367.365 153.71 362.843 158.232C355.162 165.842 350.567 169.287 349.562 168.354C348.916 167.708 351.357 157.873 354.444 148.541C358.248 136.984 358.535 134.759 356.525 132.821C354.587 131.026 352.793 130.882 351.572 132.39C350.352 133.826 349.203 133.754 347.696 132.103C347.05 131.385 345.112 130.236 343.461 129.519C341.81 128.872 338.938 127.652 337.144 126.863C331.688 124.494 326.376 126.216 319.197 132.605C314.675 136.697 311.588 141.937 308.932 150.264C306.061 158.878 304.195 160.171 304.195 153.495C304.195 148.541 301.467 132.892 300.103 130.236C296.873 123.848 292.924 120.833 286.32 119.756C282.803 119.253 280.936 119.325 275.696 120.545C268.948 122.125 266.364 123.417 261.411 127.509C254.304 133.251 248.992 144.88 249.925 152.561C250.356 156.151 250.284 156.438 248.92 156.438C246.767 156.438 246.336 154.571 244.972 140.645C244.326 133.754 243.608 127.15 243.393 126.001C242.747 122.699 238.512 118.536 234.348 117.315C230.328 116.095 228.821 116.095 225.447 117.028ZM286.536 125.929C288.689 127.939 289.479 129.662 290.125 134.256C290.627 137.558 290.555 137.702 286.536 142.44C279.142 151.126 267.584 160.027 265 159.022C264.354 158.807 263.995 157.586 263.995 155.72C263.995 145.885 273.399 128.083 280.075 125.14C283.233 123.776 284.382 123.919 286.536 125.929ZM342.815 135.046C347.552 139.497 342.384 151.7 330.539 164.119C325.802 169.072 322.93 170.292 320.633 168.21C317.762 165.626 319.413 157.658 325.084 147.178C328.817 140.143 330.898 137.487 334.559 134.831C337.861 132.39 340.015 132.462 342.815 135.046ZM290.125 192.115C289.407 211.784 287.11 219.393 280.362 224.418C275.481 228.007 270.097 228.151 266.149 224.848C264.282 223.341 263.995 222.551 263.995 219.536C263.995 214.727 266.436 207.477 269.594 202.882C272.896 198.073 288.402 181.562 289.55 181.562C290.34 181.562 290.412 183.788 290.125 192.115Z" fill="#6E6A60"/>
<path d="M405.841 117.1C405.267 118.894 404.908 123.058 405.195 123.919C405.411 124.422 405.985 124.853 406.487 124.853C407.564 124.853 408.569 121.048 408.138 118.392C407.923 116.526 406.272 115.592 405.841 117.1Z" fill="#6E6A5C"/>
<path d="M70.8946 120.043C68.6693 121.694 60.6294 126.575 52.9485 130.954C44.2626 135.907 37.5148 140.214 35.0741 142.512L31.126 146.173L34.3563 149.977C36.0791 152.059 38.8069 155.289 40.458 157.084C42.0372 158.878 46.0572 163.76 49.3593 167.923C72.4739 196.781 75.5606 200.442 84.3184 208.984C91.425 215.947 95.6603 218.603 98.1728 217.814C98.8906 217.598 100.542 216.234 101.69 214.87C103.413 212.932 103.916 211.712 103.916 209.343C103.916 205.897 102.982 204.246 98.1728 199.15C94.5118 195.273 73.3353 169.072 72.2585 167.062C71.5407 165.698 71.2536 165.842 81.6623 159.094C88.6972 154.5 89.9893 152.633 86.4719 152.274C85.0362 152.059 82.3084 153.279 76.9963 156.366C72.8328 158.807 68.8847 160.745 68.1668 160.745C66.0851 160.745 50.0771 143.517 50.0771 141.219C50.0771 139.497 52.7331 137.487 62.6394 131.816C75.3453 124.494 75.9196 124.063 77.6424 121.766C78.7909 120.258 78.9345 119.469 78.3602 118.535C76.9963 116.454 74.9864 116.884 70.8946 120.043Z" fill="#6E6A60"/>
<path d="M151.509 124.206C149.571 125.14 148.135 126.504 147.345 128.155C145.838 131.313 143.971 139.999 143.9 144.378C143.9 146.316 143.684 147.824 143.469 147.824C143.254 147.824 141.961 146.173 140.669 144.163C138.875 141.435 137.367 140.143 134.568 138.779C128.179 135.836 119.708 136.769 119.708 140.43C119.708 141.363 121.646 144.665 124.302 148.111C132.701 159.094 132.629 158.878 133.06 172.374C133.419 182.496 133.347 184.506 132.342 186.444C130.763 189.53 127.533 189.602 123.369 186.587C118.775 183.213 109.658 174.312 109.658 173.164C109.658 172.589 111.381 170.077 113.535 167.708C118.416 162.109 119.206 158.52 116.693 153.638C114.324 149.116 111.812 147.465 107.289 147.536C102.982 147.536 99.3214 149.116 96.0193 152.346C93.7222 154.571 93.7222 154.643 94.0093 160.458C94.2965 165.626 94.7272 167.134 97.5985 173.02C102.408 182.926 106.5 188.167 112.889 192.33C115.904 194.196 119.277 196.063 120.498 196.278C124.302 197.14 130.045 195.991 133.706 193.694C138.588 190.607 139.377 188.238 138.731 177.973L138.3 169.718L142.464 176.466C147.345 184.434 149.068 185.367 154.524 183.285C159.405 181.491 159.333 179.552 154.237 165.267C150.791 155.576 149.714 150.049 149.714 142.512C149.858 130.524 151.724 127.652 158.257 130.021C160.41 130.811 160.841 130.739 162.205 129.375C164.215 127.365 163.497 125.858 159.764 124.135C155.888 122.34 155.17 122.34 151.509 124.206ZM110.017 154.069C111.022 155.576 111.812 157.515 111.812 158.52C111.812 160.529 109.371 164.621 107.289 166.129C105.926 167.062 105.71 166.99 104.059 164.621C101.547 160.96 100.183 157.227 100.685 155.648C101.26 153.997 105.064 151.413 106.931 151.413C107.648 151.413 109.012 152.633 110.017 154.069Z" fill="#6E6A60"/>
<path d="M0.976511 131.457C0.0433114 134.472 0.0433114 137.774 0.976511 138.492C1.76614 139.209 2.12506 138.994 2.69934 137.343C3.13005 136.266 3.41719 134.4 3.27362 133.18C3.05826 130.954 1.479 129.806 0.976511 131.457Z" fill="#6E6A5C"/>
<path d="M403.975 133.108C403.042 135.477 403.042 138.994 403.903 139.568C404.908 140.143 405.985 137.846 406.272 134.543C406.559 131.241 405.052 130.308 403.975 133.108Z" fill="#6E6A5C"/>
<path d="M0.186776 146.388C-0.3875 147.249 0.473915 153.423 1.26354 153.925C2.62745 154.787 3.48887 152.131 2.91459 149.188C2.34031 146.173 1.11998 144.881 0.186776 146.388Z" fill="#6E6A5C"/>
<path d="M400.458 149.69C399.811 152.059 399.811 153.279 400.314 153.782C400.816 154.284 401.319 154.284 401.75 153.854C402.683 152.92 403.975 147.752 403.544 146.962C402.611 145.455 401.175 146.675 400.458 149.69Z" fill="#6E6A5C"/>
<path d="M2.41197 161.391C1.98126 162.037 2.19662 163.903 3.2016 167.349C3.56053 168.857 5.28336 169.072 5.71406 167.78C6.14477 166.488 4.49372 161.247 3.56053 160.888C3.2016 160.817 2.62733 160.96 2.41197 161.391Z" fill="#6E6A5C"/>
<path d="M396.509 163.616C395.074 167.277 395.074 168.641 396.509 168.641C397.658 168.641 399.668 164.621 399.668 162.181C399.668 159.74 397.73 160.601 396.509 163.616Z" fill="#6E6A5C"/>
<path d="M6.57565 177.399C7.43706 181.634 10.5956 184.936 10.5956 181.562C10.5956 179.05 8.58561 175.102 7.29349 175.102C6.36029 175.102 6.21672 175.532 6.57565 177.399Z" fill="#6E6A5C"/>
<path d="M392.131 176.753C391.556 177.686 390.839 179.409 390.623 180.701C389.977 184.003 392.202 183.86 393.638 180.486C395.505 175.891 394.5 173.235 392.131 176.753Z" fill="#6E6A5C"/>
<path d="M12.749 190.105C12.749 191.756 15.4768 196.637 16.3383 196.637C17.8457 196.637 17.7739 194.986 16.1947 192.187C14.3283 188.813 12.749 187.879 12.749 190.105Z" fill="#6E6A5C"/>
<path d="M385.67 192.115C384.45 194.914 384.45 196.637 385.67 196.781C386.532 196.852 389.618 190.822 389.116 190.033C388.326 188.669 386.675 189.674 385.67 192.115Z" fill="#6E6A5C"/>
<path d="M20.3583 202.954C19.9276 203.672 24.0193 209.558 24.9525 209.558C26.3882 209.558 26.1729 208.266 24.5218 205.395C22.799 202.523 21.2197 201.59 20.3583 202.954Z" fill="#6E6A5C"/>
<path d="M380.43 203.959C378.994 205.897 377.343 209.63 377.774 210.276C378.563 211.568 379.568 211.066 381.004 208.625C383.158 205.179 382.727 201.231 380.43 203.959Z" fill="#6E6A5C"/>
<path d="M29.6186 215.301C29.0443 216.234 33.3513 221.762 34.7153 221.762C36.2945 221.762 35.8638 220.182 33.4949 217.239C31.1978 214.511 30.4082 214.081 29.6186 215.301Z" fill="#6E6A5C"/>
<path d="M371.744 219.608C370.236 222.336 370.093 224.633 371.528 224.633C372.39 224.633 376.051 217.742 375.477 217.167C374.4 216.162 373.251 216.88 371.744 219.608Z" fill="#6E6A5C"/>
<path d="M40.0273 227.72C40.0273 228.868 44.478 233.247 45.6265 233.247C47.2058 233.247 46.5597 231.381 44.1191 229.084C41.6066 226.643 40.0273 226.141 40.0273 227.72Z" fill="#6E6A5C"/>
<path d="M363.847 232.816C362.125 235.616 361.909 237.554 363.345 237.554C364.565 237.554 368.226 231.883 367.652 230.95C366.862 229.73 365.283 230.519 363.847 232.816Z" fill="#6E6A5C"/>
<path d="M50.7949 238.487C50.7949 239.851 55.3174 244.015 56.753 244.015C58.8348 244.015 58.1169 242.22 55.1738 239.851C52.087 237.411 50.7949 236.98 50.7949 238.487Z" fill="#6E6A5C"/>
<path d="M354.946 246.169C353.008 248.968 352.864 250.476 354.659 250.476C355.879 250.404 359.684 244.876 359.109 244.015C358.248 242.651 356.956 243.369 354.946 246.169Z" fill="#6E6A5C"/>
<path d="M62.9983 249.327C62.9983 250.547 67.5207 254.065 69.0282 254.065C70.8228 254.065 70.3921 252.916 67.8796 250.547C65.3672 248.25 62.9983 247.604 62.9983 249.327Z" fill="#6E6A5C"/>
<path d="M346.906 257.439C343.963 260.525 343.389 261.889 344.753 262.392C346.117 262.966 350.065 258.731 350.137 256.721C350.137 254.926 349.06 255.213 346.906 257.439Z" fill="#6E6A5C"/>
<path d="M75.9194 259.377C75.9194 260.382 81.0161 264.115 82.38 264.115C83.8875 264.115 83.0261 262.033 80.6572 260.238C77.9294 258.228 75.9194 257.797 75.9194 259.377Z" fill="#6E6A5C"/>
<path d="M88.8408 268.422C88.8408 269.427 95.3732 273.519 96.0911 273.016C97.3114 272.298 96.7371 271.365 94.0811 269.499C91.2815 267.632 88.8408 267.13 88.8408 268.422Z" fill="#6E6A5C"/>
<path d="M335.851 271.078C334.129 273.16 333.841 273.949 334.559 274.739C335.277 275.6 335.851 275.313 338.077 272.729C339.584 271.078 340.589 269.427 340.374 269.068C339.584 267.776 338.005 268.494 335.851 271.078Z" fill="#6E6A5C"/>
<path d="M102.48 276.964C102.48 277.825 107.935 281.343 109.299 281.343C111.381 281.343 110.376 279.189 107.505 277.754C104.561 276.246 102.48 275.887 102.48 276.964Z" fill="#6E6A5C"/>
<path d="M325.802 282.42C323.433 285.148 322.93 287.086 324.581 287.086C325.802 287.086 330.037 282.204 330.037 280.84C330.037 279.118 328.027 279.907 325.802 282.42Z" fill="#6E6A5C"/>
<path d="M116.837 285.148C116.837 286.296 121.862 289.239 123.943 289.239C126.169 289.239 125.02 287.301 121.79 285.65C118.631 283.999 116.837 283.855 116.837 285.148Z" fill="#6E6A5C"/>
<path d="M132.055 292.039C130.835 292.757 131.983 294.049 135.501 295.628C138.587 296.992 139.808 296.992 139.808 295.7C139.808 294.623 132.988 291.465 132.055 292.039Z" fill="#6E6A5C"/>
<path d="M314.603 294.336C312.665 296.49 312.162 297.495 312.737 298.069C313.742 299.074 319.7 293.403 318.982 292.182C318.121 290.89 317.403 291.249 314.603 294.336Z" fill="#6E6A5C"/>
<path d="M146.627 299.361C146.34 299.792 146.269 300.222 146.34 300.294C147.274 301.156 152.873 303.596 153.806 303.596C156.103 303.596 154.739 301.443 151.581 300.007C147.776 298.356 147.274 298.284 146.627 299.361Z" fill="#6E6A5C"/>
<path d="M302.902 304.888C300.749 306.755 299.744 309.339 301.323 309.339C302.256 309.339 307.784 304.314 307.784 303.524C307.784 302.232 305.199 302.95 302.902 304.888Z" fill="#6E6A5C"/>
<path d="M161.846 305.462C161.63 305.75 161.558 306.252 161.774 306.611C162.348 307.544 167.086 309.339 169.024 309.339C170.603 309.339 170.747 309.195 169.885 308.19C168.45 306.467 162.779 304.529 161.846 305.462Z" fill="#6E6A5C"/>
<path d="M177.638 311.277C176.633 312.282 177.208 312.856 180.51 313.933C184.601 315.369 185.75 315.369 185.75 314.077C185.75 313.502 184.243 312.569 182.376 311.923C178.572 310.631 178.284 310.559 177.638 311.277Z" fill="#6E6A5C"/>
<path d="M290.699 315.082C287.612 317.307 287.11 318.24 288.402 319.03C289.335 319.604 294.863 315.297 294.863 313.933C294.863 312.426 294.001 312.713 290.699 315.082Z" fill="#6E6A5C"/>
<path d="M192.928 317.092C192.928 318.097 199.892 320.322 201.327 319.819C202.404 319.389 202.404 319.245 201.471 318.24C200.179 316.948 192.928 315.943 192.928 317.092Z" fill="#6E6A5C"/>
<path d="M209.439 321.542C209.439 322.404 211.808 323.409 215.469 324.055C219.13 324.773 219.058 322.619 215.397 321.614C211.951 320.609 209.439 320.609 209.439 321.542Z" fill="#6E6A5C"/>
<path d="M277.06 324.988C274.547 327.07 273.901 329.223 276.055 328.434C278.352 327.5 281.941 324.773 281.941 323.839C281.941 322.404 279.572 322.906 277.06 324.988Z" fill="#6E6A5C"/>
<path d="M225.662 325.06C225.088 325.993 227.17 326.854 231.549 327.572C233.917 327.931 234.563 327.787 234.563 326.998C234.563 325.562 233.989 325.275 229.754 324.701C227.385 324.414 225.949 324.557 225.662 325.06Z" fill="#6E6A5C"/>
<path d="M242.101 327.931C241.527 329.008 242.819 329.51 247.126 329.941C250.356 330.3 251.074 330.156 251.074 329.295C251.074 327.644 243.034 326.495 242.101 327.931Z" fill="#6E6A5C"/>
<path d="M259.114 330.3C259.544 331.52 266.866 332.597 267.871 331.592C269.092 330.372 266.938 329.439 262.703 329.439C259.903 329.439 258.97 329.726 259.114 330.3Z" fill="#6E6A5C"/>
</svg>
