<svg width="479" height="393" viewBox="0 0 479 393" fill="none" xmlns="http://www.w3.org/2000/svg">
<g clip-path="url(#clip0_315_2967)">
<path d="M468.98 52.1101C459.26 51.8201 449.55 51.5201 439.83 51.8201C419.52 52.1101 398.91 53.5901 378.59 56.8201C375.65 57.4101 372.7 57.7001 369.76 58.2901C326.78 65.6501 284.09 79.7801 242.87 99.8001C239.93 101.27 236.98 102.74 234.04 104.22C225.5 108.63 217.26 113.05 208.72 118.06C205.78 119.82 202.83 121.3 199.89 123.36C156.32 149.27 114.22 182.83 72.7099 223.16C69.7699 225.81 66.8199 228.75 63.8799 231.7C58.2899 237.59 52.6899 243.18 47.0999 249.07C46.8099 249.36 46.2199 249.95 45.9199 250.54C43.2699 253.19 40.9199 255.84 38.2699 258.78C37.9799 258.78 37.3899 259.07 37.3899 259.66L47.6899 250.24C47.9799 249.95 48.2799 249.36 48.5699 249.06C55.9299 241.7 60.9299 236.69 63.2899 234.34C65.9399 231.69 68.8799 228.75 72.1199 225.8C114.22 185.47 156.91 152.2 199.89 126.29C202.83 124.23 205.78 122.76 208.72 120.99C217.26 115.99 225.5 111.57 234.04 107.15C236.98 105.68 239.93 104.21 242.87 102.73C284.09 82.7101 326.77 68.5801 369.76 61.2201C372.7 60.9301 375.65 60.3401 378.59 59.7501C386.25 58.5701 393.6 57.6901 401.26 56.8101C423.34 53.5701 446.01 52.1001 468.97 52.1001L468.98 52.1101Z" fill="#6F85C2"/>
<path d="M468.98 52.1101C446.02 52.1101 423.35 53.5801 401.27 56.8201C393.61 58.2901 386.26 59.7601 378.6 61.2401C375.66 62.1201 372.71 62.7101 369.77 63.6001V225.81H242.88L234.05 234.64H378.6V65.0601C400.97 60.3501 423.64 56.5201 446.02 54.7601C456.62 53.5801 467.22 52.9901 478.11 52.7001C475.17 52.4101 472.22 52.4101 468.98 52.1101Z" fill="#08296C"/>
<path d="M369.77 63.5901C372.71 62.7101 375.66 62.1201 378.6 61.2301C386.26 59.7601 393.61 58.2901 401.27 56.8101C393.61 57.6901 386.26 58.5801 378.6 59.7501C375.66 60.3401 372.71 60.9301 369.77 61.2201C326.79 68.5801 284.1 82.7101 242.88 102.73C239.94 104.2 236.99 105.67 234.05 107.15C225.51 111.57 217.27 115.98 208.73 120.99C205.79 122.76 202.84 124.23 199.9 126.29C156.92 152.2 114.23 185.46 72.1299 225.8H199.9V134.54C202.84 132.77 205.79 130.71 208.73 129.24C217.27 124.24 225.51 119.82 234.05 115.11C236.99 113.64 239.94 112.17 242.88 110.69V225.8H369.77V63.5901Z" fill="#17479E"/>
<path d="M234.05 118.64L242.88 110.69C239.94 112.16 236.99 113.63 234.05 115.11C225.51 119.82 217.27 124.24 208.73 129.24C205.79 130.71 202.84 132.77 199.9 134.54V225.8H72.1299C68.8899 228.75 65.9499 231.69 63.2999 234.34C60.9399 236.7 55.94 241.7 48.58 249.06C48.29 249.35 47.99 249.94 47.7 250.24C47.99 249.95 48.29 249.36 48.88 249.06C57.71 241.11 63.6 236.4 66.25 234.63H208.74V132.18C217.28 127.47 225.52 122.76 234.06 118.64H234.05Z" fill="#08296C"/>
<path d="M242.88 110.7L234.05 118.65V234.64L242.88 225.81V110.7Z" fill="#536493"/>
<path d="M390.08 37.6801C401.27 36.8001 412.75 36.2101 424.23 35.9101C406.57 35.0301 389.49 35.6201 372.42 38.2701H372.13C371.25 38.5601 370.66 38.5601 369.77 38.5601C327.67 44.4501 284.98 57.9901 242.88 78.6001C239.94 79.7801 236.99 81.2501 234.05 82.7201C225.51 87.1401 217.27 91.5501 208.73 96.2601C205.79 98.0301 202.84 99.7901 199.9 101.56C157.51 126.88 115.11 159.26 72.72 198.42C69.78 201.36 66.83 204.01 63.89 206.66C60.06 210.49 56.24 214.31 52.11 218.14C42.69 228.15 32.97 238.45 23.26 249.05C22.97 249.34 22.67 249.93 22.08 250.52C19.72 253.17 17.37 255.82 15.02 258.76C12.08 261.7 9.13001 264.94 6.19001 268.18C5.90001 268.77 5.60001 269.06 5.01001 269.36C3.24001 271.72 1.48001 274.07 0.0100098 276.43C2.07001 273.78 4.13001 271.42 6.19001 269.07C9.43001 265.54 12.67 262 15.91 258.77C18.26 255.82 21.21 253.18 23.56 250.53C24.15 249.94 24.44 249.35 24.74 249.06C26.51 247.59 27.98 245.53 29.74 244.06C37.1 236.11 44.46 228.75 52.11 221.1C55.94 217.27 59.77 213.45 63.89 209.62C66.83 206.97 69.78 204.32 72.72 201.38C115.11 161.64 157.51 129.25 199.9 103.93C202.84 102.16 205.79 100.4 208.73 98.9301C217.27 93.9201 225.51 89.5101 234.05 85.0901C236.99 83.6201 239.94 82.1501 242.88 80.6701C284.98 60.0601 327.67 46.5201 369.77 40.3401C372.71 40.0501 375.66 39.4601 378.6 38.8701C382.43 38.5801 386.26 38.2801 390.08 37.6901V37.6801Z" fill="#9E0B0F"/>
<path d="M424.23 35.92C419.52 35.63 414.81 35.33 410.39 34.74C399.5 34.15 389.19 34.15 378.59 34.45H369.76C327.07 37.1 284.68 47.7 242.87 66.83C239.93 68.01 236.98 69.48 234.04 70.95C225.5 74.78 217.26 79.19 208.72 83.9C205.78 85.67 202.83 87.43 199.89 88.9C156.91 114.51 114.51 148.66 72.71 191.65C69.77 194.89 66.82 197.83 63.88 201.07C49.75 216.08 35.62 231.98 21.78 249.06C21.19 249.35 20.9 249.94 20.6 250.53C20.01 250.82 19.72 251.41 19.13 252.3C17.36 254.36 15.6 256.42 13.83 258.78C11.48 261.72 8.83 264.96 6.18 267.91C5.89 268.5 5.59 269.09 5 269.38C5.59 269.09 5.88 268.79 6.18 268.2C9.12 264.96 12.07 261.72 15.01 258.78C17.37 255.83 19.72 253.19 22.07 250.54C22.66 249.95 22.95 249.36 23.25 249.07C32.96 238.47 42.68 228.17 52.1 218.16C56.22 214.04 59.76 209.62 63.88 205.5C66.82 202.26 69.77 199.32 72.71 196.37C114.52 153.09 156.91 118.65 199.89 93.33C202.83 91.56 205.78 89.5 208.72 88.03C217.26 83.03 225.5 78.61 234.04 74.78C236.98 73.31 239.93 71.84 242.87 70.66C284.67 51.52 327.07 40.63 369.76 38.57C370.64 38.28 371.23 38.28 372.12 38.28H372.41C389.48 35.63 406.56 35.04 424.22 35.92H424.23Z" fill="#E77C60"/>
<path d="M369.77 38.5701C327.08 40.6301 284.69 51.5201 242.88 70.6601C239.94 71.8401 236.99 73.3101 234.05 74.7801C225.51 78.6101 217.27 83.0201 208.73 88.0301C205.79 89.5001 202.84 91.5601 199.9 93.3301C156.92 118.65 114.52 153.09 72.7201 196.37C69.7801 199.31 66.8301 202.26 63.8901 205.5C59.7701 209.62 56.2401 214.04 52.1101 218.16C56.2301 214.33 60.0601 210.51 63.8901 206.68C66.8301 204.03 69.7801 201.38 72.7201 198.44C115.11 159.28 157.51 126.9 199.9 101.58C202.84 99.8101 205.79 98.0501 208.73 96.2801C217.27 91.5701 225.51 87.1501 234.05 82.7401C236.99 81.2701 239.94 79.8001 242.88 78.6201C284.98 58.0101 327.67 44.4701 369.77 38.5801V38.5701Z" fill="#DF1A22"/>
<path d="M369.77 8.83L378.6 0H234.05V56.23L242.88 45.04V8.83H369.77Z" fill="#E77C60"/>
<path d="M378.6 0L369.77 8.83V18.54C327.08 19.13 284.69 27.96 242.88 45.04L234.05 56.23C236.99 54.76 239.94 53.58 242.88 52.11C284.68 34.45 327.08 25.03 369.77 23.85H378.6V0Z" fill="#9E0B0F"/>
<path d="M369.77 18.5501V8.84009H242.88V45.0501C284.68 27.9701 327.08 19.1401 369.77 18.5501Z" fill="#DF1A22"/>
<path d="M199.9 65.3601V8.83008H72.72V161.92C114.53 121 156.92 88.6101 199.9 65.3601Z" fill="#DF1A22"/>
<path d="M199.9 8.83V65.36C156.92 88.62 114.52 121 72.7199 161.92L64.1799 180.76C66.8299 177.82 69.7699 174.87 72.7199 171.93C114.53 130.42 156.92 97.45 199.9 73.3C202.84 71.83 205.79 70.06 208.73 68.59V0L199.9 8.83Z" fill="#9E0B0F"/>
<path d="M199.9 8.83L208.73 0H63.8899V181.06L64.1799 180.77L72.7199 161.93V8.83H199.9Z" fill="#E77C60"/>
<path d="M311.77 270.56L274.09 277.04C281.75 277.63 285.87 282.04 286.16 291.17V373.9C286.16 383.61 282.04 388.62 274.09 388.62H324.14C315.9 388.62 311.78 383.62 311.78 373.9V270.56H311.77Z" fill="black"/>
<path d="M219.62 277.03C227.57 277.62 231.69 282.03 231.99 291.16V373.89C231.99 383.6 227.87 388.61 219.62 388.61H269.67C261.72 388.61 257.6 383.61 257.6 373.89V270.55L219.62 277.03Z" fill="black"/>
<path d="M190.77 294.4C194.6 294.4 197.54 293.52 200.49 291.16C203.14 288.81 204.32 286.16 204.32 282.92C204.32 279.98 203.14 277.03 200.49 274.97C197.55 272.91 194.6 271.73 190.77 271.73C186.94 271.73 183.41 272.91 181.05 274.97C178.11 277.03 176.93 279.98 176.93 282.92C176.93 286.16 178.11 288.81 181.05 291.16C183.4 293.52 186.94 294.4 190.77 294.4Z" fill="black"/>
<path d="M150.44 287.93C150.44 278.21 154.56 273.5 162.8 273.21H112.75C120.7 273.5 124.82 278.21 124.82 287.93V314.43H71.5301V287.93C71.5301 278.21 75.9501 273.5 83.8901 273.21H33.8401C42.0801 273.5 46.2001 278.21 46.2001 287.93V373.9C46.2001 383.61 42.0801 388.62 33.8401 388.62H83.8901C75.9401 388.62 71.5301 383.62 71.5301 373.9V324.44H124.82V373.9C124.82 383.61 120.7 388.62 112.75 388.62H162.8C154.56 388.62 150.44 383.62 150.44 373.9V287.93Z" fill="black"/>
<path d="M203.43 373.89V307.65L165.75 314.42C173.4 314.71 177.53 319.13 177.82 327.96V373.89C177.82 383.6 173.7 388.61 165.75 388.61H215.8C207.56 388.61 203.43 383.61 203.43 373.89Z" fill="black"/>
<path d="M332.09 273.79C330.03 275.85 328.56 278.21 328.56 280.86C328.27 282.33 329.15 283.8 330.03 285.28C331.5 286.75 332.09 287.93 332.38 288.22C334.74 292.64 333.85 297.05 330.03 301.47C328.85 302.94 328.56 303.53 329.15 304.12C329.74 304.71 330.03 305 330.62 305C331.21 305 331.8 304.71 332.68 304.12C339.45 299.41 344.75 294.99 347.69 291.17C351.22 287.05 352.7 283.81 352.4 280.57C352.4 277.92 351.22 275.86 349.16 273.8C346.81 272.03 343.86 270.86 340.33 270.86C337.09 270.86 334.44 272.04 332.09 273.8V273.79Z" fill="black"/>
<path d="M404.8 310.59C400.68 309.12 395.67 308.53 389.79 307.65C384.2 307.36 377.72 307.06 370.65 307.06C364.76 307.06 358.87 307.65 352.1 309.42C345.62 311.19 340.32 313.84 336.5 317.37C332.67 320.61 330.61 324.73 330.61 329.15C330.61 333.86 332.96 338.28 337.97 341.81C342.68 345.64 351.81 349.46 365.05 353.29C378.3 357.12 386.84 360.65 390.07 363.3C393.01 365.95 394.78 369.48 394.49 372.72C394.49 376.25 392.13 378.9 388.6 380.67C384.77 382.44 380.06 383.32 373.59 383.61C367.11 383.32 361.81 382.73 356.81 382.14C351.81 381.26 348.27 379.79 345.62 377.14C342.68 374.78 339.44 370.37 335.9 363.89C333.55 363.89 332.07 364.18 331.48 364.48C331.19 364.48 330.6 365.07 330.6 365.95C330.6 367.42 331.48 373.02 333.25 381.85C333.54 383.03 333.54 384.21 333.54 384.79C333.83 385.97 334.13 387.14 335.31 387.73C346.2 390.67 357.98 392.15 371.23 392.15C376.82 392.15 383.01 391.27 390.07 389.5C397.14 388.03 402.14 385.38 405.97 381.55C409.5 377.72 412.15 373.6 413.04 369.48C413.92 365.06 413.63 361.24 411.27 357.41C409.21 353.58 405.38 350.34 400.38 347.7C395.08 344.76 387.13 341.22 376.53 337.4C365.64 333.57 359.45 330.63 357.39 328.86C355.03 327.09 353.86 325.03 353.86 322.09C354.15 319.15 355.63 317.38 358.86 316.2C361.8 315.02 365.93 314.14 371.22 313.55C376.81 312.96 382.41 314.14 388 316.79C393.59 319.44 397.71 323.56 400.95 329.45H407.13L406.54 326.21C406.25 319.14 405.66 314.14 404.77 310.61L404.8 310.59Z" fill="black"/>
<path d="M383.48 285.39V275.77H389.39C390.67 275.77 391.62 275.98 392.22 276.4C392.83 276.82 393.13 277.47 393.13 278.36C393.13 278.92 392.99 279.42 392.7 279.86C392.42 280.29 392.03 280.61 391.53 280.8C391.96 280.98 392.25 281.2 392.42 281.46C392.59 281.72 392.69 282.18 392.72 282.85C392.72 282.92 392.72 283 392.73 283.12C392.78 284.31 392.95 285.07 393.24 285.4H390.54C390.47 285.3 390.42 285.18 390.39 285.06C390.36 284.93 390.34 284.8 390.34 284.66V284.01C390.34 283.13 390.23 282.55 390 282.27C389.77 282 389.33 281.86 388.67 281.86H385.89V285.4H383.48V285.39ZM385.89 279.87H388.61C389.33 279.87 389.84 279.78 390.13 279.61C390.42 279.44 390.57 279.15 390.57 278.74C390.57 278.33 390.43 278.08 390.16 277.92C389.89 277.76 389.34 277.68 388.51 277.68H385.89V279.87Z" fill="black"/>
<path d="M388.37 291.22C381.68 291.22 376.23 286.45 376.23 280.58C376.23 274.71 381.68 269.94 388.37 269.94C395.06 269.94 400.51 274.71 400.51 280.58C400.51 286.45 395.06 291.22 388.37 291.22ZM388.37 271.79C382.7 271.79 378.08 275.73 378.08 280.58C378.08 285.43 382.7 289.37 388.37 289.37C394.04 289.37 398.66 285.43 398.66 280.58C398.66 275.73 394.04 271.79 388.37 271.79Z" fill="black"/>
</g>
<defs>
<clipPath id="clip0_315_2967">
<rect width="478.11" height="392.14" fill="white"/>
</clipPath>
</defs>
</svg>
