<svg width="40" height="40" viewBox="0 0 40 40" fill="none" xmlns="http://www.w3.org/2000/svg">
<path d="M29.1675 3.00812C29.1339 3.00882 27.6961 4.13085 27.6961 4.13085L25.4332 3.67835C25.4166 3.68304 23.547 5.46445 23.547 5.46445L21.5433 5.34421L20.3355 6.65859L18.1423 6.60218L16.6957 8.21273L14.7136 8.44148L13.3759 9.87663L11.2497 10.5759L9.99484 12.3413L8.14172 12.8276L7.12578 14.4273L5.47328 15.3093L4.89508 17.0109L3.04602 18.1007L2.8057 19.9678C3.95508 19.5509 5.02977 20.0229 5.84875 20.6241L7.85852 19.3764L10.5868 18.9428L12.9319 16.8268L16.4639 16.4134L19.0397 14.0926L21.593 13.4537L23.1753 11.3765C23.9913 10.9202 25.1695 10.596 26.211 10.161L26.9766 8.21609L29.1886 7.37468C29.2006 7.36156 29.2136 7.34804 29.2255 7.33484L29.4663 5.86913L31.0668 4.6532C31.0705 4.64356 31.0741 4.63398 31.0777 4.62445L29.8336 4.16015L29.1675 3.00812ZM20 16.2106L19.9449 16.2109C19.7209 16.3436 19.4962 16.475 19.2707 16.6051C18.6458 16.9643 18.0152 17.3134 17.379 17.6521C18.2525 17.6285 19.1262 17.6168 20 17.6169C24.7986 17.6169 29.1448 17.9666 32.2508 18.5212C33.8038 18.7986 35.0503 19.1319 35.8512 19.4701C36.2518 19.6391 36.5383 19.8131 36.6821 19.9387C36.7442 19.9928 36.7644 20.0201 36.7782 20.0387C36.7644 20.0575 36.7442 20.0847 36.6821 20.1388C36.5384 20.2644 36.2518 20.4384 35.8512 20.6074C35.0503 20.9456 33.8038 21.2789 32.2509 21.5562C29.1448 22.1109 24.7985 22.4606 20 22.4606C15.298 22.4606 11.0335 22.1244 7.94141 21.5891C7.85844 21.612 7.77359 21.6367 7.69164 21.6586C6.52313 21.9703 5.46484 22.1698 4.53 22.2397C5.35953 22.5036 6.35375 22.7356 7.50195 22.9407C10.7298 23.517 15.1336 23.8669 20 23.8669C24.8664 23.8669 29.2702 23.517 32.498 22.9407C34.112 22.6524 35.4282 22.3125 36.3983 21.9029C36.8834 21.6982 37.2845 21.4796 37.6069 21.1982C37.9292 20.9169 38.2031 20.5205 38.2031 20.0388C38.2031 19.557 37.9292 19.1605 37.6068 18.8792C37.2845 18.598 36.8834 18.3794 36.3983 18.1745C35.4282 17.765 34.112 17.425 32.498 17.1369C29.2702 16.5605 24.8664 16.2106 20 16.2106ZM37.5 22.533C36.1027 23.2643 34.1955 23.7598 31.9645 24.1749C28.5062 24.8185 24.2567 25.1462 20.0048 25.1761C15.753 25.2059 11.5048 24.9377 8.05008 24.3701C6.32273 24.0863 4.79422 23.7289 3.54781 23.2842C3.1732 23.1505 2.82344 23.0108 2.5 22.8608V31.6494C6.77555 33.2009 13.397 34.0231 20 34.0231C26.603 34.0231 33.2245 33.2009 37.5 31.6494V22.533ZM1.82453 32.9012C1.80618 32.9875 1.79691 33.0755 1.79688 33.1637C1.79688 33.6455 2.07078 34.0419 2.3932 34.3233C2.71555 34.6046 3.11664 34.8231 3.60172 35.028C4.5718 35.4375 5.88805 35.7775 7.50195 36.0657C10.7298 36.642 15.1336 36.9919 20 36.9919C24.8664 36.9919 29.2702 36.642 32.498 36.0657C34.112 35.7774 35.4282 35.4375 36.3983 35.0279C36.8834 34.8232 37.2845 34.6046 37.6069 34.3232C37.9292 34.0419 38.2031 33.6455 38.2031 33.1638C38.2031 33.0732 38.1934 32.9855 38.1755 32.9012C33.603 34.6185 26.8122 35.4294 20 35.4294C13.1878 35.4294 6.39695 34.6184 1.82453 32.9012Z" fill="#C37C0B"/>
</svg>
