<svg width="53" height="54" viewBox="0 0 53 54" fill="none" xmlns="http://www.w3.org/2000/svg">
<path d="M3.3125 0.5C1.48307 0.5 0 1.89583 0 3.61765C0 5.33946 1.48307 6.73529 3.3125 6.73529H7.35116L8.36333 10.5458C8.37396 10.5899 8.38559 10.6336 8.39818 10.6769L12.894 27.6024L9.93733 30.3851C5.76381 34.3131 8.71966 41.0294 14.6219 41.0294H43.0625C44.8916 41.0294 46.375 39.6336 46.375 37.9118C46.375 36.1899 44.8916 34.7941 43.0625 34.7941H14.6219L17.9344 31.6765H39.75C41.0048 31.6765 42.1515 31.0093 42.7127 29.953L52.6502 11.2472C53.1636 10.2808 53.109 9.13305 52.5054 8.2139C51.9016 7.29476 50.8356 6.73529 49.6875 6.73529H14.1801L13.1511 2.86149C12.7824 1.47364 11.4575 0.5 9.9375 0.5H3.3125Z" fill="#E2A110"/>
<path d="M46.3748 48.8236C46.3748 51.4062 44.1501 53.5 41.406 53.5C38.662 53.5 36.4373 51.4062 36.4373 48.8236C36.4373 46.2409 38.662 44.1471 41.406 44.1471C44.1501 44.1471 46.3748 46.2409 46.3748 48.8236Z" fill="#E2A110"/>
<path d="M14.9058 53.5C17.65 53.5 19.8746 51.4062 19.8746 48.8236C19.8746 46.2409 17.65 44.1471 14.9058 44.1471C12.1616 44.1471 9.93707 46.2409 9.93707 48.8236C9.93707 51.4062 12.1616 53.5 14.9058 53.5Z" fill="#E2A110"/>
</svg>
