<svg width="38" height="24" viewBox="0 0 38 24" fill="none" xmlns="http://www.w3.org/2000/svg">
<path fill-rule="evenodd" clip-rule="evenodd" d="M32.5416 0.0200672C32.0758 0.0353905 31.6107 0.0506891 31.168 0L4.35317 0.0323765C3.74866 0.0864562 3.20723 0.432282 2.70722 0.810484C1.54044 1.75652 0.894515 3.32412 0.915361 5.05396C0.915361 5.081 0.957051 5.081 0.957051 5.05396L12.9584 4.99952C13.7294 5.0536 14.417 5.26992 15.146 5.56701C16.7086 6.13449 17.9379 8.26957 18.2503 10.2157C18.334 8.51292 18.4121 6.74253 18.4588 4.94544L25.4018 4.96572C25.2687 6.24341 25.193 7.54594 25.1178 8.84166C25.0753 9.57404 25.0329 10.3042 24.9803 11.0266C26.0041 9.49266 26.9979 7.90054 27.9872 6.31574C28.1657 6.02986 28.344 5.74422 28.5223 5.4592C28.5983 5.38514 28.658 5.28713 28.7139 5.19544C28.7804 5.08626 28.8415 4.98602 28.9181 4.9458L37.3146 4.91876C37.3768 3.08112 36.5647 1.48648 35.3974 0.62156C34.5955 -0.0474953 33.5667 -0.0136542 32.5416 0.0200672ZM37.3097 18.779C37.3123 18.7735 37.3153 18.7671 37.3153 18.7568L37.3151 5.13474L37.2734 5.1077C36.0096 6.48427 34.8976 8.02748 33.7799 9.57845C33.4053 10.0983 33.03 10.6191 32.6482 11.1347L32.6274 11.2429C34.1051 13.808 35.6249 16.4267 37.3102 18.8029C37.3115 18.8051 37.3132 18.8075 37.3153 18.8101C37.3136 18.8077 37.3119 18.8053 37.3102 18.8029C37.3035 18.7918 37.3062 18.7862 37.3097 18.779ZM11.167 13.1079C11.5419 12.7027 11.8755 12.1889 11.8546 11.5403C11.5251 9.90426 9.991 9.9584 8.74175 10.0025C8.3917 10.0148 8.06401 10.0264 7.79146 9.99977L7.56243 13.6754C7.90158 13.6552 8.25318 13.6743 8.60467 13.6935C9.53805 13.7443 10.4706 13.7952 11.167 13.1079ZM29.2853 18.9797C28.9739 18.9975 28.6784 19.0143 28.5642 18.5138L24.918 11.6755C24.7932 14.0807 24.6887 16.6217 24.6475 19.0535C24.6475 19.0535 19.9798 19.0265 17.7508 19.0535C17.8538 17.833 17.9171 16.6021 17.98 15.3799C18.0187 14.6268 18.0573 13.877 18.1049 13.135C17.8547 13.9729 17.5632 14.7837 17.1882 15.5675C16.1463 17.7026 14.438 18.7027 12.6668 18.9731L0.915843 19.0539C0.919138 19.7003 1.01079 20.341 1.18656 20.9459C1.68684 22.568 2.99926 23.8645 4.31196 24L20.23 23.9459H33.3772C33.9818 23.9459 34.5652 23.8111 35.0857 23.5136C36.461 22.7569 37.3573 20.8645 37.2945 18.9731H29.4606C29.4023 18.9731 29.3435 18.9764 29.2853 18.9797Z" fill="#062F4B"/>
</svg>
