<svg width="306" height="120" viewBox="0 0 306 120" fill="none" xmlns="http://www.w3.org/2000/svg">
<path d="M34.2232 21.3976C40.1246 21.3976 44.9221 16.6002 44.9221 10.6988C44.9221 4.79749 40.1246 0 34.2232 0C28.3219 0 23.5244 4.79749 23.5244 10.6988C23.5244 16.6002 28.3219 21.3976 34.2232 21.3976Z" fill="#035A89"/>
<path d="M66.0225 60.0111L65.5343 60.372C63.5601 61.773 60.8429 61.3273 59.4419 59.3531L48.3397 43.7931V112.465C48.3397 116.01 45.474 118.876 41.9289 118.876C38.3839 118.876 35.5181 116.01 35.5181 112.465V77.8213H32.1004V112.465C32.1004 116.01 29.2347 118.876 25.6896 118.876C22.1446 118.876 19.2788 116.01 19.2788 112.465V44.9818L8.91967 59.5017C7.51863 61.4759 4.78024 61.9216 2.82728 60.5206L2.12676 60.0111C0.173805 58.6101 -0.293207 55.8717 1.10783 53.9187L19.576 28.042C20.6374 26.5773 22.4206 25.9405 24.0763 26.3226H44.0729C45.7499 25.9405 47.5543 26.5561 48.6157 28.042L67.0839 53.9187C68.4849 55.8717 68.0179 58.6101 66.065 60.0111H66.0225Z" fill="#035A89"/>
<path d="M34.2232 21.5251C40.1246 21.5251 44.9221 16.7276 44.9221 10.8263C44.9221 4.92493 40.1246 0.127441 34.2232 0.127441C28.3219 0.127441 23.5244 4.92493 23.5244 10.8263C23.5244 16.7276 28.3219 21.5251 34.2232 21.5251Z" fill="#035A89"/>
<path d="M48.3397 85.1238V112.593C48.3397 116.138 45.4739 119.003 41.9289 119.003C38.3838 119.003 35.5181 116.138 35.5181 112.593V85.1238" fill="#CD316D"/>
<path d="M32.1004 85.1238V112.593C32.1004 116.138 29.2347 119.003 25.6896 119.003C22.1446 119.003 19.2788 116.138 19.2788 112.593V85.1238" fill="#CD316D"/>
<path d="M102.47 22.0344C108.372 22.0344 113.169 17.2369 113.169 11.3355C113.169 5.43421 108.393 0.636719 102.47 0.636719C96.5477 0.636719 91.7715 5.43421 91.7715 11.3355C91.7715 17.2369 96.569 22.0344 102.47 22.0344Z" fill="#035A89"/>
<path d="M134.27 60.6479L133.781 61.0087C131.807 62.4098 129.09 61.964 127.689 59.9898L116.587 44.4298V113.102C116.587 116.647 113.721 119.513 110.176 119.513C106.631 119.513 103.765 116.647 103.765 113.102V78.458H100.348V113.102C100.348 116.647 97.4818 119.513 93.9367 119.513C90.3917 119.513 87.5259 116.647 87.5259 113.102V45.6186L77.1667 60.1384C75.7657 62.1126 73.0273 62.5584 71.0744 61.1573L70.3738 60.6479C68.4209 59.2468 67.9539 56.5084 69.3549 54.5555L87.8231 28.6788C88.8845 27.214 90.6676 26.5772 92.3234 26.9593H112.32C113.997 26.5772 115.801 27.1928 116.863 28.6788L135.331 54.5555C136.732 56.5084 136.265 59.2468 134.312 60.6479H134.27Z" fill="#035A89"/>
<path d="M102.47 22.162C108.372 22.162 113.169 17.3646 113.169 11.4632C113.169 5.56189 108.393 0.764404 102.47 0.764404C96.5477 0.764404 91.7715 5.56189 91.7715 11.4632C91.7715 17.3646 96.569 22.162 102.47 22.162Z" fill="#035A89"/>
<path d="M116.587 85.76V113.229C116.587 116.774 113.721 119.64 110.176 119.64C106.631 119.64 103.765 116.774 103.765 113.229V85.76" fill="#CD316D"/>
<path d="M100.347 85.76V113.229C100.347 116.774 97.4817 119.64 93.9367 119.64C90.3916 119.64 87.5259 116.774 87.5259 113.229V85.76" fill="#CD316D"/>
<path d="M154.436 59.5652C157.981 59.5652 160.868 56.6782 160.868 53.1332C160.868 49.5882 157.981 46.7012 154.436 46.7012C150.891 46.7012 148.004 49.5882 148.004 53.1332C148.004 56.6782 150.891 59.5652 154.436 59.5652Z" fill="#035A89"/>
<path d="M173.584 82.8312L173.287 83.0435C172.098 83.8926 170.463 83.6166 169.614 82.4279L162.928 73.0664V114.418C162.928 116.541 161.208 118.282 159.064 118.282C156.92 118.282 155.201 116.562 155.201 114.418V93.5725H153.141V114.418C153.141 116.541 151.422 118.282 149.278 118.282C147.134 118.282 145.415 116.562 145.415 114.418V73.7881L139.174 82.534C138.324 83.7228 136.69 83.9987 135.501 83.1496L135.077 82.8524C133.888 82.0033 133.633 80.3688 134.461 79.18L145.584 63.5988C146.221 62.7072 147.304 62.3463 148.302 62.5586H160.338C161.335 62.3251 162.439 62.7072 163.076 63.5988L174.199 79.18C175.049 80.3688 174.773 82.0033 173.584 82.8524V82.8312Z" fill="#035A89"/>
<path d="M154.436 59.6927C157.981 59.6927 160.868 56.8057 160.868 53.2606C160.868 49.7156 157.981 46.8286 154.436 46.8286C150.891 46.8286 148.004 49.7156 148.004 53.2606C148.004 56.8057 150.891 59.6927 154.436 59.6927Z" fill="#035A89"/>
<path d="M162.928 85.1238V114.546C162.928 116.668 161.208 118.409 159.064 118.409C156.92 118.409 155.201 116.69 155.201 114.546V93.6998H153.141V114.546C153.141 116.668 151.422 118.409 149.278 118.409C147.134 118.409 145.415 116.69 145.415 114.546V85.1238" fill="#CD316D"/>
<path d="M195.406 59.7139C198.951 59.7139 201.838 56.8269 201.838 53.2819C201.838 49.7368 198.951 46.8499 195.406 46.8499C191.861 46.8499 188.974 49.7368 188.974 53.2819C188.974 56.8269 191.861 59.7139 195.406 59.7139Z" fill="#035A89"/>
<path d="M214.553 82.9794L214.256 83.1917C213.067 84.0408 211.433 83.7648 210.584 82.5761L203.897 73.2146V114.566C203.897 116.689 202.177 118.43 200.033 118.43C197.889 118.43 196.17 116.71 196.17 114.566V93.7207H194.111V114.566C194.111 116.689 192.391 118.43 190.247 118.43C188.103 118.43 186.384 116.71 186.384 114.566V73.9363L180.143 82.6822C179.294 83.871 177.659 84.1469 176.47 83.2978L176.046 83.0006C174.857 82.1515 174.602 80.517 175.43 79.3282L186.554 63.747C187.19 62.8554 188.273 62.4945 189.271 62.7068H201.307C202.305 62.4733 203.409 62.8554 204.045 63.747L215.169 79.3282C216.018 80.517 215.742 82.1515 214.553 83.0006V82.9794Z" fill="#035A89"/>
<path d="M195.406 59.8409C198.951 59.8409 201.838 56.9539 201.838 53.4088C201.838 49.8638 198.951 46.9768 195.406 46.9768C191.861 46.9768 188.974 49.8638 188.974 53.4088C188.974 56.9539 191.861 59.8409 195.406 59.8409Z" fill="#035A89"/>
<path d="M203.897 85.272V114.694C203.897 116.817 202.177 118.557 200.033 118.557C197.889 118.557 196.17 116.838 196.17 114.694V93.848H194.111V114.694C194.111 116.817 192.391 118.557 190.247 118.557C188.103 118.557 186.384 116.838 186.384 114.694V85.272" fill="#CD316D"/>
<path d="M304.619 84.699H51.8966C48.4814 84.699 45.0444 84.6353 41.6073 84.699C41.4541 84.699 41.3227 84.699 41.1695 84.699C39.7684 84.699 39.7684 86.8217 41.1695 86.8217H293.914C297.329 86.8217 300.766 86.8854 304.203 86.8217C304.356 86.8217 304.487 86.8217 304.641 86.8217C306.042 86.8217 306.042 84.699 304.641 84.699H304.619Z" fill="#062F4B"/>
<path d="M282.728 85.7605H19.2788" stroke="#062F4B" stroke-width="2.12278" stroke-miterlimit="10"/>
<path d="M221.757 47V16.28L225.117 19.64H215.037V13.4H229.533V47H221.757ZM250.394 47.576C247.322 47.576 244.65 46.936 242.378 45.656C240.138 44.376 238.41 42.504 237.194 40.04C235.978 37.576 235.37 34.536 235.37 30.92C235.37 27.048 236.09 23.768 237.53 21.08C239.002 18.392 241.018 16.344 243.578 14.936C246.17 13.528 249.146 12.824 252.506 12.824C254.298 12.824 256.01 13.016 257.642 13.4C259.274 13.784 260.682 14.36 261.866 15.128L258.986 20.84C258.058 20.2 257.066 19.768 256.01 19.544C254.954 19.288 253.85 19.16 252.698 19.16C249.786 19.16 247.482 20.04 245.786 21.8C244.09 23.56 243.242 26.168 243.242 29.624C243.242 30.2 243.242 30.84 243.242 31.544C243.274 32.248 243.37 32.952 243.53 33.656L241.37 31.64C241.978 30.392 242.762 29.352 243.722 28.52C244.682 27.656 245.818 27.016 247.13 26.6C248.474 26.152 249.946 25.928 251.546 25.928C253.722 25.928 255.674 26.36 257.402 27.224C259.13 28.088 260.506 29.304 261.53 30.872C262.586 32.44 263.114 34.28 263.114 36.392C263.114 38.664 262.538 40.648 261.386 42.344C260.266 44.008 258.746 45.304 256.826 46.232C254.938 47.128 252.794 47.576 250.394 47.576ZM249.962 41.768C251.05 41.768 252.01 41.576 252.842 41.192C253.706 40.776 254.378 40.184 254.858 39.416C255.338 38.648 255.578 37.768 255.578 36.776C255.578 35.24 255.05 34.024 253.994 33.128C252.97 32.2 251.594 31.736 249.866 31.736C248.714 31.736 247.706 31.96 246.842 32.408C245.978 32.824 245.29 33.416 244.778 34.184C244.298 34.92 244.058 35.784 244.058 36.776C244.058 37.736 244.298 38.6 244.778 39.368C245.258 40.104 245.93 40.696 246.794 41.144C247.658 41.56 248.714 41.768 249.962 41.768ZM269.843 47L292.787 13.4H298.499L275.555 47H269.843ZM272.771 31.544C271.139 31.544 269.699 31.176 268.451 30.44C267.203 29.672 266.211 28.6 265.475 27.224C264.771 25.816 264.419 24.168 264.419 22.28C264.419 20.392 264.771 18.76 265.475 17.384C266.211 16.008 267.203 14.936 268.451 14.168C269.699 13.4 271.139 13.016 272.771 13.016C274.403 13.016 275.843 13.4 277.091 14.168C278.339 14.936 279.315 16.008 280.019 17.384C280.723 18.76 281.075 20.392 281.075 22.28C281.075 24.168 280.723 25.816 280.019 27.224C279.315 28.6 278.339 29.672 277.091 30.44C275.843 31.176 274.403 31.544 272.771 31.544ZM272.771 27.608C273.827 27.608 274.675 27.176 275.315 26.312C275.955 25.416 276.275 24.072 276.275 22.28C276.275 20.488 275.955 19.16 275.315 18.296C274.675 17.4 273.827 16.952 272.771 16.952C271.747 16.952 270.899 17.4 270.227 18.296C269.587 19.16 269.267 20.488 269.267 22.28C269.267 24.04 269.587 25.368 270.227 26.264C270.899 27.16 271.747 27.608 272.771 27.608ZM295.571 47.384C293.971 47.384 292.531 47.016 291.251 46.28C290.003 45.512 289.027 44.44 288.323 43.064C287.619 41.656 287.267 40.008 287.267 38.12C287.267 36.232 287.619 34.6 288.323 33.224C289.027 31.848 290.003 30.776 291.251 30.008C292.531 29.24 293.971 28.856 295.571 28.856C297.235 28.856 298.691 29.24 299.939 30.008C301.187 30.776 302.163 31.848 302.867 33.224C303.571 34.6 303.923 36.232 303.923 38.12C303.923 40.008 303.571 41.656 302.867 43.064C302.163 44.44 301.187 45.512 299.939 46.28C298.691 47.016 297.235 47.384 295.571 47.384ZM295.571 43.448C296.627 43.448 297.475 43.016 298.115 42.152C298.755 41.256 299.075 39.912 299.075 38.12C299.075 36.36 298.755 35.032 298.115 34.136C297.475 33.24 296.627 32.792 295.571 32.792C294.547 32.792 293.699 33.24 293.027 34.136C292.387 35 292.067 36.328 292.067 38.12C292.067 39.912 292.387 41.256 293.027 42.152C293.699 43.016 294.547 43.448 295.571 43.448Z" fill="#062F4B"/>
</svg>
