<svg width="36" height="24" viewBox="0 0 36 24" fill="none" xmlns="http://www.w3.org/2000/svg">
<path d="M4.68882 11.0891H0.583559C0.360087 11.0891 0.186275 10.8847 0.186275 10.643C0.186275 10.5594 0.202829 10.4757 0.244213 10.4107C0.848415 9.30462 2.32167 6.99959 5.13576 4.69457H5.14404C5.24336 4.60162 8.19816 1.70176 13.4208 0.502774C13.4208 0.502774 20.6629 -1.41188 27.6568 2.23154C27.6568 2.23154 33.5084 5.51248 35.9501 10.4292C36.0577 10.643 35.9832 10.9218 35.7928 11.0334C35.7349 11.0706 35.6686 11.0891 35.6024 11.0891H33.8395C33.2684 11.0891 32.747 10.7453 32.4573 10.1969C31.9441 9.18379 30.8019 7.41784 28.4762 5.54036C28.4762 5.54036 24.2716 2.05495 17.6667 2.78921C17.6667 2.78921 13.9091 3.09593 10.7971 5.28012H10.7888C10.706 5.32659 8.81064 6.37686 6.06276 10.3177C5.73997 10.8103 5.22681 11.0891 4.68882 11.0891Z" fill="#062F4B"/>
<path d="M31.4651 12.9014H35.5704C35.7939 12.9014 35.9677 13.1058 35.9677 13.3475C35.9677 13.4312 35.9511 13.5055 35.9097 13.5799C35.3055 14.6859 33.8323 16.9909 31.0182 19.2959L31.0099 19.3052C30.894 19.4261 27.931 22.3073 22.7415 23.497C22.7415 23.497 15.5076 25.4117 8.50547 21.7683C8.50547 21.7683 2.65381 18.4873 0.212176 13.5706C0.104578 13.3568 0.179069 13.078 0.369434 12.9664C0.427371 12.9293 0.493585 12.9107 0.559799 12.9107H2.30619C2.87729 12.9107 3.407 13.2546 3.68841 13.8122C4.20156 14.8253 5.34375 16.5913 7.66952 18.4687C7.66952 18.4687 11.8741 21.9542 18.4707 21.2199C18.4707 21.2199 22.2283 20.9132 25.3404 18.729L25.3486 18.7197C25.4645 18.6546 27.3433 17.5951 30.0664 13.6821C30.414 13.1895 30.9272 12.9107 31.4651 12.9014Z" fill="#062F4B"/>
<path d="M22.2359 13.952C21.7807 13.952 21.3503 14.2029 21.0855 14.6305C20.6385 15.3647 19.9847 15.9131 19.2315 16.1919C19.2315 16.1919 16.9719 17.1121 15.3083 14.9744L23.8665 10.6617C24.2058 10.4851 24.3631 10.039 24.2389 9.64864C22.956 5.88439 19.1984 3.99762 15.8463 5.43826C12.4942 6.8789 10.814 11.0986 12.0969 14.8628C13.3798 18.6271 17.1375 20.5138 20.4896 19.0732C22.3435 18.2832 23.7671 16.5823 24.3713 14.4539C24.4293 14.2401 24.3217 14.017 24.1396 13.952C24.1065 13.9427 24.0651 13.9334 24.032 13.9334L22.2359 13.952ZM14.4393 12.2976C14.4393 10.039 16.0698 8.19871 18.081 8.19871C19.1736 8.19871 20.1999 8.73778 20.8951 9.68582L14.4889 12.9389C14.4558 12.7251 14.4393 12.5113 14.4393 12.2976Z" fill="#062F4B"/>
</svg>
