<svg width="40" height="40" viewBox="0 0 40 40" fill="none" xmlns="http://www.w3.org/2000/svg">
<g clip-path="url(#clip0_238_8112)">
<path d="M40.0001 20C40.0001 18.7078 38.8852 16.3469 36.4368 14.2188C35.0393 13.0166 33.4465 12.0622 31.7274 11.3969C31.6702 11.3755 31.6071 11.3761 31.5504 11.3986C31.4937 11.4212 31.4473 11.464 31.4204 11.5188C31.4086 11.5414 31.3969 11.5633 31.3836 11.5859L30.6344 12.8281C29.371 15.0099 28.7061 17.4866 28.707 20.0078C28.708 22.529 29.3748 25.0052 30.6399 27.1859L30.6579 27.2164L31.3407 28.4664C31.3769 28.5328 31.436 28.5838 31.507 28.6099C31.5779 28.6361 31.656 28.6356 31.7266 28.6086C37.4711 26.3609 40.0001 21.9914 40.0001 20ZM32.6626 19.9891C32.4037 20.0229 32.1407 19.9749 31.9105 19.8516C31.6803 19.7284 31.4945 19.5362 31.3791 19.302C31.2638 19.0678 31.2246 18.8033 31.2672 18.5457C31.3098 18.2881 31.432 18.0504 31.6166 17.8657C31.8012 17.6811 32.039 17.5589 32.2966 17.5164C32.5542 17.4738 32.8186 17.5129 33.0528 17.6283C33.287 17.7437 33.4793 17.9295 33.6025 18.1597C33.7257 18.3899 33.7738 18.6528 33.7399 18.9117C33.7042 19.1849 33.5792 19.4387 33.3843 19.6335C33.1895 19.8283 32.9358 19.9533 32.6626 19.9891Z" fill="#C37C0B"/>
<path d="M26.2072 20C26.2061 17.0362 26.9899 14.125 28.479 11.5625L28.4884 11.5461L28.8493 10.9469C28.8754 10.9042 28.8909 10.8558 28.8944 10.8059C28.8979 10.756 28.8894 10.706 28.8696 10.6601C28.8498 10.6141 28.8192 10.5736 28.7805 10.542C28.7417 10.5103 28.696 10.4884 28.647 10.4781C27.6357 10.2665 26.6108 10.1258 25.5798 10.057C25.4582 10.0492 25.3417 10.0057 25.2447 9.93202C23.7384 8.78671 20.7525 6.78358 17.7087 6.26874C17.5007 6.23427 17.2874 6.25298 17.0886 6.32311C16.8897 6.39324 16.7119 6.51253 16.5716 6.66986C16.4312 6.8272 16.3329 7.01747 16.2859 7.22299C16.2389 7.4285 16.2446 7.64258 16.3025 7.8453L17.1322 10.7492C17.1537 10.8245 17.1463 10.9051 17.1113 10.9751C17.0763 11.0451 17.0162 11.0994 16.9431 11.1273C14.0642 12.1969 11.5845 14.1547 9.77591 15.6469C9.66522 15.7375 9.5268 15.7874 9.38377 15.7882C9.24073 15.7891 9.10173 15.7408 8.98997 15.6516C8.74414 15.4562 8.49179 15.2638 8.23294 15.0742C5.13606 12.8125 1.49778 12.5148 1.34466 12.5039C1.15024 12.4892 0.955086 12.5202 0.774786 12.5944C0.594486 12.6686 0.434043 12.7839 0.306279 12.9312C0.178514 13.0785 0.0869721 13.2536 0.0389682 13.4426C-0.00903577 13.6315 -0.0121704 13.8291 0.0298149 14.0195C0.0626274 14.1703 0.747784 17.1984 2.50638 19.614C2.58554 19.7223 2.62821 19.853 2.62821 19.9871C2.62821 20.1212 2.58554 20.2519 2.50638 20.3601C0.747784 22.775 0.0626274 25.8039 0.0298149 25.9547C-0.0121704 26.1451 -0.00903577 26.3426 0.0389682 26.5316C0.0869721 26.7206 0.178514 26.8957 0.306279 27.043C0.434043 27.1903 0.594486 27.3056 0.774786 27.3798C0.955086 27.454 1.15024 27.485 1.34466 27.4703C1.50091 27.4594 5.13606 27.1578 8.22903 24.9016C8.48164 24.7161 8.72825 24.5281 8.96888 24.3375C9.08073 24.2483 9.21978 24.2002 9.36281 24.2012C9.50585 24.2022 9.64422 24.2522 9.75481 24.343C11.5712 25.8422 14.0556 27.8023 16.9423 28.8742C17.0153 28.9021 17.0752 28.9563 17.1102 29.0261C17.1452 29.096 17.1527 29.1764 17.1314 29.2516L16.2986 32.1562C16.2406 32.359 16.2349 32.573 16.282 32.7785C16.329 32.9841 16.4273 33.1743 16.5676 33.3317C16.708 33.489 16.8858 33.6083 17.0847 33.6784C17.2835 33.7486 17.4968 33.7673 17.7048 33.7328C19.0454 33.5062 21.7579 32.7281 25.2087 30.0742C25.3073 29.999 25.4257 29.9542 25.5493 29.9453C26.579 29.8779 27.6028 29.7396 28.6134 29.5312C28.6611 29.5212 28.7058 29.5002 28.7439 29.4698C28.7821 29.4395 28.8125 29.4006 28.833 29.3563C28.8534 29.3121 28.8632 29.2636 28.8615 29.2149C28.8599 29.1662 28.8469 29.1186 28.8236 29.0758L28.4712 28.4281C26.9865 25.8676 26.2054 22.9599 26.2072 20Z" fill="#C37C0B"/>
</g>
<defs>
<clipPath id="clip0_238_8112">
<rect width="40" height="40" fill="white"/>
</clipPath>
</defs>
</svg>
