<svg width="115" height="20" viewBox="0 0 115 20" fill="none" xmlns="http://www.w3.org/2000/svg">
<path d="M19.7143 0H0V19.7143H19.7143V0Z" fill="#00B67A"/>
<path d="M9.85724 13.143L12.9376 12.3216L14.1697 16.2234L9.85724 13.143ZM16.8394 8.21446H11.5001L9.85724 3.28589L8.21437 8.21446H2.87509L7.18759 11.2948L5.54473 16.2234L9.85724 13.143L12.5269 11.2948L16.8394 8.21446Z" fill="#FEF6EE"/>
<path d="M43.5355 0H23.8212V19.7143H43.5355V0Z" fill="#00B67A"/>
<path d="M33.6788 13.143L36.7592 12.3216L37.9913 16.2234L33.6788 13.143ZM40.661 8.21446H35.3217L33.6788 3.28589L32.036 8.21446H26.6967L31.0092 11.2948L29.3663 16.2234L33.6788 13.143L36.3485 11.2948L40.661 8.21446Z" fill="#FEF6EE"/>
<path d="M67.3572 0H47.6429V19.7143H67.3572V0Z" fill="#00B67A"/>
<path d="M57.4995 13.143L60.5798 12.3216L61.812 16.2234L57.4995 13.143ZM64.4816 8.21446H59.1423L57.4995 3.28589L55.8566 8.21446H50.5173L54.8298 11.2948L53.187 16.2234L57.4995 13.143L60.1691 11.2948L64.4816 8.21446Z" fill="#FEF6EE"/>
<path d="M91.1784 0H71.4641V19.7143H91.1784V0Z" fill="#00B67A"/>
<path d="M81.3215 13.143L84.4019 12.3216L85.634 16.2234L81.3215 13.143ZM88.3037 8.21446H82.9644L81.3215 3.28589L79.6787 8.21446H74.3394L78.6519 11.2948L77.009 16.2234L81.3215 13.143L83.9912 11.2948L88.3037 8.21446Z" fill="#FEF6EE"/>
<path d="M115 0H95.2857V19.7143H115V0Z" fill="#00B67A"/>
<path d="M105.143 13.143L108.223 12.3216L109.455 16.2234L105.143 13.143ZM112.125 8.21446H106.785L105.143 3.28589L103.5 8.21446H98.1605L102.473 11.2948L100.83 16.2234L105.143 13.143L107.812 11.2948L112.125 8.21446Z" fill="#FEF6EE"/>
</svg>
