<svg width="256" height="364" viewBox="0 0 256 364" fill="none" xmlns="http://www.w3.org/2000/svg">
<g clip-path="url(#clip0_142_1478)">
<path d="M76.0585 73.3289C76.0585 73.3289 69.8635 30.3034 58.9817 30.2878C48.0999 30.2721 56.857 83.5739 56.857 83.5739C56.857 83.5739 69.862 172.637 92.0721 225.977C94.2686 231.26 96.3157 236.598 98.1815 242.009C100.282 248.071 102.884 255.563 104.468 259.989C104.468 259.989 52.8336 263.767 58.8107 280.469C63.6159 293.888 138.954 280.325 168.364 274.484C177.494 272.671 186.374 269.784 194.765 265.773C197.615 264.407 199.855 263.176 200.271 262.481C200.271 262.481 224.609 341.914 242.742 320.111C260.874 298.308 240.814 276.022 240.814 276.022C240.814 276.022 219.047 257.799 213.926 255.438C210.936 254.064 212.451 250.939 214.23 248.586C216.913 245.024 219.125 241.134 220.575 236.916C224.401 225.793 228.45 205.637 217.543 186.326C208.423 170.18 198.348 157.147 191.291 148.838C181.028 136.761 172.218 123.495 165.328 109.204C159.411 96.9259 155.928 82.6312 153.522 71.3065C148.183 46.2593 125.138 37.4517 125.138 37.4517L133.357 64.9641L125.996 66.3446C125.996 66.3446 110.412 14.7451 102.731 20.2984C95.051 25.8517 104.127 71.3425 104.127 71.3425L93.8856 73.8959L91.2139 46.8195C91.2139 46.8195 78.6277 61.7823 76.0692 73.3353L76.0585 73.3289Z" fill="#AD235C"/>
<path d="M75.8456 72.4724C75.8456 72.4724 68.7037 107.453 86.8437 129.309C80.1214 122.344 71.4573 89.4481 75.8456 72.4724Z" fill="#F0F9FF"/>
<path d="M100.708 104.931C105.422 103.756 108.287 98.9692 107.108 94.2396C105.929 89.5101 101.152 86.6287 96.4382 87.8039C91.7248 88.9791 88.8597 93.7658 90.0389 98.4953C91.2182 103.225 95.9951 106.106 100.708 104.931Z" stroke="#F0F9FF" stroke-width="3" stroke-miterlimit="10"/>
<path d="M136.98 101.345C141.694 100.17 144.559 95.3831 143.38 90.6536C142.201 85.924 137.424 83.0427 132.71 84.2178C127.997 85.393 125.132 90.1797 126.311 94.9093C127.49 99.6388 132.267 102.52 136.98 101.345Z" stroke="#F0F9FF" stroke-width="3" stroke-miterlimit="10"/>
<path d="M113.712 98.2234C113.399 97.6922 113.563 97.0054 114.088 96.6745C115.176 95.9848 117.279 95.0055 119.654 95.6595C122.206 96.3694 119.93 99.129 118.556 100.527C118.042 101.046 117.257 101.169 116.623 100.809C115.703 100.283 114.412 99.395 113.71 98.2148L113.712 98.2234Z" fill="#F0F9FF"/>
<path d="M149.281 97.9963C151.848 98.2204 154.425 98.451 156.992 98.6751C157.355 98.712 157.724 98.7382 158.087 98.7751C158.616 98.8251 159.087 98.3164 159.096 97.8049C159.108 97.2378 158.662 96.8306 158.127 96.7913C155.56 96.5671 152.982 96.3366 150.415 96.1125C150.053 96.0756 149.684 96.0493 149.321 96.0124C148.792 95.9625 148.32 96.4711 148.312 96.9826C148.299 97.5497 148.745 97.957 149.281 97.9963Z" fill="#F0F9FF"/>
<path d="M147.519 100.964C149.977 102.098 152.435 103.231 154.902 104.363L155.935 104.833C156.417 105.058 156.998 104.986 157.292 104.494C157.542 104.078 157.443 103.356 156.952 103.133C154.494 101.999 152.036 100.866 149.569 99.7345L148.537 99.2643C148.054 99.0389 147.474 99.1108 147.18 99.6026C146.93 100.02 147.028 100.741 147.519 100.964Z" fill="#F0F9FF"/>
<path d="M144.914 103.642C146.856 105.032 148.798 106.421 150.74 107.811L151.579 108.411C151.999 108.716 152.692 108.516 152.935 108.073C153.209 107.568 153.048 107.035 152.596 106.711C150.654 105.322 148.712 103.932 146.77 102.543L145.932 101.942C145.511 101.638 144.818 101.838 144.575 102.28C144.302 102.785 144.462 103.318 144.914 103.642Z" fill="#F0F9FF"/>
<path d="M87.7252 104.448C85.2844 105.275 82.8436 106.102 80.4028 106.929L79.3488 107.282C78.8389 107.455 78.4955 107.932 78.6321 108.48C78.7538 108.968 79.3257 109.371 79.8271 109.201C82.2679 108.374 84.7087 107.547 87.1495 106.72L88.2035 106.366C88.7134 106.194 89.0569 105.717 88.9202 105.169C88.7985 104.681 88.2266 104.278 87.7252 104.448Z" fill="#F0F9FF"/>
<path d="M89.2534 107.414C87.1413 109.087 85.0207 110.762 82.9108 112.443L82.002 113.161C81.586 113.492 81.6373 114.207 81.9894 114.565C82.3927 114.983 82.9646 114.913 83.3891 114.58C85.5012 112.907 87.6218 111.232 89.7317 109.551L90.6406 108.833C91.0566 108.502 91.0052 107.787 90.6531 107.429C90.2498 107.011 89.678 107.081 89.2534 107.414Z" fill="#F0F9FF"/>
<path d="M92.4242 109.407C90.8648 111.224 89.3032 113.032 87.7438 114.849L87.0846 115.623C86.7326 116.029 86.6709 116.617 87.0721 117.027C87.4242 117.385 88.1219 117.456 88.4718 117.042C90.0312 115.225 91.5927 113.417 93.1522 111.6L93.8113 110.826C94.1633 110.42 94.2251 109.831 93.8239 109.422C93.4718 109.064 92.7741 108.992 92.4242 109.407Z" fill="#F0F9FF"/>
</g>
<defs>
<clipPath id="clip0_142_1478">
<rect width="182" height="328" fill="white" transform="translate(0.0283203 44.8864) rotate(-14)"/>
</clipPath>
</defs>
</svg>
