<svg width="154" height="160" viewBox="0 0 154 160" fill="none" xmlns="http://www.w3.org/2000/svg">
<g clip-path="url(#clip0_147_1758)">
<path d="M21.1051 3.07673C19.6186 2.43345 17.9992 3.66785 18.219 5.27894C19.4104 14.0936 23.0774 48.79 11.261 74.7471C1.31853 96.5779 0.0923538 118.281 0.404682 130.492C0.653388 140.205 6.11913 149.112 14.7776 153.493C22.0941 157.197 33.0777 160.019 49.365 159.121C49.9839 159.086 50.597 159.063 51.2158 159.063C59.1686 159.04 115.804 158.871 117.4 159.248C119.118 159.648 159.027 160.807 153.243 141.103C149.391 127.983 134 126.939 124.144 127.704C119.234 128.087 114.474 129.571 110.2 132.022C104.688 135.18 96.4687 139.973 92.8018 142.546C92.8018 142.546 94.8435 95.7782 78.5503 46.6399C77.5786 43.7017 76.6879 40.7345 75.8898 37.7442C73.4316 28.5354 64.7558 6.82049 48.9775 0.996223C48.5495 0.83975 48.162 1.30917 48.3991 1.69745C50.2268 4.69941 54.877 12.8186 53.4773 15.6293C53.4773 15.6293 41.9096 17.3679 34.3906 19.1065C34.3906 19.1065 26.8195 5.53393 21.1051 3.07094V3.07673Z" fill="#006BA6"/>
<path d="M45.1545 35.2697C44.9579 34.9509 45.0562 34.5337 45.3743 34.3308C46.0279 33.9078 47.2946 33.2993 48.7347 33.6818C50.279 34.0932 48.9198 35.7739 48.0985 36.6316C47.792 36.9503 47.3177 37.0314 46.9302 36.817C46.3691 36.5041 45.5883 35.9767 45.1603 35.2697H45.1545Z" fill="#F0F9FF"/>
<path d="M68.8508 34.4989C70.3893 34.7481 71.9336 34.9973 73.4721 35.2465L74.1256 35.3508C74.4727 35.4087 74.8255 35.2639 74.9238 34.893C75.0106 34.58 74.8197 34.1454 74.4669 34.0932C72.9284 33.844 71.3841 33.5948 69.8456 33.3456L69.192 33.2413C68.845 33.1833 68.4922 33.3282 68.3938 33.6991C68.3071 34.0121 68.498 34.4467 68.8508 34.4989Z" fill="#F0F9FF"/>
<path d="M67.7869 36.2491C69.2155 37.0372 70.6441 37.8254 72.0727 38.6077L72.6858 38.9439C73.4203 39.3495 74.0797 38.2253 73.3452 37.8196C71.9165 37.0314 70.4879 36.2433 69.0593 35.4609L68.4462 35.1248C67.7117 34.7191 67.0523 35.8434 67.7869 36.2491Z" fill="#F0F9FF"/>
<path d="M65.9704 37.6457C67.0809 38.5672 68.1914 39.4944 69.3019 40.4159L69.7761 40.8099C70.0364 41.0302 70.4413 41.0881 70.6958 40.8099C70.9156 40.5723 70.9734 40.1203 70.6958 39.8885C69.5853 38.967 68.4748 38.0398 67.3643 37.1183L66.89 36.7243C66.6297 36.504 66.2248 36.4461 65.9704 36.7243C65.7506 36.9619 65.6927 37.4139 65.9704 37.6457Z" fill="#F0F9FF"/>
<path d="M27.3286 39.6045C25.819 39.9986 24.3037 40.3869 22.7941 40.7809L22.1578 40.949C21.3481 41.1576 21.6893 42.4152 22.5049 42.2066C24.0145 41.8125 25.5298 41.4242 27.0394 41.0301L27.6756 40.8621C28.4854 40.6534 28.1441 39.3959 27.3286 39.6045Z" fill="#F0F9FF"/>
<path d="M28.2425 41.3895C26.889 42.3051 25.5414 43.2266 24.188 44.1422L23.6154 44.5305C23.3262 44.7276 23.1989 45.1043 23.384 45.423C23.5518 45.7128 23.9798 45.8576 24.2747 45.6548C25.6282 44.7392 26.9758 43.8177 28.3292 42.902L28.9018 42.5138C29.191 42.3167 29.3183 41.94 29.1332 41.6213C28.9654 41.3315 28.5374 41.1866 28.2425 41.3895Z" fill="#F0F9FF"/>
<path d="M29.9312 42.8267C28.9133 43.8467 27.8953 44.8724 26.8773 45.8924C26.7328 46.0373 26.5824 46.188 26.4378 46.3329C26.1949 46.5763 26.1775 47.0167 26.4378 47.2543C26.6981 47.4919 27.1029 47.5151 27.3574 47.2543C28.3754 46.2343 29.3933 45.2086 30.4113 44.1886C30.5559 44.0437 30.7063 43.893 30.8509 43.7482C31.0938 43.5048 31.1111 43.0643 30.8509 42.8267C30.5906 42.5891 30.1857 42.5659 29.9312 42.8267Z" fill="#F0F9FF"/>
<path d="M36.5555 40.5304C40.3167 39.8774 42.8577 36.4106 42.2311 32.787C41.6045 29.1635 38.0475 26.7554 34.2863 27.4084C30.5251 28.0613 27.984 31.5282 28.6107 35.1517C29.2373 38.7753 32.7943 41.1834 36.5555 40.5304Z" fill="#F0F9FF"/>
<path d="M36.7739 37.9761C39.7095 37.9761 42.0892 35.5916 42.0892 32.6502C42.0892 29.7088 39.7095 27.3243 36.7739 27.3243C33.8383 27.3243 31.4585 29.7088 31.4585 32.6502C31.4585 35.5916 33.8383 37.9761 36.7739 37.9761Z" fill="#006BA6"/>
<path d="M60.1341 36.435C63.8953 35.782 66.4363 32.3152 65.8097 28.6917C65.1831 25.0681 61.6261 22.66 57.8649 23.313C54.1037 23.966 51.5627 27.4328 52.1893 31.0563C52.8159 34.6799 56.3729 37.088 60.1341 36.435Z" fill="#F0F9FF"/>
<path d="M57.7631 34.1743C60.6987 34.1743 63.0785 31.7899 63.0785 28.8485C63.0785 25.9071 60.6987 23.5226 57.7631 23.5226C54.8275 23.5226 52.4478 25.9071 52.4478 28.8485C52.4478 31.7899 54.8275 34.1743 57.7631 34.1743Z" fill="#006BA6"/>
</g>
<defs>
<clipPath id="clip0_147_1758">
<rect width="153.457" height="158.443" fill="white" transform="translate(0.364258 0.967346)"/>
</clipPath>
</defs>
</svg>
