<svg width="127" height="112" viewBox="0 0 127 112" fill="none" xmlns="http://www.w3.org/2000/svg">
<g clip-path="url(#clip0_155_7936)">
<path d="M26.0448 64.8872C23.6463 47.0269 28.5739 35.0379 30.2226 29.9499C30.7262 28.3944 30.9836 26.7792 30.9911 25.1454C31.0135 19.136 31.1216 4.18151 31.6439 0.00366211C31.6439 0.00366211 39.3095 1.18241 51.8542 14.7007C53.4023 16.3719 55.4539 17.4947 57.6995 17.8714C62.0415 18.5988 68.8267 17.6178 73.9782 17.1291C94.8824 15.1521 111.183 18.5914 111.183 18.5914C111.183 18.5914 107.397 23.7167 96.8557 30.3043C96.8557 30.3043 97.6278 30.2856 102.126 46.7732C103.115 50.3953 104.055 56.5613 102.455 65.5474" fill="#062F4B"/>
<path d="M60.7061 47.5157C60.5718 47.0718 60.818 46.6055 61.2582 46.46C62.1758 46.1616 63.8842 45.8259 65.4882 46.7323C67.2153 47.7059 65.0592 49.295 63.8096 50.0597C63.3433 50.3432 62.7465 50.291 62.3511 49.9179C61.7766 49.3733 61.0008 48.4967 60.7061 47.5157Z" fill="#F0F9FF"/>
<path d="M89.5519 53.6332C91.3238 54.4091 93.0956 55.1887 94.8675 55.9646C95.1174 56.0728 95.3673 56.1847 95.6173 56.2929C96.1059 56.5092 96.5349 55.7855 96.0425 55.5692C94.2706 54.7933 92.4988 54.0137 90.7269 53.2378C90.477 53.1296 90.2271 53.0177 89.9772 52.9095C89.4885 52.6932 89.0595 53.4169 89.5519 53.6332Z" fill="#F0F9FF"/>
<path d="M87.8137 55.4536C89.2796 56.8375 90.7493 58.2214 92.2153 59.6053C92.4279 59.8067 92.6406 60.0044 92.8495 60.2059C93.2411 60.5752 93.838 59.9858 93.4426 59.6128C91.9766 58.2289 90.5069 56.8449 89.0409 55.461C88.8283 55.2596 88.6156 55.0619 88.4068 54.8605C88.0151 54.4912 87.4182 55.0806 87.8137 55.4536Z" fill="#F0F9FF"/>
<path d="M85.2584 56.6398C86.3029 58.0871 87.3473 59.5382 88.388 60.9855C88.5373 61.1944 88.6865 61.4033 88.8394 61.6084C88.97 61.7912 89.205 61.8807 89.4139 61.7576C89.5966 61.6532 89.6974 61.3697 89.5631 61.1832C88.5186 59.7359 87.4741 58.2848 86.4334 56.8375C86.2842 56.6286 86.135 56.4197 85.9821 56.2145C85.8515 56.0317 85.6165 55.9422 85.4076 56.0653C85.2248 56.1698 85.1241 56.4533 85.2584 56.6398Z" fill="#F0F9FF"/>
<path d="M37.9965 47.5493C36.0679 47.5493 34.1394 47.5493 32.2109 47.5493C31.9349 47.5493 31.6551 47.5493 31.3791 47.5493C30.8382 47.5493 30.8382 48.3886 31.3791 48.3886C33.3076 48.3886 35.2361 48.3886 37.1646 48.3886C37.4407 48.3886 37.7204 48.3886 37.9965 48.3886C38.5374 48.3886 38.5374 47.5493 37.9965 47.5493Z" fill="#F0F9FF"/>
<path d="M38.6344 49.9553C36.7319 50.6305 34.8333 51.3094 32.9308 51.9845C32.6585 52.0815 32.3825 52.1785 32.1102 52.2755C31.6066 52.4545 31.823 53.2677 32.334 53.085C34.2364 52.4098 36.1351 51.7309 38.0375 51.0557C38.3098 50.9587 38.5859 50.8617 38.8582 50.7648C39.3617 50.5857 39.1454 49.7725 38.6344 49.9553Z" fill="#F0F9FF"/>
<path d="M40.3055 52.1635C38.7649 53.0737 37.2243 53.9801 35.68 54.8903C35.4637 55.0171 35.2436 55.1477 35.0272 55.2745C34.561 55.5468 34.9825 56.2742 35.4525 55.9982C36.9931 55.088 38.5336 54.1816 40.078 53.2714C40.2943 53.1446 40.5144 53.014 40.7307 52.8872C41.197 52.6149 40.7755 51.8875 40.3055 52.1635Z" fill="#F0F9FF"/>
<path d="M57.9774 43.6373C58.3507 39.1059 54.8318 35.1176 50.1177 34.7292C45.4036 34.3408 41.2794 37.6994 40.906 42.2307C40.5327 46.7621 44.0516 50.7504 48.7657 51.1388C53.4798 51.5272 57.604 48.1687 57.9774 43.6373Z" fill="#F0F9FF"/>
<path d="M51.1082 49.7538C54.7464 49.7538 57.6958 46.8044 57.6958 43.1662C57.6958 39.528 54.7464 36.5786 51.1082 36.5786C47.47 36.5786 44.5206 39.528 44.5206 43.1662C44.5206 46.8044 47.47 49.7538 51.1082 49.7538Z" fill="#062F4B"/>
<path d="M78.4452 53.1119C83.1593 52.7235 86.6782 48.7352 86.3048 44.2038C85.9315 39.6724 81.8073 36.3139 77.0932 36.7023C72.379 37.0907 68.8602 41.0789 69.2335 45.6103C69.6068 50.1417 73.731 53.5003 78.4452 53.1119Z" fill="#F0F9FF"/>
<path d="M76.1007 51.7308C79.7389 51.7308 82.6883 48.7815 82.6883 45.1432C82.6883 41.505 79.7389 38.5557 76.1007 38.5557C72.4625 38.5557 69.5131 41.505 69.5131 45.1432C69.5131 48.7815 72.4625 51.7308 76.1007 51.7308Z" fill="#062F4B"/>
<path d="M117.088 78.1817C117.055 84.8887 117.133 91.6031 117.088 98.3063C117.062 102.488 117.353 106.722 116.876 110.896C116.805 111.519 116.242 111.996 115.563 111.996H11.5827C10.9561 111.996 10.4376 111.556 10.3704 110.978C9.87802 106.774 10.1764 102.514 10.1466 98.3025C10.1018 91.5956 10.1802 84.8812 10.1466 78.178H117.085L117.088 78.1817Z" fill="#C37C0B"/>
<path d="M117.088 75.0484V78.1818H10.1503V75.3766C10.5122 75.3766 10.3257 75.0446 10.5084 75.0484C46.0015 75.205 81.6028 75.3132 117.092 75.0484H117.088Z" fill="#9C580C"/>
<path d="M102.085 58.0459C106.446 57.8669 110.852 57.8557 115.212 57.5722C116.074 57.5162 116.902 57.8109 117.577 58.3108C117.775 58.4563 117.779 58.2959 117.805 58.3332C117.82 58.3556 117.834 58.4637 118.043 58.7733C120.919 63.0631 123.918 69.867 126.854 74.5L126.496 75.0483C123.363 75.0707 120.222 75.0185 117.088 75.0483C81.5991 75.4027 46.0015 75.2572 10.5047 75.0483C10.3219 75.0483 10.5084 75.4922 10.1466 75.4885C10.1205 75.4885 10.2212 75.052 10.0272 75.0483C6.73346 75.0222 3.42848 75.1602 0.142151 74.9401C2.29822 70.9861 6.961 61.5076 8.95294 58.5533C9.14318 58.2735 9.23644 58.3929 9.43041 58.1131" fill="#E2A110"/>
</g>
<defs>
<clipPath id="clip0_155_7936">
<rect width="126.708" height="112" fill="white" transform="translate(0.145874)"/>
</clipPath>
</defs>
</svg>
