<svg width="194" height="112" viewBox="0 0 194 112" fill="none" xmlns="http://www.w3.org/2000/svg">
<g clip-path="url(#clip0_244_4288)">
<path d="M127.737 0.548096H5.59905C2.69083 0.548096 0.333252 2.90594 0.333252 5.81448V85.7992C0.333252 88.7077 2.69083 91.0655 5.59905 91.0655H127.737C130.645 91.0655 133.003 88.7077 133.003 85.7992V5.81448C133.003 2.90594 130.645 0.548096 127.737 0.548096Z" fill="#006BA6"/>
<path d="M132.491 86.788C132.205 67.057 132.908 47.3259 132.622 27.6068C132.598 25.5812 134.218 23.925 136.243 23.925H175.82C177.047 23.925 178.191 24.5446 178.858 25.5812C182.837 31.7412 186.828 37.8893 190.808 44.0493C192.464 46.5991 193.333 49.5778 193.333 52.6161V86.7404C193.333 88.7421 191.713 90.3625 189.712 90.3625H136.124C134.147 90.3625 132.526 88.7778 132.491 86.7999V86.788Z" fill="#0087CD"/>
<path d="M141.045 34.2673V46.0869C141.045 47.898 142.51 49.3635 144.321 49.3635H177.738C180.252 49.3635 181.837 46.635 180.574 44.4546C178.048 40.0699 175.856 36.1737 173.128 32.3371C172.52 31.4792 171.531 30.9907 170.483 30.9907H144.333C142.522 30.9907 141.056 32.4563 141.056 34.2673H141.045Z" fill="#F0F9FF"/>
<path d="M162.239 106.615C172.779 106.615 181.324 98.0687 181.324 87.5269C181.324 76.985 172.779 68.4392 162.239 68.4392C151.698 68.4392 143.153 76.985 143.153 87.5269C143.153 98.0687 151.698 106.615 162.239 106.615Z" fill="#094B71" stroke="#F0F9FF" stroke-miterlimit="10"/>
<path d="M161.881 97.4282C167.54 97.4282 172.127 92.8405 172.127 87.1814C172.127 81.5222 167.54 76.9346 161.881 76.9346C156.223 76.9346 151.636 81.5222 151.636 87.1814C151.636 92.8405 156.223 97.4282 161.881 97.4282Z" fill="#F0F9FF"/>
<path d="M50.3226 110.856C60.8633 110.856 69.4082 102.31 69.4082 91.7686C69.4082 81.2267 60.8633 72.6809 50.3226 72.6809C39.782 72.6809 31.2371 81.2267 31.2371 91.7686C31.2371 102.31 39.782 110.856 50.3226 110.856Z" fill="#094B71" stroke="#F0F9FF" stroke-miterlimit="10"/>
<path d="M49.9771 101.67C55.6357 101.67 60.2228 97.0822 60.2228 91.4231C60.2228 85.7639 55.6357 81.1763 49.9771 81.1763C44.3186 81.1763 39.7314 85.7639 39.7314 91.4231C39.7314 97.0822 44.3186 101.67 49.9771 101.67Z" fill="#F0F9FF"/>
</g>
<defs>
<clipPath id="clip0_244_4288">
<rect width="193" height="112" fill="white" transform="translate(0.333252)"/>
</clipPath>
</defs>
</svg>
