<svg width="185" height="137" viewBox="0 0 185 137" fill="none" xmlns="http://www.w3.org/2000/svg">
<g clip-path="url(#clip0_314_3212)">
<path d="M94.5946 117.077C94.4904 117.193 93.7267 116.613 93.4605 116.415C69.7951 98.8142 68.499 87.6452 68.499 87.6452C66.7863 72.8306 87.7554 69.5101 87.0379 53.0353C86.3782 38.0582 68.5337 25.3451 64.0552 23.4178C63.7543 23.2901 59.9355 21.4208 57.6904 20.0973C55.8157 18.9827 56.1398 17.7868 56.3365 17.4617C56.7878 16.6723 72.4336 22.0826 82.5362 35.144C85.5566 39.0451 90.1971 45.0359 89.8731 53.4881C89.4565 64.4133 81.0781 71.3097 79.4696 72.5868C78.8447 72.9816 71.5888 77.6837 71.2532 86.5423C70.9755 93.8451 81.2633 104.05 82.0502 104.84C88.7506 111.376 89.9657 111.887 92.7662 114.848C93.7614 115.904 94.8376 116.822 94.5946 117.077Z" fill="#401C08"/>
<path d="M1.22454 113.255C0.513748 114.553 0.984258 116.182 2.27546 116.894C3.56666 117.606 5.1896 117.13 5.9004 115.832L58.1775 20.3501C58.8883 19.0519 58.4178 17.4226 57.1266 16.711C55.8354 15.9994 54.2124 16.475 53.5017 17.7733L1.22454 113.255Z" fill="#9C580C"/>
<path d="M107.046 110.715C103.598 111.609 102.371 111.992 101.399 112.688C100.693 113.188 99.7559 113.977 99.0847 115.231C98.6796 115.986 98.6912 116.891 98.9689 117.971C99.3508 119.411 100.392 120.142 100.971 120.374C103.401 121.373 105.785 120.316 106.341 120.072C106.85 119.852 108.181 119.202 110.159 116.752C111.791 114.732 113.92 110.924 112.867 109.809C112.347 109.252 111.282 109.635 107.046 110.726V110.715Z" fill="#32C0FE"/>
<path d="M99.5475 117.356C100.057 118.11 103.552 116.485 104.014 116.276C106.063 115.324 107.799 114.105 107.718 113.954C107.648 113.826 106.433 114.79 104.246 115.266C101.966 115.765 102.012 115.812 99.779 116.346C99.4665 116.415 99.3624 117.089 99.5475 117.356Z" fill="#062F4B"/>
<path d="M99.6286 132.217C97.4067 129.419 96.666 128.374 96.2957 127.224C96.0411 126.4 95.7518 125.204 95.9717 123.799C96.099 122.952 96.6429 122.232 97.5224 121.547C98.6912 120.63 99.9642 120.676 100.566 120.839C103.1 121.512 104.373 123.788 104.674 124.322C104.94 124.809 105.611 126.133 105.727 129.279C105.82 131.88 105.23 136.211 103.725 136.466C102.973 136.594 102.36 135.653 99.6286 132.228V132.217Z" fill="#32C0FE"/>
<path d="M97.615 122.394C98.4829 122.104 100.288 125.506 100.531 125.959C101.596 127.956 102.244 129.976 102.093 130.046C101.955 130.104 101.573 128.594 100.115 126.899C98.5986 125.123 98.6565 125.123 97.1984 123.335C96.9901 123.091 97.3141 122.487 97.615 122.383V122.394Z" fill="#062F4B"/>
<path d="M92.0602 131.102C93.6109 127.886 94.1085 126.69 94.2011 125.494C94.2706 124.635 94.2821 123.404 93.7614 122.081C93.4489 121.28 92.7546 120.711 91.7478 120.223C90.4054 119.585 89.1787 119.921 88.6233 120.2C86.2972 121.419 85.5566 123.927 85.383 124.507C85.221 125.041 84.8623 126.481 85.4409 129.569C85.9269 132.124 87.4545 136.21 88.982 136.129C89.7458 136.083 90.1392 135.026 92.0371 131.079L92.0602 131.102Z" fill="#32C0FE"/>
<path d="M91.8404 121.071C90.9377 120.978 89.9194 124.693 89.7805 125.192C89.1903 127.375 88.9936 129.488 89.1556 129.535C89.2945 129.569 89.3523 128.014 90.3938 126.028C91.4816 123.962 91.4238 123.962 92.4537 121.907C92.5926 121.616 92.1528 121.106 91.8404 121.071Z" fill="#062F4B"/>
<path d="M95.6824 122.185C97.7979 122.185 99.5128 120.465 99.5128 118.342C99.5128 116.22 97.7979 114.5 95.6824 114.5C93.5669 114.5 91.852 116.22 91.852 118.342C91.852 120.465 93.5669 122.185 95.6824 122.185Z" fill="#EB7096"/>
<path d="M175.369 16.6839L111.305 15.9641L114.048 2.54272C114.129 2.14797 114.464 1.86933 114.858 1.84611L141.671 0.545767C142.539 0.499327 143.407 0.510937 144.275 0.545767L175.971 2.1828C176.434 2.20602 176.793 2.58916 176.793 3.05356V5.71229C176.793 8.13882 176.561 10.5653 176.087 12.9454L175.358 16.6723L175.369 16.6839Z" fill="#CD316D"/>
<path d="M174.802 17.5198C174.976 16.8581 174.49 16.2079 173.807 16.1963L142.111 15.1514L112.115 15.6854C111.71 15.6854 111.34 15.9292 111.166 16.3008L105.97 27.4814C104.871 29.8498 104.038 32.3228 103.494 34.877L101.596 43.7588C101.249 45.3842 101.017 47.0445 100.902 48.7048L98.2977 87.5059C98.2283 88.6089 98.2977 89.7235 98.5408 90.8148L98.7028 91.5463C99.0731 93.2646 100.091 94.7739 101.55 95.7492C102.892 96.6548 104.408 97.2701 106.005 97.5603L119.244 99.9985C120.563 100.242 121.905 100.416 123.248 100.498L151.53 102.437C152.445 102.495 153.359 102.529 154.273 102.529H161.633C162.061 102.483 162.304 102.448 162.489 102.379L163.438 102.042C164.457 101.682 165.151 100.718 165.163 99.6386L165.811 60.5936C165.845 58.7011 166.042 56.8203 166.424 54.9742L170.903 32.8453L174.802 17.5198Z" fill="#AD235C"/>
<path d="M184.095 88.1328L183.088 42.1565C183.042 39.788 180.843 29.4898 180.045 27.249L178.425 16.6722C178.332 16.4168 176.862 4.20286 176.804 4.46989L166.574 50.69C166.1 52.7798 165.822 54.9045 165.741 57.0407L164.005 101.055C163.982 101.589 162.524 102.309 163.022 102.088L165.579 101.45C166.065 101.334 166.528 101.171 166.979 100.962C170.127 99.534 178.101 95.6562 179.952 94.1352L182.162 92.3124C183.424 91.2791 184.13 89.735 184.095 88.1328Z" fill="#912052"/>
<path d="M127.356 68.3839C126.222 68.3607 125.377 68.8135 125.122 68.976C124.775 69.185 124.15 69.8468 122.935 71.1587C122.426 71.716 122.322 71.8321 122.056 72.076C121.199 72.8538 120.829 72.8771 120.355 73.3066C119.591 74.0032 119.128 75.2107 119.278 76.3949C119.29 76.5343 119.521 78.1365 120.829 78.926C122.345 79.8432 124.532 79.1698 125.215 78.7402C125.308 78.6821 125.608 78.4848 126.037 78.4151C126.129 78.4035 126.534 78.3454 127.02 78.508C127.529 78.6705 127.634 78.9027 128.143 79.2162C128.629 79.5181 129.057 79.6226 129.485 79.7387C130.087 79.9012 130.7 80.0637 131.452 79.9244C131.707 79.878 132.61 79.7038 133.327 78.9027C134.241 77.8926 134.172 76.6388 134.16 76.3949C134.091 75.4081 133.767 74.5373 132.83 73.6782C132.101 73.0164 132.112 72.9583 131.58 72.1688C130.932 71.1936 131.024 70.9149 130.388 70.0674C130.017 69.5798 129.624 69.0805 128.93 68.7322C128.27 68.4071 127.68 68.3955 127.379 68.3839H127.356Z" fill="#FEF2F5"/>
<path d="M119.637 71.9948C120.992 71.9948 122.09 70.6017 122.09 68.8833C122.09 67.1648 120.992 65.7717 119.637 65.7717C118.282 65.7717 117.184 67.1648 117.184 68.8833C117.184 70.6017 118.282 71.9948 119.637 71.9948Z" fill="#FEF2F5"/>
<path d="M124.509 68.0009C125.864 68.0009 126.962 66.6078 126.962 64.8894C126.962 63.1709 125.864 61.7778 124.509 61.7778C123.154 61.7778 122.056 63.1709 122.056 64.8894C122.056 66.6078 123.154 68.0009 124.509 68.0009Z" fill="#FEF2F5"/>
<path d="M132.853 65.7419C133.118 64.0442 132.249 62.4971 130.91 62.2863C129.571 62.0756 128.271 63.2809 128.005 64.9786C127.74 66.6763 128.61 68.2234 129.948 68.4341C131.287 68.6449 132.587 67.4396 132.853 65.7419Z" fill="#FEF2F5"/>
<path d="M137.035 70.4328C137.301 68.7351 136.431 67.188 135.092 66.9773C133.754 66.7665 132.453 67.9718 132.188 69.6695C131.922 71.3672 132.792 72.9143 134.13 73.1251C135.469 73.3358 136.769 72.1305 137.035 70.4328Z" fill="#FEF2F5"/>
</g>
<defs>
<clipPath id="clip0_314_3212">
<rect width="184" height="137" fill="white" transform="translate(0.5)"/>
</clipPath>
</defs>
</svg>
