<svg width="1512" height="196" viewBox="0 0 1512 196" fill="none" xmlns="http://www.w3.org/2000/svg">
<g clip-path="url(#clip0_315_2613)">
<rect width="1512" height="196" fill="#FAE68E"/>
<g clip-path="url(#clip1_315_2613)">
<path d="M-37.1749 -34.5383C-48.8112 -29.0675 -57.0762 -19.3215 -59.5049 -8.12633C-61.1724 -0.481704 -59.7587 12.0178 -56.3874 19.4451C-53.1612 26.6187 -46.7449 32.1982 -39.1687 34.372C-29.8162 37.1255 -20.8262 37.2342 -11.1112 34.8068C0.597593 31.8359 8.24634 24.7709 11.1101 14.3003C11.7626 11.8729 11.8713 10.3874 11.9076 4.73548C11.9438 -2.32946 11.6538 -4.61198 10.1313 -9.93786C7.48509 -19.0679 1.72134 -26.7126 -6.65241 -32.2196C-12.8149 -36.3136 -13.5399 -36.1687 -11.9812 -31.1327C-9.69741 -23.633 -10.6762 -19.3215 -14.9899 -17.981C-17.5637 -17.1477 -28.3299 -16.8941 -30.6499 -17.5825C-32.6074 -18.1622 -33.9849 -19.5027 -34.6374 -21.5678C-35.3262 -23.5967 -34.8912 -28.5965 -33.7674 -32.1471C-33.2237 -33.7775 -32.8974 -35.2992 -33.0062 -35.4803C-33.3687 -36.0963 -34.3474 -35.8789 -37.1749 -34.5383Z" fill="#FBF0B2"/>
<path d="M54.7189 -34.2847C43.5901 -28.8864 36.0139 -20.1548 33.3314 -9.57554C31.5914 -2.69175 31.7726 4.59057 33.9114 13.0685C37.4276 26.981 45.7651 33.9373 61.4251 36.0749C66.2464 36.727 70.0164 36.727 74.8376 36.0749C84.4801 34.7706 91.0776 31.9446 96.0801 27.0172C100.72 22.416 103.294 17.3437 104.236 10.8222C104.816 6.7644 104.454 -2.47437 103.511 -6.49595C100.793 -18.3071 94.2676 -27.2922 83.8639 -33.5601C79.5864 -36.0963 78.9339 -35.6253 80.4564 -31.2414C82.8851 -24.0677 81.5801 -18.8868 77.0851 -17.7636C76.3601 -17.5825 72.9889 -17.3651 69.6539 -17.2564C61.3889 -16.9666 59.7214 -17.51 58.0176 -20.8795C57.0751 -22.7272 57.2564 -27.1473 58.3801 -30.9878C59.5764 -35.0456 59.6489 -35.6253 58.7064 -35.7339C58.3076 -35.8064 56.5314 -35.118 54.7189 -34.2847Z" fill="#FBF0B2"/>
<path d="M147.7 -34.5383C136.064 -29.0675 127.799 -19.3215 125.37 -8.12633C123.703 -0.481704 125.116 12.0178 128.488 19.4451C131.714 26.6187 138.13 32.1982 145.706 34.372C155.059 37.1255 164.049 37.2342 173.764 34.8068C185.473 31.8359 193.121 24.7709 195.985 14.3003C196.638 11.8729 196.746 10.3874 196.783 4.73548C196.819 -2.32946 196.529 -4.61198 195.006 -9.93786C192.36 -19.0679 186.596 -26.7126 178.223 -32.2196C172.06 -36.3136 171.335 -36.1687 172.894 -31.1327C175.178 -23.633 174.199 -19.3215 169.885 -17.981C167.311 -17.1477 156.545 -16.8941 154.225 -17.5825C152.268 -18.1622 150.89 -19.5027 150.238 -21.5678C149.549 -23.5967 149.984 -28.5965 151.108 -32.1471C151.651 -33.7775 151.978 -35.2992 151.869 -35.4803C151.506 -36.0963 150.528 -35.8789 147.7 -34.5383Z" fill="#FBF0B2"/>
<path d="M239.594 -34.2849C228.465 -28.8865 220.889 -20.155 218.206 -9.57568C216.466 -2.69189 216.648 4.59043 218.786 13.0684C222.303 26.9809 230.64 33.9371 246.3 36.0747C248.403 36.3646 251.194 36.6182 252.571 36.6182H255V9.59024V-17.4377L251.955 -17.1841C245.176 -16.6406 242.313 -18.9231 242.313 -24.9012C242.313 -26.9663 242.603 -28.7054 243.255 -30.9879C244.451 -35.0457 244.524 -35.6254 243.581 -35.7341C243.183 -35.8065 241.406 -35.1182 239.594 -34.2849Z" fill="#FBF0B2"/>
<path d="M8.57241 58.1391C-1.68634 63.1389 -9.08134 71.0009 -12.1626 80.131C-13.9388 85.3844 -14.5188 93.1377 -13.6126 99.2969C-11.4376 113.717 -5.49259 122.231 5.20116 126.107C14.4449 129.477 26.4437 129.73 36.5937 126.76C44.3512 124.513 49.7162 120.745 53.5949 114.912C57.0387 109.731 58.2349 105.13 58.2349 96.9419C58.2712 86.8336 56.2049 79.189 51.5649 72.0516C47.9762 66.5808 42.0674 61.1462 36.5212 58.2478C34.4912 57.2333 34.2012 57.1608 33.6937 57.6318C33.2224 58.1391 33.2587 58.4651 34.0562 60.7114C36.4124 67.5952 35.7962 72.2327 32.2437 74.0805C31.0112 74.7326 29.8149 74.8775 24.0874 75.1311C16.4387 75.4572 14.8799 75.2036 13.0674 73.3921C10.8199 71.1458 10.4937 67.7401 11.9799 62.1244C13.1399 57.813 13.2124 56.7985 12.4874 56.6174C12.1974 56.5811 10.4212 57.2695 8.57241 58.1391Z" fill="#FBF0B2"/>
<path d="M101.336 57.9942C91.6576 62.668 84.1538 70.2039 80.9638 78.4645C77.9188 86.3265 77.5926 95.5652 80.0938 105.239C81.6163 111.253 83.3201 114.767 86.4738 118.535C92.0563 125.202 101.808 128.789 114.35 128.789C120.766 128.789 124.319 128.245 130.518 126.252C146.54 121.18 153.5 107.304 150.02 87.3772C148.534 78.8268 144.945 71.8705 138.855 65.7476C134.614 61.5086 127.799 56.9073 126.53 57.3783C125.769 57.6682 125.805 58.3928 126.82 61.6173C128.596 67.1968 128.379 70.7474 126.131 72.9937C124.536 74.624 122.833 74.9501 115.438 75.1675C107.571 75.3849 106.339 75.0226 104.49 71.943C103.765 70.6749 103.656 70.059 103.693 67.233C103.729 64.9867 104.019 63.2114 104.563 61.4361C105.578 58.3566 105.686 56.7986 104.925 56.6175C104.635 56.5813 103.004 57.1972 101.336 57.9942Z" fill="#FBF0B2"/>
<path d="M193.447 58.1391C183.189 63.1389 175.794 71.0009 172.712 80.131C170.936 85.3844 170.356 93.1377 171.262 99.2969C173.437 113.717 179.382 122.231 190.076 126.107C199.32 129.477 211.319 129.73 221.469 126.76C229.226 124.513 234.591 120.745 238.47 114.912C241.914 109.731 243.11 105.13 243.11 96.9419C243.146 86.8336 241.08 79.189 236.44 72.0516C232.851 66.5808 226.942 61.1462 221.396 58.2478C219.366 57.2333 219.076 57.1608 218.569 57.6318C218.097 58.1391 218.134 58.4651 218.931 60.7114C221.287 67.5952 220.671 72.2327 217.119 74.0805C215.886 74.7326 214.69 74.8775 208.962 75.1311C201.314 75.4572 199.755 75.2036 197.942 73.3921C195.695 71.1458 195.369 67.7401 196.855 62.1244C198.015 57.813 198.087 56.7985 197.362 56.6174C197.072 56.5811 195.296 57.2695 193.447 58.1391Z" fill="#FBF0B2"/>
<path d="M-37.1749 150.237C-48.8112 155.708 -57.0762 165.454 -59.5049 176.649C-61.1724 184.294 -59.7587 196.793 -56.3874 204.22C-53.1612 211.394 -46.7449 216.974 -39.1687 219.147C-29.8162 221.901 -20.8262 222.01 -11.1112 219.582C0.597593 216.611 8.24634 209.546 11.1101 199.076C11.7626 196.648 11.8713 195.163 11.9076 189.511C11.9438 182.446 11.6538 180.163 10.1313 174.838C7.48509 165.707 1.72134 158.063 -6.65241 152.556C-12.8149 148.462 -13.5399 148.607 -11.9812 153.643C-9.69741 161.142 -10.6762 165.454 -14.9899 166.794C-17.5637 167.628 -28.3299 167.881 -30.6499 167.193C-32.6074 166.613 -33.9849 165.273 -34.6374 163.208C-35.3262 161.179 -34.8912 156.179 -33.7674 152.628C-33.2237 150.998 -32.8974 149.476 -33.0062 149.295C-33.3687 148.679 -34.3474 148.897 -37.1749 150.237Z" fill="#FBF0B2"/>
<path d="M54.7189 150.491C43.5901 155.889 36.0139 164.621 33.3314 175.2C31.5914 182.084 31.7726 189.366 33.9114 197.844C37.4276 211.756 45.7651 218.713 61.4251 220.85C66.2464 221.502 70.0164 221.502 74.8376 220.85C84.4801 219.546 91.0776 216.72 96.0801 211.793C100.72 207.191 103.294 202.119 104.236 195.598C104.816 191.54 104.454 182.301 103.511 178.279C100.793 166.468 94.2676 157.483 83.8639 151.215C79.5864 148.679 78.9339 149.15 80.4564 153.534C82.8851 160.708 81.5801 165.889 77.0851 167.012C76.3601 167.193 72.9889 167.41 69.6539 167.519C61.3889 167.809 59.7214 167.265 58.0176 163.896C57.0751 162.048 57.2564 157.628 58.3801 153.788C59.5764 149.73 59.6489 149.15 58.7064 149.041C58.3076 148.969 56.5314 149.657 54.7189 150.491Z" fill="#FBF0B2"/>
<path d="M147.7 150.237C136.064 155.708 127.799 165.454 125.37 176.649C123.703 184.294 125.116 196.793 128.488 204.22C131.714 211.394 138.13 216.974 145.706 219.147C155.059 221.901 164.049 222.01 173.764 219.582C185.473 216.611 193.121 209.546 195.985 199.076C196.638 196.648 196.746 195.163 196.783 189.511C196.819 182.446 196.529 180.163 195.006 174.838C192.36 165.707 186.596 158.063 178.223 152.556C172.06 148.462 171.335 148.607 172.894 153.643C175.178 161.142 174.199 165.454 169.885 166.794C167.311 167.628 156.545 167.881 154.225 167.193C152.268 166.613 150.89 165.273 150.238 163.208C149.549 161.179 149.984 156.179 151.108 152.628C151.651 150.998 151.978 149.476 151.869 149.295C151.506 148.679 150.528 148.897 147.7 150.237Z" fill="#FBF0B2"/>
<path d="M239.594 150.491C228.465 155.889 220.889 164.62 218.206 175.2C216.466 182.083 216.648 189.366 218.786 197.844C222.303 211.756 230.64 218.713 246.3 220.85C248.403 221.14 251.194 221.394 252.571 221.394H255V194.366V167.338L251.955 167.591C245.176 168.135 242.313 165.852 242.313 159.874C242.313 157.809 242.603 156.07 243.255 153.788C244.451 149.73 244.524 149.15 243.581 149.041C243.183 148.969 241.406 149.657 239.594 150.491Z" fill="#FBF0B2"/>
</g>
<g clip-path="url(#clip2_315_2613)">
<path d="M333.844 -34.2847C322.715 -28.8864 315.139 -20.1548 312.456 -9.57554C310.716 -2.69175 310.898 4.59057 313.036 13.0685C316.553 26.981 324.89 33.9373 340.55 36.0749C345.371 36.727 349.141 36.727 353.963 36.0749C363.605 34.7706 370.203 31.9446 375.205 27.0172C379.845 22.416 382.419 17.3437 383.361 10.8222C383.941 6.7644 383.579 -2.47437 382.636 -6.49595C379.918 -18.3071 373.393 -27.2922 362.989 -33.5601C358.711 -36.0963 358.059 -35.6253 359.581 -31.2414C362.01 -24.0677 360.705 -18.8868 356.21 -17.7636C355.485 -17.5825 352.114 -17.3651 348.779 -17.2564C340.514 -16.9666 338.846 -17.51 337.143 -20.8795C336.2 -22.7272 336.381 -27.1473 337.505 -30.9878C338.701 -35.0456 338.774 -35.6253 337.831 -35.7339C337.433 -35.8064 335.656 -35.118 333.844 -34.2847Z" fill="#FBF0B2"/>
<path d="M426.825 -34.5383C415.189 -29.0675 406.924 -19.3215 404.495 -8.12633C402.828 -0.481704 404.241 12.0178 407.613 19.4451C410.839 26.6187 417.255 32.1982 424.831 34.372C434.184 37.1255 443.174 37.2342 452.889 34.8068C464.598 31.8359 472.246 24.7709 475.11 14.3003C475.763 11.8729 475.871 10.3874 475.908 4.73548C475.944 -2.32946 475.654 -4.61198 474.131 -9.93786C471.485 -19.0679 465.721 -26.7126 457.348 -32.2196C451.185 -36.3136 450.46 -36.1687 452.019 -31.1327C454.303 -23.633 453.324 -19.3215 449.01 -17.981C446.436 -17.1477 435.67 -16.8941 433.35 -17.5825C431.393 -18.1622 430.015 -19.5027 429.363 -21.5678C428.674 -23.5967 429.109 -28.5965 430.233 -32.1471C430.776 -33.7775 431.103 -35.2992 430.994 -35.4803C430.631 -36.0963 429.653 -35.8789 426.825 -34.5383Z" fill="#FBF0B2"/>
<path d="M518.719 -34.2847C507.59 -28.8864 500.014 -20.1548 497.331 -9.57554C495.591 -2.69175 495.773 4.59057 497.911 13.0685C501.428 26.981 509.765 33.9373 525.425 36.0749C530.246 36.727 534.016 36.727 538.838 36.0749C548.48 34.7706 555.078 31.9446 560.08 27.0172C564.72 22.416 567.294 17.3437 568.236 10.8222C568.816 6.7644 568.454 -2.47437 567.511 -6.49595C564.793 -18.3071 558.268 -27.2922 547.864 -33.5601C543.586 -36.0963 542.934 -35.6253 544.456 -31.2414C546.885 -24.0677 545.58 -18.8868 541.085 -17.7636C540.36 -17.5825 536.989 -17.3651 533.654 -17.2564C525.389 -16.9666 523.721 -17.51 522.018 -20.8795C521.075 -22.7272 521.256 -27.1473 522.38 -30.9878C523.576 -35.0456 523.649 -35.6253 522.706 -35.7339C522.308 -35.8064 520.531 -35.118 518.719 -34.2847Z" fill="#FBF0B2"/>
<path d="M611.7 -34.5383C600.064 -29.0675 591.799 -19.3215 589.37 -8.12633C587.703 -0.481704 589.116 12.0178 592.488 19.4451C595.714 26.6187 602.13 32.1982 609.706 34.372C619.059 37.1255 628.049 37.2342 637.764 34.8068C649.473 31.8359 657.121 24.7709 659.985 14.3003C660.638 11.8729 660.746 10.3874 660.783 4.73548C660.819 -2.32946 660.529 -4.61198 659.006 -9.93786C656.36 -19.0679 650.596 -26.7126 642.223 -32.2196C636.06 -36.3136 635.335 -36.1687 636.894 -31.1327C639.178 -23.633 638.199 -19.3215 633.885 -17.981C631.311 -17.1477 620.545 -16.8941 618.225 -17.5825C616.268 -18.1622 614.89 -19.5027 614.238 -21.5678C613.549 -23.5967 613.984 -28.5965 615.108 -32.1471C615.651 -33.7775 615.978 -35.2992 615.869 -35.4803C615.506 -36.0963 614.528 -35.8789 611.7 -34.5383Z" fill="#FBF0B2"/>
<path d="M703.594 -34.2849C692.465 -28.8865 684.889 -20.155 682.206 -9.57568C680.466 -2.69189 680.648 4.59043 682.786 13.0684C686.303 26.9809 694.64 33.9371 710.3 36.0747C712.403 36.3646 715.194 36.6182 716.571 36.6182H719V9.59024V-17.4377L715.955 -17.1841C709.176 -16.6406 706.313 -18.9231 706.313 -24.9012C706.313 -26.9663 706.603 -28.7054 707.255 -30.9879C708.451 -35.0457 708.524 -35.6254 707.581 -35.7341C707.183 -35.8065 705.406 -35.1182 703.594 -34.2849Z" fill="#FBF0B2"/>
<path d="M266.382 -34.6109C266.274 -34.3211 266.6 -32.727 267.144 -31.0603C268.412 -27.0025 268.702 -23.6693 267.905 -21.6042C266.672 -18.3797 264.461 -17.3652 258.77 -17.3652H255V9.62647V36.6182H256.196C261.416 36.6182 270.696 34.4443 275.445 32.1256C282.949 28.4663 288.132 22.1984 290.199 14.3002C291.141 10.6047 291.504 3.2499 290.924 -1.67744C289.292 -15.5175 282.949 -25.662 271.24 -33.053C267.905 -35.1544 266.745 -35.5167 266.382 -34.6109Z" fill="#FBF0B2"/>
<path d="M287.697 58.1391C277.439 63.1389 270.044 71.0009 266.962 80.131C265.186 85.3844 264.606 93.1377 265.512 99.2969C267.687 113.717 273.632 122.231 284.326 126.107C293.57 129.477 305.569 129.73 315.719 126.76C323.476 124.513 328.841 120.745 332.72 114.912C336.164 109.731 337.36 105.13 337.36 96.9419C337.396 86.8336 335.33 79.189 330.69 72.0516C327.101 66.5808 321.192 61.1462 315.646 58.2478C313.616 57.2333 313.326 57.1608 312.819 57.6318C312.347 58.1391 312.384 58.4651 313.181 60.7114C315.537 67.5952 314.921 72.2327 311.369 74.0805C310.136 74.7326 308.94 74.8775 303.212 75.1311C295.564 75.4572 294.005 75.2036 292.192 73.3921C289.945 71.1458 289.619 67.7401 291.105 62.1244C292.265 57.813 292.337 56.7985 291.612 56.6174C291.322 56.5811 289.546 57.2695 287.697 58.1391Z" fill="#FBF0B2"/>
<path d="M380.461 57.9942C370.783 62.668 363.279 70.2039 360.089 78.4645C357.044 86.3265 356.718 95.5652 359.219 105.239C360.741 111.253 362.445 114.767 365.599 118.535C371.181 125.202 380.933 128.789 393.475 128.789C399.891 128.789 403.444 128.245 409.643 126.252C425.665 121.18 432.625 107.304 429.145 87.3772C427.659 78.8268 424.07 71.8705 417.98 65.7476C413.739 61.5086 406.924 56.9073 405.655 57.3783C404.894 57.6682 404.93 58.3928 405.945 61.6173C407.721 67.1968 407.504 70.7474 405.256 72.9937C403.661 74.624 401.958 74.9501 394.563 75.1675C386.696 75.3849 385.464 75.0226 383.615 71.943C382.89 70.6749 382.781 70.059 382.818 67.233C382.854 64.9867 383.144 63.2114 383.688 61.4361C384.703 58.3566 384.811 56.7986 384.05 56.6175C383.76 56.5813 382.129 57.1972 380.461 57.9942Z" fill="#FBF0B2"/>
<path d="M472.572 58.1391C462.314 63.1389 454.919 71.0009 451.837 80.131C450.061 85.3844 449.481 93.1377 450.387 99.2969C452.562 113.717 458.507 122.231 469.201 126.107C478.445 129.477 490.444 129.73 500.594 126.76C508.351 124.513 513.716 120.745 517.595 114.912C521.039 109.731 522.235 105.13 522.235 96.9419C522.271 86.8336 520.205 79.189 515.565 72.0516C511.976 66.5808 506.067 61.1462 500.521 58.2478C498.491 57.2333 498.201 57.1608 497.694 57.6318C497.222 58.1391 497.259 58.4651 498.056 60.7114C500.412 67.5952 499.796 72.2327 496.244 74.0805C495.011 74.7326 493.815 74.8775 488.087 75.1311C480.439 75.4572 478.88 75.2036 477.067 73.3921C474.82 71.1458 474.494 67.7401 475.98 62.1244C477.14 57.813 477.212 56.7985 476.487 56.6174C476.197 56.5811 474.421 57.2695 472.572 58.1391Z" fill="#FBF0B2"/>
<path d="M565.336 57.9942C555.658 62.668 548.154 70.2039 544.964 78.4645C541.919 86.3265 541.593 95.5652 544.094 105.239C545.616 111.253 547.32 114.767 550.474 118.535C556.056 125.202 565.808 128.789 578.35 128.789C584.766 128.789 588.319 128.245 594.518 126.252C610.54 121.18 617.5 107.304 614.02 87.3772C612.534 78.8268 608.945 71.8705 602.855 65.7476C598.614 61.5086 591.799 56.9073 590.53 57.3783C589.769 57.6682 589.805 58.3928 590.82 61.6173C592.596 67.1968 592.379 70.7474 590.131 72.9937C588.536 74.624 586.833 74.9501 579.438 75.1675C571.571 75.3849 570.339 75.0226 568.49 71.943C567.765 70.6749 567.656 70.059 567.693 67.233C567.729 64.9867 568.019 63.2114 568.563 61.4361C569.578 58.3566 569.686 56.7986 568.925 56.6175C568.635 56.5813 567.004 57.1972 565.336 57.9942Z" fill="#FBF0B2"/>
<path d="M657.447 58.1391C647.189 63.1389 639.794 71.0009 636.712 80.131C634.936 85.3844 634.356 93.1377 635.262 99.2969C637.437 113.717 643.382 122.231 654.076 126.107C663.32 129.477 675.319 129.73 685.469 126.76C693.226 124.513 698.591 120.745 702.47 114.912C705.914 109.731 707.11 105.13 707.11 96.9419C707.146 86.8336 705.08 79.189 700.44 72.0516C696.851 66.5808 690.942 61.1462 685.396 58.2478C683.366 57.2333 683.076 57.1608 682.569 57.6318C682.097 58.1391 682.134 58.4651 682.931 60.7114C685.287 67.5952 684.671 72.2327 681.119 74.0805C679.886 74.7326 678.69 74.8775 672.962 75.1311C665.314 75.4572 663.755 75.2036 661.942 73.3921C659.695 71.1458 659.369 67.7401 660.855 62.1244C662.015 57.813 662.087 56.7985 661.362 56.6174C661.072 56.5811 659.296 57.2695 657.447 58.1391Z" fill="#FBF0B2"/>
<path d="M333.844 150.491C322.715 155.889 315.139 164.621 312.456 175.2C310.716 182.084 310.898 189.366 313.036 197.844C316.553 211.756 324.89 218.713 340.55 220.85C345.371 221.502 349.141 221.502 353.963 220.85C363.605 219.546 370.203 216.72 375.205 211.793C379.845 207.191 382.419 202.119 383.361 195.598C383.941 191.54 383.579 182.301 382.636 178.279C379.918 166.468 373.393 157.483 362.989 151.215C358.711 148.679 358.059 149.15 359.581 153.534C362.01 160.708 360.705 165.889 356.21 167.012C355.485 167.193 352.114 167.41 348.779 167.519C340.514 167.809 338.846 167.265 337.143 163.896C336.2 162.048 336.381 157.628 337.505 153.788C338.701 149.73 338.774 149.15 337.831 149.041C337.433 148.969 335.656 149.657 333.844 150.491Z" fill="#FBF0B2"/>
<path d="M426.825 150.237C415.189 155.708 406.924 165.454 404.495 176.649C402.828 184.294 404.241 196.793 407.613 204.22C410.839 211.394 417.255 216.974 424.831 219.147C434.184 221.901 443.174 222.01 452.889 219.582C464.598 216.611 472.246 209.546 475.11 199.076C475.763 196.648 475.871 195.163 475.908 189.511C475.944 182.446 475.654 180.163 474.131 174.838C471.485 165.707 465.721 158.063 457.348 152.556C451.185 148.462 450.46 148.607 452.019 153.643C454.303 161.142 453.324 165.454 449.01 166.794C446.436 167.628 435.67 167.881 433.35 167.193C431.393 166.613 430.015 165.273 429.363 163.208C428.674 161.179 429.109 156.179 430.233 152.628C430.776 150.998 431.103 149.476 430.994 149.295C430.631 148.679 429.653 148.897 426.825 150.237Z" fill="#FBF0B2"/>
<path d="M518.719 150.491C507.59 155.889 500.014 164.621 497.331 175.2C495.591 182.084 495.773 189.366 497.911 197.844C501.428 211.756 509.765 218.713 525.425 220.85C530.246 221.502 534.016 221.502 538.838 220.85C548.48 219.546 555.078 216.72 560.08 211.793C564.72 207.191 567.294 202.119 568.236 195.598C568.816 191.54 568.454 182.301 567.511 178.279C564.793 166.468 558.268 157.483 547.864 151.215C543.586 148.679 542.934 149.15 544.456 153.534C546.885 160.708 545.58 165.889 541.085 167.012C540.36 167.193 536.989 167.41 533.654 167.519C525.389 167.809 523.721 167.265 522.018 163.896C521.075 162.048 521.256 157.628 522.38 153.788C523.576 149.73 523.649 149.15 522.706 149.041C522.308 148.969 520.531 149.657 518.719 150.491Z" fill="#FBF0B2"/>
<path d="M611.7 150.237C600.064 155.708 591.799 165.454 589.37 176.649C587.703 184.294 589.116 196.793 592.488 204.22C595.714 211.394 602.13 216.974 609.706 219.147C619.059 221.901 628.049 222.01 637.764 219.582C649.473 216.611 657.121 209.546 659.985 199.076C660.638 196.648 660.746 195.163 660.783 189.511C660.819 182.446 660.529 180.163 659.006 174.838C656.36 165.707 650.596 158.063 642.223 152.556C636.06 148.462 635.335 148.607 636.894 153.643C639.178 161.142 638.199 165.454 633.885 166.794C631.311 167.628 620.545 167.881 618.225 167.193C616.268 166.613 614.89 165.273 614.238 163.208C613.549 161.179 613.984 156.179 615.108 152.628C615.651 150.998 615.978 149.476 615.869 149.295C615.506 148.679 614.528 148.897 611.7 150.237Z" fill="#FBF0B2"/>
<path d="M703.594 150.491C692.465 155.889 684.889 164.62 682.206 175.2C680.466 182.083 680.648 189.366 682.786 197.844C686.303 211.756 694.64 218.713 710.3 220.85C712.403 221.14 715.194 221.394 716.571 221.394H719V194.366V167.338L715.955 167.591C709.176 168.135 706.313 165.852 706.313 159.874C706.313 157.809 706.603 156.07 707.255 153.788C708.451 149.73 708.524 149.15 707.581 149.041C707.183 148.969 705.406 149.657 703.594 150.491Z" fill="#FBF0B2"/>
<path d="M266.382 150.164C266.274 150.454 266.6 152.048 267.144 153.715C268.412 157.773 268.702 161.106 267.905 163.171C266.672 166.396 264.461 167.41 258.77 167.41H255V194.402V221.394H256.196C261.416 221.394 270.696 219.22 275.445 216.901C282.949 213.242 288.132 206.974 290.199 199.076C291.141 195.38 291.504 188.025 290.924 183.098C289.292 169.258 282.949 159.113 271.24 151.722C267.905 149.621 266.745 149.259 266.382 150.164Z" fill="#FBF0B2"/>
</g>
<g clip-path="url(#clip3_315_2613)">
<path d="M797.844 -34.2847C786.715 -28.8864 779.139 -20.1548 776.456 -9.57554C774.716 -2.69175 774.898 4.59057 777.036 13.0685C780.553 26.981 788.89 33.9373 804.55 36.0749C809.371 36.727 813.141 36.727 817.963 36.0749C827.605 34.7706 834.203 31.9446 839.205 27.0172C843.845 22.416 846.419 17.3437 847.361 10.8222C847.941 6.7644 847.579 -2.47437 846.636 -6.49595C843.918 -18.3071 837.393 -27.2922 826.989 -33.5601C822.711 -36.0963 822.059 -35.6253 823.581 -31.2414C826.01 -24.0677 824.705 -18.8868 820.21 -17.7636C819.485 -17.5825 816.114 -17.3651 812.779 -17.2564C804.514 -16.9666 802.846 -17.51 801.143 -20.8795C800.2 -22.7272 800.381 -27.1473 801.505 -30.9878C802.701 -35.0456 802.774 -35.6253 801.831 -35.7339C801.433 -35.8064 799.656 -35.118 797.844 -34.2847Z" fill="#FBF0B2"/>
<path d="M890.825 -34.5383C879.189 -29.0675 870.924 -19.3215 868.495 -8.12633C866.828 -0.481704 868.241 12.0178 871.613 19.4451C874.839 26.6187 881.255 32.1982 888.831 34.372C898.184 37.1255 907.174 37.2342 916.889 34.8068C928.598 31.8359 936.246 24.7709 939.11 14.3003C939.763 11.8729 939.871 10.3874 939.908 4.73548C939.944 -2.32946 939.654 -4.61198 938.131 -9.93786C935.485 -19.0679 929.721 -26.7126 921.348 -32.2196C915.185 -36.3136 914.46 -36.1687 916.019 -31.1327C918.303 -23.633 917.324 -19.3215 913.01 -17.981C910.436 -17.1477 899.67 -16.8941 897.35 -17.5825C895.393 -18.1622 894.015 -19.5027 893.363 -21.5678C892.674 -23.5967 893.109 -28.5965 894.233 -32.1471C894.776 -33.7775 895.103 -35.2992 894.994 -35.4803C894.631 -36.0963 893.653 -35.8789 890.825 -34.5383Z" fill="#FBF0B2"/>
<path d="M982.719 -34.2847C971.59 -28.8864 964.014 -20.1548 961.331 -9.57554C959.591 -2.69175 959.773 4.59057 961.911 13.0685C965.428 26.981 973.765 33.9373 989.425 36.0749C994.246 36.727 998.016 36.727 1002.84 36.0749C1012.48 34.7706 1019.08 31.9446 1024.08 27.0172C1028.72 22.416 1031.29 17.3437 1032.24 10.8222C1032.82 6.7644 1032.45 -2.47437 1031.51 -6.49595C1028.79 -18.3071 1022.27 -27.2922 1011.86 -33.5601C1007.59 -36.0963 1006.93 -35.6253 1008.46 -31.2414C1010.89 -24.0677 1009.58 -18.8868 1005.09 -17.7636C1004.36 -17.5825 1000.99 -17.3651 997.654 -17.2564C989.389 -16.9666 987.721 -17.51 986.018 -20.8795C985.075 -22.7272 985.256 -27.1473 986.38 -30.9878C987.576 -35.0456 987.649 -35.6253 986.706 -35.7339C986.308 -35.8064 984.531 -35.118 982.719 -34.2847Z" fill="#FBF0B2"/>
<path d="M1075.7 -34.5383C1064.06 -29.0675 1055.8 -19.3215 1053.37 -8.12633C1051.7 -0.481704 1053.12 12.0178 1056.49 19.4451C1059.71 26.6187 1066.13 32.1982 1073.71 34.372C1083.06 37.1255 1092.05 37.2342 1101.76 34.8068C1113.47 31.8359 1121.12 24.7709 1123.99 14.3003C1124.64 11.8729 1124.75 10.3874 1124.78 4.73548C1124.82 -2.32946 1124.53 -4.61198 1123.01 -9.93786C1120.36 -19.0679 1114.6 -26.7126 1106.22 -32.2196C1100.06 -36.3136 1099.34 -36.1687 1100.89 -31.1327C1103.18 -23.633 1102.2 -19.3215 1097.89 -17.981C1095.31 -17.1477 1084.55 -16.8941 1082.23 -17.5825C1080.27 -18.1622 1078.89 -19.5027 1078.24 -21.5678C1077.55 -23.5967 1077.98 -28.5965 1079.11 -32.1471C1079.65 -33.7775 1079.98 -35.2992 1079.87 -35.4803C1079.51 -36.0963 1078.53 -35.8789 1075.7 -34.5383Z" fill="#FBF0B2"/>
<path d="M1167.59 -34.2849C1156.47 -28.8865 1148.89 -20.155 1146.21 -9.57568C1144.47 -2.69189 1144.65 4.59043 1146.79 13.0684C1150.3 26.9809 1158.64 33.9371 1174.3 36.0747C1176.4 36.3646 1179.19 36.6182 1180.57 36.6182H1183V9.59024V-17.4377L1179.96 -17.1841C1173.18 -16.6406 1170.31 -18.9231 1170.31 -24.9012C1170.31 -26.9663 1170.6 -28.7054 1171.26 -30.9879C1172.45 -35.0457 1172.52 -35.6254 1171.58 -35.7341C1171.18 -35.8065 1169.41 -35.1182 1167.59 -34.2849Z" fill="#FBF0B2"/>
<path d="M730.382 -34.6109C730.274 -34.3211 730.6 -32.727 731.144 -31.0603C732.412 -27.0025 732.702 -23.6693 731.905 -21.6042C730.672 -18.3797 728.461 -17.3652 722.77 -17.3652H719V9.62647V36.6182H720.196C725.416 36.6182 734.696 34.4443 739.445 32.1256C746.949 28.4663 752.132 22.1984 754.199 14.3002C755.141 10.6047 755.504 3.2499 754.924 -1.67744C753.292 -15.5175 746.949 -25.662 735.24 -33.053C731.905 -35.1544 730.745 -35.5167 730.382 -34.6109Z" fill="#FBF0B2"/>
<path d="M751.697 58.1391C741.439 63.1389 734.044 71.0009 730.962 80.131C729.186 85.3844 728.606 93.1377 729.512 99.2969C731.687 113.717 737.632 122.231 748.326 126.107C757.57 129.477 769.569 129.73 779.719 126.76C787.476 124.513 792.841 120.745 796.72 114.912C800.164 109.731 801.36 105.13 801.36 96.9419C801.396 86.8336 799.33 79.189 794.69 72.0516C791.101 66.5808 785.192 61.1462 779.646 58.2478C777.616 57.2333 777.326 57.1608 776.819 57.6318C776.347 58.1391 776.384 58.4651 777.181 60.7114C779.537 67.5952 778.921 72.2327 775.369 74.0805C774.136 74.7326 772.94 74.8775 767.212 75.1311C759.564 75.4572 758.005 75.2036 756.192 73.3921C753.945 71.1458 753.619 67.7401 755.105 62.1244C756.265 57.813 756.337 56.7985 755.612 56.6174C755.322 56.5811 753.546 57.2695 751.697 58.1391Z" fill="#FBF0B2"/>
<path d="M844.461 57.9942C834.783 62.668 827.279 70.2039 824.089 78.4645C821.044 86.3265 820.718 95.5652 823.219 105.239C824.741 111.253 826.445 114.767 829.599 118.535C835.181 125.202 844.933 128.789 857.475 128.789C863.891 128.789 867.444 128.245 873.643 126.252C889.665 121.18 896.625 107.304 893.145 87.3772C891.659 78.8268 888.07 71.8705 881.98 65.7476C877.739 61.5086 870.924 56.9073 869.655 57.3783C868.894 57.6682 868.93 58.3928 869.945 61.6173C871.721 67.1968 871.504 70.7474 869.256 72.9937C867.661 74.624 865.958 74.9501 858.563 75.1675C850.696 75.3849 849.464 75.0226 847.615 71.943C846.89 70.6749 846.781 70.059 846.818 67.233C846.854 64.9867 847.144 63.2114 847.688 61.4361C848.703 58.3566 848.811 56.7986 848.05 56.6175C847.76 56.5813 846.129 57.1972 844.461 57.9942Z" fill="#FBF0B2"/>
<path d="M936.572 58.1391C926.314 63.1389 918.919 71.0009 915.837 80.131C914.061 85.3844 913.481 93.1377 914.387 99.2969C916.562 113.717 922.507 122.231 933.201 126.107C942.445 129.477 954.444 129.73 964.594 126.76C972.351 124.513 977.716 120.745 981.595 114.912C985.039 109.731 986.235 105.13 986.235 96.9419C986.271 86.8336 984.205 79.189 979.565 72.0516C975.976 66.5808 970.067 61.1462 964.521 58.2478C962.491 57.2333 962.201 57.1608 961.694 57.6318C961.222 58.1391 961.259 58.4651 962.056 60.7114C964.412 67.5952 963.796 72.2327 960.244 74.0805C959.011 74.7326 957.815 74.8775 952.087 75.1311C944.439 75.4572 942.88 75.2036 941.067 73.3921C938.82 71.1458 938.494 67.7401 939.98 62.1244C941.14 57.813 941.212 56.7985 940.487 56.6174C940.197 56.5811 938.421 57.2695 936.572 58.1391Z" fill="#FBF0B2"/>
<path d="M1029.34 57.9942C1019.66 62.668 1012.15 70.2039 1008.96 78.4645C1005.92 86.3265 1005.59 95.5652 1008.09 105.239C1009.62 111.253 1011.32 114.767 1014.47 118.535C1020.06 125.202 1029.81 128.789 1042.35 128.789C1048.77 128.789 1052.32 128.245 1058.52 126.252C1074.54 121.18 1081.5 107.304 1078.02 87.3772C1076.53 78.8268 1072.95 71.8705 1066.86 65.7476C1062.61 61.5086 1055.8 56.9073 1054.53 57.3783C1053.77 57.6682 1053.81 58.3928 1054.82 61.6173C1056.6 67.1968 1056.38 70.7474 1054.13 72.9937C1052.54 74.624 1050.83 74.9501 1043.44 75.1675C1035.57 75.3849 1034.34 75.0226 1032.49 71.943C1031.77 70.6749 1031.66 70.059 1031.69 67.233C1031.73 64.9867 1032.02 63.2114 1032.56 61.4361C1033.58 58.3566 1033.69 56.7986 1032.93 56.6175C1032.64 56.5813 1031 57.1972 1029.34 57.9942Z" fill="#FBF0B2"/>
<path d="M1121.45 58.1391C1111.19 63.1389 1103.79 71.0009 1100.71 80.131C1098.94 85.3844 1098.36 93.1377 1099.26 99.2969C1101.44 113.717 1107.38 122.231 1118.08 126.107C1127.32 129.477 1139.32 129.73 1149.47 126.76C1157.23 124.513 1162.59 120.745 1166.47 114.912C1169.91 109.731 1171.11 105.13 1171.11 96.9419C1171.15 86.8336 1169.08 79.189 1164.44 72.0516C1160.85 66.5808 1154.94 61.1462 1149.4 58.2478C1147.37 57.2333 1147.08 57.1608 1146.57 57.6318C1146.1 58.1391 1146.13 58.4651 1146.93 60.7114C1149.29 67.5952 1148.67 72.2327 1145.12 74.0805C1143.89 74.7326 1142.69 74.8775 1136.96 75.1311C1129.31 75.4572 1127.76 75.2036 1125.94 73.3921C1123.7 71.1458 1123.37 67.7401 1124.86 62.1244C1126.02 57.813 1126.09 56.7985 1125.36 56.6174C1125.07 56.5811 1123.3 57.2695 1121.45 58.1391Z" fill="#FBF0B2"/>
<path d="M797.844 150.491C786.715 155.889 779.139 164.621 776.456 175.2C774.716 182.084 774.898 189.366 777.036 197.844C780.553 211.756 788.89 218.713 804.55 220.85C809.371 221.502 813.141 221.502 817.963 220.85C827.605 219.546 834.203 216.72 839.205 211.793C843.845 207.191 846.419 202.119 847.361 195.598C847.941 191.54 847.579 182.301 846.636 178.279C843.918 166.468 837.393 157.483 826.989 151.215C822.711 148.679 822.059 149.15 823.581 153.534C826.01 160.708 824.705 165.889 820.21 167.012C819.485 167.193 816.114 167.41 812.779 167.519C804.514 167.809 802.846 167.265 801.143 163.896C800.2 162.048 800.381 157.628 801.505 153.788C802.701 149.73 802.774 149.15 801.831 149.041C801.433 148.969 799.656 149.657 797.844 150.491Z" fill="#FBF0B2"/>
<path d="M890.825 150.237C879.189 155.708 870.924 165.454 868.495 176.649C866.828 184.294 868.241 196.793 871.613 204.22C874.839 211.394 881.255 216.974 888.831 219.147C898.184 221.901 907.174 222.01 916.889 219.582C928.598 216.611 936.246 209.546 939.11 199.076C939.763 196.648 939.871 195.163 939.908 189.511C939.944 182.446 939.654 180.163 938.131 174.838C935.485 165.707 929.721 158.063 921.348 152.556C915.185 148.462 914.46 148.607 916.019 153.643C918.303 161.142 917.324 165.454 913.01 166.794C910.436 167.628 899.67 167.881 897.35 167.193C895.393 166.613 894.015 165.273 893.363 163.208C892.674 161.179 893.109 156.179 894.233 152.628C894.776 150.998 895.103 149.476 894.994 149.295C894.631 148.679 893.653 148.897 890.825 150.237Z" fill="#FBF0B2"/>
<path d="M982.719 150.491C971.59 155.889 964.014 164.621 961.331 175.2C959.591 182.084 959.773 189.366 961.911 197.844C965.428 211.756 973.765 218.713 989.425 220.85C994.246 221.502 998.016 221.502 1002.84 220.85C1012.48 219.546 1019.08 216.72 1024.08 211.793C1028.72 207.191 1031.29 202.119 1032.24 195.598C1032.82 191.54 1032.45 182.301 1031.51 178.279C1028.79 166.468 1022.27 157.483 1011.86 151.215C1007.59 148.679 1006.93 149.15 1008.46 153.534C1010.89 160.708 1009.58 165.889 1005.09 167.012C1004.36 167.193 1000.99 167.41 997.654 167.519C989.389 167.809 987.721 167.265 986.018 163.896C985.075 162.048 985.256 157.628 986.38 153.788C987.576 149.73 987.649 149.15 986.706 149.041C986.308 148.969 984.531 149.657 982.719 150.491Z" fill="#FBF0B2"/>
<path d="M1075.7 150.237C1064.06 155.708 1055.8 165.454 1053.37 176.649C1051.7 184.294 1053.12 196.793 1056.49 204.22C1059.71 211.394 1066.13 216.974 1073.71 219.147C1083.06 221.901 1092.05 222.01 1101.76 219.582C1113.47 216.611 1121.12 209.546 1123.99 199.076C1124.64 196.648 1124.75 195.163 1124.78 189.511C1124.82 182.446 1124.53 180.163 1123.01 174.838C1120.36 165.707 1114.6 158.063 1106.22 152.556C1100.06 148.462 1099.34 148.607 1100.89 153.643C1103.18 161.142 1102.2 165.454 1097.89 166.794C1095.31 167.628 1084.55 167.881 1082.23 167.193C1080.27 166.613 1078.89 165.273 1078.24 163.208C1077.55 161.179 1077.98 156.179 1079.11 152.628C1079.65 150.998 1079.98 149.476 1079.87 149.295C1079.51 148.679 1078.53 148.897 1075.7 150.237Z" fill="#FBF0B2"/>
<path d="M1167.59 150.491C1156.47 155.889 1148.89 164.62 1146.21 175.2C1144.47 182.083 1144.65 189.366 1146.79 197.844C1150.3 211.756 1158.64 218.713 1174.3 220.85C1176.4 221.14 1179.19 221.394 1180.57 221.394H1183V194.366V167.338L1179.96 167.591C1173.18 168.135 1170.31 165.852 1170.31 159.874C1170.31 157.809 1170.6 156.07 1171.26 153.788C1172.45 149.73 1172.52 149.15 1171.58 149.041C1171.18 148.969 1169.41 149.657 1167.59 150.491Z" fill="#FBF0B2"/>
<path d="M730.382 150.164C730.274 150.454 730.6 152.048 731.144 153.715C732.412 157.773 732.702 161.106 731.905 163.171C730.672 166.396 728.461 167.41 722.77 167.41H719V194.402V221.394H720.196C725.416 221.394 734.696 219.22 739.445 216.901C746.949 213.242 752.132 206.974 754.199 199.076C755.141 195.38 755.504 188.025 754.924 183.098C753.292 169.258 746.949 159.113 735.24 151.722C731.905 149.621 730.745 149.259 730.382 150.164Z" fill="#FBF0B2"/>
</g>
<g clip-path="url(#clip4_315_2613)">
<path d="M1261.84 -34.2847C1250.72 -28.8864 1243.14 -20.1548 1240.46 -9.57554C1238.72 -2.69175 1238.9 4.59057 1241.04 13.0685C1244.55 26.981 1252.89 33.9373 1268.55 36.0749C1273.37 36.727 1277.14 36.727 1281.96 36.0749C1291.61 34.7706 1298.2 31.9446 1303.21 27.0172C1307.85 22.416 1310.42 17.3437 1311.36 10.8222C1311.94 6.7644 1311.58 -2.47437 1310.64 -6.49595C1307.92 -18.3071 1301.39 -27.2922 1290.99 -33.5601C1286.71 -36.0963 1286.06 -35.6253 1287.58 -31.2414C1290.01 -24.0677 1288.71 -18.8868 1284.21 -17.7636C1283.49 -17.5825 1280.11 -17.3651 1276.78 -17.2564C1268.51 -16.9666 1266.85 -17.51 1265.14 -20.8795C1264.2 -22.7272 1264.38 -27.1473 1265.51 -30.9878C1266.7 -35.0456 1266.77 -35.6253 1265.83 -35.7339C1265.43 -35.8064 1263.66 -35.118 1261.84 -34.2847Z" fill="#FBF0B2"/>
<path d="M1354.82 -34.5383C1343.19 -29.0675 1334.92 -19.3215 1332.49 -8.12633C1330.83 -0.481704 1332.24 12.0178 1335.61 19.4451C1338.84 26.6187 1345.25 32.1982 1352.83 34.372C1362.18 37.1255 1371.17 37.2342 1380.89 34.8068C1392.6 31.8359 1400.25 24.7709 1403.11 14.3003C1403.76 11.8729 1403.87 10.3874 1403.91 4.73548C1403.94 -2.32946 1403.65 -4.61198 1402.13 -9.93786C1399.48 -19.0679 1393.72 -26.7126 1385.35 -32.2196C1379.18 -36.3136 1378.46 -36.1687 1380.02 -31.1327C1382.3 -23.633 1381.32 -19.3215 1377.01 -17.981C1374.44 -17.1477 1363.67 -16.8941 1361.35 -17.5825C1359.39 -18.1622 1358.01 -19.5027 1357.36 -21.5678C1356.67 -23.5967 1357.11 -28.5965 1358.23 -32.1471C1358.78 -33.7775 1359.1 -35.2992 1358.99 -35.4803C1358.63 -36.0963 1357.65 -35.8789 1354.82 -34.5383Z" fill="#FBF0B2"/>
<path d="M1446.72 -34.2847C1435.59 -28.8864 1428.01 -20.1548 1425.33 -9.57554C1423.59 -2.69175 1423.77 4.59057 1425.91 13.0685C1429.43 26.981 1437.77 33.9373 1453.43 36.0749C1458.25 36.727 1462.02 36.727 1466.84 36.0749C1476.48 34.7706 1483.08 31.9446 1488.08 27.0172C1492.72 22.416 1495.29 17.3437 1496.24 10.8222C1496.82 6.7644 1496.45 -2.47437 1495.51 -6.49595C1492.79 -18.3071 1486.27 -27.2922 1475.86 -33.5601C1471.59 -36.0963 1470.93 -35.6253 1472.46 -31.2414C1474.89 -24.0677 1473.58 -18.8868 1469.09 -17.7636C1468.36 -17.5825 1464.99 -17.3651 1461.65 -17.2564C1453.39 -16.9666 1451.72 -17.51 1450.02 -20.8795C1449.08 -22.7272 1449.26 -27.1473 1450.38 -30.9878C1451.58 -35.0456 1451.65 -35.6253 1450.71 -35.7339C1450.31 -35.8064 1448.53 -35.118 1446.72 -34.2847Z" fill="#FBF0B2"/>
<path d="M1194.38 -34.6109C1194.27 -34.3211 1194.6 -32.727 1195.14 -31.0603C1196.41 -27.0025 1196.7 -23.6693 1195.9 -21.6042C1194.67 -18.3797 1192.46 -17.3652 1186.77 -17.3652H1183V9.62647V36.6182H1184.2C1189.42 36.6182 1198.7 34.4443 1203.44 32.1256C1210.95 28.4663 1216.13 22.1984 1218.2 14.3002C1219.14 10.6047 1219.5 3.2499 1218.92 -1.67744C1217.29 -15.5175 1210.95 -25.662 1199.24 -33.053C1195.9 -35.1544 1194.74 -35.5167 1194.38 -34.6109Z" fill="#FBF0B2"/>
<path d="M1215.7 58.1391C1205.44 63.1389 1198.04 71.0009 1194.96 80.131C1193.19 85.3844 1192.61 93.1377 1193.51 99.2969C1195.69 113.717 1201.63 122.231 1212.33 126.107C1221.57 129.477 1233.57 129.73 1243.72 126.76C1251.48 124.513 1256.84 120.745 1260.72 114.912C1264.16 109.731 1265.36 105.13 1265.36 96.9419C1265.4 86.8336 1263.33 79.189 1258.69 72.0516C1255.1 66.5808 1249.19 61.1462 1243.65 58.2478C1241.62 57.2333 1241.33 57.1608 1240.82 57.6318C1240.35 58.1391 1240.38 58.4651 1241.18 60.7114C1243.54 67.5952 1242.92 72.2327 1239.37 74.0805C1238.14 74.7326 1236.94 74.8775 1231.21 75.1311C1223.56 75.4572 1222.01 75.2036 1220.19 73.3921C1217.95 71.1458 1217.62 67.7401 1219.11 62.1244C1220.27 57.813 1220.34 56.7985 1219.61 56.6174C1219.32 56.5811 1217.55 57.2695 1215.7 58.1391Z" fill="#FBF0B2"/>
<path d="M1308.46 57.9942C1298.78 62.668 1291.28 70.2039 1288.09 78.4645C1285.04 86.3265 1284.72 95.5652 1287.22 105.239C1288.74 111.253 1290.44 114.767 1293.6 118.535C1299.18 125.202 1308.93 128.789 1321.47 128.789C1327.89 128.789 1331.44 128.245 1337.64 126.252C1353.66 121.18 1360.62 107.304 1357.14 87.3772C1355.66 78.8268 1352.07 71.8705 1345.98 65.7476C1341.74 61.5086 1334.92 56.9073 1333.65 57.3783C1332.89 57.6682 1332.93 58.3928 1333.94 61.6173C1335.72 67.1968 1335.5 70.7474 1333.26 72.9937C1331.66 74.624 1329.96 74.9501 1322.56 75.1675C1314.7 75.3849 1313.46 75.0226 1311.61 71.943C1310.89 70.6749 1310.78 70.059 1310.82 67.233C1310.85 64.9867 1311.14 63.2114 1311.69 61.4361C1312.7 58.3566 1312.81 56.7986 1312.05 56.6175C1311.76 56.5813 1310.13 57.1972 1308.46 57.9942Z" fill="#FBF0B2"/>
<path d="M1400.57 58.1391C1390.31 63.1389 1382.92 71.0009 1379.84 80.131C1378.06 85.3844 1377.48 93.1377 1378.39 99.2969C1380.56 113.717 1386.51 122.231 1397.2 126.107C1406.45 129.477 1418.44 129.73 1428.59 126.76C1436.35 124.513 1441.72 120.745 1445.6 114.912C1449.04 109.731 1450.24 105.13 1450.24 96.9419C1450.27 86.8336 1448.21 79.189 1443.57 72.0516C1439.98 66.5808 1434.07 61.1462 1428.52 58.2478C1426.49 57.2333 1426.2 57.1608 1425.69 57.6318C1425.22 58.1391 1425.26 58.4651 1426.06 60.7114C1428.41 67.5952 1427.8 72.2327 1424.24 74.0805C1423.01 74.7326 1421.82 74.8775 1416.09 75.1311C1408.44 75.4572 1406.88 75.2036 1405.07 73.3921C1402.82 71.1458 1402.49 67.7401 1403.98 62.1244C1405.14 57.813 1405.21 56.7985 1404.49 56.6174C1404.2 56.5811 1402.42 57.2695 1400.57 58.1391Z" fill="#FBF0B2"/>
<path d="M1493.34 57.9942C1483.66 62.668 1476.15 70.2039 1472.96 78.4645C1469.92 86.3265 1469.59 95.5652 1472.09 105.239C1473.62 111.253 1475.32 114.767 1478.47 118.535C1484.06 125.202 1493.81 128.789 1506.35 128.789C1512.77 128.789 1516.32 128.245 1522.52 126.252C1538.54 121.18 1545.5 107.304 1542.02 87.3772C1540.53 78.8268 1536.95 71.8705 1530.86 65.7476C1526.61 61.5086 1519.8 56.9073 1518.53 57.3783C1517.77 57.6682 1517.81 58.3928 1518.82 61.6173C1520.6 67.1968 1520.38 70.7474 1518.13 72.9937C1516.54 74.624 1514.83 74.9501 1507.44 75.1675C1499.57 75.3849 1498.34 75.0226 1496.49 71.943C1495.77 70.6749 1495.66 70.059 1495.69 67.233C1495.73 64.9867 1496.02 63.2114 1496.56 61.4361C1497.58 58.3566 1497.69 56.7986 1496.93 56.6175C1496.64 56.5813 1495 57.1972 1493.34 57.9942Z" fill="#FBF0B2"/>
<path d="M1261.84 150.491C1250.72 155.889 1243.14 164.621 1240.46 175.2C1238.72 182.084 1238.9 189.366 1241.04 197.844C1244.55 211.756 1252.89 218.713 1268.55 220.85C1273.37 221.502 1277.14 221.502 1281.96 220.85C1291.61 219.546 1298.2 216.72 1303.21 211.793C1307.85 207.191 1310.42 202.119 1311.36 195.598C1311.94 191.54 1311.58 182.301 1310.64 178.279C1307.92 166.468 1301.39 157.483 1290.99 151.215C1286.71 148.679 1286.06 149.15 1287.58 153.534C1290.01 160.708 1288.71 165.889 1284.21 167.012C1283.49 167.193 1280.11 167.41 1276.78 167.519C1268.51 167.809 1266.85 167.265 1265.14 163.896C1264.2 162.048 1264.38 157.628 1265.51 153.788C1266.7 149.73 1266.77 149.15 1265.83 149.041C1265.43 148.969 1263.66 149.657 1261.84 150.491Z" fill="#FBF0B2"/>
<path d="M1354.82 150.237C1343.19 155.708 1334.92 165.454 1332.49 176.649C1330.83 184.294 1332.24 196.793 1335.61 204.22C1338.84 211.394 1345.25 216.974 1352.83 219.147C1362.18 221.901 1371.17 222.01 1380.89 219.582C1392.6 216.611 1400.25 209.546 1403.11 199.076C1403.76 196.648 1403.87 195.163 1403.91 189.511C1403.94 182.446 1403.65 180.163 1402.13 174.838C1399.48 165.707 1393.72 158.063 1385.35 152.556C1379.18 148.462 1378.46 148.607 1380.02 153.643C1382.3 161.142 1381.32 165.454 1377.01 166.794C1374.44 167.628 1363.67 167.881 1361.35 167.193C1359.39 166.613 1358.01 165.273 1357.36 163.208C1356.67 161.179 1357.11 156.179 1358.23 152.628C1358.78 150.998 1359.1 149.476 1358.99 149.295C1358.63 148.679 1357.65 148.897 1354.82 150.237Z" fill="#FBF0B2"/>
<path d="M1446.72 150.491C1435.59 155.889 1428.01 164.621 1425.33 175.2C1423.59 182.084 1423.77 189.366 1425.91 197.844C1429.43 211.756 1437.77 218.713 1453.43 220.85C1458.25 221.502 1462.02 221.502 1466.84 220.85C1476.48 219.546 1483.08 216.72 1488.08 211.793C1492.72 207.191 1495.29 202.119 1496.24 195.598C1496.82 191.54 1496.45 182.301 1495.51 178.279C1492.79 166.468 1486.27 157.483 1475.86 151.215C1471.59 148.679 1470.93 149.15 1472.46 153.534C1474.89 160.708 1473.58 165.889 1469.09 167.012C1468.36 167.193 1464.99 167.41 1461.65 167.519C1453.39 167.809 1451.72 167.265 1450.02 163.896C1449.08 162.048 1449.26 157.628 1450.38 153.788C1451.58 149.73 1451.65 149.15 1450.71 149.041C1450.31 148.969 1448.53 149.657 1446.72 150.491Z" fill="#FBF0B2"/>
<path d="M1194.38 150.164C1194.27 150.454 1194.6 152.048 1195.14 153.715C1196.41 157.773 1196.7 161.106 1195.9 163.171C1194.67 166.396 1192.46 167.41 1186.77 167.41H1183V194.402V221.394H1184.2C1189.42 221.394 1198.7 219.22 1203.44 216.901C1210.95 213.242 1216.13 206.974 1218.2 199.076C1219.14 195.38 1219.5 188.025 1218.92 183.098C1217.29 169.258 1210.95 159.113 1199.24 151.722C1195.9 149.621 1194.74 149.259 1194.38 150.164Z" fill="#FBF0B2"/>
</g>
</g>
<defs>
<clipPath id="clip0_315_2613">
<rect width="1512" height="196" fill="white"/>
</clipPath>
<clipPath id="clip1_315_2613">
<rect width="464" height="371" fill="white" transform="translate(-209 -92)"/>
</clipPath>
<clipPath id="clip2_315_2613">
<rect width="464" height="371" fill="white" transform="translate(255 -92)"/>
</clipPath>
<clipPath id="clip3_315_2613">
<rect width="464" height="371" fill="white" transform="translate(719 -92)"/>
</clipPath>
<clipPath id="clip4_315_2613">
<rect width="464" height="371" fill="white" transform="translate(1183 -92)"/>
</clipPath>
</defs>
</svg>
