<svg width="154" height="200" viewBox="0 0 154 200" fill="none" xmlns="http://www.w3.org/2000/svg">
<g clip-path="url(#clip0_155_9750)">
<path d="M18.1905 0C18.1905 0 27.0018 1.35355 41.4149 16.8702C43.1938 18.7833 45.5556 20.0764 48.137 20.5074C53.1255 21.3467 60.9225 20.2125 66.8422 19.6529C90.8615 17.3844 109.597 21.3316 109.597 21.3316C109.597 21.3316 105.244 27.2146 93.1325 34.7764C93.1325 34.7764 90.1045 36.2887 99.1884 53.6807C108.272 71.0726 114.328 155.008 114.328 155.008L116.198 95.4441C116.364 90.2492 117.856 85.145 120.725 80.8121C124.101 75.708 129.846 70.7021 139.309 71.0802C150.664 71.5339 153.298 83.4209 153.586 92.858C153.752 98.1663 153.147 103.459 151.943 108.632C148.309 124.262 135.66 177.005 127.189 188.287C127.189 188.287 121.891 200.386 92.3679 199.629L34.3749 200C23.7241 200.068 13.8226 194.314 8.81136 184.922C4.1483 176.173 0.310365 162.38 0.0227087 140.648C-0.635872 90.8163 12.937 45.5367 16.5554 34.3756C17.1307 32.591 17.4335 30.7384 17.441 28.8631C17.4638 21.9668 17.5924 4.80169 18.1905 0Z" fill="#006BA6"/>
<path d="M51.5889 54.5426C51.4375 54.036 51.7176 53.4991 52.2247 53.3328C53.277 52.9925 55.2376 52.6068 57.0846 53.6428C59.0679 54.7619 56.5926 56.5843 55.1543 57.4615C54.6168 57.7866 53.9355 57.7261 53.4813 57.2951C52.8228 56.6675 51.9295 55.6618 51.5889 54.5351V54.5426Z" fill="#F0F9FF"/>
<path d="M84.5482 61.8851C86.5845 62.7774 88.6208 63.6697 90.6571 64.5619C90.9448 64.6905 91.2324 64.8115 91.5201 64.94C91.944 65.1215 92.4361 65.061 92.6859 64.6376C92.8978 64.2746 92.807 63.6621 92.3831 63.4731C90.3468 62.5808 88.3105 61.6885 86.2742 60.7962C85.9865 60.6677 85.6988 60.5467 85.4112 60.4181C84.9873 60.2366 84.4952 60.2971 84.2454 60.7206C84.0335 61.0835 84.1243 61.696 84.5482 61.8851Z" fill="#F0F9FF"/>
<path d="M82.474 63.9192C84.1621 65.5072 85.8427 67.0952 87.5307 68.6831L88.265 69.3712C88.5981 69.6888 89.1356 69.7039 89.4686 69.3712C89.8017 69.0385 89.8017 68.4865 89.4686 68.1689C87.7806 66.581 86.1 64.993 84.4119 63.405L83.6777 62.7169C83.3446 62.3993 82.8071 62.3842 82.474 62.7169C82.141 63.0496 82.141 63.6016 82.474 63.9192Z" fill="#F0F9FF"/>
<path d="M79.484 65.2046C80.68 66.8682 81.8836 68.5318 83.0797 70.1954C83.2538 70.4373 83.4279 70.6718 83.5944 70.9137C83.8594 71.2843 84.3363 71.4657 84.7602 71.2162C85.1311 71.0045 85.3355 70.4298 85.063 70.0517C83.8669 68.3881 82.6633 66.7245 81.4673 65.061C81.2932 64.819 81.1191 64.5846 80.9525 64.3426C80.6876 63.9721 80.2107 63.7906 79.7868 64.0401C79.4158 64.2519 79.2114 64.8266 79.484 65.2046Z" fill="#F0F9FF"/>
<path d="M25.4879 54.21C23.2699 54.21 21.0519 54.21 18.8339 54.21C18.516 54.21 18.198 54.21 17.8801 54.21C16.7825 54.21 16.7825 55.9113 17.8801 55.9113C20.0981 55.9113 22.3161 55.9113 24.5341 55.9113C24.852 55.9113 25.1699 55.9113 25.4879 55.9113C26.5855 55.9113 26.5855 54.21 25.4879 54.21Z" fill="#F0F9FF"/>
<path d="M26.1237 56.9851C23.936 57.764 21.7559 58.5429 19.5682 59.3142C19.2502 59.4276 18.9399 59.541 18.6219 59.6469C18.1905 59.7981 17.8952 60.2291 18.0239 60.6904C18.1375 61.1063 18.6371 61.439 19.0686 61.2878C21.2563 60.5089 23.4364 59.73 25.6241 58.9588C25.942 58.8453 26.2524 58.7319 26.5703 58.626C27.0018 58.4748 27.297 58.0438 27.1684 57.5825C27.0548 57.1666 26.5552 56.8339 26.1237 56.9851Z" fill="#F0F9FF"/>
<path d="M27.9557 59.5561C26.1843 60.5996 24.4129 61.6431 22.6416 62.6867L21.8922 63.1328C21.4985 63.3672 21.3547 63.8965 21.5894 64.2973C21.824 64.6981 22.3539 64.8342 22.7551 64.5998C24.5265 63.5563 26.2978 62.5127 28.0692 61.4692L28.8186 61.0231C29.2123 60.7887 29.3561 60.2594 29.1214 59.8586C28.8868 59.4578 28.3569 59.3217 27.9557 59.5561Z" fill="#F0F9FF"/>
<path d="M48.4458 50.0896C48.8749 44.887 44.8317 40.308 39.4151 39.8622C33.9985 39.4164 29.2596 43.2726 28.8305 48.4753C28.4014 53.6779 32.4445 58.2569 37.8611 58.7027C43.2777 59.1485 48.0166 55.2923 48.4458 50.0896Z" fill="#F0F9FF"/>
<path d="M40.5595 57.1137C44.7403 57.1137 48.1294 53.7282 48.1294 49.552C48.1294 45.3757 44.7403 41.9902 40.5595 41.9902C36.3788 41.9902 32.9896 45.3757 32.9896 49.552C32.9896 53.7282 36.3788 57.1137 40.5595 57.1137Z" fill="#006BA6"/>
<path d="M82.3963 52.884C82.8254 47.6813 78.7823 43.1023 73.3657 42.6565C67.949 42.2107 63.2102 46.0669 62.781 51.2696C62.3519 56.4722 66.3951 61.0512 71.8117 61.497C77.2283 61.9428 81.9672 58.0866 82.3963 52.884Z" fill="#F0F9FF"/>
<path d="M70.8391 59.3821C75.0199 59.3821 78.409 55.9966 78.409 51.8204C78.409 47.6442 75.0199 44.2587 70.8391 44.2587C66.6584 44.2587 63.2692 47.6442 63.2692 51.8204C63.2692 55.9966 66.6584 59.3821 70.8391 59.3821Z" fill="#006BA6"/>
</g>
<defs>
<clipPath id="clip0_155_9750">
<rect width="153.616" height="200" fill="white"/>
</clipPath>
</defs>
</svg>
