<svg width="280" height="200" viewBox="0 0 280 200" fill="none" xmlns="http://www.w3.org/2000/svg">
<g clip-path="url(#clip0_155_9735)">
<path d="M0.31842 18.3728C4.60486 23.0111 13.5909 42.4595 13.6167 124.014C13.6167 128.893 13.3929 133.772 12.9969 138.634C11.7489 154.038 11.1206 196.231 41.6507 195.947C43.1828 195.93 44.7149 195.999 46.247 196.067C66.0782 196.962 167.24 201.368 203.597 199.57C205.93 199.458 208.262 199.38 210.603 199.38C224.737 199.346 278.808 197.814 279.557 176.12C280.417 151.164 227.913 154.606 227.913 154.606C227.913 154.606 197.469 157.893 173.583 165.286C172.37 165.656 171.07 164.881 170.932 163.625C170.769 162.076 171.311 159.615 174.108 155.94C179.703 148.591 183.146 130.519 183.146 130.519C183.146 130.519 185.479 114.737 175.27 88.6365C165.062 62.5361 170.235 9.18211 170.235 9.18211C170.235 9.18211 163.47 -11.471 153.081 9.18211C153.081 9.18211 142.692 56.5123 140.11 66.8388C138.621 72.7938 136.951 79.1275 135.797 83.4302C134.644 87.7329 131.494 91.7173 127.242 93.5933C121.613 96.0803 113.616 96.4589 106.842 84.8243C105.061 81.7607 104.011 78.3272 103.787 74.7903C102.909 61.099 97.4088 17.5036 62.7472 11.3077C61.7487 11.1269 61.0171 12.2543 61.5852 13.0976C63.935 16.5914 68.2817 23.6565 69.5211 29.8439C69.5211 29.8439 72.1033 37.5888 61.7746 35.8677H29.9275C29.9275 35.8677 14.3139 15.7997 1.05005 16.4193C0.0602112 16.4623 -0.370178 17.6671 0.301178 18.39L0.31842 18.3728Z" fill="#9C580C"/>
<path d="M75.968 66.6408C70.7865 66.6408 66.5861 62.4413 66.5861 57.2608C66.5861 52.0804 70.7865 47.8809 75.968 47.8809C81.1495 47.8809 85.35 52.0804 85.35 57.2608C85.35 62.4413 81.1495 66.6408 75.968 66.6408Z" stroke="#F0F9FF" stroke-width="3" stroke-miterlimit="10"/>
<path d="M37.2782 70.6252C32.0967 70.6252 27.8962 66.4256 27.8962 61.2452C27.8962 56.0648 32.0967 51.8652 37.2782 51.8652C42.4597 51.8652 46.6602 56.0648 46.6602 61.2452C46.6602 66.4256 42.4597 70.6252 37.2782 70.6252Z" stroke="#F0F9FF" stroke-width="3" stroke-miterlimit="10"/>
<path d="M60.5437 59.8425C60.7589 59.2229 60.4404 58.5431 59.8207 58.3108C58.5382 57.8289 56.1282 57.2437 53.787 58.4312C51.2651 59.7049 54.2346 62.1058 55.9733 63.2761C56.6188 63.7064 57.4709 63.672 58.0562 63.1643C58.9083 62.4242 60.0617 61.228 60.5437 59.8511V59.8425Z" fill="#F0F9FF"/>
<path d="M23.3172 69.6615C20.6833 70.4446 18.0495 71.2191 15.4242 72.0022C15.0455 72.1141 14.6582 72.226 14.2795 72.3464C13.0831 72.6993 12.5666 70.8319 13.763 70.4791C16.3969 69.696 19.0307 68.9215 21.6559 68.1384C22.0346 68.0265 22.422 67.9146 22.8007 67.7941C23.9971 67.4413 24.5136 69.3087 23.3172 69.6615Z" fill="#F0F9FF"/>
<path d="M25.5464 72.5181C23.2225 74.2134 20.8985 75.9173 18.5745 77.6126C18.2474 77.8535 17.9118 78.0945 17.5847 78.3354C17.1629 78.6452 16.5088 78.4043 16.2592 77.9912C15.9751 77.5007 16.1817 76.9758 16.6034 76.666C18.9274 74.9707 21.2514 73.2668 23.5754 71.5715C23.9024 71.3306 24.2381 71.0896 24.5652 70.8487C24.987 70.5389 25.6411 70.7798 25.8907 71.1929C26.1748 71.6834 25.9682 72.2083 25.5464 72.5181Z" fill="#F0F9FF"/>
<path d="M29.041 74.6096C27.3023 76.4769 25.5636 78.3443 23.8336 80.2117C23.5926 80.4785 23.343 80.7367 23.1019 81.0034C22.749 81.3907 22.0949 81.3649 21.7334 81.0034C21.3547 80.6248 21.3719 80.0224 21.7334 79.6352C23.4721 77.7678 25.2107 75.9004 26.9408 74.033C27.1818 73.7662 27.4314 73.5081 27.6724 73.2413C28.0253 72.854 28.6795 72.8799 29.041 73.2413C29.4197 73.6199 29.4025 74.2223 29.041 74.6096Z" fill="#F0F9FF"/>
<path d="M88.9909 63.4653C91.7194 63.8095 94.4565 64.1451 97.185 64.4893C97.5724 64.5409 97.9597 64.584 98.347 64.6356C98.8635 64.7044 99.311 65.0315 99.311 65.5994C99.311 66.0727 98.8635 66.6321 98.347 66.5632C95.6185 66.219 92.8814 65.8834 90.1529 65.5392C89.7655 65.4875 89.3782 65.4445 88.9909 65.3929C88.4744 65.324 88.0269 64.997 88.0269 64.4291C88.0269 63.9558 88.4744 63.3964 88.9909 63.4653Z" fill="#F0F9FF"/>
<path d="M87.9924 66.8472C90.566 68.1466 93.1396 69.4374 95.7046 70.7369C96.0661 70.9176 96.4362 71.1069 96.7977 71.2876C97.2625 71.52 97.4002 72.1826 97.142 72.6129C96.8666 73.0862 96.2899 73.198 95.8165 72.9571C93.2429 71.6577 90.6693 70.3668 88.1043 69.0674C87.7428 68.8867 87.3727 68.6974 87.0112 68.5167C86.5464 68.2843 86.4087 67.6217 86.6669 67.1914C86.9424 66.7181 87.519 66.6062 87.9924 66.8472Z" fill="#F0F9FF"/>
<path d="M85.109 69.5923C87.1231 71.1499 89.1372 72.7075 91.1513 74.2565C91.4354 74.4802 91.728 74.704 92.012 74.9191C92.4252 75.2375 92.649 75.7539 92.3563 76.2444C92.1153 76.6488 91.444 76.9156 91.0308 76.5886C89.0167 75.031 87.0026 73.4734 84.9885 71.9244C84.7044 71.7007 84.4118 71.4769 84.1278 71.2618C83.7146 70.9434 83.4908 70.4271 83.7835 69.9365C84.0245 69.5321 84.6958 69.2653 85.109 69.5923Z" fill="#F0F9FF"/>
<path d="M56.7049 118.024C56.7049 118.024 58.237 123.928 61.5508 129.117C63.892 132.783 67.4898 135.493 71.6386 136.801C76.8202 138.445 87.9236 143.144 85.35 152.833C82.0104 165.363 57.9099 155.897 57.9099 155.897C57.9099 155.897 45.8597 150.734 35.5309 132.662C35.5309 132.662 51.0843 150.673 59.0461 153.16C59.5797 153.324 60.1048 153.522 60.6212 153.72C64.1158 155.062 77.6293 159.752 82.0104 152.455C85.4963 146.646 77.0354 141.93 72.2927 140.037C65.8631 137.473 60.7934 132.266 58.4263 125.761C57.6087 123.506 56.9803 120.933 56.7135 118.016L56.7049 118.024Z" fill="#F0F9FF"/>
</g>
<defs>
<clipPath id="clip0_155_9735">
<rect width="279.565" height="200" fill="white" transform="matrix(-1 0 0 1 279.565 0)"/>
</clipPath>
</defs>
</svg>
