<svg width="200" height="186" viewBox="0 0 200 186" fill="none" xmlns="http://www.w3.org/2000/svg">
<g clip-path="url(#clip0_155_9704)">
<path d="M0.370087 65.2662C0.370087 65.2662 38.0369 3.47782 118.168 0.0783196C159.714 -1.67833 180.369 25.4679 190.455 49.1719C196.69 63.8225 199.794 79.611 199.964 95.5346C200.278 124.267 198.676 192.058 176.17 184.747C147.699 175.501 163.358 127.851 163.358 127.851C163.358 127.851 167.629 110.071 166.917 107.938C166.59 106.956 165.664 107.326 164.76 108.009C163.5 108.962 162.582 110.285 162.041 111.764C159.522 118.677 149.785 144.159 144.852 139.23C139.92 134.302 140.304 117.83 140.496 112.056C140.624 108.343 140.026 104.624 138.596 101.189C135.564 93.9202 127.905 85.1654 108.552 87.3132C82.1025 90.2504 79.9245 107.476 79.9672 113.144C79.9815 115.078 79.7751 118.236 79.5473 120.156C78.7003 127.289 76.8995 138.939 74.3941 139.941C74.3941 139.941 67.5397 148.163 57.1906 111.494C56.8134 110.15 55.5749 109.225 54.1798 109.246C52.1513 109.282 48.8843 109.581 44.4927 110.775C36.6632 112.909 21.0897 114.637 8.9469 113.058C8.9469 113.058 1.95021 113.514 22.9545 93.7282C23.7517 92.9814 24.1859 91.9288 24.1503 90.8336C24.0507 87.7968 23.4955 80.7987 20.8263 69.5761C20.5345 68.3386 19.3672 67.4994 18.1003 67.6274C12.3492 68.1892 -2.51971 69.2916 0.362961 65.2591L0.370087 65.2662Z" fill="#AD235C"/>
<path d="M34.1293 67.1438C30.1983 67.1438 27.0116 63.9597 27.0116 60.0318C27.0116 56.104 30.1983 52.9199 34.1293 52.9199C38.0603 52.9199 41.247 56.104 41.247 60.0318C41.247 63.9597 38.0603 67.1438 34.1293 67.1438Z" stroke="#F0F9FF" stroke-width="3" stroke-miterlimit="10"/>
<path d="M40.5993 95.8972C36.6683 95.8972 33.4816 92.7131 33.4816 88.7853C33.4816 84.8575 36.6683 81.6733 40.5993 81.6733C44.5303 81.6733 47.717 84.8575 47.717 88.7853C47.717 92.7131 44.5303 95.8972 40.5993 95.8972Z" stroke="#F0F9FF" stroke-width="3" stroke-miterlimit="10"/>
<path d="M39.4035 71.1764C38.9124 71.0697 38.4284 71.3684 38.3145 71.8591C38.0654 72.869 37.8448 74.7323 38.948 76.3894C40.1367 78.1674 41.6741 75.7209 42.4001 74.3127C42.6706 73.7864 42.5638 73.1464 42.1296 72.7552C41.4961 72.1791 40.4926 71.4182 39.4107 71.1764H39.4035Z" fill="#F0F9FF"/>
<path d="M48.201 98.4078C49.0266 100.328 49.8594 102.241 50.6851 104.161L51.0338 104.972C51.2047 105.37 51.1548 105.833 50.7491 106.067C50.4146 106.267 49.8238 106.181 49.653 105.783C48.8273 103.863 47.9946 101.95 47.1689 100.029L46.8202 99.2186C46.6493 98.8203 46.6992 98.3581 47.1049 98.1234C47.4394 97.9242 48.0302 98.0096 48.201 98.4078Z" fill="#F0F9FF"/>
<path d="M50.1299 96.4735C51.6175 98.0736 53.1122 99.6738 54.5998 101.267L55.2262 101.943C55.518 102.255 55.5394 102.76 55.2262 103.073C54.913 103.386 54.3863 103.393 54.0945 103.073C52.6069 101.473 51.1121 99.873 49.6245 98.2799L48.9982 97.6043C48.7064 97.2913 48.685 96.7864 48.9982 96.4735C49.3114 96.1605 49.8381 96.1534 50.1299 96.4735Z" fill="#F0F9FF"/>
<path d="M51.3541 93.6712C52.9129 94.8091 54.4788 95.947 56.0376 97.0849C56.2582 97.2485 56.4789 97.4049 56.6995 97.5685C57.0483 97.8245 57.2191 98.2655 56.9842 98.6637C56.7849 99.0051 56.2369 99.2042 55.8881 98.9482C54.3293 97.8103 52.7634 96.6724 51.2047 95.5345C50.984 95.3709 50.7634 95.2144 50.5427 95.0509C50.194 94.7948 50.0231 94.3539 50.258 93.9556C50.4573 93.6143 51.0054 93.4151 51.3541 93.6712Z" fill="#F0F9FF"/>
<path d="M37.56 49.5916C37.5743 47.5078 37.5814 45.424 37.5956 43.3402C37.5956 43.0415 37.5956 42.7428 37.5956 42.4441C37.5956 41.4128 39.2042 41.4128 39.1971 42.4441C39.1829 44.5279 39.1758 46.6117 39.1615 48.6955C39.1615 48.9942 39.1615 49.2929 39.1615 49.5916C39.1615 50.6228 37.5529 50.6228 37.56 49.5916Z" fill="#F0F9FF"/>
<path d="M40.1722 50.2102C40.9196 48.162 41.6598 46.1138 42.4072 44.0655L42.7275 43.1837C42.877 42.7783 43.2684 42.5009 43.7097 42.6218C44.1012 42.7285 44.4144 43.1979 44.272 43.6033C43.5247 45.6515 42.7844 47.6997 42.0371 49.748L41.7168 50.6298C41.5673 51.0352 41.1758 51.3126 40.7345 51.1917C40.3431 51.085 40.0299 50.6156 40.1722 50.2102Z" fill="#F0F9FF"/>
<path d="M42.578 51.9456C43.5674 50.2885 44.5639 48.6315 45.5532 46.9744L45.9732 46.2703C46.1938 45.9005 46.6921 45.7654 47.0693 45.9858C47.4465 46.2063 47.5818 46.7112 47.354 47.0811C46.3646 48.7381 45.3682 50.3952 44.3788 52.0523L43.9589 52.7564C43.7382 53.1262 43.24 53.2613 42.8627 53.0409C42.4855 52.8204 42.3503 52.3154 42.578 51.9456Z" fill="#F0F9FF"/>
</g>
<defs>
<clipPath id="clip0_155_9704">
<rect width="200" height="185.294" fill="white" transform="matrix(-1 0 0 1 200 0)"/>
</clipPath>
</defs>
</svg>
