<svg width="206" height="167" viewBox="0 0 206 167" fill="none" xmlns="http://www.w3.org/2000/svg">
<g clip-path="url(#clip0_509_3987)">
<path d="M146.099 167L14.4603 157.179C13.3489 157.092 12.4873 156.17 12.4873 155.061V54.8358L146.099 39.8806V167Z" fill="#E2A110"/>
<path d="M69.8651 118.346L27.0093 115.94C26.5723 115.915 26.2227 115.554 26.2227 115.105V88.0863C26.2227 87.6127 26.6098 87.2388 27.0843 87.2513L69.9401 88.4477C70.3896 88.4602 70.7517 88.834 70.7517 89.2827V117.511C70.7517 117.984 70.3521 118.371 69.8776 118.346H69.8651Z" fill="#FDFAE9"/>
<path d="M124.871 164.507L88.6582 162.052V89.9682C88.6582 89.1581 89.345 88.4976 90.1691 88.535L122.498 89.6566C123.272 89.6815 123.897 90.3047 123.909 91.0773L124.871 164.507Z" fill="#6E3915"/>
<path d="M196.348 132.753L146.1 167V39.8806L196.048 44.8657L197.284 130.958C197.284 131.668 196.947 132.341 196.36 132.74L196.348 132.753Z" fill="#C37C0B"/>
<path d="M196.348 132.753L146.1 167V145.814L197.297 115.903V130.958C197.297 131.668 196.947 132.341 196.348 132.74V132.753Z" fill="#EB7096"/>
<path d="M151.094 0L48.0002 1.22134C46.8638 1.23381 45.7899 1.7697 45.0907 2.66701L0.536614 59.6838C-0.724585 61.304 0.386769 63.6594 2.43466 63.7217L148.596 68.5448L151.094 0Z" fill="#9C580C"/>
<path d="M176.068 22.4328L151.094 0L148.597 68.5448L204.139 53.5272C206.05 53.0163 206.637 50.5985 205.188 49.265L176.068 22.4328Z" fill="#814612"/>
<path d="M48.4876 88.4851H47.6635C47.5462 88.4851 47.4512 88.58 47.4512 88.697V115.691C47.4512 115.808 47.5462 115.903 47.6635 115.903H48.4876C48.6048 115.903 48.6999 115.808 48.6999 115.691V88.697C48.6999 88.58 48.6048 88.4851 48.4876 88.4851Z" fill="#6E3915"/>
<path d="M27.4722 100.633L27.4297 101.654C27.4248 101.771 27.5164 101.87 27.6342 101.875L69.8715 103.627C69.9893 103.632 70.0887 103.541 70.0936 103.424L70.1361 102.403C70.141 102.286 70.0495 102.187 69.9317 102.182L27.6943 100.43C27.5765 100.425 27.4771 100.516 27.4722 100.633Z" fill="#6E3915"/>
<path d="M146.099 167L14.4603 157.179C13.3489 157.092 12.4873 156.17 12.4873 155.061V137.09L146.099 145.813V167Z" fill="#F4ADC2"/>
<path d="M121.275 150.101L120.838 160.557L119.764 160.507L120.164 151.01L117.691 150.911L117.729 149.951L121.275 150.101Z" fill="black"/>
<path d="M131.339 157.865C131.252 159.821 129.666 161.018 127.631 160.931C124.846 160.818 123.423 158.824 123.56 155.522C123.71 151.97 125.733 150.2 128.567 150.312C129.504 150.35 130.39 150.549 131.027 150.985L130.553 151.833C130.028 151.446 129.316 151.284 128.542 151.26C126.282 151.16 124.771 152.556 124.659 155.397C124.659 155.634 124.659 155.933 124.659 156.245C125.233 155.111 126.482 154.525 127.93 154.587C130.016 154.674 131.414 155.958 131.327 157.865H131.339ZM130.278 157.852C130.34 156.481 129.354 155.559 127.743 155.484C126.145 155.422 125.008 156.357 124.958 157.653C124.908 158.799 125.82 159.934 127.631 160.008C129.142 160.071 130.228 159.236 130.29 157.84L130.278 157.852Z" fill="black"/>
<path d="M132.326 153.328C132.401 151.621 133.399 150.537 134.811 150.587C136.197 150.649 137.133 151.808 137.058 153.515C136.983 155.235 135.972 156.319 134.573 156.257C133.162 156.195 132.251 155.023 132.326 153.316V153.328ZM136.309 153.503C136.359 152.144 135.76 151.309 134.786 151.272C133.799 151.235 133.137 152.032 133.075 153.366C133.012 154.699 133.612 155.559 134.598 155.597C135.572 155.634 136.247 154.861 136.309 153.503ZM141.154 150.936L142.041 150.973L134.448 161.13L133.562 161.093L141.154 150.936ZM138.544 158.525C138.619 156.818 139.631 155.734 141.029 155.784C142.44 155.846 143.352 157.017 143.277 158.725C143.202 160.432 142.203 161.516 140.792 161.467C139.406 161.404 138.469 160.233 138.544 158.525ZM142.515 158.687C142.565 157.341 141.978 156.494 140.992 156.457C140.018 156.419 139.343 157.192 139.281 158.55C139.231 159.909 139.83 160.744 140.804 160.781C141.791 160.818 142.453 160.021 142.515 158.687Z" fill="black"/>
</g>
<defs>
<clipPath id="clip0_509_3987">
<rect width="206" height="167" fill="white"/>
</clipPath>
</defs>
</svg>
