<svg width="39" height="38" viewBox="0 0 39 38" fill="none" xmlns="http://www.w3.org/2000/svg">
<path d="M25.1353 19C25.1353 20.5747 24.5097 22.0849 23.3962 23.1984C22.2827 24.3119 20.7725 24.9375 19.1978 24.9375C17.623 24.9375 16.1128 24.3119 14.9993 23.1984C13.8858 22.0849 13.2603 20.5747 13.2603 19C13.2616 18.6609 13.2939 18.331 13.3572 18.0104H11.2811V25.9211C11.2811 26.4714 11.7264 26.9167 12.2766 26.9167H26.1209C26.3846 26.9161 26.6373 26.811 26.8235 26.6244C27.0098 26.4377 27.1144 26.1848 27.1144 25.9211V18.0104H25.0383C25.1016 18.331 25.1339 18.6609 25.1353 19ZM19.1978 22.9583C19.7177 22.9582 20.2325 22.8557 20.7128 22.6566C21.1932 22.4575 21.6296 22.1657 21.9971 21.798C22.3647 21.4302 22.6562 20.9937 22.8551 20.5133C23.0539 20.0328 23.1562 19.518 23.1561 18.998C23.156 18.4781 23.0534 17.9632 22.8543 17.4829C22.6552 17.0026 22.3635 16.5662 21.9957 16.1986C21.628 15.8311 21.1914 15.5395 20.711 15.3407C20.2306 15.1418 19.7157 15.0396 19.1958 15.0397C18.1457 15.0399 17.1387 15.4573 16.3964 16.2C15.6541 16.9427 15.2372 17.9499 15.2374 19C15.2377 20.0501 15.6551 21.057 16.3978 21.7994C17.1405 22.5417 18.1477 22.9586 19.1978 22.9583ZM23.9478 14.8438H26.3208C26.3989 14.844 26.4763 14.8288 26.5486 14.7991C26.6209 14.7694 26.6866 14.7257 26.7419 14.6705C26.7972 14.6154 26.8412 14.5498 26.8711 14.4777C26.9011 14.4055 26.9165 14.3281 26.9165 14.25V11.877C26.9168 11.7987 26.9015 11.7211 26.8717 11.6487C26.8418 11.5763 26.798 11.5105 26.7426 11.4552C26.6872 11.3998 26.6215 11.3559 26.5491 11.3261C26.4767 11.2962 26.3991 11.281 26.3208 11.2812H23.9478C23.8694 11.281 23.7919 11.2962 23.7195 11.3261C23.6471 11.3559 23.5813 11.3998 23.5259 11.4552C23.4706 11.5105 23.4267 11.5763 23.3968 11.6487C23.367 11.7211 23.3518 11.7987 23.352 11.877V14.25C23.354 14.5766 23.6212 14.8438 23.9478 14.8438ZM19.1978 0C14.1586 0 9.32592 2.00178 5.76272 5.56497C2.19953 9.12816 0.197754 13.9609 0.197754 19C0.197754 24.0391 2.19953 28.8718 5.76272 32.435C9.32592 35.9982 14.1586 38 19.1978 38C21.6929 38 24.1636 37.5086 26.4687 36.5537C28.7739 35.5989 30.8685 34.1993 32.6328 32.435C34.3971 30.6707 35.7966 28.5762 36.7515 26.271C37.7063 23.9658 38.1978 21.4951 38.1978 19C38.1978 16.5049 37.7063 14.0342 36.7515 11.729C35.7966 9.42383 34.3971 7.32928 32.6328 5.56497C30.8685 3.80066 28.7739 2.40113 26.4687 1.44629C24.1636 0.49145 21.6929 0 19.1978 0ZM29.0936 26.697C29.0936 27.9062 28.104 28.8958 26.8947 28.8958H11.5008C10.2915 28.8958 9.30192 27.9062 9.30192 26.697V11.303C9.30192 10.0938 10.2915 9.10417 11.5008 9.10417H26.8947C28.104 9.10417 29.0936 10.0938 29.0936 11.303V26.697Z" fill="#062F4B"/>
</svg>
