<svg width="39" height="38" viewBox="0 0 39 38" fill="none" xmlns="http://www.w3.org/2000/svg">
<path d="M19.0728 0C8.57921 0 0.0727539 8.50646 0.0727539 19C0.0727539 29.4935 8.57921 38 19.0728 38C29.5663 38 38.0728 29.4935 38.0728 19C38.0728 8.50646 29.5663 0 19.0728 0ZM14.4217 26.8751H10.5742V14.4934H14.4217V26.8751ZM12.4742 12.9734C11.259 12.9734 10.4733 12.1125 10.4733 11.0477C10.4733 9.96115 11.2828 9.12594 12.5237 9.12594C13.7646 9.12594 14.5246 9.96115 14.5484 11.0477C14.5484 12.1125 13.7646 12.9734 12.4742 12.9734ZM28.4738 26.8751H24.6263V20.0133C24.6263 18.4161 24.0682 17.3316 22.6768 17.3316C21.614 17.3316 20.9827 18.0658 20.7036 18.7724C20.6007 19.0238 20.5749 19.38 20.5749 19.7343V26.8731H16.7255V18.4419C16.7255 16.8961 16.676 15.6037 16.6245 14.4915H19.9673L20.1435 16.2114H20.2207C20.7273 15.4039 21.9683 14.2124 24.0444 14.2124C26.5758 14.2124 28.4738 15.9085 28.4738 19.5542V26.8751Z" fill="#062F4B"/>
</svg>
