<svg width="57" height="57" viewBox="0 0 57 57" fill="none" xmlns="http://www.w3.org/2000/svg">
<path d="M32.0625 3.5625C32.0625 1.595 30.4676 0 28.5 0C26.5325 0 24.9375 1.595 24.9375 3.5625V7.125C24.9375 9.0925 26.5325 10.6875 28.5 10.6875C30.4676 10.6875 32.0625 9.0925 32.0625 7.125V3.5625Z" fill="#035A89"/>
<path d="M48.6513 13.3858C50.0424 11.9945 50.0424 9.73888 48.6513 8.34762C47.2601 6.95639 45.0044 6.95639 43.6132 8.34762L41.0941 10.8667C39.703 12.2579 39.703 14.5136 41.0941 15.9048C42.4853 17.2961 44.7411 17.2961 46.1322 15.9048L48.6513 13.3858Z" fill="#035A89"/>
<path d="M57 28.5C57 30.4676 55.4051 32.0625 53.4375 32.0625H49.875C47.9074 32.0625 46.3125 30.4676 46.3125 28.5C46.3125 26.5325 47.9074 24.9375 49.875 24.9375H53.4375C55.4051 24.9375 57 26.5325 57 28.5Z" fill="#035A89"/>
<path d="M10.8643 15.9048C12.2555 17.2961 14.5112 17.2961 15.9024 15.9048C17.2936 14.5136 17.2936 12.2579 15.9024 10.8667L13.3833 8.34762C11.9921 6.95639 9.73644 6.95639 8.34518 8.34762C6.95395 9.73885 6.95395 11.9945 8.34518 13.3857L10.8643 15.9048Z" fill="#035A89"/>
<path d="M10.6875 28.5C10.6875 30.4676 9.0925 32.0625 7.125 32.0625H3.5625C1.595 32.0625 0 30.4676 0 28.5C0 26.5325 1.595 24.9375 3.5625 24.9375H7.125C9.0925 24.9375 10.6875 26.5325 10.6875 28.5Z" fill="#035A89"/>
<path d="M21.375 49.875V46.3125H35.625V49.875C35.625 53.8101 32.4351 57 28.5 57C24.565 57 21.375 53.8101 21.375 49.875Z" fill="#035A89"/>
<path d="M35.6282 42.75C35.6802 41.5377 36.3646 40.4476 37.3236 39.6902C40.6289 37.0806 42.75 33.0379 42.75 28.5C42.75 20.6299 36.3699 14.25 28.5 14.25C20.6299 14.25 14.25 20.6299 14.25 28.5C14.25 33.0379 16.3713 37.0806 19.6764 39.6902C20.6355 40.4476 21.3198 41.5377 21.3718 42.75H35.6282Z" fill="#035A89"/>
</svg>
