<svg width="49" height="50" viewBox="0 0 49 50" fill="none" xmlns="http://www.w3.org/2000/svg">
<g clip-path="url(#clip0_307_363)">
<path d="M17.7469 0.539208C12.7201 2.43085 -5.87283 11.2455 1.85864 35.8977C3.61077 41.49 7.88051 45.9081 13.3453 47.7128C19.1545 49.6262 27.5281 50.7699 37.0458 47.0953C43.612 44.5601 48.2262 38.4285 48.8471 31.2794C49.6551 21.9561 47.7712 8.71022 33.1545 1.06539C32.5294 0.739244 31.8447 1.38284 32.1168 2.04382C33.6223 5.70099 35.8082 13.2806 27.8896 13.0327C26.2693 12.9805 24.6533 13.0371 23.0373 13.1893C19.7159 13.5067 14.3957 12.4935 18.4996 1.3263C18.6782 0.84361 18.2232 0.360916 17.7469 0.539208Z" fill="#E2A110"/>
</g>
<defs>
<clipPath id="clip0_307_363">
<rect width="49" height="49" fill="white" transform="translate(0 0.5)"/>
</clipPath>
</defs>
</svg>
