<svg width="89" height="80" viewBox="0 0 89 80" fill="none" xmlns="http://www.w3.org/2000/svg">
<mask id="mask0_307_334" style="mask-type:luminance" maskUnits="userSpaceOnUse" x="2" y="3" width="85" height="75">
<path d="M86.8231 3H2V78H86.8231V3Z" fill="white"/>
</mask>
<g mask="url(#mask0_307_334)">
<path d="M19.338 46.4513C17.7323 34.4913 21.0311 26.4629 22.1348 23.0558C22.4719 22.0142 22.6442 20.9326 22.6492 19.8385C22.6642 15.8143 22.7366 5.80017 23.0862 3.0025C23.0862 3.0025 28.2178 3.79184 36.6158 12.8443C37.6521 13.9634 39.0255 14.7152 40.5288 14.9675C43.4355 15.4546 47.9778 14.7977 51.4263 14.4704C65.4203 13.1465 76.3329 15.4496 76.3329 15.4496C76.3329 15.4496 73.7983 18.8818 66.7413 23.2931C66.7413 23.2931 67.2582 23.2806 70.2698 34.3214C70.9316 36.7469 71.5608 40.8759 70.4896 46.8934" fill="#062F4B"/>
<path d="M42.5408 34.8186C42.4509 34.5213 42.6157 34.2091 42.9103 34.1117C43.5246 33.9118 44.6683 33.687 45.7421 34.294C46.8983 34.946 45.4549 36.0101 44.6184 36.5222C44.3063 36.712 43.9067 36.677 43.642 36.4273C43.2574 36.0626 42.738 35.4755 42.5408 34.8186Z" fill="#F0F9FF"/>
<path d="M61.8507 38.9152C63.0368 39.4347 64.223 39.9568 65.4091 40.4764C65.5764 40.5488 65.7438 40.6237 65.9111 40.6962C66.2382 40.8411 66.5254 40.3565 66.1957 40.2116C65.0096 39.692 63.8234 39.17 62.6373 38.6504C62.47 38.5779 62.3027 38.503 62.1354 38.4306C61.8082 38.2857 61.5211 38.7703 61.8507 38.9152Z" fill="#F0F9FF"/>
<path d="M60.6885 40.1341C61.6699 41.0608 62.6538 41.9875 63.6352 42.9142C63.7775 43.0491 63.9199 43.1815 64.0597 43.3164C64.3219 43.5637 64.7214 43.169 64.4567 42.9192C63.4754 41.9925 62.4915 41.0658 61.5101 40.1391C61.3678 40.0042 61.2254 39.8718 61.0856 39.7369C60.8234 39.4896 60.4238 39.8843 60.6885 40.1341Z" fill="#F0F9FF"/>
<path d="M58.9775 40.9284C59.6767 41.8976 60.3759 42.8693 61.0726 43.8385C61.1725 43.9784 61.2724 44.1183 61.3747 44.2557C61.4621 44.3781 61.6195 44.438 61.7593 44.3556C61.8817 44.2856 61.9491 44.0958 61.8592 43.9709C61.16 43.0017 60.4608 42.03 59.7641 41.0608C59.6642 40.921 59.5643 40.7811 59.4619 40.6437C59.3745 40.5213 59.2172 40.4613 59.0774 40.5438C58.955 40.6137 58.8876 40.8036 58.9775 40.9284Z" fill="#F0F9FF"/>
<path d="M27.3391 34.8411C26.0481 34.8411 24.7571 34.8411 23.4661 34.8411C23.2813 34.8411 23.094 34.8411 22.9092 34.8411C22.5471 34.8411 22.5471 35.4031 22.9092 35.4031C24.2002 35.4031 25.4912 35.4031 26.7823 35.4031C26.9671 35.4031 27.1544 35.4031 27.3391 35.4031C27.7012 35.4031 27.7012 34.8411 27.3391 34.8411Z" fill="#F0F9FF"/>
<path d="M27.766 36.4521C26.4925 36.9043 25.2214 37.3589 23.9479 37.811C23.7656 37.876 23.5808 37.9409 23.3985 38.0058C23.0614 38.1257 23.2062 38.6703 23.5484 38.5479C24.8219 38.0958 26.093 37.6411 27.3665 37.189C27.5488 37.1241 27.7336 37.0591 27.9159 36.9942C28.253 36.8743 28.1081 36.3297 27.766 36.4521Z" fill="#F0F9FF"/>
<path d="M28.8835 37.9309C27.8522 38.5404 26.8209 39.1473 25.7871 39.7568C25.6422 39.8418 25.4949 39.9292 25.3501 40.0141C25.0379 40.1965 25.3201 40.6836 25.6347 40.4987C26.6661 39.8892 27.6974 39.2822 28.7312 38.6727C28.876 38.5878 29.0234 38.5004 29.1682 38.4155C29.4803 38.2331 29.1982 37.746 28.8835 37.9309Z" fill="#F0F9FF"/>
<path d="M40.7151 32.2215C40.9651 29.187 38.6093 26.5163 35.4536 26.2562C32.2977 25.9961 29.5369 28.2451 29.2869 31.2795C29.037 34.314 31.3928 36.9848 34.5484 37.2448C37.7043 37.5049 40.4652 35.2557 40.7151 32.2215Z" fill="#F0F9FF"/>
<path d="M36.116 36.3172C38.5514 36.3172 40.5259 34.3421 40.5259 31.9059C40.5259 29.4697 38.5514 27.4946 36.116 27.4946C33.6805 27.4946 31.706 29.4697 31.706 31.9059C31.706 34.3421 33.6805 36.3172 36.116 36.3172Z" fill="#062F4B"/>
<path d="M54.4157 38.5659C57.5716 38.3058 59.9271 35.6351 59.6772 32.6006C59.4272 29.5664 56.6663 27.3172 53.5107 27.5773C50.3548 27.8374 47.999 30.5081 48.249 33.5426C48.4989 36.577 51.2598 38.8259 54.4157 38.5659Z" fill="#F0F9FF"/>
<path d="M52.8473 37.6411C55.2828 37.6411 57.2573 35.666 57.2573 33.2298C57.2573 30.7936 55.2828 28.8185 52.8473 28.8185C50.4119 28.8185 48.4374 30.7936 48.4374 33.2298C48.4374 35.666 50.4119 37.6411 52.8473 37.6411Z" fill="#062F4B"/>
<path d="M80.2855 55.3539C80.263 59.8451 80.3155 64.3414 80.2855 68.8302C80.268 71.6303 80.4628 74.4655 80.1432 77.2606C80.0957 77.6778 79.7187 77.9975 79.2642 77.9975H9.65621C9.23669 77.9975 8.88959 77.7028 8.84464 77.3156C8.51501 74.5004 8.71479 71.6478 8.69481 68.8277C8.66484 64.3364 8.71728 59.8402 8.69481 55.3514H80.283L80.2855 55.3539Z" fill="#C37C0B"/>
<path d="M80.2851 53.2557V55.3539H8.6969V53.4755C8.93912 53.4755 8.81427 53.2532 8.93663 53.2557C32.697 53.3606 56.5297 53.433 80.2876 53.2557H80.2851Z" fill="#9C580C"/>
<path d="M70.2422 41.8701C73.1614 41.7502 76.1105 41.7427 79.0297 41.5529C79.6065 41.5154 80.1609 41.7127 80.6129 42.0474C80.7452 42.1449 80.7477 42.0375 80.7652 42.0624C80.7752 42.0774 80.7852 42.1499 80.925 42.3572C82.8503 45.2298 84.858 49.786 86.8233 52.8884L86.5835 53.2556C84.4859 53.2706 82.3833 53.2356 80.2857 53.2556C56.5279 53.4929 32.6976 53.3955 8.93475 53.2556C8.81239 53.2556 8.93725 53.5528 8.69503 53.5504C8.67755 53.5504 8.74497 53.2581 8.61512 53.2556C6.41014 53.2381 4.19767 53.3305 1.99768 53.1832C3.44103 50.5354 6.56246 44.1882 7.89594 42.2098C8.02329 42.0225 8.08573 42.1024 8.21558 41.915" fill="#E2A110"/>
</g>
<path d="M15.1256 61.9387C15.9905 61.9387 16.6261 62.1631 17.0324 62.6123C17.4452 63.0614 17.6516 63.6503 17.6516 64.3791C17.6516 64.8797 17.5468 65.3142 17.3371 65.6822C17.1339 66.0502 16.8555 66.3374 16.5016 66.5436C16.1543 66.7423 15.7579 66.8417 15.3123 66.8417C15.1551 66.8417 14.988 66.8271 14.8111 66.7975C14.6341 66.7608 14.4507 66.7056 14.2606 66.6319L14.3491 66.3227C14.4015 66.4847 14.4441 66.6871 14.4769 66.9301C14.5162 67.1656 14.5457 67.4123 14.5653 67.6699C14.5916 67.9203 14.6047 68.1522 14.6047 68.3656C14.6047 68.881 14.4933 69.2748 14.2705 69.5472C14.0542 69.8197 13.7266 69.9558 13.2876 69.9558C12.9534 69.9558 12.6913 69.8675 12.5013 69.6908C12.3178 69.5067 12.1867 69.2085 12.1081 68.7963C12.036 68.3841 12 67.8356 12 67.1509C12 66.2233 12.0491 65.4318 12.1474 64.7767C12.2523 64.1215 12.3997 63.5987 12.5897 63.2086C12.7798 62.8185 13.091 62.5093 13.5235 62.281C13.9559 62.0527 14.49 61.9387 15.1256 61.9387ZM14.8504 65.2515C15.1715 65.2515 15.4368 65.1596 15.6465 64.9755C15.8627 64.7914 15.9709 64.5412 15.9709 64.2245C15.9709 64.0183 15.9119 63.8491 15.7939 63.7166C15.6826 63.5766 15.486 63.5067 15.2042 63.5067C14.988 63.5067 14.7947 63.5583 14.6243 63.6613C14.4605 63.7571 14.3294 63.8858 14.2312 64.0479C14.1394 64.2099 14.0935 64.3828 14.0935 64.5669C14.0935 64.7656 14.1558 64.9313 14.2803 65.0638C14.4113 65.1889 14.6014 65.2515 14.8504 65.2515ZM22.8349 69.8123C22.5662 69.8123 22.3598 69.746 22.2157 69.6135C22.0715 69.4736 21.9732 69.2969 21.9208 69.0834C21.8749 68.8626 21.852 68.6307 21.852 68.3877L21.9011 68.3436C21.8028 68.6602 21.6521 68.9325 21.449 69.1607C21.2524 69.389 21.0264 69.5657 20.7708 69.6908C20.5218 69.8086 20.2695 69.8675 20.014 69.8675C19.6274 69.8675 19.303 69.7755 19.0409 69.5914C18.7788 69.4001 18.5659 69.0981 18.402 68.6859C18.2644 68.3399 18.1531 67.8761 18.0679 67.2945C17.9892 66.7128 17.9499 66.1093 17.9499 65.4834C17.9499 65.1963 17.9598 64.9349 17.9794 64.6994C18.0056 64.4564 18.0417 64.254 18.0875 64.092C18.1662 63.8123 18.2972 63.6061 18.4807 63.4736C18.6707 63.3411 18.8968 63.2748 19.1589 63.2748C19.4668 63.2748 19.7093 63.3889 19.8862 63.6172C20.0697 63.838 20.1778 64.1472 20.2106 64.5448C20.2302 64.7656 20.2466 65.0196 20.2597 65.3067C20.2728 65.5864 20.2859 65.8625 20.299 66.135C20.3121 66.4074 20.3252 66.6429 20.3383 66.8417C20.3646 67.1142 20.4235 67.3166 20.5153 67.4491C20.607 67.5742 20.7348 67.6368 20.8986 67.6368C21.0886 67.6368 21.2328 67.5338 21.3311 67.3276C21.4359 67.1142 21.4883 66.8233 21.4883 66.4552C21.4883 66.2564 21.4785 66.032 21.4588 65.7816C21.4457 65.5312 21.4326 65.2883 21.4195 65.0528C21.4064 64.8098 21.3999 64.611 21.3999 64.4564C21.3999 63.9559 21.485 63.5987 21.6554 63.3853C21.8323 63.1718 22.078 63.065 22.3926 63.065C22.6481 63.065 22.8676 63.1277 23.0511 63.2528C23.2346 63.3706 23.3689 63.5435 23.4541 63.7718C23.5458 63.9852 23.6244 64.2761 23.69 64.6442C23.7555 65.0122 23.8079 65.4282 23.8472 65.892C23.8866 66.3484 23.9062 66.8343 23.9062 67.3497C23.9062 68.1743 23.8276 68.7927 23.6703 69.2049C23.5131 69.6099 23.2346 69.8123 22.8349 69.8123ZM24.3041 65.3178C24.3041 64.4639 24.3991 63.8491 24.5892 63.4736C24.7792 63.0907 25.0446 62.8994 25.3853 62.8994C25.6146 62.8994 25.7981 62.9803 25.9357 63.1423C26.0733 63.2969 26.1716 63.4921 26.2306 63.7276C26.2961 63.9559 26.3289 64.1878 26.3289 64.4233L26.2797 64.4012C26.3911 64.0037 26.5582 63.6613 26.781 63.3742C27.0038 63.0871 27.2758 62.9436 27.5969 62.9436C28.0227 62.9436 28.3373 63.1313 28.5405 63.5067C28.7435 63.8822 28.8451 64.3534 28.8451 64.9202C28.8451 65.6637 28.7403 66.1866 28.5306 66.4883C28.3274 66.7829 28.0555 66.9301 27.7148 66.9301C27.4527 66.9301 27.2593 66.8491 27.1349 66.6871C27.0169 66.5178 26.9678 66.2639 26.9874 65.9252C27.0005 65.6748 26.9907 65.5055 26.9579 65.4172C26.9317 65.3214 26.8891 65.2736 26.8302 65.2736C26.745 65.2736 26.6827 65.3288 26.6434 65.4393C26.6041 65.5423 26.5844 65.6896 26.5844 65.881C26.5844 66.0282 26.6008 66.2123 26.6336 66.4331C26.6663 66.654 26.7024 66.8969 26.7417 67.162C26.781 67.4196 26.8171 67.6774 26.8498 67.935C26.8826 68.1926 26.899 68.4283 26.899 68.6417C26.899 69.0981 26.8007 69.4221 26.6041 69.6135C26.4075 69.8048 26.1323 69.9006 25.7785 69.9006C25.4443 69.9006 25.1691 69.8048 24.9528 69.6135C24.7432 69.4221 24.6023 69.1091 24.5302 68.6748C24.4909 68.4098 24.4516 68.0785 24.4122 67.681C24.3795 67.2834 24.3533 66.8748 24.3336 66.4552C24.314 66.0282 24.3041 65.6491 24.3041 65.3178ZM29.0938 65.3178C29.0938 64.4639 29.1889 63.8491 29.3788 63.4736C29.5688 63.0907 29.8342 62.8994 30.175 62.8994C30.4043 62.8994 30.5878 62.9803 30.7254 63.1423C30.863 63.2969 30.9613 63.4921 31.0202 63.7276C31.0858 63.9559 31.1185 64.1878 31.1185 64.4233L31.0694 64.4012C31.1807 64.0037 31.3478 63.6613 31.5707 63.3742C31.7935 63.0871 32.0653 62.9436 32.3865 62.9436C32.8123 62.9436 33.1268 63.1313 33.33 63.5067C33.5332 63.8822 33.6347 64.3534 33.6347 64.9202C33.6347 65.6637 33.5298 66.1866 33.3202 66.4883C33.117 66.7829 32.8452 66.9301 32.5044 66.9301C32.2423 66.9301 32.0491 66.8491 31.9245 66.6871C31.8066 66.5178 31.7574 66.2639 31.7771 65.9252C31.7901 65.6748 31.7803 65.5055 31.7476 65.4172C31.7213 65.3214 31.6788 65.2736 31.6198 65.2736C31.5346 65.2736 31.4724 65.3288 31.4331 65.4393C31.3937 65.5423 31.3741 65.6896 31.3741 65.881C31.3741 66.0282 31.3905 66.2123 31.4232 66.4331C31.4559 66.654 31.492 66.8969 31.5313 67.162C31.5707 67.4196 31.6068 67.6774 31.6395 67.935C31.6722 68.1926 31.6886 68.4283 31.6886 68.6417C31.6886 69.0981 31.5903 69.4221 31.3937 69.6135C31.1972 69.8048 30.922 69.9006 30.5681 69.9006C30.2339 69.9006 29.9587 69.8048 29.7425 69.6135C29.5329 69.4221 29.3919 69.1091 29.3198 68.6748C29.2805 68.4098 29.2412 68.0785 29.2019 67.681C29.1692 67.2834 29.1429 66.8748 29.1233 66.4552C29.1036 66.0282 29.0938 65.6491 29.0938 65.3178ZM35.5151 63.562H35.407C35.348 63.2823 35.3185 63.0245 35.3185 62.789C35.3185 62.2368 35.466 61.8025 35.7608 61.4859C36.0557 61.162 36.5536 61 37.2548 61C37.7266 61 38.0672 61.0847 38.277 61.254C38.4867 61.4233 38.5915 61.67 38.5915 61.9939C38.5915 62.546 38.336 62.8516 37.8249 62.9104C37.6414 62.9251 37.5005 62.9546 37.4023 62.9988C37.3104 63.0429 37.245 63.1128 37.2057 63.2086C37.1728 63.3043 37.1565 63.4369 37.1565 63.6061L37.0484 63.584C37.1467 63.5178 37.258 63.4662 37.3826 63.4294C37.507 63.3927 37.6315 63.3742 37.7561 63.3742C38.0967 63.3742 38.3687 63.4626 38.5719 63.6393C38.7815 63.8085 38.8864 64.0994 38.8864 64.5117C38.8864 64.9018 38.7783 65.1963 38.5621 65.3951C38.3458 65.5939 38.0738 65.6932 37.7463 65.6932C37.6414 65.6932 37.5333 65.6858 37.4219 65.6712C37.3104 65.6491 37.1991 65.616 37.0877 65.5718L37.1369 65.4503C37.2286 65.7228 37.3072 66.0245 37.3728 66.3558C37.4448 66.6797 37.5005 67.0074 37.5399 67.3386C37.5792 67.6625 37.5988 67.9645 37.5988 68.2442C37.5988 68.5608 37.5497 68.8515 37.4514 69.1166C37.3596 69.3816 37.2155 69.595 37.0189 69.7571C36.8288 69.9117 36.5865 69.989 36.2916 69.989C35.8132 69.989 35.4724 69.8344 35.2694 69.5252C35.0662 69.2159 34.9647 68.8294 34.9647 68.3656C34.9647 68.0932 34.981 67.7878 35.0138 67.4491C35.0532 67.1104 35.1087 66.7608 35.1809 66.4C35.253 66.0392 35.3382 65.6896 35.4365 65.3509L35.6331 65.4061C35.4168 65.5975 35.135 65.6932 34.7878 65.6932C34.4536 65.6932 34.1947 65.6049 34.0111 65.4282C33.8278 65.2515 33.7361 64.9829 33.7361 64.6221C33.7361 64.2392 33.8376 63.9448 34.0408 63.7386C34.2438 63.5325 34.5158 63.4294 34.8566 63.4294C34.9876 63.4294 35.1087 63.4441 35.2202 63.4736C35.3316 63.4957 35.4299 63.5252 35.5151 63.562ZM42.2715 69.9669C41.4656 69.9669 40.8235 69.8454 40.3451 69.6025C39.8667 69.3595 39.5195 69.0098 39.3032 68.5534C39.0936 68.097 38.9887 67.5521 38.9887 66.919C38.9887 66.1165 39.1361 65.4356 39.431 64.8761C39.7325 64.3093 40.1419 63.8748 40.6596 63.573C41.1838 63.2712 41.7769 63.1202 42.4386 63.1202C43.2249 63.1202 43.8016 63.2969 44.1685 63.6503C44.5354 63.9963 44.7189 64.4528 44.7189 65.0196C44.7189 65.4688 44.6076 65.8589 44.3847 66.1902C44.1685 66.5215 43.8638 66.7755 43.4707 66.9521C43.0841 67.1288 42.6352 67.2172 42.1241 67.2172C41.8882 67.2172 41.6589 67.1987 41.4361 67.162C41.2132 67.1252 41.0134 67.0772 40.8365 67.0184L41.0724 66.4C41.0528 66.5767 41.0429 66.7534 41.0429 66.9301C41.0429 67.2467 41.1444 67.4712 41.3476 67.6037C41.5573 67.7362 41.8457 67.8024 42.2126 67.8024C42.5664 67.8024 42.8679 67.7619 43.1168 67.681C43.3658 67.5926 43.5854 67.5079 43.7754 67.427C43.9653 67.3386 44.1456 67.2945 44.3159 67.2945C44.4339 67.2945 44.5551 67.3276 44.6796 67.3939C44.8042 67.4601 44.9089 67.5631 44.9941 67.7031C45.0794 67.843 45.1219 68.0307 45.1219 68.2663C45.1219 68.5901 45.0138 68.881 44.7976 69.1386C44.5813 69.3963 44.2602 69.5988 43.8343 69.746C43.4149 69.8932 42.894 69.9669 42.2715 69.9669ZM41.7015 66.1129C42.016 66.1129 42.288 66.0282 42.5173 65.8589C42.7465 65.6822 42.8613 65.4688 42.8613 65.2184C42.8613 65.0564 42.8089 64.9239 42.704 64.8209C42.5991 64.7178 42.4551 64.6663 42.2715 64.6663C42.0684 64.6663 41.8752 64.7104 41.6916 64.7988C41.5147 64.8871 41.3705 65.0012 41.2592 65.1411C41.1478 65.281 41.0921 65.4356 41.0921 65.6049C41.0921 65.7669 41.1444 65.892 41.2493 65.9804C41.3607 66.0687 41.5115 66.1129 41.7015 66.1129ZM48.0761 70C47.1259 70 46.4281 69.735 45.9825 69.2049C45.5369 68.6748 45.3142 67.9386 45.3142 66.9963C45.3142 66.2675 45.4452 65.6234 45.7073 65.0638C45.9759 64.497 46.3593 64.0553 46.8573 63.7386C47.3618 63.4148 47.9646 63.2528 48.6658 63.2528C49.3079 63.2528 49.7994 63.3927 50.1402 63.6724C50.4808 63.9521 50.6513 64.3424 50.6513 64.8429C50.6513 65.1963 50.5464 65.476 50.3367 65.6822C50.1336 65.881 49.8387 65.9804 49.4521 65.9804C49.3013 65.9804 49.1573 65.9767 49.0197 65.9693C48.8821 65.9547 48.7543 65.9436 48.6363 65.9362C48.5184 65.9288 48.4069 65.9252 48.3022 65.9252C48.0597 65.9252 47.8729 65.984 47.7419 66.1018C47.6174 66.2197 47.5552 66.3964 47.5552 66.6319C47.5552 66.8453 47.6206 67.0037 47.7517 67.1067C47.8827 67.2098 48.0597 67.2613 48.2825 67.2613C48.3808 67.2613 48.4921 67.2503 48.6167 67.2282C48.7477 67.1987 48.8853 67.173 49.0295 67.1509C49.1735 67.1288 49.3145 67.1178 49.4521 67.1178C49.7535 67.1178 50.0026 67.2136 50.1991 67.4049C50.3957 67.589 50.494 67.8613 50.494 68.2221C50.494 68.5829 50.4055 68.8993 50.2286 69.1718C50.0517 69.4368 49.7829 69.643 49.4227 69.7902C49.0688 69.9301 48.6199 70 48.0761 70ZM52.5823 63.2307H52.484C52.4513 62.9068 52.4612 62.6012 52.5135 62.3141C52.5659 62.0196 52.6774 61.784 52.8477 61.6074C53.018 61.4233 53.2637 61.3313 53.5849 61.3313C53.9125 61.3313 54.1517 61.416 54.3024 61.5853C54.453 61.7545 54.5284 61.9902 54.5284 62.292C54.5284 62.6749 54.4498 63.0024 54.2925 63.2748L54.2139 63.2528C54.4432 63.1128 54.6955 63.0429 54.9707 63.0429C55.3115 63.0429 55.5834 63.1349 55.7865 63.319C55.9962 63.4957 56.1011 63.8013 56.1011 64.2356C56.1011 64.6405 55.9831 64.9497 55.7472 65.1632C55.5113 65.3694 55.2165 65.4724 54.8626 65.4724C54.7381 65.4724 54.6038 65.465 54.4596 65.4503C54.322 65.4282 54.1877 65.3951 54.0567 65.3509L54.1058 65.2294C54.191 65.4503 54.2729 65.7007 54.3515 65.9804C54.4302 66.2528 54.499 66.5399 54.5579 66.8417C54.6235 67.1363 54.6726 67.427 54.7054 67.7141C54.7447 67.9938 54.7643 68.2442 54.7643 68.465C54.7643 68.9363 54.6594 69.3079 54.4498 69.5804C54.2466 69.8528 53.9321 69.989 53.5062 69.989C53.2441 69.989 53.0246 69.9374 52.8477 69.8344C52.6708 69.7313 52.53 69.5878 52.4251 69.4037C52.3202 69.2196 52.2449 69.0025 52.199 68.7521C52.1531 68.4945 52.1302 68.2185 52.1302 67.9239C52.1302 67.6736 52.1466 67.3939 52.1793 67.0847C52.2187 66.768 52.2744 66.4405 52.3464 66.1018C52.4185 65.7631 52.5037 65.4393 52.602 65.1301L52.7003 65.4061C52.4906 65.5975 52.2253 65.6932 51.9041 65.6932C51.5437 65.6932 51.262 65.5939 51.0589 65.3951C50.8557 65.1889 50.7542 64.8761 50.7542 64.4564C50.7542 64.0221 50.8623 63.6871 51.0785 63.4515C51.3013 63.216 51.5994 63.0982 51.9729 63.0982C52.0909 63.0982 52.2022 63.1128 52.3071 63.1423C52.412 63.1644 52.5037 63.1939 52.5823 63.2307ZM60.5821 69.9337C60.0579 69.9337 59.6353 69.849 59.3142 69.6798C58.9997 69.5105 58.7704 69.2344 58.6262 68.8515C58.5345 68.6012 58.4657 68.303 58.4198 67.9571C58.3804 67.6037 58.3608 67.1951 58.3608 66.7313C58.3608 66.0392 58.387 65.4429 58.4394 64.9423C58.4918 64.4418 58.5672 64.0147 58.6655 63.6613C58.7638 63.308 58.8849 63.0098 59.0291 62.7669C59.2191 62.443 59.5238 62.189 59.9432 62.0049C60.3626 61.8136 60.9556 61.7178 61.7223 61.7178C62.3186 61.7178 62.7968 61.7951 63.1573 61.9497C63.5242 62.0969 63.7895 62.2994 63.9534 62.5571C64.1173 62.8147 64.1991 63.1092 64.1991 63.4405C64.1991 63.9264 64.0615 64.3239 63.7863 64.6331C63.5111 64.9349 63.1507 65.1742 62.7051 65.3509V65.3951C63.19 65.4467 63.5669 65.6196 63.8355 65.9141C64.1107 66.2012 64.2483 66.6209 64.2483 67.173C64.2483 67.578 64.1434 67.9496 63.9338 68.2883C63.7241 68.6196 63.4423 68.9104 63.0885 69.1607C62.7412 69.4037 62.3481 69.595 61.909 69.735C61.4765 69.8675 61.0342 69.9337 60.5821 69.9337ZM61.2406 67.9681C61.4372 67.9681 61.6109 67.935 61.7616 67.8687C61.9122 67.8025 62.0302 67.7105 62.1154 67.5926C62.2071 67.4748 62.253 67.3386 62.253 67.184C62.253 66.9927 62.1776 66.8343 62.0269 66.7092C61.8827 66.5767 61.6567 66.5104 61.3488 66.5104C61.1063 66.5104 60.8999 66.5803 60.7295 66.7202C60.5657 66.8528 60.4838 67.0479 60.4838 67.3055C60.4838 67.5338 60.546 67.7031 60.6706 67.8135C60.7951 67.9165 60.9851 67.9681 61.2406 67.9681ZM61.2406 64.8209C61.5289 64.8209 61.7648 64.7546 61.9483 64.6221C62.1318 64.4896 62.2235 64.3093 62.2235 64.081C62.2235 63.9117 62.1481 63.7754 61.9975 63.6724C61.8533 63.562 61.6468 63.5067 61.3782 63.5067C61.1357 63.5067 60.9359 63.5656 60.7787 63.6834C60.628 63.8013 60.5526 63.9742 60.5526 64.2025C60.5526 64.4086 60.6148 64.5632 60.7394 64.6663C60.8639 64.7693 61.031 64.8209 61.2406 64.8209ZM67.4877 69.9117C66.8979 69.9117 66.3836 69.7828 65.9445 69.5252C65.5121 69.2601 65.1746 68.8847 64.9321 68.3988C64.6963 67.9129 64.5783 67.335 64.5783 66.665C64.5783 65.9657 64.6995 65.3545 64.942 64.8319C65.1845 64.3093 65.5251 63.9007 65.9642 63.6061C66.4097 63.3116 66.9274 63.1644 67.5171 63.1644C68.1462 63.1644 68.69 63.308 69.1487 63.5951C69.6139 63.8748 69.9744 64.2687 70.2299 64.7767C70.4855 65.2847 70.6132 65.8774 70.6132 66.5546C70.6132 67.2467 70.4822 67.843 70.2201 68.3436C69.9645 68.8441 69.6041 69.2306 69.1389 69.5031C68.6737 69.7755 68.1233 69.9117 67.4877 69.9117ZM67.6253 67.6368C67.8808 67.6368 68.084 67.5264 68.2346 67.3055C68.3919 67.0847 68.4705 66.7901 68.4705 66.4221C68.4705 66.054 68.3919 65.7595 68.2346 65.5386C68.084 65.3178 67.8808 65.2074 67.6253 65.2074C67.3631 65.2074 67.1535 65.3178 66.9962 65.5386C66.8456 65.7595 66.7701 66.054 66.7701 66.4221C66.7701 66.7901 66.8456 67.0847 66.9962 67.3055C67.1535 67.5264 67.3631 67.6368 67.6253 67.6368ZM71.9676 69.9779C71.6072 69.9779 71.3091 69.8454 71.0732 69.5804C70.8373 69.3079 70.7194 68.9694 70.7194 68.5644C70.7194 68.2552 70.8012 67.9755 70.9651 67.7252C71.1288 67.4675 71.3647 67.2429 71.6728 67.0515C71.9873 66.8602 72.364 66.7092 72.8031 66.5988V66.5546C72.0888 66.3263 71.5613 66.0245 71.2206 65.6491C70.8864 65.2662 70.7194 64.8504 70.7194 64.4012C70.7194 64.1288 70.7816 63.8933 70.9061 63.6945C71.0305 63.4883 71.1944 63.3301 71.3975 63.2196C71.6006 63.1092 71.8136 63.054 72.0364 63.054C72.3574 63.054 72.6458 63.157 72.9014 63.3632C73.1569 63.562 73.3731 63.838 73.5499 64.1914C73.727 64.5448 73.8548 64.9497 73.9334 65.4061H73.9727C74.1496 64.5743 74.4018 63.9595 74.7295 63.562C75.0571 63.157 75.4208 62.9546 75.8205 62.9546C76.2005 62.9546 76.4921 63.0797 76.6953 63.3301C76.8983 63.5804 77 63.9007 77 64.2908C77 64.7251 76.8394 65.1337 76.5184 65.5166C76.1973 65.8994 75.7156 66.2012 75.0735 66.4221V66.4663C75.696 66.6724 76.1415 66.9447 76.4103 67.2834C76.6855 67.6147 76.8231 67.9976 76.8231 68.4319C76.8231 68.8369 76.7051 69.1644 76.4692 69.4147C76.2398 69.6577 75.9712 69.7791 75.6633 69.7791C75.3684 69.7791 75.1095 69.6798 74.8868 69.481C74.6706 69.2748 74.487 69.0025 74.3364 68.6638C74.1922 68.3178 74.0742 67.935 73.9825 67.5153H73.9432C73.8317 68.0675 73.6712 68.5277 73.4616 68.8957C73.2518 69.2565 73.0159 69.5288 72.7539 69.7129C72.4984 69.8896 72.2362 69.9779 71.9676 69.9779Z" fill="#450C25"/>
</svg>
