<svg width="41" height="24" viewBox="0 0 41 24" fill="none" xmlns="http://www.w3.org/2000/svg">
<path d="M40.9999 12C40.9999 18.6296 35.4134 24 28.5236 24C21.6339 24 16.0474 18.6296 16.0474 12C16.0474 5.3704 21.6252 0 28.5149 0C35.4047 0 40.9999 5.3704 40.9999 12Z" fill="#035A89"/>
<path d="M25.596 12C25.596 18.6296 20.0095 24 13.1198 24C6.23006 24 0.643555 18.6296 0.643555 12C0.643555 5.3704 6.23006 0 13.1198 0C20.0095 0 25.596 5.3704 25.596 12Z" fill="#094B71"/>
<path d="M20.818 2.55176C17.9074 4.74495 16.0395 8.16399 16.0395 12C16.0395 15.836 17.9074 19.255 20.818 21.4482C23.7285 19.255 25.5965 15.836 25.5965 12C25.5965 8.16399 23.7285 4.75329 20.818 2.55176Z" fill="#062F4B"/>
</svg>
