<svg width="28" height="24" viewBox="0 0 28 24" fill="none" xmlns="http://www.w3.org/2000/svg">
<path d="M11.1848 24C10.6878 24 10.2018 23.881 9.78841 23.6581C9.37502 23.4351 9.05273 23.1182 8.86227 22.7474L0.191076 5.84128C-0.0636829 5.34452 -0.0636924 4.78638 0.19105 4.28962C0.445792 3.79286 0.934422 3.39816 1.54946 3.19235L10.6317 0.15441C10.9362 0.0524911 11.2626 2.2083e-05 11.5922 6.96918e-09C11.9218 -2.20691e-05 12.2482 0.0524032 12.5528 0.154281C12.8573 0.25616 13.134 0.405495 13.3671 0.593756C13.6002 0.782018 13.785 1.00552 13.9111 1.25149L22.5823 18.1583C22.8367 18.6549 22.8364 19.2128 22.5817 19.7093C22.327 20.2058 21.8386 20.6004 21.2239 20.8062L12.1417 23.8455C11.8384 23.9473 11.5133 23.9998 11.1848 24ZM11.5924 1.09074C11.4403 1.09074 11.2895 1.1151 11.1491 1.16276L2.06645 4.2007C1.92588 4.24773 1.79815 4.31666 1.69056 4.40356C1.58297 4.49047 1.49764 4.59363 1.43943 4.70718C1.38122 4.82072 1.35127 4.94241 1.3513 5.0653C1.35133 5.18819 1.38134 5.30987 1.4396 5.42339L10.1108 22.3305C10.2287 22.5597 10.4543 22.7417 10.7381 22.8366C11.0219 22.9316 11.3407 22.9318 11.6247 22.8372L20.7069 19.7971C20.8475 19.7501 20.9752 19.6812 21.0828 19.5943C21.1904 19.5074 21.2757 19.4042 21.3339 19.2907C21.3922 19.1771 21.4221 19.0554 21.4221 18.9325C21.422 18.8096 21.392 18.688 21.3338 18.5744L12.6626 1.66903C12.5748 1.49808 12.4263 1.35195 12.2359 1.24904C12.0454 1.14613 11.8215 1.09105 11.5924 1.09074Z" fill="#062F4B"/>
<path opacity="0.7" d="M13.2354 2.78418L14.4841 2.36648L17.9173 9.06061L16.6687 9.47831L13.2354 2.78418Z" fill="#062F4B"/>
<path opacity="0.7" d="M22.005 17.0342L20.7564 17.4519L16.8701 9.87437L18.1187 9.45667L22.005 17.0342Z" fill="#062F4B"/>
<path d="M19.1806 12.4289C16.5832 13.2987 14.4144 14.4978 12.9944 15.9432L9.33325 8.80187C11.0033 7.23486 13.1289 6.0273 15.5195 5.28759C18.1169 4.41772 20.741 3.9967 22.9706 4.242L26.6326 11.3829C24.0796 11.2277 21.519 11.5871 19.1806 12.4289Z" fill="#062F4B"/>
<g opacity="0.4">
<path opacity="0.9" d="M19.1806 12.4289C16.5832 13.2987 14.4144 14.4978 12.9944 15.9432L9.33325 8.80187C11.0033 7.23486 13.1289 6.0273 15.5195 5.28759C18.1169 4.41772 20.741 3.9967 22.9706 4.242L26.6326 11.3829C24.0796 11.2277 21.519 11.5871 19.1806 12.4289Z" fill="#062F4B"/>
<path opacity="0.7" d="M19.1806 12.4289C16.5832 13.2987 14.4144 14.4978 12.9944 15.9432L9.33325 8.80187C11.0033 7.23486 13.1289 6.0273 15.5195 5.28759C18.1169 4.41772 20.741 3.9967 22.9706 4.242L26.6326 11.3829C24.0796 11.2277 21.519 11.5871 19.1806 12.4289Z" fill="#062F4B"/>
</g>
<path d="M20.3725 14.606C17.5609 14.606 14.9872 15.0447 12.9925 15.9404V8.71974C15.2778 7.78837 17.8136 7.32986 20.3725 7.38536C23.184 7.38536 25.8082 7.80638 27.7521 8.72148V15.9421C25.4672 15.01 22.9314 14.5508 20.3725 14.606Z" fill="#094B71"/>
</svg>
