<svg width="40" height="40" viewBox="0 0 40 40" fill="none" xmlns="http://www.w3.org/2000/svg">
<path d="M2.72953 1.32077L1.67969 2.3364C3.03266 3.73749 3.37687 5.28921 3.43266 7.07265C3.48836 8.85624 3.205 10.8195 3.36672 12.8076C3.52844 14.7957 4.20125 16.8417 6.13523 18.54C7.11586 19.4009 8.39914 20.1731 10.0805 20.852C7.27977 26.8944 13.8145 31.2014 22.268 31.2378C21.1997 31.4062 20.2144 32.0375 19.6313 33.0469C18.6068 34.8208 19.2142 37.0886 20.9888 38.1128C22.7633 39.137 25.0325 38.5294 26.0571 36.7554C26.3718 36.2116 26.5424 35.5964 26.5528 34.9682C29.3164 36.1873 33.2698 36.519 37.2681 35.5687C36.2 31.5833 33.9206 28.3058 31.4381 26.5356C31.9514 26.223 32.3957 25.7792 32.7174 25.2222C33.742 23.4482 33.1346 21.1805 31.3601 20.1562C29.5857 19.132 27.3163 19.7397 26.2917 21.5137C25.7599 22.4348 25.6671 23.4894 25.95 24.4336C21.7199 17.2594 14.5758 13.9694 10.8084 19.5654C9.15672 18.916 7.95703 18.1962 7.0975 17.4414C5.46109 16.0044 4.96547 14.4511 4.82211 12.688C4.67859 10.9249 4.95414 8.9864 4.89281 7.02624C4.83156 5.06624 4.38266 3.03249 2.72969 1.32077H2.72953Z" fill="#C37C0B"/>
</svg>
