<svg width="306" height="170" viewBox="0 0 306 170" fill="none" xmlns="http://www.w3.org/2000/svg">
<g clip-path="url(#clip0_514_3600)">
<path d="M260.194 17.4808C262.748 14.7375 263.877 11.6369 262.715 10.5554C261.553 9.47385 258.54 10.821 255.986 13.5643C253.432 16.3076 252.303 19.4082 253.465 20.4898C254.627 21.5713 257.64 20.2241 260.194 17.4808Z" fill="#094B71"/>
<path d="M306 0.0190479C305.985 -0.0267536 305.702 0.0266815 305.603 0.0457655C296.815 1.65645 294.971 4.51523 294.971 4.51523C292.528 8.30531 297.796 12.0114 295.403 16.3855C293.227 20.3626 286.672 21.4236 285.195 21.3473C285.096 21.3435 283.809 21.3358 283.023 21.3969C282.366 21.4465 282.294 21.8168 282.301 21.9274C282.32 22.2023 287.298 22.8282 291.792 20.6374C293.135 19.9847 295.193 18.9771 296.235 16.6412C297.579 13.6221 296.216 10.6297 295.949 10.0687C295.83 9.87783 294.483 7.62974 295.571 5.18317C296.468 3.16409 300.633 1.77096 300.95 1.66409C303.645 0.79004 304.046 0.812941 305.202 0.381643C305.615 0.228972 306.031 0.122101 305.996 0.0228647L306 0.0190479Z" fill="#401C08"/>
<path d="M292.909 29.1984C292.871 29.29 292.829 29.3816 292.787 29.4732C291.379 32.5763 288.214 34.5114 284.801 34.4732C270.917 34.3282 260.854 34.3931 255.158 34.9122C254.181 35 250.184 35.3893 246.252 33.3168C243.988 32.1221 241.744 30.1145 242.133 29.0648C242.492 28.0992 244.672 29.0343 246.653 27.603C248.734 26.0954 248.058 23.8053 249.844 21.7557C250.539 20.958 251.704 20.0916 253.784 19.6488C254.57 19.4809 255.208 18.9236 255.487 18.1717C256.094 16.5419 257.8 14.603 260.171 13.0381C263.836 10.6221 267.699 10.0229 268.806 11.6984C269.394 12.5877 269.081 13.9427 268.111 15.374C270.111 14.6106 270.757 14.3244 272.31 13.9122C275.414 13.0877 279.438 12.0229 284.007 13.248C285.565 13.6679 287.901 14.2939 289.989 16.3053C293.108 19.3091 294.849 24.5877 292.913 29.1946L292.909 29.1984Z" fill="#035A89"/>
<path d="M243.13 30.1756C243.754 30.1756 244.26 29.7774 244.26 29.2863C244.26 28.7951 243.754 28.397 243.13 28.397C242.506 28.397 242 28.7951 242 29.2863C242 29.7774 242.506 30.1756 243.13 30.1756Z" fill="#401C08"/>
<path d="M252.701 28.5304C253.985 28.5304 255.026 27.4898 255.026 26.206C255.026 24.9223 253.985 23.8816 252.701 23.8816C251.417 23.8816 250.376 24.9223 250.376 26.206C250.376 27.4898 251.417 28.5304 252.701 28.5304Z" fill="#F0F9FF"/>
<path d="M252.765 28.0039C253.721 28.0039 254.495 27.2298 254.495 26.2749C254.495 25.32 253.721 24.5459 252.765 24.5459C251.81 24.5459 251.036 25.32 251.036 26.2749C251.036 27.2298 251.81 28.0039 252.765 28.0039Z" fill="#062F4B"/>
</g>
<g clip-path="url(#clip1_514_3600)">
<path d="M260.194 48.4808C262.748 45.7375 263.877 42.6369 262.715 41.5554C261.553 40.4739 258.54 41.821 255.986 44.5643C253.432 47.3076 252.303 50.4082 253.465 51.4898C254.627 52.5713 257.64 51.2241 260.194 48.4808Z" fill="#094B71"/>
<path d="M306 31.019C305.985 30.9732 305.702 31.0267 305.603 31.0458C296.815 32.6565 294.971 35.5152 294.971 35.5152C292.528 39.3053 297.796 43.0114 295.403 47.3855C293.227 51.3626 286.672 52.4236 285.195 52.3473C285.096 52.3435 283.809 52.3358 283.023 52.3969C282.366 52.4465 282.294 52.8168 282.301 52.9274C282.32 53.2023 287.298 53.8282 291.792 51.6374C293.135 50.9847 295.193 49.9771 296.235 47.6412C297.579 44.6221 296.216 41.6297 295.949 41.0687C295.83 40.8778 294.483 38.6297 295.571 36.1832C296.468 34.1641 300.633 32.771 300.95 32.6641C303.645 31.79 304.046 31.8129 305.202 31.3816C305.615 31.229 306.031 31.1221 305.996 31.0229L306 31.019Z" fill="#401C08"/>
<path d="M292.909 60.1984C292.871 60.29 292.829 60.3816 292.787 60.4732C291.379 63.5763 288.214 65.5114 284.801 65.4732C270.917 65.3282 260.854 65.3931 255.158 65.9122C254.181 66 250.184 66.3893 246.252 64.3168C243.988 63.1221 241.744 61.1145 242.133 60.0648C242.492 59.0992 244.672 60.0343 246.653 58.603C248.734 57.0954 248.058 54.8053 249.844 52.7557C250.539 51.958 251.704 51.0916 253.784 50.6488C254.57 50.4809 255.208 49.9236 255.487 49.1717C256.094 47.5419 257.8 45.603 260.171 44.0381C263.836 41.6221 267.699 41.0229 268.806 42.6984C269.394 43.5877 269.081 44.9427 268.111 46.374C270.111 45.6106 270.757 45.3244 272.31 44.9122C275.414 44.0877 279.438 43.0229 284.007 44.248C285.565 44.6679 287.901 45.2939 289.989 47.3053C293.108 50.3091 294.849 55.5877 292.913 60.1946L292.909 60.1984Z" fill="#035A89"/>
<path d="M243.13 61.1756C243.754 61.1756 244.26 60.7774 244.26 60.2863C244.26 59.7951 243.754 59.397 243.13 59.397C242.506 59.397 242 59.7951 242 60.2863C242 60.7774 242.506 61.1756 243.13 61.1756Z" fill="#401C08"/>
<path d="M252.701 59.5304C253.985 59.5304 255.026 58.4898 255.026 57.206C255.026 55.9223 253.985 54.8816 252.701 54.8816C251.417 54.8816 250.376 55.9223 250.376 57.206C250.376 58.4898 251.417 59.5304 252.701 59.5304Z" fill="#F0F9FF"/>
<path d="M252.765 59.0039C253.721 59.0039 254.495 58.2298 254.495 57.2749C254.495 56.32 253.721 55.5459 252.765 55.5459C251.81 55.5459 251.036 56.32 251.036 57.2749C251.036 58.2298 251.81 59.0039 252.765 59.0039Z" fill="#062F4B"/>
</g>
<g clip-path="url(#clip2_514_3600)">
<path d="M260.194 83.4808C262.748 80.7375 263.877 77.6369 262.715 76.5554C261.553 75.4739 258.54 76.821 255.986 79.5643C253.432 82.3076 252.303 85.4082 253.465 86.4898C254.627 87.5713 257.64 86.2241 260.194 83.4808Z" fill="#094B71"/>
<path d="M306 66.019C305.985 65.9732 305.702 66.0267 305.603 66.0458C296.815 67.6565 294.971 70.5152 294.971 70.5152C292.528 74.3053 297.796 78.0114 295.403 82.3855C293.227 86.3626 286.672 87.4236 285.195 87.3473C285.096 87.3435 283.809 87.3358 283.023 87.3969C282.366 87.4465 282.294 87.8168 282.301 87.9274C282.32 88.2023 287.298 88.8282 291.792 86.6374C293.135 85.9847 295.193 84.9771 296.235 82.6412C297.579 79.6221 296.216 76.6297 295.949 76.0687C295.83 75.8778 294.483 73.6297 295.571 71.1832C296.468 69.1641 300.633 67.771 300.95 67.6641C303.645 66.79 304.046 66.8129 305.202 66.3816C305.615 66.229 306.031 66.1221 305.996 66.0229L306 66.019Z" fill="#401C08"/>
<path d="M292.909 95.1984C292.871 95.29 292.829 95.3816 292.787 95.4732C291.379 98.5763 288.214 100.511 284.801 100.473C270.917 100.328 260.854 100.393 255.158 100.912C254.181 101 250.184 101.389 246.252 99.3168C243.988 98.1221 241.744 96.1145 242.133 95.0648C242.492 94.0992 244.672 95.0343 246.653 93.603C248.734 92.0954 248.058 89.8053 249.844 87.7557C250.539 86.958 251.704 86.0916 253.784 85.6488C254.57 85.4809 255.208 84.9236 255.487 84.1717C256.094 82.5419 257.8 80.603 260.171 79.0381C263.836 76.6221 267.699 76.0229 268.806 77.6984C269.394 78.5877 269.081 79.9427 268.111 81.374C270.111 80.6106 270.757 80.3244 272.31 79.9122C275.414 79.0877 279.438 78.0229 284.007 79.248C285.565 79.6679 287.901 80.2939 289.989 82.3053C293.108 85.3091 294.849 90.5877 292.913 95.1946L292.909 95.1984Z" fill="#035A89"/>
<path d="M243.13 96.1756C243.754 96.1756 244.26 95.7774 244.26 95.2863C244.26 94.7951 243.754 94.397 243.13 94.397C242.506 94.397 242 94.7951 242 95.2863C242 95.7774 242.506 96.1756 243.13 96.1756Z" fill="#401C08"/>
<path d="M252.701 94.5304C253.985 94.5304 255.026 93.4898 255.026 92.206C255.026 90.9223 253.985 89.8816 252.701 89.8816C251.417 89.8816 250.376 90.9223 250.376 92.206C250.376 93.4898 251.417 94.5304 252.701 94.5304Z" fill="#F0F9FF"/>
<path d="M252.765 94.0039C253.721 94.0039 254.495 93.2298 254.495 92.2749C254.495 91.32 253.721 90.5459 252.765 90.5459C251.81 90.5459 251.036 91.32 251.036 92.2749C251.036 93.2298 251.81 94.0039 252.765 94.0039Z" fill="#062F4B"/>
</g>
<g clip-path="url(#clip3_514_3600)">
<path d="M260.194 117.481C262.748 114.738 263.877 111.637 262.715 110.555C261.553 109.474 258.54 110.821 255.986 113.564C253.432 116.308 252.303 119.408 253.465 120.49C254.627 121.571 257.64 120.224 260.194 117.481Z" fill="#094B71"/>
<path d="M306 100.019C305.985 99.9732 305.702 100.027 305.603 100.046C296.815 101.656 294.971 104.515 294.971 104.515C292.528 108.305 297.796 112.011 295.403 116.385C293.227 120.363 286.672 121.424 285.195 121.347C285.096 121.343 283.809 121.336 283.023 121.397C282.366 121.447 282.294 121.817 282.301 121.927C282.32 122.202 287.298 122.828 291.792 120.637C293.135 119.985 295.193 118.977 296.235 116.641C297.579 113.622 296.216 110.63 295.949 110.069C295.83 109.878 294.483 107.63 295.571 105.183C296.468 103.164 300.633 101.771 300.95 101.664C303.645 100.79 304.046 100.813 305.202 100.382C305.615 100.229 306.031 100.122 305.996 100.023L306 100.019Z" fill="#401C08"/>
<path d="M292.909 129.198C292.871 129.29 292.829 129.382 292.787 129.473C291.379 132.576 288.214 134.511 284.801 134.473C270.917 134.328 260.854 134.393 255.158 134.912C254.181 135 250.184 135.389 246.252 133.317C243.988 132.122 241.744 130.114 242.133 129.065C242.492 128.099 244.672 129.034 246.653 127.603C248.734 126.095 248.058 123.805 249.844 121.756C250.539 120.958 251.704 120.092 253.784 119.649C254.57 119.481 255.208 118.924 255.487 118.172C256.094 116.542 257.8 114.603 260.171 113.038C263.836 110.622 267.699 110.023 268.806 111.698C269.394 112.588 269.081 113.943 268.111 115.374C270.111 114.611 270.757 114.324 272.31 113.912C275.414 113.088 279.438 112.023 284.007 113.248C285.565 113.668 287.901 114.294 289.989 116.305C293.108 119.309 294.849 124.588 292.913 129.195L292.909 129.198Z" fill="#035A89"/>
<path d="M243.13 130.176C243.754 130.176 244.26 129.777 244.26 129.286C244.26 128.795 243.754 128.397 243.13 128.397C242.506 128.397 242 128.795 242 129.286C242 129.777 242.506 130.176 243.13 130.176Z" fill="#401C08"/>
<path d="M252.701 128.53C253.985 128.53 255.026 127.49 255.026 126.206C255.026 124.922 253.985 123.882 252.701 123.882C251.417 123.882 250.376 124.922 250.376 126.206C250.376 127.49 251.417 128.53 252.701 128.53Z" fill="#F0F9FF"/>
<path d="M252.765 128.004C253.721 128.004 254.495 127.23 254.495 126.275C254.495 125.32 253.721 124.546 252.765 124.546C251.81 124.546 251.036 125.32 251.036 126.275C251.036 127.23 251.81 128.004 252.765 128.004Z" fill="#062F4B"/>
</g>
<g clip-path="url(#clip4_514_3600)">
<path d="M260.194 152.481C262.748 149.738 263.877 146.637 262.715 145.555C261.553 144.474 258.54 145.821 255.986 148.564C253.432 151.308 252.303 154.408 253.465 155.49C254.627 156.571 257.64 155.224 260.194 152.481Z" fill="#094B71"/>
<path d="M306 135.019C305.985 134.973 305.702 135.027 305.603 135.046C296.815 136.656 294.971 139.515 294.971 139.515C292.528 143.305 297.796 147.011 295.403 151.385C293.227 155.363 286.672 156.424 285.195 156.347C285.096 156.343 283.809 156.336 283.023 156.397C282.366 156.447 282.294 156.817 282.301 156.927C282.32 157.202 287.298 157.828 291.792 155.637C293.135 154.985 295.193 153.977 296.235 151.641C297.579 148.622 296.216 145.63 295.949 145.069C295.83 144.878 294.483 142.63 295.571 140.183C296.468 138.164 300.633 136.771 300.95 136.664C303.645 135.79 304.046 135.813 305.202 135.382C305.615 135.229 306.031 135.122 305.996 135.023L306 135.019Z" fill="#401C08"/>
<path d="M292.909 164.198C292.871 164.29 292.829 164.382 292.787 164.473C291.379 167.576 288.214 169.511 284.801 169.473C270.917 169.328 260.854 169.393 255.158 169.912C254.181 170 250.184 170.389 246.252 168.317C243.988 167.122 241.744 165.114 242.133 164.065C242.492 163.099 244.672 164.034 246.653 162.603C248.734 161.095 248.058 158.805 249.844 156.756C250.539 155.958 251.704 155.092 253.784 154.649C254.57 154.481 255.208 153.924 255.487 153.172C256.094 151.542 257.8 149.603 260.171 148.038C263.836 145.622 267.699 145.023 268.806 146.698C269.394 147.588 269.081 148.943 268.111 150.374C270.111 149.611 270.757 149.324 272.31 148.912C275.414 148.088 279.438 147.023 284.007 148.248C285.565 148.668 287.901 149.294 289.989 151.305C293.108 154.309 294.849 159.588 292.913 164.195L292.909 164.198Z" fill="#035A89"/>
<path d="M243.13 165.176C243.754 165.176 244.26 164.777 244.26 164.286C244.26 163.795 243.754 163.397 243.13 163.397C242.506 163.397 242 163.795 242 164.286C242 164.777 242.506 165.176 243.13 165.176Z" fill="#401C08"/>
<path d="M252.701 163.53C253.985 163.53 255.026 162.49 255.026 161.206C255.026 159.922 253.985 158.882 252.701 158.882C251.417 158.882 250.376 159.922 250.376 161.206C250.376 162.49 251.417 163.53 252.701 163.53Z" fill="#F0F9FF"/>
<path d="M252.765 163.004C253.721 163.004 254.495 162.23 254.495 161.275C254.495 160.32 253.721 159.546 252.765 159.546C251.81 159.546 251.036 160.32 251.036 161.275C251.036 162.23 251.81 163.004 252.765 163.004Z" fill="#062F4B"/>
</g>
<path d="M87.6784 44.754L15.2578 43.9448L18.3582 28.858C18.4498 28.4143 18.8291 28.1011 19.2739 28.075L49.5844 26.6133C50.5655 26.5611 51.5466 26.5741 52.5277 26.6133L88.3587 28.4535C88.882 28.4796 89.2875 28.9102 89.2875 29.4323V32.4209C89.2875 35.1485 89.0259 37.8762 88.4895 40.5516L87.6654 44.7409L87.6784 44.754Z" fill="#CD316D"/>
<path d="M87.0377 45.6936C87.234 44.9497 86.6845 44.2189 85.9127 44.2058L50.0818 43.0312L16.1739 43.6316C15.716 43.6316 15.2974 43.9057 15.1011 44.3233L9.22744 56.8912C7.98467 59.5536 7.04279 62.3335 6.42795 65.2046L4.28254 75.1885C3.89009 77.0157 3.62845 78.8819 3.49763 80.7482L0.554239 124.364C0.475748 125.604 0.554237 126.857 0.828954 128.084L1.0121 128.906C1.43071 130.837 2.58191 132.534 4.23021 133.63C5.74769 134.648 7.4614 135.34 9.26669 135.666L24.2322 138.407C25.7235 138.681 27.241 138.877 28.7585 138.968L60.7303 141.148C61.7638 141.213 62.7973 141.252 63.8307 141.252H72.1507C72.6347 141.2 72.9094 141.161 73.1187 141.082L74.1915 140.704C75.3427 140.299 76.1276 139.216 76.1406 138.002L76.8732 94.1123C76.9125 91.985 77.1349 89.8707 77.5666 87.7957L82.6292 62.9207L87.0377 45.6936Z" fill="#AD235C"/>
<path d="M97.5423 125.069L96.4042 73.3877C96.3519 70.7253 93.8664 59.1492 92.9637 56.6304L91.1323 44.7411C91.0276 44.4539 89.3662 30.7245 89.3008 31.0246L77.7365 82.9801C77.2002 85.3292 76.8862 87.7175 76.7947 90.1189L74.8324 139.595C74.8062 140.195 73.1579 141.004 73.7205 140.756L76.6115 140.038C77.1609 139.908 77.6842 139.725 78.1944 139.49C81.7526 137.885 90.766 133.526 92.8591 131.816L95.3577 129.767C96.7836 128.606 97.5816 126.87 97.5423 125.069Z" fill="#912052"/>
<path d="M33.4023 102.87C32.1203 102.844 31.1653 103.352 30.8775 103.535C30.4851 103.77 29.7787 104.514 28.4051 105.989C27.8295 106.615 27.7117 106.746 27.4109 107.02C26.4428 107.894 26.0242 107.92 25.4878 108.403C24.6244 109.186 24.1012 110.544 24.2712 111.875C24.2843 112.031 24.5459 113.832 26.0242 114.72C27.7379 115.751 30.2103 114.994 30.9822 114.511C31.0868 114.446 31.427 114.224 31.911 114.146C32.0156 114.133 32.4735 114.067 33.0229 114.25C33.5985 114.433 33.7163 114.694 34.2919 115.046C34.8413 115.385 35.3253 115.503 35.8093 115.633C36.4896 115.816 37.1829 115.999 38.0332 115.842C38.321 115.79 39.3414 115.594 40.1525 114.694C41.1859 113.558 41.1075 112.149 41.0944 111.875C41.0159 110.765 40.6496 109.787 39.59 108.821C38.7658 108.077 38.7789 108.012 38.1771 107.124C37.4446 106.028 37.5492 105.715 36.8297 104.762C36.4111 104.214 35.9663 103.653 35.1814 103.261C34.4358 102.896 33.7686 102.883 33.4285 102.87H33.4023Z" fill="#FCE7EB"/>
<path d="M24.6766 106.928C26.2083 106.928 27.45 105.362 27.45 103.431C27.45 101.499 26.2083 99.9331 24.6766 99.9331C23.145 99.9331 21.9033 101.499 21.9033 103.431C21.9033 105.362 23.145 106.928 24.6766 106.928Z" fill="#FCE7EB"/>
<path d="M30.1845 102.439C31.7161 102.439 32.9578 100.873 32.9578 98.9412C32.9578 97.0095 31.7161 95.4436 30.1845 95.4436C28.6528 95.4436 27.4111 97.0095 27.4111 98.9412C27.4111 100.873 28.6528 102.439 30.1845 102.439Z" fill="#FCE7EB"/>
<path d="M39.616 99.8998C39.9162 97.9914 38.9329 96.2524 37.4198 96.0154C35.9066 95.7785 34.4366 97.1334 34.1364 99.0417C33.8362 100.95 34.8194 102.689 36.3326 102.926C37.8457 103.163 39.3157 101.808 39.616 99.8998Z" fill="#FCE7EB"/>
<path d="M44.3435 105.173C44.6437 103.264 43.6605 101.525 42.1473 101.288C40.6342 101.051 39.1642 102.406 38.8639 104.315C38.5637 106.223 39.547 107.962 41.0601 108.199C42.5733 108.436 44.0433 107.081 44.3435 105.173Z" fill="#FCE7EB"/>
<rect x="148" y="75" width="43" height="10" fill="#062F4B"/>
<rect x="148" y="92" width="43" height="10" fill="#062F4B"/>
<defs>
<clipPath id="clip0_514_3600">
<rect width="64" height="35" fill="white" transform="translate(242)"/>
</clipPath>
<clipPath id="clip1_514_3600">
<rect width="64" height="35" fill="white" transform="translate(242 31)"/>
</clipPath>
<clipPath id="clip2_514_3600">
<rect width="64" height="35" fill="white" transform="translate(242 66)"/>
</clipPath>
<clipPath id="clip3_514_3600">
<rect width="64" height="35" fill="white" transform="translate(242 100)"/>
</clipPath>
<clipPath id="clip4_514_3600">
<rect width="64" height="35" fill="white" transform="translate(242 135)"/>
</clipPath>
</defs>
</svg>
