<svg width="154" height="110" viewBox="0 0 154 110" fill="none" xmlns="http://www.w3.org/2000/svg">
<g clip-path="url(#clip0_274_2980)">
<path d="M153.616 10.105C151.258 12.6561 146.316 23.3527 146.302 68.2075C146.302 70.8911 146.425 73.5747 146.643 76.2489C147.329 84.721 147.675 107.927 130.883 107.771C130.041 107.761 129.198 107.799 128.355 107.837C117.448 108.329 61.8092 110.753 41.8128 109.763C40.5298 109.702 39.2469 109.659 37.9593 109.659C30.186 109.64 0.446914 108.798 0.0350544 96.8659C-0.438347 83.1402 28.4392 85.0334 28.4392 85.0334C28.4392 85.0334 45.1834 86.8414 58.3203 90.907C58.9878 91.1105 59.7026 90.6846 59.7783 89.9936C59.8683 89.1416 59.57 87.788 58.0315 85.767C54.9544 81.725 53.0608 71.7856 53.0608 71.7856C53.0608 71.7856 51.7779 63.1053 57.3924 48.7501C63.0069 34.3948 60.1618 5.05014 60.1618 5.05014C60.1618 5.05014 63.8827 -6.3091 69.5967 5.05014C69.5967 5.05014 75.3107 31.0817 76.7309 36.7613C77.5499 40.0366 78.4682 43.5201 79.1026 45.8866C79.737 48.2531 81.4696 50.4445 83.8082 51.4763C86.9043 52.8441 91.3022 53.0524 95.0278 46.6533C96.0078 44.9684 96.5853 43.0799 96.7084 41.1346C97.1913 33.6044 100.216 9.62696 119.28 6.21919C119.829 6.1198 120.232 6.73982 119.919 7.20366C118.627 9.12526 116.236 13.0111 115.555 16.4141C115.555 16.4141 114.134 20.6738 119.815 19.7272H137.331C137.331 19.7272 145.919 8.68982 153.214 9.0306C153.758 9.05427 153.995 9.71689 153.626 10.1145L153.616 10.105Z" fill="#006BA6"/>
<path d="M112.009 36.6524C114.859 36.6524 117.169 34.3427 117.169 31.4935C117.169 28.6442 114.859 26.3345 112.009 26.3345C109.159 26.3345 106.849 28.6442 106.849 31.4935C106.849 34.3427 109.159 36.6524 112.009 36.6524Z" stroke="#F0F9FF" stroke-width="3" stroke-miterlimit="10"/>
<path d="M133.288 38.8439C136.138 38.8439 138.448 36.5341 138.448 33.6849C138.448 30.8356 136.138 28.5259 133.288 28.5259C130.438 28.5259 128.128 30.8356 128.128 33.6849C128.128 36.5341 130.438 38.8439 133.288 38.8439Z" stroke="#F0F9FF" stroke-width="3" stroke-miterlimit="10"/>
<path d="M120.492 32.9133C120.374 32.5725 120.549 32.1986 120.89 32.0708C121.595 31.8058 122.921 31.484 124.208 32.1371C125.595 32.8376 123.962 34.1581 123.006 34.8018C122.651 35.0384 122.182 35.0195 121.86 34.7403C121.391 34.3332 120.757 33.6753 120.492 32.9181V32.9133Z" fill="#F0F9FF"/>
<path d="M140.967 38.3137C142.415 38.7444 143.864 39.1703 145.308 39.6011C145.516 39.6626 145.729 39.7241 145.937 39.7904C146.595 39.9844 146.879 38.9574 146.221 38.7633C144.773 38.3326 143.324 37.9066 141.88 37.4759C141.672 37.4144 141.459 37.3529 141.251 37.2866C140.593 37.0926 140.309 38.1196 140.967 38.3137Z" fill="#F0F9FF"/>
<path d="M139.741 39.8851C141.019 40.8175 142.297 41.7546 143.575 42.687C143.755 42.8196 143.94 42.9521 144.12 43.0846C144.352 43.255 144.712 43.1225 144.849 42.8953C145.005 42.6255 144.892 42.3368 144.66 42.1664C143.381 41.234 142.103 40.2969 140.825 39.3645C140.645 39.2319 140.46 39.0994 140.281 38.9669C140.049 38.7965 139.689 38.929 139.552 39.1562C139.395 39.426 139.509 39.7147 139.741 39.8851Z" fill="#F0F9FF"/>
<path d="M137.819 41.0352C138.775 42.0622 139.731 43.0893 140.683 44.1164C140.815 44.2631 140.953 44.4051 141.085 44.5518C141.279 44.7648 141.639 44.7506 141.838 44.5518C142.046 44.3436 142.037 44.0123 141.838 43.7993C140.882 42.7722 139.925 41.7451 138.974 40.7181C138.841 40.5713 138.704 40.4294 138.571 40.2826C138.377 40.0696 138.018 40.0838 137.819 40.2826C137.61 40.4909 137.62 40.8222 137.819 41.0352Z" fill="#F0F9FF"/>
<path d="M104.846 34.906C103.345 35.0953 101.84 35.2799 100.339 35.4692C100.126 35.4976 99.9132 35.5213 99.7001 35.5497C99.4161 35.5876 99.1699 35.7674 99.1699 36.0798C99.1699 36.3401 99.4161 36.6478 99.7001 36.6099C101.201 36.4206 102.706 36.236 104.207 36.0467C104.42 36.0183 104.633 35.9946 104.846 35.9662C105.13 35.9283 105.376 35.7485 105.376 35.4361C105.376 35.1758 105.13 34.8681 104.846 34.906Z" fill="#F0F9FF"/>
<path d="M105.395 36.7661C103.98 37.4807 102.564 38.1907 101.153 38.9054C100.955 39.0048 100.751 39.1089 100.552 39.2083C100.297 39.3361 100.221 39.7005 100.363 39.9372C100.514 40.1975 100.831 40.259 101.092 40.1265C102.507 39.4118 103.923 38.7019 105.334 37.9872C105.532 37.8878 105.736 37.7837 105.935 37.6843C106.19 37.5565 106.266 37.192 106.124 36.9554C105.973 36.6951 105.655 36.6335 105.395 36.7661Z" fill="#F0F9FF"/>
<path d="M106.981 38.2759C105.873 39.1326 104.766 39.9893 103.658 40.8412C103.502 40.9643 103.341 41.0873 103.184 41.2056C102.957 41.3808 102.834 41.6647 102.995 41.9345C103.128 42.157 103.497 42.3037 103.724 42.1238C104.832 41.2672 105.94 40.4105 107.047 39.5586C107.204 39.4355 107.365 39.3124 107.521 39.1941C107.748 39.019 107.871 38.735 107.71 38.4652C107.578 38.2428 107.208 38.0961 106.981 38.2759Z" fill="#F0F9FF"/>
<path d="M122.603 64.9133C122.603 64.9133 121.761 68.1601 119.938 71.0142C118.65 73.0304 116.672 74.5213 114.39 75.2407C111.54 76.1447 105.433 78.729 106.848 84.0583C108.685 90.9496 121.941 85.7433 121.941 85.7433C121.941 85.7433 128.568 82.9035 134.249 72.9642C134.249 72.9642 125.695 82.8704 121.316 84.2382C121.022 84.3281 120.733 84.437 120.449 84.5458C118.527 85.2842 111.095 87.8637 108.685 83.8501C106.768 80.6553 111.422 78.0616 114.03 77.0204C117.566 75.6099 120.355 72.7464 121.656 69.1683C122.106 67.9282 122.452 66.5131 122.599 64.9086L122.603 64.9133Z" fill="#F0F9FF"/>
</g>
<defs>
<clipPath id="clip0_274_2980">
<rect width="153.761" height="110" fill="white" transform="translate(0.0302734)"/>
</clipPath>
</defs>
</svg>
