<svg width="1270" height="847" viewBox="0 0 1270 847" fill="none" xmlns="http://www.w3.org/2000/svg">
<g clip-path="url(#clip0_183_4486)">
<rect width="1270" height="847" fill="#F4F8FA"/>
<path d="M803.861 233.747C805.661 239.113 808.521 244.096 811.917 248.629C838.918 284.525 1010.65 524.202 1034.72 847.359L323.841 847.368C345.437 797.083 345.862 746.647 345.438 693.161C344.7 606.265 341.09 427.886 323.454 425.077C300.099 421.393 217.594 399.936 217.594 399.936C217.594 399.936 139.79 366.552 167.339 352.597C183.26 344.509 261.175 315.497 323.848 292.5C380.274 271.783 435.456 248.068 489.28 221.366C569.956 181.29 685.93 123.752 732.278 101.051C778.627 78.3508 816.701 70.772 837.838 68.2639C848.666 67.0156 857.518 76.5896 855.65 87.3448C853.156 102.069 845.261 124.064 823.083 150.548C793.622 185.794 798.492 217.994 803.861 233.747Z" fill="#062F4B"/>
<path d="M572.418 425.954C570.093 423.11 570.466 418.876 573.244 416.443C579.076 411.436 590.713 403.728 605.319 405.483C621.088 407.364 610.05 425.724 603.123 435.259C600.555 438.767 595.967 440.268 591.911 438.671C586.013 436.432 577.585 432.287 572.361 425.96L572.418 425.954Z" fill="#F0F9FF"/>
<path d="M805.409 385.664C820.865 385.962 836.264 386.265 851.72 386.563L858.412 386.717C861.874 386.813 864.526 382.952 864.242 379.754C863.908 375.985 860.735 373.965 857.278 373.926C841.822 373.628 826.423 373.325 810.967 373.027L804.275 372.873C800.812 372.777 798.161 376.638 798.444 379.836C798.779 383.604 801.952 385.625 805.409 385.664Z" fill="#F0F9FF"/>
<path d="M795.705 404.136C810.837 409.872 825.907 415.557 841.039 421.293L847.534 423.767C850.807 424.973 854.579 424.006 856.128 420.703C857.537 417.758 856.342 413.375 853.064 412.112C837.932 406.375 822.862 400.691 807.73 394.954L801.235 392.48C797.962 391.274 794.19 392.242 792.641 395.545C791.232 398.49 792.427 402.873 795.705 404.136Z" fill="#F0F9FF"/>
<path d="M781.208 421.133C793.387 428.628 805.566 436.123 817.75 443.675C819.456 444.732 821.224 445.842 822.93 446.899C825.792 448.659 830.287 446.764 831.524 443.835C832.996 440.308 831.508 437.16 828.459 435.244C816.28 427.749 804.101 420.254 791.917 412.702C790.211 411.644 788.444 410.535 786.738 409.478C783.876 407.717 779.38 409.613 778.143 412.542C776.671 416.069 778.159 419.217 781.208 421.133Z" fill="#F0F9FF"/>
<path d="M403.691 493.005C389.42 498.933 375.15 504.86 360.879 510.788L354.715 513.349C351.493 514.671 349.684 518.284 350.901 521.629C352.119 524.974 355.962 526.763 359.184 525.441C373.455 519.514 387.726 513.586 401.996 507.659L408.16 505.097C411.382 503.776 413.191 500.162 411.974 496.817C410.756 493.472 406.913 491.683 403.691 493.005Z" fill="#F0F9FF"/>
<path d="M415.139 509.14C403.147 519.988 391.212 530.831 379.215 541.621C377.513 543.211 375.75 544.748 374.049 546.338C371.494 548.694 370.312 552.252 372.543 555.335C374.386 557.934 378.931 559.2 381.543 556.838C393.535 545.991 405.47 535.148 417.467 524.358C419.168 522.768 420.932 521.23 422.633 519.641C425.188 517.285 426.369 513.727 424.139 510.644C422.296 508.045 417.751 506.779 415.139 509.14Z" fill="#F0F9FF"/>
<path d="M433.621 520.853C425.024 532.321 416.421 543.731 407.823 555.199C406.583 556.805 405.406 558.463 404.167 560.069C402.162 562.78 402.131 566.984 404.972 569.149C407.626 571.158 411.893 571.24 414.054 568.343C422.652 556.876 431.255 545.465 439.853 533.998C441.093 532.392 442.27 530.733 443.509 529.127C445.514 526.417 445.545 522.213 442.704 520.048C440.05 518.039 435.783 517.957 433.621 520.853Z" fill="#F0F9FF"/>
<path d="M540.245 405.654C529.087 371.029 490.838 352.367 454.813 363.971C418.788 375.576 398.629 413.052 409.787 447.677C420.945 482.303 459.194 500.965 495.219 489.36C531.244 477.756 551.403 440.279 540.245 405.654Z" fill="#F0F9FF"/>
<path d="M540.624 418.645C538.054 389.662 512.468 368.252 483.475 370.824C454.482 373.396 433.061 398.976 435.631 427.958C438.201 456.941 463.787 478.351 492.78 475.779C521.773 473.207 543.194 447.627 540.624 418.645Z" fill="#062F4B"/>
<path d="M766.106 332.93C754.948 298.304 716.699 279.642 680.674 291.247C644.649 302.851 624.49 340.328 635.648 374.953C646.805 409.578 685.055 428.24 721.08 416.636C757.105 405.032 777.264 367.555 766.106 332.93Z" fill="#F0F9FF"/>
<path d="M741.427 352.317C738.857 323.335 713.27 301.925 684.277 304.496C655.284 307.068 633.864 332.648 636.434 361.631C639.003 390.613 664.59 412.023 693.583 409.452C722.576 406.88 743.996 381.3 741.427 352.317Z" fill="#062F4B"/>
<path d="M455.416 845.797C444.056 837.798 437.333 832.172 437.333 832.172C437.333 832.172 448.311 837.926 465.088 845.797L455.416 845.797Z" fill="#F0F9FF"/>
<path d="M629.366 845.795C606.591 791.661 513.486 709.277 513.486 709.277C513.486 709.277 617.631 790.647 644.925 845.795L629.366 845.795Z" fill="#F0F9FF"/>
<path d="M921.081 785.062L921.076 785.005C921.076 785.005 879.275 820.181 835.256 847.367L857.365 847.367C895.072 818.757 921.081 785.062 921.081 785.062Z" fill="#F0F9FF"/>
<path d="M820.29 681.374C820.29 681.374 731.785 788.384 720.264 847.369L735.4 847.369C740.152 791.391 820.29 681.374 820.29 681.374Z" fill="#F0F9FF"/>
</g>
<defs>
<clipPath id="clip0_183_4486">
<rect width="1270" height="847" fill="white"/>
</clipPath>
</defs>
</svg>
