<svg width="145" height="281" viewBox="0 0 145 281" fill="none" xmlns="http://www.w3.org/2000/svg">
<g clip-path="url(#clip0_155_9717)">
<path d="M57.9003 245.676C57.9003 245.676 44.2625 245.676 35.9283 243.406C35.9283 243.406 23.8058 278.215 8.65274 272.162C-6.50035 266.108 12.441 228.272 12.441 228.272C12.441 228.272 1.07619 220.705 8.65274 194.22C8.65274 194.22 -1.95442 176.815 0.318542 173.031C2.59151 169.248 15.9641 173.031 15.9641 173.031C15.9641 173.031 30.8748 99.1303 86.123 90.9123C87.6913 90.6777 88.805 89.2551 88.6308 87.6811C86.82 71.5328 79.501 -6.96927 109.428 0.499543C139.356 7.96836 117.02 78.1843 112.459 91.4269C112.042 92.6376 112.595 93.9543 113.747 94.5219C121.665 98.4114 149.622 114.446 144.349 145.033C138.219 180.599 134.083 240.425 110.186 250.974C93.8965 258.162 103.367 207.841 103.367 207.841C103.367 207.841 79.5011 284.648 60.5597 280.864C41.6183 277.08 57.9079 245.676 57.9079 245.676H57.9003Z" fill="#006BA6"/>
<path d="M49.0426 211.367C49.3002 210.898 49.1336 210.315 48.679 210.05C47.7243 209.49 45.8832 208.703 43.8603 209.339C41.6858 210.012 43.7239 212.32 44.9437 213.486C45.3983 213.917 46.0802 214 46.6181 213.675C47.3985 213.198 48.4744 212.404 49.0502 211.374L49.0426 211.367Z" fill="#F0F9FF"/>
<path d="M15.2058 211.654C13.0313 212.101 10.8568 212.547 8.67478 212.994C8.36414 213.054 8.05349 213.122 7.74285 213.183C7.29584 213.274 6.81852 213.054 6.6973 212.585C6.58365 212.161 6.84125 211.632 7.29584 211.541C9.47031 211.094 11.6448 210.648 13.8268 210.201C14.1375 210.141 14.4481 210.073 14.7587 210.012C15.2058 209.922 15.6831 210.141 15.8043 210.61C15.9179 211.034 15.6604 211.564 15.2058 211.654Z" fill="#F0F9FF"/>
<path d="M16.8118 214.083C14.8267 215.287 12.8417 216.49 10.8566 217.693C10.5687 217.867 10.2884 218.041 10.0005 218.208C9.061 218.775 8.20484 217.307 9.13675 216.74C11.1218 215.536 13.1069 214.333 15.0919 213.13C15.3798 212.956 15.6602 212.782 15.9481 212.615C16.8876 212.048 17.7437 213.516 16.8118 214.083Z" fill="#F0F9FF"/>
<path d="M19.479 215.975C17.9561 217.352 16.4332 218.73 14.9103 220.107L14.2512 220.697C13.9178 220.992 13.3647 221.045 13.0465 220.697C12.7434 220.372 12.6904 219.812 13.0465 219.494C14.5694 218.117 16.0923 216.739 17.6151 215.362L18.2743 214.772C18.6077 214.477 19.1608 214.424 19.479 214.772C19.782 215.097 19.8351 215.657 19.479 215.975Z" fill="#F0F9FF"/>
<path d="M74.7048 216.528C76.8792 216.989 79.0461 217.458 81.2206 217.92C81.5312 217.988 81.8419 218.049 82.1525 218.117C82.5995 218.215 82.8647 218.737 82.7511 219.161C82.6223 219.622 82.1525 219.85 81.7055 219.759C79.531 219.297 77.3641 218.828 75.1897 218.366C74.879 218.298 74.5684 218.238 74.2578 218.17C73.8107 218.071 73.5456 217.549 73.6592 217.125C73.788 216.664 74.2578 216.437 74.7048 216.528Z" fill="#F0F9FF"/>
<path d="M73.4847 219.116C75.4621 220.334 77.4396 221.56 79.4171 222.778L80.2581 223.3C81.19 223.875 80.3339 225.351 79.3944 224.768C77.4169 223.55 75.4394 222.324 73.4619 221.106L72.6209 220.584C71.689 220.009 72.5452 218.533 73.4847 219.116Z" fill="#F0F9FF"/>
<path d="M71.1436 221.257C72.6589 222.65 74.1742 224.042 75.682 225.427C75.8941 225.623 76.1138 225.82 76.326 226.017C76.6518 226.32 76.6518 226.917 76.326 227.22C75.9774 227.546 75.4698 227.546 75.1213 227.22C73.606 225.828 72.0907 224.435 70.5829 223.051C70.3708 222.854 70.1511 222.657 69.9389 222.46C69.6131 222.158 69.6131 221.56 69.9389 221.257C70.2875 220.932 70.7951 220.932 71.1436 221.257Z" fill="#F0F9FF"/>
<path d="M61.6114 218.322C56.2169 217.623 52.3891 212.857 53.0619 207.676C53.7346 202.495 58.6532 198.862 64.0477 199.561C69.4423 200.26 73.27 205.026 72.5973 210.207C71.9245 215.387 67.006 219.021 61.6114 218.322Z" fill="#F0F9FF"/>
<path d="M60.9156 217.731C56.7312 217.731 53.3391 214.343 53.3391 210.164C53.3391 205.985 56.7312 202.597 60.9156 202.597C65.1001 202.597 68.4922 205.985 68.4922 210.164C68.4922 214.343 65.1001 217.731 60.9156 217.731Z" fill="#006BA6"/>
<path d="M27.8028 213.94C22.4083 213.241 18.5805 208.475 19.2533 203.294C19.9261 198.113 24.8446 194.48 30.2391 195.179C35.6337 195.878 39.4615 200.644 38.7887 205.825C38.1159 211.005 33.1974 214.639 27.8028 213.94Z" fill="#F0F9FF"/>
<path d="M30.609 213.947C26.4246 213.947 23.0324 210.559 23.0324 206.38C23.0324 202.201 26.4246 198.813 30.609 198.813C34.7934 198.813 38.1855 202.201 38.1855 206.38C38.1855 210.559 34.7934 213.947 30.609 213.947Z" fill="#006BA6"/>
<path d="M101.465 193.062C101.465 193.062 95.7824 198.003 89.7212 200.274C89.7212 200.274 91.2365 241.136 63.9609 243.407C63.9609 243.407 91.2365 244.92 90.4788 201.03C90.4788 201.03 97.2977 197.966 101.465 193.062Z" fill="#F0F9FF"/>
<path d="M36.6853 177.572C36.6853 177.572 69.2645 178.328 101.465 186.773C101.465 186.773 66.2339 179.842 36.6853 177.572Z" fill="#F0F9FF"/>
</g>
<defs>
<clipPath id="clip0_155_9717">
<rect width="145" height="281" fill="white" transform="matrix(-1 0 0 1 145 0)"/>
</clipPath>
</defs>
</svg>
