<svg width="44" height="39" viewBox="0 0 44 39" fill="none" xmlns="http://www.w3.org/2000/svg">
<path d="M22.3452 13.5825C19.9996 13.742 18.3383 14.8313 17.8424 15.2134C17.1639 15.7083 15.9948 17.1889 13.726 20.1196C12.7767 21.3633 12.5829 21.622 12.078 22.1741C10.4523 23.9366 9.69199 24.0523 8.79099 25.0259C7.34153 26.6038 6.60667 29.1813 7.13381 31.5987C7.18318 31.8842 7.954 35.1497 10.7981 36.5405C14.0956 38.1569 18.488 36.3667 19.819 35.355C19.9995 35.2182 20.5847 34.7557 21.4559 34.5336C21.6449 34.4927 22.4705 34.2988 23.5037 34.5455C24.5846 34.7879 24.8421 35.2483 25.9507 35.8023C27.0093 36.3367 27.9124 36.4741 28.8176 36.6355C30.0897 36.861 31.3857 37.0844 32.9132 36.6593C33.4303 36.5168 35.262 35.9922 36.5967 34.2071C38.2995 31.9546 37.9268 29.3786 37.8584 28.8773C37.5345 26.8526 36.7063 25.1141 34.614 23.5118C32.9878 22.2788 33.0011 22.1568 31.7577 20.6242C30.2415 18.7293 30.3816 18.1371 28.9126 16.5037C28.0589 15.5647 27.1553 14.6059 25.6582 14.0138C24.2369 13.4633 23.0163 13.5472 22.393 13.5783L22.3452 13.5825Z" fill="#C37C0B"/>
<path d="M7.06917 22.4497C9.8665 22.2019 11.8794 19.125 11.5652 15.5772C11.251 12.0294 8.72854 9.35415 5.93121 9.60191C3.13388 9.84968 1.12095 12.9266 1.43519 16.4744C1.74943 20.0222 4.27184 22.6974 7.06917 22.4497Z" fill="#C37C0B"/>
<path d="M16.3973 13.3125C19.1946 13.0647 21.2076 9.98777 20.8933 6.43996C20.5791 2.89215 18.0567 0.216938 15.2594 0.464706C12.462 0.712474 10.4491 3.7894 10.7633 7.33721C11.0776 10.885 13.6 13.5602 16.3973 13.3125Z" fill="#C37C0B"/>
<path d="M33.2096 7.1235C33.4475 3.57003 31.3688 0.535038 28.5668 0.34465C25.7648 0.154263 23.3004 2.88058 23.0625 6.43404C22.8247 9.98751 24.9033 13.0225 27.7054 13.2129C30.5074 13.4033 32.9718 10.677 33.2096 7.1235Z" fill="#C37C0B"/>
<path d="M42.7028 16.0424C42.9407 12.489 40.862 9.45398 38.06 9.2636C35.2579 9.07321 32.7936 11.7995 32.5557 15.353C32.3178 18.9065 34.3965 21.9414 37.1985 22.1318C40.0006 22.3222 42.4649 19.5959 42.7028 16.0424Z" fill="#C37C0B"/>
</svg>
