<svg width="161" height="95" viewBox="0 0 161 95" fill="none" xmlns="http://www.w3.org/2000/svg">
<path d="M30.3082 87.436C46.425 87.436 59.4904 74.8437 59.4904 59.3103C59.4904 43.7769 46.425 31.1846 30.3082 31.1846C14.1913 31.1846 1.12598 43.7769 1.12598 59.3103C1.12598 74.8437 14.1913 87.436 30.3082 87.436Z" fill="#E25182"/>
<path d="M25.2875 29.2062C19.1114 30.5145 13.9835 33.2639 9.53131 37.6692C2.70466 44.4194 -0.699192 54.2412 0.582778 63.5701C1.81423 72.7347 6.68319 80.5973 14.1666 85.4956C17.0463 87.4106 24.2455 91.0765 27.542 92.3342C35.8401 95.5007 44.7129 95.8673 52.3794 93.3581C53.4783 93.0168 56.8821 91.443 59.9702 89.9009C68.5019 85.603 74.1792 83.9281 79.3387 84.1367C81.4858 84.2125 82.0858 84.3452 83.393 85.0026C85.458 86.0517 86.4053 87.2526 86.639 89.2435C86.7463 90.0841 86.98 91.0259 87.1379 91.3419C87.8199 92.5744 89.9102 92.3911 90.5417 91.0828C90.9585 90.1916 90.6175 87.7014 89.8344 85.8685C88.3188 82.3038 83.8919 80.0537 78.5051 80.1043C72.5878 80.1295 66.7274 81.9625 57.621 86.6269C52.8846 89.035 50.2954 90.0083 46.8916 90.6593C44.9528 91.0512 37.9936 91.0512 36.8126 90.6846C36.3074 90.5287 36.4822 90.3896 37.3368 90.2674C39.4018 89.9514 42.6226 88.8517 45.1107 87.6192C51.729 84.3452 57.021 78.8212 59.926 72.1659C62.9888 65.1186 63.3551 57.2624 60.9743 50.0319C57.3368 38.9775 47.782 30.8558 36.1622 28.9471C33.3646 28.473 28.1546 28.6058 25.3002 29.2062H25.2875ZM32.2531 32.4801C32.7773 32.4801 33.0109 32.6887 34.3497 34.3131C36.2064 36.5126 38.1451 39.5274 39.4524 42.2767L40.6586 44.767L39.6923 45.9426C39.1429 46.6252 38.6188 47.1498 38.5177 47.1498C38.3851 47.1498 38.0441 46.2839 37.7347 45.2347C36.56 41.2528 34.6466 36.8791 32.6068 33.5799C32.1331 32.8214 32.0321 32.4801 32.2658 32.4801H32.2531ZM27.6999 33.5799C29.2976 35.337 32.2279 41.019 33.3772 44.6595C34.2171 47.2509 34.8171 50.1583 34.6087 50.4743C34.5329 50.607 33.7435 51.2075 32.8531 51.7826L31.2806 52.8571L30.9648 49.9497C30.3902 44.5521 29.2661 40.4944 27.0937 35.9121C26.4685 34.5785 25.9443 33.346 25.9443 33.2386C25.9443 32.7646 27.1758 33.03 27.6999 33.5799ZM39.3703 33.7885C40.5449 33.839 45.837 36.4873 45.837 37.0119C45.837 37.3784 43.6898 41.1264 43.4814 41.1264C43.4056 41.1264 42.9573 40.3427 42.4584 39.3694C41.9847 38.4276 41.0438 36.778 40.3365 35.7035C39.6544 34.6544 39.2124 33.7885 39.3703 33.7885ZM21.9658 34.6544C22.3321 35.0968 23.9045 38.2949 23.7972 38.3707C23.7467 38.396 22.7741 38.2949 21.6248 38.08C20.4754 37.8967 18.8272 37.7387 17.9367 37.7387C17.0716 37.7134 16.2632 37.6313 16.1559 37.5301C16.0801 37.4227 16.5474 37.0055 17.2294 36.5884C19.3766 35.2548 21.6816 34.3067 21.9658 34.648V34.6544ZM49.3103 39.2872C49.3103 39.2872 49.9923 39.9445 50.7249 40.7283L52.1142 42.1693L50.9901 44.2108C45.0223 55.183 34.7918 62.6537 22.7489 64.8532C19.0608 65.5358 11.9689 65.4789 8.483 64.7457C4.82023 63.9873 4.42869 63.8293 4.42869 62.9128V62.1796L5.79276 62.3629C8.07252 62.679 13.2762 62.6221 16.238 62.2302C29.5313 60.4479 41.309 52.6927 48.142 41.1707C48.7672 40.1468 49.2913 39.2872 49.3166 39.2872H49.3103ZM11.1606 41.5499L15.2149 41.5752C17.4378 41.5752 19.5597 41.651 19.926 41.7079C21.1575 41.8912 24.7697 42.5991 25.2118 42.7318C25.578 42.8393 26.0201 44.2234 26.6011 47.0802C26.7084 47.6807 26.759 47.706 23.7719 46.6378C20.5765 45.4875 15.6822 44.4889 11.9942 44.2297L9.19661 44.0212L10.1628 42.7887L11.1543 41.5562L11.1606 41.5499ZM54.7602 46.1006C54.836 46.1006 55.3349 47.017 55.8591 48.1168L56.8253 50.133L56.0169 51.5993C53.2446 56.5229 48.6914 61.7119 44.3466 64.7773C39.7681 68.026 33.7182 70.5921 28.0409 71.6665C24.2708 72.3744 17.8104 72.3239 13.9077 71.5338C8.96295 70.5668 5.21808 69.1258 5.90011 68.4431C5.95063 68.3926 7.1063 68.5506 8.43879 68.8097C11.9689 69.4671 19.9007 69.467 23.4625 68.7844C29.0135 67.7605 35.4486 65.1945 39.8186 62.2618C45.4202 58.5454 50.2639 53.4891 53.453 48.0662C54.0782 46.9918 54.6844 46.1006 54.7602 46.1006ZM6.83475 48.1926L9.24081 48.2432C14.9749 48.3506 19.8376 49.3429 24.8897 51.4666L27.1947 52.4336V53.7166C27.1947 54.5552 26.7926 55.1577 25.9885 55.5243C25.3065 55.815 24.6245 56.0489 24.4729 56.0489C24.3213 56.0489 22.9825 55.5243 21.5427 54.8986C16.8316 52.8002 12.3036 51.5993 7.75044 51.1822C6.65161 51.0747 5.73592 50.9483 5.73592 50.8914C5.73592 50.8346 5.99484 50.1836 6.28533 49.4757L6.83475 48.1926ZM6.02641 55.0313C6.68319 55.0566 7.57362 55.1387 8.01568 55.1893C12.0447 55.7139 18.5114 57.4962 17.8041 57.8881C17.021 58.3305 11.6532 58.7287 8.67245 58.5707C4.58657 58.3368 4.48552 58.3116 4.48552 57.1297C4.48552 56.6051 4.56131 55.9225 4.6434 55.5812C4.80128 55.0818 4.95916 55.006 6.03273 55.0313H6.02641ZM58.1641 56.0805C58.2399 56.0552 58.3977 56.9211 58.4798 57.9387C58.6882 60.53 58.2209 64.8532 57.4315 67.4192C57.3242 67.7858 57.0653 67.3687 56.4653 65.8455C55.9917 64.7204 55.316 63.1972 54.9497 62.4957L54.2929 61.1873L56.1496 58.6465C57.1726 57.2308 58.0883 56.0805 58.1641 56.0805ZM49.7587 65.5358L51.3059 64.1453L51.83 65.1945C52.5878 66.6355 53.5604 69.2838 54.2108 71.6349L54.7602 73.6259L53.5288 75.3577L52.2721 77.1147L51.4637 74.6245C50.9901 73.2593 50.0744 70.9839 49.3987 69.5935C48.7419 68.203 48.1925 67.0274 48.1925 67.0021C48.1925 66.9768 48.8998 66.2942 49.765 65.5358H49.7587ZM45.5465 71.6349C45.7043 71.2178 45.8622 71.4011 46.4369 72.6588C47.0937 74.0493 48.4262 78.0565 48.8177 79.6808C48.9503 80.3065 48.8177 80.5214 47.6115 81.4379C46.8537 82.013 46.1969 82.4049 46.1464 82.3038C46.1211 82.1963 45.5717 80.8374 44.9402 79.2636L43.7909 76.4068L44.5739 74.2832C44.9907 73.1076 45.4391 71.9257 45.5401 71.6349H45.5465ZM39.8692 71.9762C40.7091 71.5844 41.3848 71.2936 41.3848 71.3758C41.3848 71.7677 39.9449 75.1996 39.0293 77.0326C37.6399 79.7819 35.7833 82.5313 33.6361 84.9962L31.9374 86.9619L29.9228 86.8039C28.824 86.6964 27.8262 86.57 27.7252 86.4626C27.6178 86.3867 28.1988 85.5461 28.9819 84.6044C30.9712 82.2722 33.352 78.6822 34.716 75.9581C35.7896 73.8092 35.9222 73.6511 37.1221 73.2087C37.8041 72.9496 39.0608 72.3997 39.8692 71.9762ZM9.63867 74.6751C10.7122 75.0669 15.5812 75.9328 17.8799 76.1161C19.1619 76.2235 20.1849 76.3499 20.1849 76.4068C20.1849 76.5901 18.0125 79.3648 16.8632 80.6794L15.8149 81.8297L15.057 81.3304C13.933 80.6225 10.4217 77.0326 9.58815 75.7495C8.77981 74.517 8.77981 74.3338 9.63867 74.6751ZM28.483 75.5915C29.6576 75.4082 30.3965 75.3577 30.3965 75.5157C30.3965 76.1414 26.759 81.1724 24.8202 83.1886L22.6731 85.4387L21.1006 84.7561C20.2607 84.3642 19.5029 84.0229 19.4524 83.9723C19.4018 83.8965 20.1344 82.9232 21.1006 81.7981C22.0416 80.6731 23.3804 78.8907 24.0308 77.8416C25.0223 76.3247 25.3633 75.9581 25.9127 75.9581C26.279 75.9328 27.4599 75.7748 28.4767 75.5915H28.483ZM39.9955 83.2139L41.3595 81.1724L41.7258 82.0636C41.9342 82.5629 42.1994 83.3213 42.2752 83.7638C42.4584 84.5222 42.4078 84.5728 41.069 85.0721C38.9724 85.8305 38.1641 85.9885 38.423 85.5967C38.5304 85.4134 39.2313 84.3389 39.9955 83.2139Z" fill="#AD235C"/>
<path d="M154.726 48.9907C154.726 48.9907 137.68 52.2594 126.273 54.277C126.273 54.277 119.628 55.5901 114.683 67.9225C113.341 71.269 109.858 73.3347 106.313 72.7054C105.26 72.515 104.097 72.1305 102.83 71.4726C98.4289 69.1818 98.3704 65.9197 98.999 63.7097C99.3093 62.6188 99.8669 61.6175 100.569 60.7281C101.381 59.6896 102.701 57.731 99.583 59.356C96.4653 60.9809 91.0957 62.5963 88.3752 63.3772C86.2046 64.0004 83.8492 63.3329 82.39 61.6096C81.4401 60.4876 80.5683 58.8044 80.0572 56.2765C78.464 48.3919 90.6757 43.5614 90.6757 43.5614C90.6757 43.5614 75.4864 45.0341 76.7664 34.3018C78.0464 23.5695 94.1796 27.5581 94.1796 27.5581C94.1796 27.5581 95.4484 27.1558 92.336 24.9041C91.6903 24.433 91.1558 23.9113 90.7207 23.3734C88.9284 21.1628 89.1835 17.9465 91.1646 15.8988C93.2929 13.7026 96.7379 11.7094 100.999 14.8169C108.294 20.1347 116.793 18.8963 116.793 18.8963C116.793 18.8963 132.397 13.1568 144.869 9.29557C144.869 9.29557 147.72 7.58624 151.87 25.3048C152.254 26.9524 152.668 28.5922 153.121 30.2265C154.557 35.3532 157.691 47.7858 154.721 48.992L154.726 48.9907Z" fill="#6E3915"/>
<path d="M105.975 66.7288C105.975 66.7288 110.631 68.5978 112.371 63.4567C114.11 58.3155 111.037 56.5414 111.037 56.5414C111.037 56.5414 105.418 54.9563 104.289 60.4378C103.161 65.9193 105.975 66.7288 105.975 66.7288Z" fill="#FCE7EB"/>
<path d="M85.9544 55.9897C85.9544 55.9897 87.1232 60.3517 92.6795 57.824C98.2357 55.2963 96.5823 51.0641 96.5823 51.0641C96.5823 51.0641 94.4441 46.9619 89.5024 49.8444C84.5607 52.7269 85.9544 55.9897 85.9544 55.9897Z" fill="#FCE7EB"/>
<path d="M87.5586 39.6801C87.5586 39.6801 92.8863 41.1459 94.7554 36.4894C96.6245 31.8329 89.2668 31.0304 89.2668 31.0304C89.2668 31.0304 85.4075 30.6827 83.8933 34.7247C82.379 38.7667 87.5586 39.6801 87.5586 39.6801Z" fill="#FCE7EB"/>
<path d="M96.0002 23.6886C96.0002 23.6886 99.8172 26.302 102.206 23.5842C104.594 20.8663 99.6781 18.0279 99.6781 18.0279C99.6781 18.0279 96.1285 16.4129 94.5755 18.3718C93.0226 20.3307 96.0002 23.6886 96.0002 23.6886Z" fill="#FCE7EB"/>
<path d="M108.57 47.3329C108.57 47.3329 101.655 47.835 100.09 42.4001C98.4079 36.5497 104.934 33.7622 104.934 33.7622C104.934 33.7622 103.375 27.9462 107.532 25.8766C109.493 24.8991 111.395 25.6363 112.636 25.927C114.514 26.364 115.832 28.1614 115.505 30.062C115.351 30.9397 114.853 31.738 113.639 32.0323C113.639 32.0323 117.929 31.8384 119.098 36.2004C120.267 40.5624 117.878 43.2803 117.878 43.2803C117.878 43.2803 120.983 44.8067 120.472 48.1125C120.217 49.7599 119.124 51.1487 117.66 51.9463C115.867 52.9306 113.028 53.9095 110.959 51.9081C107.994 49.0405 108.573 47.3268 108.573 47.3268L108.57 47.3329Z" fill="#FCE7EB"/>
</svg>
