<svg width="19" height="18" viewBox="0 0 19 18" fill="none" xmlns="http://www.w3.org/2000/svg">
<path d="M9.65505 6.57436C8.60064 6.64604 7.85385 7.1357 7.63093 7.30748C7.32592 7.52996 6.80037 8.19551 5.78053 9.51296C5.35378 10.072 5.26667 10.1883 5.03969 10.4365C4.30889 11.2288 3.96712 11.2808 3.5621 11.7185C2.91053 12.4277 2.58019 13.5864 2.81716 14.6731C2.83935 14.8014 3.18585 16.2693 4.46435 16.8945C5.94667 17.6211 7.92113 16.8164 8.51947 16.3616C8.60062 16.3001 8.86364 16.0922 9.25529 15.9924C9.34025 15.974 9.71137 15.8868 10.1758 15.9977C10.6617 16.1067 10.7775 16.3136 11.2758 16.5627C11.7517 16.8029 12.1576 16.8647 12.5646 16.9372C13.1364 17.0386 13.719 17.139 14.4056 16.9479C14.6381 16.8839 15.4614 16.6481 16.0615 15.8456C16.8269 14.833 16.6594 13.6751 16.6286 13.4497C16.483 12.5396 16.1107 11.7581 15.1702 11.0378C14.4392 10.4836 14.4451 10.4287 13.8862 9.73979C13.2046 8.88796 13.2676 8.62175 12.6073 7.8875C12.2235 7.46539 11.8173 7.03441 11.1443 6.76824C10.5054 6.52076 9.95672 6.5585 9.67653 6.57246L9.65505 6.57436Z" fill="#C37C0B"/>
<path d="M2.78838 10.5599C4.04585 10.4485 4.95072 9.06539 4.80946 7.47056C4.6682 5.87573 3.53431 4.67316 2.27684 4.78454C1.01937 4.89592 0.114513 6.27907 0.255771 7.87389C0.39703 9.46872 1.53092 10.6713 2.78838 10.5599Z" fill="#C37C0B"/>
<path d="M6.98163 6.45274C8.2391 6.34136 9.14396 4.95821 9.0027 3.36338C8.86144 1.76856 7.72755 0.565983 6.47009 0.677361C5.21262 0.788739 4.30775 2.17189 4.44901 3.76672C4.59027 5.36154 5.72416 6.56412 6.98163 6.45274Z" fill="#C37C0B"/>
<path d="M14.5393 3.67044C14.6463 2.07307 13.7119 0.708767 12.4523 0.623183C11.1927 0.537599 10.0849 1.76314 9.97798 3.36051C9.87105 4.95788 10.8055 6.32219 12.065 6.40777C13.3246 6.49335 14.4324 5.26781 14.5393 3.67044Z" fill="#C37C0B"/>
<path d="M18.8064 7.68033C18.9133 6.08296 17.9789 4.71865 16.7193 4.63307C15.4597 4.54749 14.3519 5.77303 14.245 7.3704C14.1381 8.96777 15.0725 10.3321 16.3321 10.4177C17.5917 10.5032 18.6994 9.2777 18.8064 7.68033Z" fill="#C37C0B"/>
</svg>
