<svg width="39" height="38" viewBox="0 0 39 38" fill="none" xmlns="http://www.w3.org/2000/svg">
<path d="M19.9478 0C9.45421 0 0.947754 8.50646 0.947754 19C0.947754 29.4935 9.45421 38 19.9478 38C30.4413 38 38.9478 29.4935 38.9478 19C38.9478 8.50646 30.4413 0 19.9478 0ZM21.2481 23.5026C20.0289 23.4096 19.5183 22.8059 18.5643 22.228C18.0398 24.981 17.3986 27.6213 15.4986 29.0007C14.9108 24.8366 16.3575 21.7134 17.0305 18.3944C15.8845 16.4647 17.167 12.5835 19.5856 13.5375C22.5603 14.7171 17.0087 20.712 20.7355 21.4621C24.6265 22.2419 26.2158 14.7092 23.8032 12.2629C20.3159 8.72615 13.656 12.1818 14.4754 17.2445C14.6733 18.4815 15.9538 18.8575 14.986 20.5655C12.7555 20.0707 12.0885 18.3113 12.1756 15.9659C12.3121 12.1264 15.6253 9.43667 18.9463 9.06656C23.1481 8.59948 27.0906 10.6083 27.6368 14.5627C28.2484 19.0237 25.7388 23.8509 21.2481 23.5026Z" fill="#062F4B"/>
</svg>
