<svg width="1512" height="425" viewBox="0 0 1512 425" fill="none" xmlns="http://www.w3.org/2000/svg">
<g clip-path="url(#clip0_314_2674)">
<rect width="1512" height="425" fill="#FAE68E"/>
<g clip-path="url(#clip1_314_2674)">
<path d="M11.5443 1.95063C12.4578 18.0126 18.1054 29.5922 27.8641 35.4858C41.111 43.5375 66.2759 43.081 79.6889 34.5727C86.167 30.4638 91.3578 23.4081 93.2265 16.2695C94.0985 12.8662 94.7629 4.93891 94.4307 2.15815L94.1816 -5.75483e-05H52.7799H11.4197L11.5443 1.95063Z" fill="#FBF0B2"/>
<path d="M117.602 3.81836C119.264 22.9102 127.112 34.4897 141.314 38.7646C147.501 40.6323 151.737 41.2549 158.63 41.2549C169.593 41.2549 179.643 38.6401 186.412 34.0747C193.014 29.5508 197.873 22.4121 199.575 14.6094C199.908 13.0737 200.281 9.17236 200.364 5.89355L200.572 -3.70294e-06H158.921H117.27L117.602 3.81836Z" fill="#FBF0B2"/>
<path d="M223.328 1.95063C224.242 18.0126 229.889 29.5922 239.648 35.4858C252.895 43.5375 278.06 43.081 291.473 34.5727C297.951 30.4638 303.142 23.4081 305.011 16.2695C305.883 12.8662 306.547 4.93891 306.215 2.15815L305.966 -5.75483e-05H264.564H223.204L223.328 1.95063Z" fill="#FBF0B2"/>
<path d="M329.386 3.81836C331.047 22.9102 338.896 34.4897 353.098 38.7646C359.285 40.6323 363.521 41.2549 370.414 41.2549C381.377 41.2549 391.427 38.6401 398.195 34.0747C404.798 29.5508 409.657 22.4121 411.359 14.6094C411.692 13.0737 412.065 9.17236 412.148 5.89355L412.356 -3.70294e-06H370.705H329.054L329.386 3.81836Z" fill="#FBF0B2"/>
<path d="M435.112 1.95063C436.026 18.0126 441.674 29.5922 451.432 35.4858C464.679 43.5375 489.844 43.081 503.257 34.5727C509.735 30.4638 514.926 23.4081 516.795 16.2695C517.667 12.8662 518.331 4.93891 517.999 2.15815L517.75 -5.75483e-05H476.348H434.988L435.112 1.95063Z" fill="#FBF0B2"/>
<path d="M90.3197 66.1157C77.5711 72.2998 68.8921 82.3022 65.8192 94.4214C63.8259 102.307 64.0336 110.649 66.4836 120.361C70.5117 136.299 80.0627 144.268 98.0021 146.716C103.525 147.463 107.844 147.463 113.367 146.716C124.413 145.222 131.971 141.985 137.701 136.34C143.017 131.069 145.965 125.259 147.045 117.788C147.709 113.14 147.294 102.556 146.214 97.9492C143.1 84.4189 135.625 74.126 123.707 66.9458C118.807 64.0405 118.059 64.5801 119.803 69.6021C122.586 77.8198 121.091 83.7549 115.941 85.0415C115.111 85.249 111.249 85.498 107.429 85.6226C97.9605 85.9546 96.0503 85.332 94.0986 81.4722C93.0189 79.3555 93.2265 74.292 94.5139 69.8926C95.8842 65.2441 95.9673 64.5801 94.8876 64.4556C94.4308 64.3726 92.396 65.1611 90.3197 66.1157Z" fill="#FBF0B2"/>
<path d="M196.835 65.8252C183.505 72.0923 174.037 83.2569 171.254 96.0816C169.344 104.839 170.964 119.158 174.826 127.666C178.521 135.884 185.872 142.275 194.551 144.766C205.264 147.92 215.563 148.044 226.692 145.264C240.105 141.86 248.867 133.767 252.148 121.772C252.895 118.992 253.02 117.29 253.061 110.815C253.103 102.722 252.77 100.107 251.026 94.0064C247.995 83.5474 241.392 74.7901 231.8 68.4815C224.74 63.7915 223.91 63.9576 225.695 69.7266C228.311 78.3179 227.19 83.2569 222.249 84.7925C219.3 85.7471 206.967 86.0376 204.309 85.2491C202.067 84.585 200.489 83.0493 199.741 80.6836C198.952 78.3594 199.451 72.6319 200.738 68.5645C201.361 66.6968 201.735 64.9536 201.61 64.7461C201.195 64.0406 200.074 64.2896 196.835 65.8252Z" fill="#FBF0B2"/>
<path d="M302.104 66.1157C289.355 72.2998 280.676 82.3022 277.603 94.4214C275.61 102.307 275.818 110.649 278.268 120.361C282.296 136.299 291.847 144.268 309.786 146.716C315.309 147.463 319.628 147.463 325.151 146.716C336.197 145.222 343.754 141.985 349.485 136.34C354.8 131.069 357.749 125.259 358.829 117.788C359.493 113.14 359.078 102.556 357.998 97.9492C354.884 84.4189 347.409 74.126 335.491 66.9458C330.591 64.0405 329.843 64.5801 331.587 69.6021C334.37 77.8198 332.875 83.7549 327.725 85.0415C326.895 85.249 323.033 85.498 319.212 85.6226C309.744 85.9546 307.834 85.332 305.883 81.4722C304.803 79.3555 305.01 74.292 306.298 69.8926C307.668 65.2441 307.751 64.5801 306.672 64.4556C306.215 64.3726 304.18 65.1611 302.104 66.1157Z" fill="#FBF0B2"/>
<path d="M408.619 65.8252C395.289 72.0923 385.821 83.2569 383.038 96.0816C381.128 104.839 382.748 119.158 386.61 127.666C390.305 135.884 397.656 142.275 406.335 144.766C417.048 147.92 427.347 148.044 438.476 145.264C451.889 141.86 460.651 133.767 463.932 121.772C464.679 118.992 464.804 117.29 464.845 110.815C464.887 102.722 464.554 100.107 462.81 94.0064C459.779 83.5474 453.176 74.7901 443.584 68.4815C436.524 63.7915 435.694 63.9576 437.479 69.7266C440.096 78.3179 438.974 83.2569 434.033 84.7925C431.084 85.7471 418.751 86.0376 416.093 85.2491C413.851 84.585 412.273 83.0493 411.525 80.6836C410.736 78.3594 411.235 72.6319 412.522 68.5645C413.145 66.6968 413.519 64.9536 413.394 64.7461C412.979 64.0406 411.858 64.2896 408.619 65.8252Z" fill="#FBF0B2"/>
<path d="M513.888 66.1157C501.139 72.2998 492.46 82.3022 489.387 94.4214C487.394 102.307 487.602 110.649 490.052 120.361C494.08 136.299 503.631 144.268 521.57 146.716C523.979 147.048 527.176 147.339 528.754 147.339H531.536V116.377V85.415L528.048 85.7056C520.283 86.3281 517.002 83.7134 517.002 76.8652C517.002 74.4995 517.334 72.5073 518.082 69.8926C519.452 65.2441 519.535 64.5801 518.456 64.4556C517.999 64.3726 515.964 65.1611 513.888 66.1157Z" fill="#FBF0B2"/>
<path d="M13.0393 65.7422C12.9147 66.0742 13.2884 67.9004 13.9113 69.8096C15.3647 74.458 15.6969 78.2764 14.7834 80.6421C13.3715 84.3359 10.8384 85.498 4.31873 85.498H0V116.418V147.339H1.37037C7.35015 147.339 17.9809 144.849 23.4208 142.192C32.0168 138 37.955 130.82 40.322 121.772C41.4017 117.539 41.817 109.114 41.1525 103.469C39.2839 87.6147 32.0168 75.9937 18.6038 67.5269C14.7834 65.1196 13.4545 64.7046 13.0393 65.7422Z" fill="#FBF0B2"/>
<path d="M37.4567 171.992C25.7048 177.72 17.2334 186.726 13.7037 197.185C11.6689 203.203 11.0045 212.085 12.0426 219.141C14.5342 235.659 21.3445 245.413 33.5948 249.854C44.184 253.713 57.9292 254.004 69.5565 250.601C78.4431 248.027 84.589 243.711 89.0323 237.029C92.9773 231.094 94.3477 225.823 94.3477 216.443C94.3892 204.863 92.0222 196.106 86.7069 187.93C82.5958 181.663 75.827 175.437 69.4735 172.117C67.148 170.955 66.8158 170.872 66.2344 171.411C65.6946 171.992 65.7361 172.366 66.6497 174.939C69.3489 182.825 68.6429 188.137 64.5734 190.254C63.1615 191.001 61.7911 191.167 55.2299 191.458C46.4679 191.831 44.6823 191.541 42.606 189.465C40.0313 186.892 39.6576 182.991 41.3602 176.558C42.689 171.619 42.7721 170.457 41.9415 170.249C41.6093 170.208 39.5745 170.996 37.4567 171.992Z" fill="#FBF0B2"/>
<path d="M143.722 171.826C132.635 177.18 124.039 185.813 120.385 195.276C116.896 204.282 116.523 214.866 119.388 225.947C121.132 232.837 123.084 236.863 126.697 241.179C133.092 248.816 144.262 252.925 158.63 252.925C165.981 252.925 170.05 252.302 177.151 250.02C195.506 244.209 203.479 228.313 199.492 205.486C197.79 195.691 193.679 187.722 186.702 180.708C181.844 175.852 174.037 170.581 172.583 171.121C171.711 171.453 171.753 172.283 172.915 175.977C174.95 182.368 174.701 186.436 172.126 189.009C170.299 190.876 168.348 191.25 159.876 191.499C150.865 191.748 149.453 191.333 147.335 187.805C146.505 186.353 146.38 185.647 146.422 182.41C146.463 179.836 146.795 177.803 147.418 175.769C148.581 172.241 148.706 170.457 147.834 170.249C147.501 170.208 145.633 170.913 143.722 171.826Z" fill="#FBF0B2"/>
<path d="M249.241 171.992C237.489 177.72 229.017 186.726 225.488 197.185C223.453 203.203 222.789 212.085 223.827 219.141C226.318 235.659 233.129 245.413 245.379 249.854C255.968 253.713 269.713 254.004 281.341 250.601C290.227 248.027 296.373 243.711 300.816 237.029C304.761 231.094 306.132 225.823 306.132 216.443C306.173 204.863 303.806 196.106 298.491 187.93C294.38 181.663 287.611 175.437 281.258 172.117C278.932 170.955 278.6 170.872 278.018 171.411C277.479 171.992 277.52 172.366 278.434 174.939C281.133 182.825 280.427 188.137 276.357 190.254C274.946 191.001 273.575 191.167 267.014 191.458C258.252 191.831 256.466 191.541 254.39 189.465C251.815 186.892 251.442 182.991 253.144 176.558C254.473 171.619 254.556 170.457 253.726 170.249C253.393 170.208 251.359 170.996 249.241 171.992Z" fill="#FBF0B2"/>
<path d="M355.506 171.826C344.419 177.18 335.823 185.813 332.169 195.276C328.681 204.282 328.307 214.866 331.172 225.947C332.916 232.837 334.868 236.863 338.481 241.179C344.876 248.816 356.046 252.925 370.414 252.925C377.765 252.925 381.834 252.302 388.935 250.02C407.29 244.209 415.263 228.313 411.276 205.486C409.574 195.691 405.463 187.722 398.486 180.708C393.628 175.852 385.821 170.581 384.367 171.121C383.495 171.453 383.537 172.283 384.699 175.977C386.734 182.368 386.485 186.436 383.91 189.009C382.083 190.876 380.132 191.25 371.66 191.499C362.649 191.748 361.237 191.333 359.119 187.805C358.289 186.353 358.164 185.647 358.206 182.41C358.247 179.836 358.579 177.803 359.202 175.769C360.365 172.241 360.49 170.457 359.618 170.249C359.285 170.208 357.417 170.913 355.506 171.826Z" fill="#FBF0B2"/>
<path d="M461.025 171.992C449.273 177.72 440.802 186.726 437.272 197.185C435.237 203.203 434.573 212.085 435.611 219.141C438.102 235.659 444.913 245.413 457.163 249.854C467.752 253.713 481.497 254.004 493.125 250.601C502.011 248.027 508.157 243.711 512.6 237.029C516.545 231.094 517.916 225.823 517.916 216.443C517.957 204.863 515.59 196.106 510.275 187.93C506.164 181.663 499.395 175.437 493.042 172.117C490.716 170.955 490.384 170.872 489.803 171.411C489.263 171.992 489.304 172.366 490.218 174.939C492.917 182.825 492.211 188.137 488.141 190.254C486.73 191.001 485.359 191.167 478.798 191.458C470.036 191.831 468.25 191.541 466.174 189.465C463.599 186.892 463.226 182.991 464.928 176.558C466.257 171.619 466.34 170.457 465.51 170.249C465.177 170.208 463.143 170.996 461.025 171.992Z" fill="#FBF0B2"/>
<path d="M90.3197 277.786C77.5711 283.97 68.8921 293.972 65.8192 306.091C63.8259 313.977 64.0336 322.319 66.4836 332.031C70.5117 347.969 80.0627 355.938 98.0021 358.386C103.525 359.133 107.844 359.133 113.367 358.386C124.413 356.892 131.971 353.655 137.701 348.01C143.017 342.739 145.965 336.929 147.045 329.458C147.709 324.81 147.294 314.226 146.214 309.619C143.1 296.089 135.625 285.796 123.707 278.616C118.807 275.71 118.059 276.25 119.803 281.272C122.586 289.49 121.091 295.425 115.941 296.711C115.111 296.919 111.249 297.168 107.429 297.292C97.9605 297.625 96.0503 297.002 94.0986 293.142C93.0189 291.025 93.2265 285.962 94.5139 281.562C95.8842 276.914 95.9673 276.25 94.8876 276.125C94.4308 276.042 92.396 276.831 90.3197 277.786Z" fill="#FBF0B2"/>
<path d="M196.835 277.495C183.505 283.762 174.037 294.927 171.254 307.751C169.344 316.509 170.964 330.828 174.826 339.336C178.521 347.554 185.872 353.945 194.551 356.436C205.264 359.59 215.563 359.714 226.692 356.934C240.105 353.53 248.867 345.437 252.148 333.442C252.895 330.662 253.02 328.96 253.061 322.485C253.103 314.392 252.77 311.777 251.026 305.676C247.995 295.217 241.392 286.46 231.8 280.151C224.74 275.461 223.91 275.627 225.695 281.396C228.311 289.988 227.19 294.927 222.249 296.462C219.3 297.417 206.967 297.707 204.309 296.919C202.067 296.255 200.489 294.719 199.741 292.353C198.952 290.029 199.451 284.302 200.738 280.234C201.361 278.367 201.735 276.624 201.61 276.416C201.195 275.71 200.074 275.959 196.835 277.495Z" fill="#FBF0B2"/>
<path d="M302.104 277.786C289.355 283.97 280.676 293.972 277.603 306.091C275.61 313.977 275.818 322.319 278.268 332.031C282.296 347.969 291.847 355.938 309.786 358.386C315.309 359.133 319.628 359.133 325.151 358.386C336.197 356.892 343.754 353.655 349.485 348.01C354.8 342.739 357.749 336.929 358.829 329.458C359.493 324.81 359.078 314.226 357.998 309.619C354.884 296.089 347.409 285.796 335.491 278.616C330.591 275.71 329.843 276.25 331.587 281.272C334.37 289.49 332.875 295.425 327.725 296.711C326.895 296.919 323.033 297.168 319.212 297.292C309.744 297.625 307.834 297.002 305.883 293.142C304.803 291.025 305.01 285.962 306.298 281.562C307.668 276.914 307.751 276.25 306.672 276.125C306.215 276.042 304.18 276.831 302.104 277.786Z" fill="#FBF0B2"/>
<path d="M408.619 277.495C395.289 283.762 385.821 294.927 383.038 307.751C381.128 316.509 382.748 330.828 386.61 339.336C390.305 347.554 397.656 353.945 406.335 356.436C417.048 359.59 427.347 359.714 438.476 356.934C451.889 353.53 460.651 345.437 463.932 333.442C464.679 330.662 464.804 328.96 464.845 322.485C464.887 314.392 464.554 311.777 462.81 305.676C459.779 295.217 453.176 286.46 443.584 280.151C436.524 275.461 435.694 275.627 437.479 281.396C440.096 289.988 438.974 294.927 434.033 296.462C431.084 297.417 418.751 297.707 416.093 296.919C413.851 296.255 412.273 294.719 411.525 292.353C410.736 290.029 411.235 284.302 412.522 280.234C413.145 278.367 413.519 276.624 413.394 276.416C412.979 275.71 411.858 275.959 408.619 277.495Z" fill="#FBF0B2"/>
<path d="M513.888 277.786C501.139 283.97 492.46 293.972 489.387 306.091C487.394 313.977 487.602 322.319 490.052 332.031C494.08 347.969 503.631 355.938 521.57 358.386C523.979 358.718 527.176 359.009 528.754 359.009H531.536V328.047V297.085L528.048 297.375C520.283 297.998 517.002 295.383 517.002 288.535C517.002 286.169 517.334 284.177 518.082 281.562C519.452 276.914 519.535 276.25 518.456 276.125C517.999 276.042 515.964 276.831 513.888 277.786Z" fill="#FBF0B2"/>
<path d="M13.0393 277.412C12.9147 277.744 13.2884 279.57 13.9113 281.479C15.3647 286.128 15.6969 289.946 14.7834 292.312C13.3715 296.006 10.8384 297.168 4.31873 297.168H0V328.088V359.009H1.37037C7.35015 359.009 17.9809 356.519 23.4208 353.862C32.0168 349.67 37.955 342.49 40.322 333.442C41.4017 329.209 41.817 320.784 41.1525 315.139C39.2839 299.285 32.0168 287.664 18.6038 279.197C14.7834 276.79 13.4545 276.375 13.0393 277.412Z" fill="#FBF0B2"/>
<path d="M37.4567 383.662C21.8844 391.257 12.5825 404.041 11.752 419.065L11.5028 423.34H52.9045H94.2647V422.344C94.2647 420.85 93.0604 414.292 92.3129 411.719C90.4443 405.244 86.4993 398.313 81.8068 393.291C78.7339 390.012 73.1278 385.696 69.4735 383.787C67.148 382.625 66.8158 382.542 66.2344 383.081C65.6946 383.662 65.7361 384.036 66.6497 386.609C69.3489 394.495 68.643 399.807 64.5734 401.924C63.1615 402.671 61.7911 402.837 55.23 403.127C46.4679 403.501 44.6823 403.21 42.606 401.135C40.0314 398.562 39.6576 394.661 41.3602 388.228C42.689 383.289 42.7721 382.126 41.9416 381.919C41.6094 381.877 39.5746 382.666 37.4567 383.662Z" fill="#FBF0B2"/>
<path d="M143.722 383.496C132.635 388.85 124.039 397.483 120.385 406.946C118.724 411.138 117.519 416.907 117.519 420.518V423.34H158.88H200.281L199.991 420.476C198.869 409.353 193.803 398.936 185.706 391.299C181.262 387.107 173.829 382.334 172.583 382.791C171.711 383.123 171.753 383.953 172.915 387.646C174.95 394.038 174.701 398.105 172.126 400.679C170.299 402.546 168.348 402.92 159.876 403.169C150.865 403.418 149.453 403.003 147.335 399.475C146.505 398.022 146.38 397.317 146.422 394.08C146.463 391.506 146.795 389.473 147.418 387.439C148.581 383.911 148.706 382.126 147.834 381.919C147.501 381.877 145.633 382.583 143.722 383.496Z" fill="#FBF0B2"/>
<path d="M249.241 383.662C233.668 391.257 224.367 404.041 223.536 419.065L223.287 423.34H264.689H306.049V422.344C306.049 420.85 304.844 414.292 304.097 411.719C302.228 405.244 298.283 398.313 293.591 393.291C290.518 390.012 284.912 385.696 281.258 383.787C278.932 382.625 278.6 382.542 278.019 383.081C277.479 383.662 277.52 384.036 278.434 386.609C281.133 394.495 280.427 399.807 276.357 401.924C274.946 402.671 273.575 402.837 267.014 403.127C258.252 403.501 256.466 403.21 254.39 401.135C251.815 398.562 251.442 394.661 253.144 388.228C254.473 383.289 254.556 382.126 253.726 381.919C253.393 381.877 251.359 382.666 249.241 383.662Z" fill="#FBF0B2"/>
<path d="M355.507 383.496C344.419 388.85 335.823 397.483 332.169 406.946C330.508 411.138 329.303 416.907 329.303 420.518V423.34H370.664H412.065L411.775 420.476C410.653 409.353 405.587 398.936 397.49 391.299C393.046 387.107 385.613 382.334 384.367 382.791C383.495 383.123 383.537 383.953 384.7 387.646C386.734 394.038 386.485 398.105 383.911 400.679C382.083 402.546 380.132 402.92 371.66 403.169C362.649 403.418 361.237 403.003 359.119 399.475C358.289 398.022 358.164 397.317 358.206 394.08C358.247 391.506 358.579 389.473 359.202 387.439C360.365 383.911 360.49 382.126 359.618 381.919C359.285 381.877 357.417 382.583 355.507 383.496Z" fill="#FBF0B2"/>
<path d="M461.025 383.662C445.452 391.257 436.15 404.041 435.32 419.065L435.071 423.34H476.473H517.833V422.344C517.833 420.85 516.628 414.292 515.881 411.719C514.012 405.244 510.067 398.313 505.375 393.291C502.302 390.012 496.696 385.696 493.041 383.787C490.716 382.625 490.384 382.542 489.802 383.081C489.263 383.662 489.304 384.036 490.218 386.609C492.917 394.495 492.211 399.807 488.141 401.924C486.729 402.671 485.359 402.837 478.798 403.127C470.036 403.501 468.25 403.21 466.174 401.135C463.599 398.562 463.226 394.661 464.928 388.228C466.257 383.289 466.34 382.126 465.51 381.919C465.177 381.877 463.143 382.666 461.025 383.662Z" fill="#FBF0B2"/>
<path d="M11.6273 424.377C11.6273 424.917 16.4859 425 52.946 425C89.406 425 94.2646 424.917 94.2646 424.377C94.2646 423.838 89.406 423.755 52.946 423.755C16.4859 423.755 11.6273 423.838 11.6273 424.377Z" fill="#FBF0B2"/>
<path d="M117.519 424.377C117.519 424.917 122.378 425 158.838 425C195.298 425 200.157 424.917 200.157 424.377C200.157 423.838 195.298 423.755 158.838 423.755C122.378 423.755 117.519 423.838 117.519 424.377Z" fill="#FBF0B2"/>
<path d="M223.411 424.377C223.411 424.917 228.27 425 264.73 425C301.19 425 306.049 424.917 306.049 424.377C306.049 423.838 301.19 423.755 264.73 423.755C228.27 423.755 223.411 423.838 223.411 424.377Z" fill="#FBF0B2"/>
<path d="M329.303 424.377C329.303 424.917 334.162 425 370.622 425C407.082 425 411.941 424.917 411.941 424.377C411.941 423.838 407.082 423.755 370.622 423.755C334.162 423.755 329.303 423.838 329.303 424.377Z" fill="#FBF0B2"/>
<path d="M435.195 424.377C435.195 424.917 440.054 425 476.514 425C512.974 425 517.833 424.917 517.833 424.377C517.833 423.838 512.974 423.755 476.514 423.755C440.054 423.755 435.195 423.838 435.195 424.377Z" fill="#FBF0B2"/>
</g>
<g clip-path="url(#clip2_314_2674)">
<path d="M543.081 1.95063C543.994 18.0126 549.642 29.5922 559.4 35.4858C572.647 43.5375 597.812 43.081 611.225 34.5727C617.703 30.4638 622.894 23.4081 624.763 16.2695C625.635 12.8662 626.299 4.93891 625.967 2.15815L625.718 -5.75483e-05H584.316H542.956L543.081 1.95063Z" fill="#FBF0B2"/>
<path d="M649.139 3.81836C650.8 22.9102 658.648 34.4897 672.85 38.7646C679.038 40.6323 683.273 41.2549 690.167 41.2549C701.13 41.2549 711.179 38.6401 717.948 34.0747C724.551 29.5508 729.409 22.4121 731.112 14.6094C731.444 13.0737 731.818 9.17236 731.901 5.89355L732.108 -3.70294e-06H690.458H648.807L649.139 3.81836Z" fill="#FBF0B2"/>
<path d="M754.865 1.95063C755.778 18.0126 761.426 29.5922 771.185 35.4858C784.432 43.5375 809.596 43.081 823.009 34.5727C829.488 30.4638 834.678 23.4081 836.547 16.2695C837.419 12.8662 838.083 4.93891 837.751 2.15815L837.502 -5.75483e-05H796.1H754.74L754.865 1.95063Z" fill="#FBF0B2"/>
<path d="M860.923 3.81836C862.584 22.9102 870.432 34.4897 884.634 38.7646C890.822 40.6323 895.057 41.2549 901.951 41.2549C912.914 41.2549 922.963 38.6401 929.732 34.0747C936.335 29.5508 941.193 22.4121 942.896 14.6094C943.228 13.0737 943.602 9.17236 943.685 5.89355L943.892 -3.70294e-06H902.241H860.591L860.923 3.81836Z" fill="#FBF0B2"/>
<path d="M966.649 1.95063C967.562 18.0126 973.21 29.5922 982.969 35.4858C996.215 43.5375 1021.38 43.081 1034.79 34.5727C1041.27 30.4638 1046.46 23.4081 1048.33 16.2695C1049.2 12.8662 1049.87 4.93891 1049.54 2.15815L1049.29 -5.75483e-05H1007.88H966.524L966.649 1.95063Z" fill="#FBF0B2"/>
<path d="M621.856 66.1157C609.108 72.2998 600.429 82.3022 597.356 94.4214C595.362 102.307 595.57 110.649 598.02 120.361C602.048 136.299 611.599 144.268 629.538 146.716C635.061 147.463 639.38 147.463 644.903 146.716C655.949 145.222 663.507 141.985 669.238 136.34C674.553 131.069 677.501 125.259 678.581 117.788C679.245 113.14 678.83 102.556 677.75 97.9492C674.636 84.4189 667.161 74.126 655.243 66.9458C650.343 64.0405 649.596 64.5801 651.34 69.6021C654.122 77.8198 652.627 83.7549 647.478 85.0415C646.647 85.249 642.785 85.498 638.965 85.6226C629.497 85.9546 627.587 85.332 625.635 81.4722C624.555 79.3555 624.763 74.292 626.05 69.8926C627.421 65.2441 627.504 64.5801 626.424 64.4556C625.967 64.3726 623.932 65.1611 621.856 66.1157Z" fill="#FBF0B2"/>
<path d="M728.371 65.8252C715.041 72.0923 705.573 83.2569 702.791 96.0816C700.881 104.839 702.5 119.158 706.362 127.666C710.058 135.884 717.408 142.275 726.087 144.766C736.801 147.92 747.099 148.044 758.228 145.264C771.641 141.86 780.403 133.767 783.684 121.772C784.431 118.992 784.556 117.29 784.597 110.815C784.639 102.722 784.307 100.107 782.563 94.0064C779.531 83.5474 772.929 74.7901 763.336 68.4815C756.277 63.7915 755.446 63.9576 757.232 69.7266C759.848 78.3179 758.727 83.2569 753.785 84.7925C750.837 85.7471 738.503 86.0376 735.846 85.2491C733.603 84.585 732.025 83.0493 731.278 80.6836C730.489 78.3594 730.987 72.6319 732.274 68.5645C732.897 66.6968 733.271 64.9536 733.146 64.7461C732.731 64.0406 731.61 64.2896 728.371 65.8252Z" fill="#FBF0B2"/>
<path d="M833.64 66.1157C820.892 72.2998 812.213 82.3022 809.14 94.4214C807.146 102.307 807.354 110.649 809.804 120.361C813.832 136.299 823.383 144.268 841.323 146.716C846.845 147.463 851.164 147.463 856.687 146.716C867.733 145.222 875.291 141.985 881.022 136.34C886.337 131.069 889.285 125.259 890.365 117.788C891.029 113.14 890.614 102.556 889.535 97.9492C886.42 84.4189 878.945 74.126 867.027 66.9458C862.127 64.0405 861.38 64.5801 863.124 69.6021C865.906 77.8198 864.411 83.7549 859.262 85.0415C858.431 85.249 854.569 85.498 850.749 85.6226C841.281 85.9546 839.371 85.332 837.419 81.4722C836.339 79.3555 836.547 74.292 837.834 69.8926C839.205 65.2441 839.288 64.5801 838.208 64.4556C837.751 64.3726 835.716 65.1611 833.64 66.1157Z" fill="#FBF0B2"/>
<path d="M940.155 65.8252C926.825 72.0923 917.357 83.2569 914.575 96.0816C912.665 104.839 914.284 119.158 918.146 127.666C921.842 135.884 929.192 142.275 937.871 144.766C948.585 147.92 958.883 148.044 970.012 145.264C983.425 141.86 992.188 133.767 995.468 121.772C996.216 118.992 996.34 117.29 996.382 110.815C996.423 102.722 996.091 100.107 994.347 94.0064C991.315 83.5474 984.713 74.7901 975.12 68.4815C968.061 63.7915 967.23 63.9576 969.016 69.7266C971.632 78.3179 970.511 83.2569 965.569 84.7925C962.621 85.7471 950.287 86.0376 947.63 85.2491C945.387 84.585 943.809 83.0493 943.062 80.6836C942.273 78.3594 942.771 72.6319 944.059 68.5645C944.681 66.6968 945.055 64.9536 944.931 64.7461C944.515 64.0406 943.394 64.2896 940.155 65.8252Z" fill="#FBF0B2"/>
<path d="M1045.42 66.1157C1032.68 72.2998 1024 82.3022 1020.92 94.4214C1018.93 102.307 1019.14 110.649 1021.59 120.361C1025.62 136.299 1035.17 144.268 1053.11 146.716C1055.51 147.048 1058.71 147.339 1060.29 147.339H1063.07V116.377V85.415L1059.58 85.7056C1051.82 86.3281 1048.54 83.7134 1048.54 76.8652C1048.54 74.4995 1048.87 72.5073 1049.62 69.8926C1050.99 65.2441 1051.07 64.5801 1049.99 64.4556C1049.54 64.3726 1047.5 65.1611 1045.42 66.1157Z" fill="#FBF0B2"/>
<path d="M544.576 65.7422C544.451 66.0742 544.825 67.9004 545.448 69.8096C546.901 74.458 547.233 78.2764 546.32 80.6421C544.908 84.3359 542.375 85.498 535.855 85.498H531.536V116.418V147.339H532.907C538.887 147.339 549.517 144.849 554.957 142.192C563.553 138 569.491 130.82 571.858 121.772C572.938 117.539 573.353 109.114 572.689 103.469C570.82 87.6147 563.553 75.9937 550.14 67.5269C546.32 65.1196 544.991 64.7046 544.576 65.7422Z" fill="#FBF0B2"/>
<path d="M568.993 171.992C557.241 177.72 548.77 186.726 545.24 197.185C543.205 203.203 542.541 212.085 543.579 219.141C546.071 235.659 552.881 245.413 565.131 249.854C575.72 253.713 589.466 254.004 601.093 250.601C609.98 248.027 616.125 243.711 620.569 237.029C624.514 231.094 625.884 225.823 625.884 216.443C625.926 204.863 623.559 196.106 618.243 187.93C614.132 181.663 607.363 175.437 601.01 172.117C598.684 170.955 598.352 170.872 597.771 171.411C597.231 171.992 597.272 172.366 598.186 174.939C600.885 182.825 600.179 188.137 596.11 190.254C594.698 191.001 593.327 191.167 586.766 191.458C578.004 191.831 576.219 191.541 574.142 189.465C571.568 186.892 571.194 182.991 572.897 176.558C574.225 171.619 574.308 170.457 573.478 170.249C573.146 170.208 571.111 170.996 568.993 171.992Z" fill="#FBF0B2"/>
<path d="M675.259 171.826C664.171 177.18 655.575 185.813 651.921 195.276C648.433 204.282 648.059 214.866 650.924 225.947C652.669 232.837 654.62 236.863 658.233 241.179C664.628 248.816 675.799 252.925 690.167 252.925C697.517 252.925 701.586 252.302 708.687 250.02C727.042 244.209 735.015 228.313 731.029 205.486C729.326 195.691 725.215 187.722 718.238 180.708C713.38 175.852 705.573 170.581 704.12 171.121C703.248 171.453 703.289 172.283 704.452 175.977C706.487 182.368 706.237 186.436 703.663 189.009C701.836 190.876 699.884 191.25 691.413 191.499C682.401 191.748 680.989 191.333 678.872 187.805C678.041 186.353 677.916 185.647 677.958 182.41C678 179.836 678.332 177.803 678.955 175.769C680.117 172.241 680.242 170.457 679.37 170.249C679.038 170.208 677.169 170.913 675.259 171.826Z" fill="#FBF0B2"/>
<path d="M780.777 171.992C769.025 177.72 760.554 186.726 757.024 197.185C754.989 203.203 754.325 212.085 755.363 219.141C757.855 235.659 764.665 245.413 776.915 249.854C787.504 253.713 801.25 254.004 812.877 250.601C821.764 248.027 827.909 243.711 832.353 237.029C836.298 231.094 837.668 225.823 837.668 216.443C837.71 204.863 835.343 196.106 830.027 187.93C825.916 181.663 819.147 175.437 812.794 172.117C810.468 170.955 810.136 170.872 809.555 171.411C809.015 171.992 809.057 172.366 809.97 174.939C812.669 182.825 811.963 188.137 807.894 190.254C806.482 191.001 805.112 191.167 798.55 191.458C789.788 191.831 788.003 191.541 785.926 189.465C783.352 186.892 782.978 182.991 784.681 176.558C786.009 171.619 786.092 170.457 785.262 170.249C784.93 170.208 782.895 170.996 780.777 171.992Z" fill="#FBF0B2"/>
<path d="M887.043 171.826C875.955 177.18 867.36 185.813 863.705 195.276C860.217 204.282 859.843 214.866 862.709 225.947C864.453 232.837 866.404 236.863 870.017 241.179C876.412 248.816 887.583 252.925 901.951 252.925C909.301 252.925 913.371 252.302 920.472 250.02C938.826 244.209 946.799 228.313 942.813 205.486C941.11 195.691 936.999 187.722 930.023 180.708C925.164 175.852 917.357 170.581 915.904 171.121C915.032 171.453 915.073 172.283 916.236 175.977C918.271 182.368 918.022 186.436 915.447 189.009C913.62 190.876 911.668 191.25 903.197 191.499C894.185 191.748 892.774 191.333 890.656 187.805C889.825 186.353 889.701 185.647 889.742 182.41C889.784 179.836 890.116 177.803 890.739 175.769C891.902 172.241 892.026 170.457 891.154 170.249C890.822 170.208 888.953 170.913 887.043 171.826Z" fill="#FBF0B2"/>
<path d="M992.561 171.992C980.809 177.72 972.338 186.726 968.808 197.185C966.773 203.203 966.109 212.085 967.147 219.141C969.639 235.659 976.449 245.413 988.699 249.854C999.288 253.713 1013.03 254.004 1024.66 250.601C1033.55 248.027 1039.69 243.711 1044.14 237.029C1048.08 231.094 1049.45 225.823 1049.45 216.443C1049.49 204.863 1047.13 196.106 1041.81 187.93C1037.7 181.663 1030.93 175.437 1024.58 172.117C1022.25 170.955 1021.92 170.872 1021.34 171.411C1020.8 171.992 1020.84 172.366 1021.75 174.939C1024.45 182.825 1023.75 188.137 1019.68 190.254C1018.27 191.001 1016.9 191.167 1010.33 191.458C1001.57 191.831 999.787 191.541 997.71 189.465C995.136 186.892 994.762 182.991 996.465 176.558C997.793 171.619 997.876 170.457 997.046 170.249C996.714 170.208 994.679 170.996 992.561 171.992Z" fill="#FBF0B2"/>
<path d="M621.856 277.786C609.108 283.97 600.429 293.972 597.356 306.091C595.362 313.977 595.57 322.319 598.02 332.031C602.048 347.969 611.599 355.938 629.538 358.386C635.061 359.133 639.38 359.133 644.903 358.386C655.949 356.892 663.507 353.655 669.238 348.01C674.553 342.739 677.501 336.929 678.581 329.458C679.245 324.81 678.83 314.226 677.75 309.619C674.636 296.089 667.161 285.796 655.243 278.616C650.343 275.71 649.596 276.25 651.34 281.272C654.122 289.49 652.627 295.425 647.478 296.711C646.647 296.919 642.785 297.168 638.965 297.292C629.497 297.625 627.587 297.002 625.635 293.142C624.555 291.025 624.763 285.962 626.05 281.562C627.421 276.914 627.504 276.25 626.424 276.125C625.967 276.042 623.932 276.831 621.856 277.786Z" fill="#FBF0B2"/>
<path d="M728.371 277.495C715.041 283.762 705.573 294.927 702.791 307.751C700.881 316.509 702.5 330.828 706.362 339.336C710.058 347.554 717.408 353.945 726.087 356.436C736.801 359.59 747.099 359.714 758.228 356.934C771.641 353.53 780.403 345.437 783.684 333.442C784.431 330.662 784.556 328.96 784.597 322.485C784.639 314.392 784.307 311.777 782.563 305.676C779.531 295.217 772.929 286.46 763.336 280.151C756.277 275.461 755.446 275.627 757.232 281.396C759.848 289.988 758.727 294.927 753.785 296.462C750.837 297.417 738.503 297.707 735.846 296.919C733.603 296.255 732.025 294.719 731.278 292.353C730.489 290.029 730.987 284.302 732.274 280.234C732.897 278.367 733.271 276.624 733.146 276.416C732.731 275.71 731.61 275.959 728.371 277.495Z" fill="#FBF0B2"/>
<path d="M833.64 277.786C820.892 283.97 812.213 293.972 809.14 306.091C807.146 313.977 807.354 322.319 809.804 332.031C813.832 347.969 823.383 355.938 841.323 358.386C846.845 359.133 851.164 359.133 856.687 358.386C867.733 356.892 875.291 353.655 881.022 348.01C886.337 342.739 889.285 336.929 890.365 329.458C891.029 324.81 890.614 314.226 889.535 309.619C886.42 296.089 878.945 285.796 867.027 278.616C862.127 275.71 861.38 276.25 863.124 281.272C865.906 289.49 864.411 295.425 859.262 296.711C858.431 296.919 854.569 297.168 850.749 297.292C841.281 297.625 839.371 297.002 837.419 293.142C836.339 291.025 836.547 285.962 837.834 281.562C839.205 276.914 839.288 276.25 838.208 276.125C837.751 276.042 835.716 276.831 833.64 277.786Z" fill="#FBF0B2"/>
<path d="M940.155 277.495C926.825 283.762 917.357 294.927 914.575 307.751C912.665 316.509 914.284 330.828 918.146 339.336C921.842 347.554 929.192 353.945 937.871 356.436C948.585 359.59 958.883 359.714 970.012 356.934C983.425 353.53 992.188 345.437 995.468 333.442C996.216 330.662 996.34 328.96 996.382 322.485C996.423 314.392 996.091 311.777 994.347 305.676C991.315 295.217 984.713 286.46 975.12 280.151C968.061 275.461 967.23 275.627 969.016 281.396C971.632 289.988 970.511 294.927 965.569 296.462C962.621 297.417 950.287 297.707 947.63 296.919C945.387 296.255 943.809 294.719 943.062 292.353C942.273 290.029 942.771 284.302 944.059 280.234C944.681 278.367 945.055 276.624 944.931 276.416C944.515 275.71 943.394 275.959 940.155 277.495Z" fill="#FBF0B2"/>
<path d="M1045.42 277.786C1032.68 283.97 1024 293.972 1020.92 306.091C1018.93 313.977 1019.14 322.319 1021.59 332.031C1025.62 347.969 1035.17 355.938 1053.11 358.386C1055.51 358.718 1058.71 359.009 1060.29 359.009H1063.07V328.047V297.085L1059.58 297.375C1051.82 297.998 1048.54 295.383 1048.54 288.535C1048.54 286.169 1048.87 284.177 1049.62 281.562C1050.99 276.914 1051.07 276.25 1049.99 276.125C1049.54 276.042 1047.5 276.831 1045.42 277.786Z" fill="#FBF0B2"/>
<path d="M544.576 277.412C544.451 277.744 544.825 279.57 545.448 281.479C546.901 286.128 547.233 289.946 546.32 292.312C544.908 296.006 542.375 297.168 535.855 297.168H531.536V328.088V359.009H532.907C538.887 359.009 549.517 356.519 554.957 353.862C563.553 349.67 569.491 342.49 571.858 333.442C572.938 329.209 573.353 320.784 572.689 315.139C570.82 299.285 563.553 287.664 550.14 279.197C546.32 276.79 544.991 276.375 544.576 277.412Z" fill="#FBF0B2"/>
<path d="M568.993 383.662C553.421 391.257 544.119 404.041 543.288 419.065L543.039 423.34H584.441H625.801V422.344C625.801 420.85 624.597 414.292 623.849 411.719C621.981 405.244 618.036 398.313 613.343 393.291C610.27 390.012 604.664 385.696 601.01 383.787C598.684 382.625 598.352 382.542 597.771 383.081C597.231 383.662 597.273 384.036 598.186 386.609C600.885 394.495 600.179 399.807 596.11 401.924C594.698 402.671 593.328 402.837 586.766 403.127C578.004 403.501 576.219 403.21 574.142 401.135C571.568 398.562 571.194 394.661 572.897 388.228C574.225 383.289 574.308 382.126 573.478 381.919C573.146 381.877 571.111 382.666 568.993 383.662Z" fill="#FBF0B2"/>
<path d="M675.259 383.496C664.171 388.85 655.575 397.483 651.921 406.946C650.26 411.138 649.056 416.907 649.056 420.518V423.34H690.416H731.818L731.527 420.476C730.406 409.353 725.34 398.936 717.242 391.299C712.799 387.107 705.365 382.334 704.12 382.791C703.248 383.123 703.289 383.953 704.452 387.646C706.487 394.038 706.237 398.105 703.663 400.679C701.836 402.546 699.884 402.92 691.413 403.169C682.401 403.418 680.989 403.003 678.872 399.475C678.041 398.022 677.917 397.317 677.958 394.08C678 391.506 678.332 389.473 678.955 387.439C680.117 383.911 680.242 382.126 679.37 381.919C679.038 381.877 677.169 382.583 675.259 383.496Z" fill="#FBF0B2"/>
<path d="M780.777 383.662C765.205 391.257 755.903 404.041 755.072 419.065L754.823 423.34H796.225H837.585V422.344C837.585 420.85 836.381 414.292 835.633 411.719C833.765 405.244 829.82 398.313 825.127 393.291C822.054 390.012 816.448 385.696 812.794 383.787C810.468 382.625 810.136 382.542 809.555 383.081C809.015 383.662 809.057 384.036 809.97 386.609C812.669 394.495 811.963 399.807 807.894 401.924C806.482 402.671 805.112 402.837 798.55 403.127C789.788 403.501 788.003 403.21 785.926 401.135C783.352 398.562 782.978 394.661 784.681 388.228C786.009 383.289 786.093 382.126 785.262 381.919C784.93 381.877 782.895 382.666 780.777 383.662Z" fill="#FBF0B2"/>
<path d="M887.043 383.496C875.955 388.85 867.359 397.483 863.705 406.946C862.044 411.138 860.84 416.907 860.84 420.518V423.34H902.2H943.602L943.311 420.476C942.19 409.353 937.124 398.936 929.026 391.299C924.583 387.107 917.149 382.334 915.904 382.791C915.032 383.123 915.073 383.953 916.236 387.646C918.271 394.038 918.022 398.105 915.447 400.679C913.62 402.546 911.668 402.92 903.197 403.169C894.185 403.418 892.774 403.003 890.656 399.475C889.825 398.022 889.701 397.317 889.742 394.08C889.784 391.506 890.116 389.473 890.739 387.439C891.902 383.911 892.026 382.126 891.154 381.919C890.822 381.877 888.953 382.583 887.043 383.496Z" fill="#FBF0B2"/>
<path d="M992.561 383.662C976.989 391.257 967.687 404.041 966.856 419.065L966.607 423.34H1008.01H1049.37V422.344C1049.37 420.85 1048.16 414.292 1047.42 411.719C1045.55 405.244 1041.6 398.313 1036.91 393.291C1033.84 390.012 1028.23 385.696 1024.58 383.787C1022.25 382.625 1021.92 382.542 1021.34 383.081C1020.8 383.662 1020.84 384.036 1021.75 386.609C1024.45 394.495 1023.75 399.807 1019.68 401.924C1018.27 402.671 1016.9 402.837 1010.33 403.127C1001.57 403.501 999.787 403.21 997.71 401.135C995.136 398.562 994.762 394.661 996.465 388.228C997.793 383.289 997.876 382.126 997.046 381.919C996.714 381.877 994.679 382.666 992.561 383.662Z" fill="#FBF0B2"/>
<path d="M543.164 424.377C543.164 424.917 548.022 425 584.482 425C620.942 425 625.801 424.917 625.801 424.377C625.801 423.838 620.942 423.755 584.482 423.755C548.022 423.755 543.164 423.838 543.164 424.377Z" fill="#FBF0B2"/>
<path d="M649.056 424.377C649.056 424.917 653.914 425 690.374 425C726.835 425 731.693 424.917 731.693 424.377C731.693 423.838 726.835 423.755 690.374 423.755C653.914 423.755 649.056 423.838 649.056 424.377Z" fill="#FBF0B2"/>
<path d="M754.948 424.377C754.948 424.917 759.806 425 796.266 425C832.726 425 837.585 424.917 837.585 424.377C837.585 423.838 832.726 423.755 796.266 423.755C759.806 423.755 754.948 423.838 754.948 424.377Z" fill="#FBF0B2"/>
<path d="M860.84 424.377C860.84 424.917 865.698 425 902.158 425C938.619 425 943.477 424.917 943.477 424.377C943.477 423.838 938.619 423.755 902.158 423.755C865.698 423.755 860.84 423.838 860.84 424.377Z" fill="#FBF0B2"/>
<path d="M966.732 424.377C966.732 424.917 971.59 425 1008.05 425C1044.51 425 1049.37 424.917 1049.37 424.377C1049.37 423.838 1044.51 423.755 1008.05 423.755C971.59 423.755 966.732 423.838 966.732 424.377Z" fill="#FBF0B2"/>
</g>
<g clip-path="url(#clip3_314_2674)">
<path d="M1074.62 1.95063C1075.53 18.0126 1081.18 29.5922 1090.94 35.4858C1104.18 43.5375 1129.35 43.081 1142.76 34.5727C1149.24 30.4638 1154.43 23.4081 1156.3 16.2695C1157.17 12.8662 1157.84 4.93891 1157.5 2.15815L1157.25 -5.75483e-05H1115.85H1074.49L1074.62 1.95063Z" fill="#FBF0B2"/>
<path d="M1180.68 3.81836C1182.34 22.9102 1190.18 34.4897 1204.39 38.7646C1210.57 40.6323 1214.81 41.2549 1221.7 41.2549C1232.67 41.2549 1242.72 38.6401 1249.48 34.0747C1256.09 29.5508 1260.95 22.4121 1262.65 14.6094C1262.98 13.0737 1263.35 9.17236 1263.44 5.89355L1263.64 -3.70294e-06H1221.99H1180.34L1180.68 3.81836Z" fill="#FBF0B2"/>
<path d="M1286.4 1.95063C1287.31 18.0126 1292.96 29.5922 1302.72 35.4858C1315.97 43.5375 1341.13 43.081 1354.55 34.5727C1361.02 30.4638 1366.21 23.4081 1368.08 16.2695C1368.96 12.8662 1369.62 4.93891 1369.29 2.15815L1369.04 -5.75483e-05H1327.64H1286.28L1286.4 1.95063Z" fill="#FBF0B2"/>
<path d="M1392.46 3.81836C1394.12 22.9102 1401.97 34.4897 1416.17 38.7646C1422.36 40.6323 1426.59 41.2549 1433.49 41.2549C1444.45 41.2549 1454.5 38.6401 1461.27 34.0747C1467.87 29.5508 1472.73 22.4121 1474.43 14.6094C1474.76 13.0737 1475.14 9.17236 1475.22 5.89355L1475.43 -3.70294e-06H1433.78H1392.13L1392.46 3.81836Z" fill="#FBF0B2"/>
<path d="M1498.19 1.95063C1499.1 18.0126 1504.75 29.5922 1514.5 35.4858C1527.75 43.5375 1552.92 43.081 1566.33 34.5727C1572.81 30.4638 1578 23.4081 1579.87 16.2695C1580.74 12.8662 1581.4 4.93891 1581.07 2.15815L1580.82 -5.72205e-05H1539.42H1512H1498.06L1498.19 1.95063Z" fill="#FBF0B2"/>
<path d="M1153.39 66.1157C1140.64 72.2998 1131.96 82.3022 1128.89 94.4214C1126.9 102.307 1127.11 110.649 1129.56 120.361C1133.58 136.299 1143.14 144.268 1161.07 146.716C1166.6 147.463 1170.92 147.463 1176.44 146.716C1187.49 145.222 1195.04 141.985 1200.77 136.34C1206.09 131.069 1209.04 125.259 1210.12 117.788C1210.78 113.14 1210.37 102.556 1209.29 97.9492C1206.17 84.4189 1198.7 74.126 1186.78 66.9458C1181.88 64.0405 1181.13 64.5801 1182.88 69.6021C1185.66 77.8198 1184.16 83.7549 1179.01 85.0415C1178.18 85.249 1174.32 85.498 1170.5 85.6226C1161.03 85.9546 1159.12 85.332 1157.17 81.4722C1156.09 79.3555 1156.3 74.292 1157.59 69.8926C1158.96 65.2441 1159.04 64.5801 1157.96 64.4556C1157.5 64.3726 1155.47 65.1611 1153.39 66.1157Z" fill="#FBF0B2"/>
<path d="M1259.91 65.8252C1246.58 72.0923 1237.11 83.2569 1234.33 96.0816C1232.42 104.839 1234.04 119.158 1237.9 127.666C1241.59 135.884 1248.94 142.275 1257.62 144.766C1268.34 147.92 1278.64 148.044 1289.76 145.264C1303.18 141.86 1311.94 133.767 1315.22 121.772C1315.97 118.992 1316.09 117.29 1316.13 110.815C1316.18 102.722 1315.84 100.107 1314.1 94.0064C1311.07 83.5474 1304.46 74.7901 1294.87 68.4815C1287.81 63.7915 1286.98 63.9576 1288.77 69.7266C1291.38 78.3179 1290.26 83.2569 1285.32 84.7925C1282.37 85.7471 1270.04 86.0376 1267.38 85.2491C1265.14 84.585 1263.56 83.0493 1262.81 80.6836C1262.03 78.3594 1262.52 72.6319 1263.81 68.5645C1264.43 66.6968 1264.81 64.9536 1264.68 64.7461C1264.27 64.0406 1263.15 64.2896 1259.91 65.8252Z" fill="#FBF0B2"/>
<path d="M1365.18 66.1157C1352.43 72.2998 1343.75 82.3022 1340.68 94.4214C1338.68 102.307 1338.89 110.649 1341.34 120.361C1345.37 136.299 1354.92 144.268 1372.86 146.716C1378.38 147.463 1382.7 147.463 1388.22 146.716C1399.27 145.222 1406.83 141.985 1412.56 136.34C1417.87 131.069 1420.82 125.259 1421.9 117.788C1422.57 113.14 1422.15 102.556 1421.07 97.9492C1417.96 84.4189 1410.48 74.126 1398.56 66.9458C1393.66 64.0405 1392.92 64.5801 1394.66 69.6021C1397.44 77.8198 1395.95 83.7549 1390.8 85.0415C1389.97 85.249 1386.11 85.498 1382.29 85.6226C1372.82 85.9546 1370.91 85.332 1368.96 81.4722C1367.88 79.3555 1368.08 74.292 1369.37 69.8926C1370.74 65.2441 1370.82 64.5801 1369.74 64.4556C1369.29 64.3726 1367.25 65.1611 1365.18 66.1157Z" fill="#FBF0B2"/>
<path d="M1471.69 65.8252C1458.36 72.0923 1448.89 83.2569 1446.11 96.0816C1444.2 104.839 1445.82 119.158 1449.68 127.666C1453.38 135.884 1460.73 142.275 1469.41 144.766C1480.12 147.92 1490.42 148.044 1501.55 145.264C1514.96 141.86 1523.72 133.767 1527 121.772C1527.75 118.992 1527.88 117.29 1527.92 110.815C1527.96 102.722 1527.63 100.107 1525.88 94.0064C1522.85 83.5474 1516.25 74.7901 1506.66 68.4815C1499.6 63.7915 1498.77 63.9576 1500.55 69.7266C1503.17 78.3179 1502.05 83.2569 1497.11 84.7925C1494.16 85.7471 1481.82 86.0376 1479.17 85.2491C1476.92 84.585 1475.35 83.0493 1474.6 80.6836C1473.81 78.3594 1474.31 72.6319 1475.59 68.5645C1476.22 66.6968 1476.59 64.9536 1476.47 64.7461C1476.05 64.0406 1474.93 64.2896 1471.69 65.8252Z" fill="#FBF0B2"/>
<path d="M1076.11 65.7422C1075.99 66.0742 1076.36 67.9004 1076.98 69.8096C1078.44 74.458 1078.77 78.2764 1077.86 80.6421C1076.44 84.3359 1073.91 85.498 1067.39 85.498H1063.07V116.418V147.339H1064.44C1070.42 147.339 1081.05 144.849 1086.49 142.192C1095.09 138 1101.03 130.82 1103.39 121.772C1104.47 117.539 1104.89 109.114 1104.23 103.469C1102.36 87.6147 1095.09 75.9937 1081.68 67.5269C1077.86 65.1196 1076.53 64.7046 1076.11 65.7422Z" fill="#FBF0B2"/>
<path d="M1100.53 171.992C1088.78 177.72 1080.31 186.726 1076.78 197.185C1074.74 203.203 1074.08 212.085 1075.12 219.141C1077.61 235.659 1084.42 245.413 1096.67 249.854C1107.26 253.713 1121 254.004 1132.63 250.601C1141.52 248.027 1147.66 243.711 1152.11 237.029C1156.05 231.094 1157.42 225.823 1157.42 216.443C1157.46 204.863 1155.1 196.106 1149.78 187.93C1145.67 181.663 1138.9 175.437 1132.55 172.117C1130.22 170.955 1129.89 170.872 1129.31 171.411C1128.77 171.992 1128.81 172.366 1129.72 174.939C1132.42 182.825 1131.72 188.137 1127.65 190.254C1126.23 191.001 1124.86 191.167 1118.3 191.458C1109.54 191.831 1107.76 191.541 1105.68 189.465C1103.1 186.892 1102.73 182.991 1104.43 176.558C1105.76 171.619 1105.84 170.457 1105.01 170.249C1104.68 170.208 1102.65 170.996 1100.53 171.992Z" fill="#FBF0B2"/>
<path d="M1206.8 171.826C1195.71 177.18 1187.11 185.813 1183.46 195.276C1179.97 204.282 1179.6 214.866 1182.46 225.947C1184.2 232.837 1186.16 236.863 1189.77 241.179C1196.16 248.816 1207.34 252.925 1221.7 252.925C1229.05 252.925 1233.12 252.302 1240.22 250.02C1258.58 244.209 1266.55 228.313 1262.56 205.486C1260.86 195.691 1256.75 187.722 1249.77 180.708C1244.92 175.852 1237.11 170.581 1235.66 171.121C1234.78 171.453 1234.83 172.283 1235.99 175.977C1238.02 182.368 1237.77 186.436 1235.2 189.009C1233.37 190.876 1231.42 191.25 1222.95 191.499C1213.94 191.748 1212.53 191.333 1210.41 187.805C1209.58 186.353 1209.45 185.647 1209.49 182.41C1209.54 179.836 1209.87 177.803 1210.49 175.769C1211.65 172.241 1211.78 170.457 1210.91 170.249C1210.57 170.208 1208.71 170.913 1206.8 171.826Z" fill="#FBF0B2"/>
<path d="M1312.31 171.992C1300.56 177.72 1292.09 186.726 1288.56 197.185C1286.53 203.203 1285.86 212.085 1286.9 219.141C1289.39 235.659 1296.2 245.413 1308.45 249.854C1319.04 253.713 1332.79 254.004 1344.41 250.601C1353.3 248.027 1359.45 243.711 1363.89 237.029C1367.83 231.094 1369.2 225.823 1369.2 216.443C1369.25 204.863 1366.88 196.106 1361.56 187.93C1357.45 181.663 1350.68 175.437 1344.33 172.117C1342 170.955 1341.67 170.872 1341.09 171.411C1340.55 171.992 1340.59 172.366 1341.51 174.939C1344.21 182.825 1343.5 188.137 1339.43 190.254C1338.02 191.001 1336.65 191.167 1330.09 191.458C1321.32 191.831 1319.54 191.541 1317.46 189.465C1314.89 186.892 1314.51 182.991 1316.22 176.558C1317.55 171.619 1317.63 170.457 1316.8 170.249C1316.47 170.208 1314.43 170.996 1312.31 171.992Z" fill="#FBF0B2"/>
<path d="M1418.58 171.826C1407.49 177.18 1398.9 185.813 1395.24 195.276C1391.75 204.282 1391.38 214.866 1394.24 225.947C1395.99 232.837 1397.94 236.863 1401.55 241.179C1407.95 248.816 1419.12 252.925 1433.49 252.925C1440.84 252.925 1444.91 252.302 1452.01 250.02C1470.36 244.209 1478.34 228.313 1474.35 205.486C1472.65 195.691 1468.54 187.722 1461.56 180.708C1456.7 175.852 1448.89 170.581 1447.44 171.121C1446.57 171.453 1446.61 172.283 1447.77 175.977C1449.81 182.368 1449.56 186.436 1446.98 189.009C1445.16 190.876 1443.2 191.25 1434.73 191.499C1425.72 191.748 1424.31 191.333 1422.19 187.805C1421.36 186.353 1421.24 185.647 1421.28 182.41C1421.32 179.836 1421.65 177.803 1422.28 175.769C1423.44 172.241 1423.56 170.457 1422.69 170.249C1422.36 170.208 1420.49 170.913 1418.58 171.826Z" fill="#FBF0B2"/>
<path d="M1524.1 171.992C1512.35 177.72 1503.87 186.726 1500.34 197.185C1498.31 203.203 1497.65 212.085 1498.68 219.141C1501.17 235.659 1507.99 245.413 1520.24 249.854C1530.82 253.713 1544.57 254.004 1556.2 250.601C1565.08 248.027 1571.23 243.711 1575.67 237.029C1579.62 231.094 1580.99 225.823 1580.99 216.443C1581.03 204.863 1578.66 196.106 1573.35 187.93C1569.24 181.663 1562.47 175.437 1556.11 172.117C1553.79 170.955 1553.46 170.872 1552.88 171.411C1552.34 171.992 1552.38 172.366 1553.29 174.939C1555.99 182.825 1555.28 188.137 1551.21 190.254C1549.8 191.001 1548.43 191.167 1541.87 191.458C1533.11 191.831 1531.32 191.541 1529.25 189.465C1526.67 186.892 1526.3 182.991 1528 176.558C1529.33 171.619 1529.41 170.457 1528.58 170.249C1528.25 170.208 1526.22 170.996 1524.1 171.992Z" fill="#FBF0B2"/>
<path d="M1153.39 277.786C1140.64 283.97 1131.96 293.972 1128.89 306.091C1126.9 313.977 1127.11 322.319 1129.56 332.031C1133.58 347.969 1143.14 355.938 1161.07 358.386C1166.6 359.133 1170.92 359.133 1176.44 358.386C1187.49 356.892 1195.04 353.655 1200.77 348.01C1206.09 342.739 1209.04 336.929 1210.12 329.458C1210.78 324.81 1210.37 314.226 1209.29 309.619C1206.17 296.089 1198.7 285.796 1186.78 278.616C1181.88 275.71 1181.13 276.25 1182.88 281.272C1185.66 289.49 1184.16 295.425 1179.01 296.711C1178.18 296.919 1174.32 297.168 1170.5 297.292C1161.03 297.625 1159.12 297.002 1157.17 293.142C1156.09 291.025 1156.3 285.962 1157.59 281.562C1158.96 276.914 1159.04 276.25 1157.96 276.125C1157.5 276.042 1155.47 276.831 1153.39 277.786Z" fill="#FBF0B2"/>
<path d="M1259.91 277.495C1246.58 283.762 1237.11 294.927 1234.33 307.751C1232.42 316.509 1234.04 330.828 1237.9 339.336C1241.59 347.554 1248.94 353.945 1257.62 356.436C1268.34 359.59 1278.64 359.714 1289.76 356.934C1303.18 353.53 1311.94 345.437 1315.22 333.442C1315.97 330.662 1316.09 328.96 1316.13 322.485C1316.18 314.392 1315.84 311.777 1314.1 305.676C1311.07 295.217 1304.46 286.46 1294.87 280.151C1287.81 275.461 1286.98 275.627 1288.77 281.396C1291.38 289.988 1290.26 294.927 1285.32 296.462C1282.37 297.417 1270.04 297.707 1267.38 296.919C1265.14 296.255 1263.56 294.719 1262.81 292.353C1262.03 290.029 1262.52 284.302 1263.81 280.234C1264.43 278.367 1264.81 276.624 1264.68 276.416C1264.27 275.71 1263.15 275.959 1259.91 277.495Z" fill="#FBF0B2"/>
<path d="M1365.18 277.786C1352.43 283.97 1343.75 293.972 1340.68 306.091C1338.68 313.977 1338.89 322.319 1341.34 332.031C1345.37 347.969 1354.92 355.938 1372.86 358.386C1378.38 359.133 1382.7 359.133 1388.22 358.386C1399.27 356.892 1406.83 353.655 1412.56 348.01C1417.87 342.739 1420.82 336.929 1421.9 329.458C1422.57 324.81 1422.15 314.226 1421.07 309.619C1417.96 296.089 1410.48 285.796 1398.56 278.616C1393.66 275.71 1392.92 276.25 1394.66 281.272C1397.44 289.49 1395.95 295.425 1390.8 296.711C1389.97 296.919 1386.11 297.168 1382.29 297.292C1372.82 297.625 1370.91 297.002 1368.96 293.142C1367.88 291.025 1368.08 285.962 1369.37 281.562C1370.74 276.914 1370.82 276.25 1369.74 276.125C1369.29 276.042 1367.25 276.831 1365.18 277.786Z" fill="#FBF0B2"/>
<path d="M1471.69 277.495C1458.36 283.762 1448.89 294.927 1446.11 307.751C1444.2 316.509 1445.82 330.828 1449.68 339.336C1453.38 347.554 1460.73 353.945 1469.41 356.436C1480.12 359.59 1490.42 359.714 1501.55 356.934C1514.96 353.53 1523.72 345.437 1527 333.442C1527.75 330.662 1527.88 328.96 1527.92 322.485C1527.96 314.392 1527.63 311.777 1525.88 305.676C1522.85 295.217 1516.25 286.46 1506.66 280.151C1499.6 275.461 1498.77 275.627 1500.55 281.396C1503.17 289.988 1502.05 294.927 1497.11 296.462C1494.16 297.417 1481.82 297.707 1479.17 296.919C1476.92 296.255 1475.35 294.719 1474.6 292.353C1473.81 290.029 1474.31 284.302 1475.59 280.234C1476.22 278.367 1476.59 276.624 1476.47 276.416C1476.05 275.71 1474.93 275.959 1471.69 277.495Z" fill="#FBF0B2"/>
<path d="M1076.11 277.412C1075.99 277.744 1076.36 279.57 1076.98 281.479C1078.44 286.128 1078.77 289.946 1077.86 292.312C1076.44 296.006 1073.91 297.168 1067.39 297.168H1063.07V328.088V359.009H1064.44C1070.42 359.009 1081.05 356.519 1086.49 353.862C1095.09 349.67 1101.03 342.49 1103.39 333.442C1104.47 329.209 1104.89 320.784 1104.23 315.139C1102.36 299.285 1095.09 287.664 1081.68 279.197C1077.86 276.79 1076.53 276.375 1076.11 277.412Z" fill="#FBF0B2"/>
<path d="M1100.53 383.662C1084.96 391.257 1075.66 404.041 1074.82 419.065L1074.58 423.34H1115.98H1157.34V422.344C1157.34 420.85 1156.13 414.292 1155.39 411.719C1153.52 405.244 1149.57 398.313 1144.88 393.291C1141.81 390.012 1136.2 385.696 1132.55 383.787C1130.22 382.625 1129.89 382.542 1129.31 383.081C1128.77 383.662 1128.81 384.036 1129.72 386.609C1132.42 394.495 1131.72 399.807 1127.65 401.924C1126.23 402.671 1124.86 402.837 1118.3 403.127C1109.54 403.501 1107.75 403.21 1105.68 401.135C1103.1 398.562 1102.73 394.661 1104.43 388.228C1105.76 383.289 1105.84 382.126 1105.01 381.919C1104.68 381.877 1102.65 382.666 1100.53 383.662Z" fill="#FBF0B2"/>
<path d="M1206.8 383.496C1195.71 388.85 1187.11 397.483 1183.46 406.946C1181.8 411.138 1180.59 416.907 1180.59 420.518V423.34H1221.95H1263.35L1263.06 420.476C1261.94 409.353 1256.88 398.936 1248.78 391.299C1244.33 387.107 1236.9 382.334 1235.66 382.791C1234.78 383.123 1234.83 383.953 1235.99 387.646C1238.02 394.038 1237.77 398.105 1235.2 400.679C1233.37 402.546 1231.42 402.92 1222.95 403.169C1213.94 403.418 1212.53 403.003 1210.41 399.475C1209.58 398.022 1209.45 397.317 1209.49 394.08C1209.54 391.506 1209.87 389.473 1210.49 387.439C1211.65 383.911 1211.78 382.126 1210.91 381.919C1210.57 381.877 1208.71 382.583 1206.8 383.496Z" fill="#FBF0B2"/>
<path d="M1312.31 383.662C1296.74 391.257 1287.44 404.041 1286.61 419.065L1286.36 423.34H1327.76H1369.12V422.344C1369.12 420.85 1367.92 414.292 1367.17 411.719C1365.3 405.244 1361.36 398.313 1356.66 393.291C1353.59 390.012 1347.98 385.696 1344.33 383.787C1342 382.625 1341.67 382.542 1341.09 383.081C1340.55 383.662 1340.59 384.036 1341.51 386.609C1344.21 394.495 1343.5 399.807 1339.43 401.924C1338.02 402.671 1336.65 402.837 1330.09 403.127C1321.32 403.501 1319.54 403.21 1317.46 401.135C1314.89 398.562 1314.51 394.661 1316.22 388.228C1317.55 383.289 1317.63 382.126 1316.8 381.919C1316.47 381.877 1314.43 382.666 1312.31 383.662Z" fill="#FBF0B2"/>
<path d="M1418.58 383.496C1407.49 388.85 1398.9 397.483 1395.24 406.946C1393.58 411.138 1392.38 416.907 1392.38 420.518V423.34H1433.74H1475.14L1474.85 420.476C1473.73 409.353 1468.66 398.936 1460.56 391.299C1456.12 387.107 1448.69 382.334 1447.44 382.791C1446.57 383.123 1446.61 383.953 1447.77 387.646C1449.81 394.038 1449.56 398.105 1446.98 400.679C1445.16 402.546 1443.2 402.92 1434.73 403.169C1425.72 403.418 1424.31 403.003 1422.19 399.475C1421.36 398.022 1421.24 397.317 1421.28 394.08C1421.32 391.506 1421.65 389.473 1422.28 387.439C1423.44 383.911 1423.56 382.126 1422.69 381.919C1422.36 381.877 1420.49 382.583 1418.58 383.496Z" fill="#FBF0B2"/>
<path d="M1524.1 383.662C1508.53 391.257 1499.22 404.041 1498.39 419.065L1498.14 423.34H1539.55H1580.91V422.344C1580.91 420.85 1579.7 414.292 1578.95 411.719C1577.09 405.244 1573.14 398.313 1568.45 393.291C1565.37 390.012 1559.77 385.696 1556.11 383.787C1553.79 382.625 1553.46 382.542 1552.88 383.081C1552.34 383.662 1552.38 384.036 1553.29 386.609C1555.99 394.495 1555.28 399.807 1551.21 401.924C1549.8 402.671 1548.43 402.837 1541.87 403.127C1533.11 403.501 1531.32 403.21 1529.25 401.135C1526.67 398.562 1526.3 394.661 1528 388.228C1529.33 383.289 1529.41 382.126 1528.58 381.919C1528.25 381.877 1526.22 382.666 1524.1 383.662Z" fill="#FBF0B2"/>
<path d="M1074.7 424.377C1074.7 424.917 1079.56 425 1116.02 425C1152.48 425 1157.34 424.917 1157.34 424.377C1157.34 423.838 1152.48 423.755 1116.02 423.755C1079.56 423.755 1074.7 423.838 1074.7 424.377Z" fill="#FBF0B2"/>
<path d="M1180.59 424.377C1180.59 424.917 1185.45 425 1221.91 425C1258.37 425 1263.23 424.917 1263.23 424.377C1263.23 423.838 1258.37 423.755 1221.91 423.755C1185.45 423.755 1180.59 423.838 1180.59 424.377Z" fill="#FBF0B2"/>
<path d="M1286.48 424.377C1286.48 424.917 1291.34 425 1327.8 425C1364.26 425 1369.12 424.917 1369.12 424.377C1369.12 423.838 1364.26 423.755 1327.8 423.755C1291.34 423.755 1286.48 423.838 1286.48 424.377Z" fill="#FBF0B2"/>
<path d="M1392.38 424.377C1392.38 424.917 1397.23 425 1433.69 425C1470.15 425 1475.01 424.917 1475.01 424.377C1475.01 423.838 1470.15 423.755 1433.69 423.755C1397.23 423.755 1392.38 423.838 1392.38 424.377Z" fill="#FBF0B2"/>
<path d="M1498.27 424.377C1498.27 424.917 1503.13 425 1539.59 425C1576.05 425 1580.91 424.917 1580.91 424.377C1580.91 423.838 1576.05 423.755 1539.59 423.755C1503.13 423.755 1498.27 423.838 1498.27 424.377Z" fill="#FBF0B2"/>
<path d="M1251.82 330.19C1252.15 331.163 1252.67 332.067 1253.28 332.889C1258.18 339.399 1289.33 382.869 1293.7 441.478L1164.75 441.478C1168.67 432.358 1168.75 423.211 1168.67 413.511C1168.54 397.751 1167.88 365.399 1164.68 364.889C1160.45 364.221 1145.48 360.33 1145.48 360.33C1145.48 360.33 1131.37 354.275 1136.36 351.744C1139.25 350.277 1153.39 345.015 1164.75 340.845C1174.99 337.087 1185 332.786 1194.76 327.944C1209.39 320.676 1230.43 310.24 1238.84 306.123C1247.24 302.006 1254.15 300.632 1257.98 300.177C1259.95 299.951 1261.55 301.687 1261.21 303.638C1260.76 306.308 1259.33 310.297 1255.31 315.101C1249.96 321.493 1250.85 327.333 1251.82 330.19Z" fill="#006BA6"/>
<path d="M1209.84 365.049C1209.42 364.533 1209.49 363.765 1209.99 363.324C1211.05 362.416 1213.16 361.018 1215.81 361.336C1218.67 361.678 1216.67 365.008 1215.41 366.737C1214.94 367.373 1214.11 367.645 1213.38 367.356C1212.31 366.949 1210.78 366.198 1209.83 365.05L1209.84 365.049Z" fill="#F0F9FF"/>
<path d="M1252.1 357.742C1254.91 357.796 1257.7 357.851 1260.5 357.905L1261.72 357.933C1262.34 357.951 1262.83 357.25 1262.77 356.67C1262.71 355.987 1262.14 355.62 1261.51 355.613C1258.71 355.559 1255.91 355.504 1253.11 355.45L1251.9 355.422C1251.27 355.405 1250.79 356.105 1250.84 356.685C1250.9 357.369 1251.48 357.735 1252.1 357.742Z" fill="#F0F9FF"/>
<path d="M1250.34 361.092C1253.09 362.133 1255.82 363.164 1258.57 364.204L1259.74 364.653C1260.34 364.871 1261.02 364.696 1261.3 364.097C1261.56 363.563 1261.34 362.768 1260.75 362.539C1258 361.498 1255.27 360.467 1252.52 359.427L1251.35 358.978C1250.75 358.759 1250.07 358.935 1249.79 359.534C1249.53 360.068 1249.75 360.863 1250.34 361.092Z" fill="#F0F9FF"/>
<path d="M1247.71 364.175C1249.92 365.534 1252.13 366.894 1254.34 368.263C1254.65 368.455 1254.97 368.656 1255.28 368.848C1255.8 369.167 1256.61 368.824 1256.84 368.292C1257.11 367.653 1256.84 367.082 1256.28 366.734C1254.07 365.375 1251.87 364.015 1249.66 362.646C1249.35 362.454 1249.03 362.253 1248.72 362.061C1248.2 361.742 1247.38 362.085 1247.16 362.617C1246.89 363.256 1247.16 363.827 1247.71 364.175Z" fill="#F0F9FF"/>
<path d="M1179.24 377.21C1176.65 378.285 1174.06 379.36 1171.47 380.435L1170.35 380.899C1169.77 381.139 1169.44 381.795 1169.66 382.401C1169.88 383.008 1170.58 383.332 1171.16 383.093C1173.75 382.018 1176.34 380.943 1178.93 379.867L1180.05 379.403C1180.63 379.163 1180.96 378.508 1180.74 377.901C1180.52 377.295 1179.82 376.97 1179.24 377.21Z" fill="#F0F9FF"/>
<path d="M1181.31 380.136C1179.14 382.104 1176.97 384.07 1174.8 386.027C1174.49 386.315 1174.17 386.594 1173.86 386.882C1173.4 387.31 1173.18 387.955 1173.59 388.514C1173.92 388.986 1174.74 389.215 1175.22 388.787C1177.39 386.82 1179.56 384.853 1181.73 382.896C1182.04 382.608 1182.36 382.329 1182.67 382.041C1183.13 381.613 1183.35 380.968 1182.94 380.409C1182.61 379.938 1181.79 379.708 1181.31 380.136Z" fill="#F0F9FF"/>
<path d="M1184.66 382.26C1183.1 384.34 1181.54 386.41 1179.98 388.489C1179.76 388.781 1179.55 389.081 1179.32 389.373C1178.96 389.864 1178.95 390.627 1179.47 391.019C1179.95 391.384 1180.72 391.399 1181.12 390.873C1182.67 388.794 1184.24 386.724 1185.79 384.644C1186.02 384.353 1186.23 384.052 1186.46 383.761C1186.82 383.27 1186.83 382.507 1186.31 382.114C1185.83 381.75 1185.06 381.735 1184.66 382.26Z" fill="#F0F9FF"/>
<path d="M1204 361.368C1201.98 355.088 1195.04 351.703 1188.51 353.808C1181.97 355.912 1178.32 362.709 1180.34 368.989C1182.37 375.269 1189.3 378.653 1195.84 376.549C1202.37 374.444 1206.03 367.648 1204 361.368Z" fill="#F0F9FF"/>
<path d="M1204.07 363.724C1203.61 358.467 1198.97 354.584 1193.71 355.051C1188.45 355.517 1184.56 360.156 1185.03 365.413C1185.5 370.669 1190.14 374.552 1195.4 374.086C1200.65 373.619 1204.54 368.98 1204.07 363.724Z" fill="#006BA6"/>
<path d="M1244.97 348.178C1242.95 341.898 1236.01 338.514 1229.48 340.618C1222.94 342.723 1219.29 349.52 1221.31 355.799C1223.33 362.079 1230.27 365.464 1236.81 363.359C1243.34 361.255 1247 354.458 1244.97 348.178Z" fill="#F0F9FF"/>
<path d="M1240.5 351.694C1240.03 346.438 1235.39 342.555 1230.13 343.021C1224.87 343.488 1220.99 348.127 1221.45 353.383C1221.92 358.64 1226.56 362.523 1231.82 362.056C1237.08 361.59 1240.96 356.951 1240.5 351.694Z" fill="#006BA6"/>
<path d="M1188.62 441.193C1186.56 439.743 1185.34 438.722 1185.34 438.722C1185.34 438.722 1187.33 439.766 1190.37 441.193L1188.62 441.193Z" fill="#F0F9FF"/>
<path d="M1220.17 441.193C1216.04 431.375 1199.15 416.433 1199.15 416.433C1199.15 416.433 1218.04 431.191 1222.99 441.193L1220.17 441.193Z" fill="#F0F9FF"/>
<path d="M1273.08 430.179L1273.08 430.168C1273.08 430.168 1265.5 436.548 1257.52 441.478L1261.53 441.478C1268.37 436.289 1273.08 430.179 1273.08 430.179Z" fill="#F0F9FF"/>
<path d="M1254.8 411.373C1254.8 411.373 1238.75 430.781 1236.66 441.478L1239.4 441.478C1240.27 431.326 1254.8 411.373 1254.8 411.373Z" fill="#F0F9FF"/>
</g>
</g>
<defs>
<clipPath id="clip0_314_2674">
<rect width="1512" height="425" fill="white"/>
</clipPath>
<clipPath id="clip1_314_2674">
<rect width="531.536" height="425" fill="white"/>
</clipPath>
<clipPath id="clip2_314_2674">
<rect width="531.536" height="425" fill="white" transform="translate(531.536)"/>
</clipPath>
<clipPath id="clip3_314_2674">
<rect width="531.536" height="425" fill="white" transform="translate(1063.07)"/>
</clipPath>
</defs>
</svg>
