<svg width="172" height="311" viewBox="0 0 172 311" fill="none" xmlns="http://www.w3.org/2000/svg">
<g clip-path="url(#clip0_314_3211)">
<path d="M136.998 260.834C136.998 260.834 113.866 152.181 147.022 154.493C180.178 156.804 170.925 238.487 170.925 238.487C170.925 238.487 168.612 267.77 163.215 288.576C163.099 289.007 162.983 289.431 162.86 289.855C159.151 302.493 147.307 311 134.13 311H25.8245C21.545 311 17.4815 308.966 15.0372 305.444C10.1717 298.424 3.87201 282.704 2.05998 247.734C-1.02432 188.399 3.60213 146.016 3.60213 146.016C3.60213 146.016 6.55534 113.566 37.7684 111.131C46.2503 110.469 54.7244 112.341 62.3349 116.14C73.5386 121.735 92.0983 133.602 102.724 154.508C103.333 155.71 102.377 157.113 101.035 156.966C98.4134 156.681 93.5248 155.51 84.6266 151.734C84.1023 151.51 83.524 151.896 83.5317 152.458C83.5548 157.845 82.9996 179.575 72.7135 182.658C72.0812 182.843 71.9887 183.698 72.567 184.022C82.483 189.57 128.755 217.542 137.006 260.834H136.998Z" fill="#006BA6"/>
<path d="M22.925 123.245C23.4108 123.006 23.619 122.421 23.3954 121.927C22.925 120.903 21.8455 119.161 19.7866 118.506C17.5735 117.797 17.9205 120.918 18.2598 122.606C18.3832 123.23 18.9075 123.708 19.5476 123.746C20.4729 123.808 21.8455 123.777 22.9327 123.245H22.925Z" fill="#F0F9FF"/>
<path d="M41.2849 142.534C42.8271 144.199 44.377 145.863 45.9192 147.528L46.5747 148.229C46.8908 148.576 46.914 149.115 46.5747 149.454C46.2354 149.793 45.6648 149.801 45.3486 149.454C43.8064 147.79 42.2565 146.125 40.7143 144.461L40.0588 143.759C39.7427 143.413 39.7196 142.873 40.0588 142.534C40.3981 142.195 40.9688 142.187 41.2849 142.534Z" fill="#F0F9FF"/>
<path d="M38.7557 143.967C39.6965 146.148 40.6295 148.329 41.5703 150.51C41.7014 150.818 41.8324 151.126 41.9635 151.435C42.1486 151.866 42.0946 152.367 41.6551 152.621C41.2927 152.837 40.6527 152.745 40.4676 152.313C39.5268 150.132 38.5938 147.951 37.6531 145.771C37.522 145.462 37.3909 145.154 37.2598 144.846C37.0747 144.414 37.1287 143.913 37.5682 143.659C37.9307 143.443 38.5707 143.536 38.7557 143.967Z" fill="#F0F9FF"/>
<path d="M35.5711 144.384C36.0183 146.433 36.4656 148.483 36.9128 150.533C36.9745 150.826 37.0439 151.119 37.1056 151.412C37.2058 151.866 36.9668 152.352 36.4964 152.475C36.0646 152.591 35.5325 152.329 35.4323 151.866C34.9851 149.816 34.5378 147.767 34.0906 145.717C34.0289 145.424 33.9595 145.131 33.8978 144.838C33.7976 144.384 34.0366 143.898 34.507 143.775C34.9388 143.659 35.4709 143.921 35.5711 144.384Z" fill="#F0F9FF"/>
<path d="M29.3364 136.415C25.2388 132.669 24.839 126.44 28.4435 122.502C32.048 118.564 38.2918 118.408 42.3894 122.154C46.4871 125.9 46.8868 132.129 43.2823 136.067C39.6778 140.005 33.4341 140.161 29.3364 136.415Z" fill="#F0F9FF"/>
<path d="M34.3373 135.76C30.0659 135.76 26.6032 132.3 26.6032 128.031C26.6032 123.762 30.0659 120.302 34.3373 120.302C38.6088 120.302 42.0715 123.762 42.0715 128.031C42.0715 132.3 38.6088 135.76 34.3373 135.76Z" fill="#006BA6"/>
<path d="M96.2878 275.097C96.2878 275.097 77.5191 239.764 48.6875 236.874C43.683 236.373 38.8559 238.924 36.6351 243.432C33.1806 250.468 32.317 263.676 43.8527 291.28C43.8527 291.28 46.9371 298.215 31.515 293.592C16.0929 288.968 18.0052 305.737 18.0052 305.737C18.0052 305.737 18.5373 300.35 23.4878 296.589C27.2739 293.707 34.4375 295.356 38.455 296.674C40.3904 297.314 43.6676 297.753 45.3949 296.674C47.4615 295.387 49.0268 293.099 46.166 288.197C36.0028 270.781 32.2553 257.265 41.069 243.648C42.5264 241.39 45.0942 240.11 47.7776 240.187C55.8125 240.434 75.1518 244.588 96.2878 275.097Z" fill="#F0F9FF"/>
</g>
<g clip-path="url(#clip1_314_3211)">
<path d="M79.3257 18.9117C80.6611 13.5557 86.0918 10.2926 91.4478 11.628C96.8039 12.9634 100.067 18.3941 98.7316 23.7501C97.9381 26.9327 95.7034 29.3643 92.915 30.5448C90.9801 31.361 86.1255 32.9745 84.674 38.7962" stroke="#9C580C" stroke-width="8" stroke-linecap="round" stroke-linejoin="round"/>
<path d="M82.7385 46.5586L82.7337 46.578" stroke="#9C580C" stroke-width="8" stroke-linecap="round" stroke-linejoin="round"/>
</g>
<defs>
<clipPath id="clip0_314_3211">
<rect width="171.116" height="200" fill="white" transform="matrix(-1 0 0 1 171.116 111)"/>
</clipPath>
<clipPath id="clip1_314_3211">
<rect width="48" height="48" fill="white" transform="translate(69.6123) rotate(14)"/>
</clipPath>
</defs>
</svg>
