<svg width="172" height="200" viewBox="0 0 172 200" fill="none" xmlns="http://www.w3.org/2000/svg">
<g clip-path="url(#clip0_155_9690)">
<path d="M136.998 149.834C136.998 149.834 113.866 41.1808 147.022 43.4926C180.178 45.8044 170.925 127.487 170.925 127.487C170.925 127.487 168.612 156.77 163.215 177.576C163.099 178.007 162.983 178.431 162.86 178.855C159.151 191.493 147.307 200 134.13 200H25.8245C21.545 200 17.4815 197.966 15.0372 194.444C10.1717 187.424 3.87201 171.704 2.05998 136.734C-1.02432 77.3987 3.60213 35.0161 3.60213 35.0161C3.60213 35.0161 6.55534 2.56639 37.7684 0.131316C46.2503 -0.531394 54.7244 1.34115 62.3349 5.14017C73.5386 10.7347 92.0983 22.6018 102.724 43.508C103.333 44.7101 102.377 46.1126 101.035 45.9662C98.4134 45.6811 93.5248 44.5098 84.6266 40.7339C84.1023 40.5104 83.524 40.8957 83.5317 41.4582C83.5548 46.8447 82.9996 68.5754 72.7135 71.6578C72.0812 71.8427 71.9887 72.6981 72.567 73.0217C82.483 78.57 128.755 106.542 137.006 149.834H136.998Z" fill="#006BA6"/>
<path d="M22.925 12.2452C23.4108 12.0063 23.619 11.4207 23.3954 10.9275C22.925 9.90253 21.8455 8.16092 19.7866 7.50589C17.5735 6.79692 17.9205 9.91794 18.2598 11.6056C18.3832 12.2298 18.9075 12.7076 19.5476 12.7461C20.4729 12.8078 21.8455 12.777 22.9327 12.2452H22.925Z" fill="#F0F9FF"/>
<path d="M41.2849 31.5341C42.8271 33.1986 44.377 34.8632 45.9192 36.5277L46.5747 37.229C46.8908 37.5758 46.914 38.1152 46.5747 38.4543C46.2354 38.7933 45.6648 38.801 45.3486 38.4543C43.8064 36.7897 42.2565 35.1252 40.7143 33.4606L40.0588 32.7594C39.7427 32.4126 39.7196 31.8731 40.0588 31.5341C40.3981 31.195 40.9688 31.1873 41.2849 31.5341Z" fill="#F0F9FF"/>
<path d="M38.7557 32.9674C39.6965 35.1482 40.6295 37.3291 41.5703 39.51C41.7014 39.8182 41.8324 40.1265 41.9635 40.4347C42.1486 40.8663 42.0946 41.3672 41.6551 41.6215C41.2927 41.8372 40.6527 41.7448 40.4676 41.3132C39.5268 39.1324 38.5938 36.9515 37.6531 34.7706C37.522 34.4624 37.3909 34.1541 37.2598 33.8459C37.0747 33.4143 37.1287 32.9134 37.5682 32.6591C37.9307 32.4433 38.5707 32.5358 38.7557 32.9674Z" fill="#F0F9FF"/>
<path d="M35.5711 33.3836C36.0183 35.4334 36.4656 37.4833 36.9128 39.5331C36.9745 39.826 37.0439 40.1188 37.1056 40.4117C37.2058 40.8663 36.9668 41.3518 36.4964 41.4751C36.0646 41.5907 35.5325 41.3287 35.4323 40.8663C34.9851 38.8165 34.5378 36.7666 34.0906 34.7167C34.0289 34.4239 33.9595 34.1311 33.8978 33.8382C33.7976 33.3836 34.0366 32.8981 34.507 32.7748C34.9388 32.6592 35.4709 32.9212 35.5711 33.3836Z" fill="#F0F9FF"/>
<path d="M29.3364 25.4147C25.2388 21.6688 24.839 15.4398 28.4435 11.5018C32.048 7.56371 38.2918 7.40792 42.3894 11.1538C46.4871 14.8997 46.8868 21.1287 43.2823 25.0667C39.6778 29.0048 33.4341 29.1606 29.3364 25.4147Z" fill="#F0F9FF"/>
<path d="M34.3373 24.7602C30.0659 24.7602 26.6032 21.2997 26.6032 17.0309C26.6032 12.7621 30.0659 9.30151 34.3373 9.30151C38.6088 9.30151 42.0715 12.7621 42.0715 17.0309C42.0715 21.2997 38.6088 24.7602 34.3373 24.7602Z" fill="#006BA6"/>
<path d="M96.2878 164.097C96.2878 164.097 77.5191 128.764 48.6875 125.874C43.683 125.373 38.8559 127.924 36.6351 132.432C33.1806 139.468 32.317 152.676 43.8527 180.28C43.8527 180.28 46.9371 187.215 31.515 182.592C16.0929 177.968 18.0052 194.737 18.0052 194.737C18.0052 194.737 18.5373 189.35 23.4878 185.589C27.2739 182.707 34.4375 184.356 38.455 185.674C40.3904 186.314 43.6676 186.753 45.3949 185.674C47.4615 184.387 49.0268 182.099 46.166 177.197C36.0028 159.781 32.2553 146.265 41.069 132.648C42.5264 130.39 45.0942 129.11 47.7776 129.187C55.8125 129.434 75.1518 133.588 96.2878 164.097Z" fill="#F0F9FF"/>
</g>
<defs>
<clipPath id="clip0_155_9690">
<rect width="171.116" height="200" fill="white" transform="matrix(-1 0 0 1 171.116 0)"/>
</clipPath>
</defs>
</svg>
