<svg width="393" height="425" viewBox="0 0 393 425" fill="none" xmlns="http://www.w3.org/2000/svg">
<g clip-path="url(#clip0_445_2953)">
<rect width="393" height="425" fill="#FAE68E"/>
<path d="M-63.4557 1.95066C-62.5422 18.0127 -56.8946 29.5923 -47.1359 35.4858C-33.889 43.5376 -8.72411 43.081 4.68888 34.5727C11.167 30.4638 16.3578 23.4082 18.2264 16.2695C19.0985 12.8662 19.7629 4.93894 19.4307 2.15818L19.1816 -2.67029e-05H-22.2201H-63.5803L-63.4557 1.95066Z" fill="#FBF0B2"/>
<path d="M42.6025 3.81839C44.2635 22.9102 52.112 34.4898 66.314 38.7647C72.5014 40.6324 76.7371 41.2549 83.6304 41.2549C94.5934 41.2549 104.643 38.6402 111.412 34.0747C118.014 29.5508 122.873 22.4121 124.575 14.6094C124.908 13.0738 125.281 9.17239 125.364 5.89358L125.572 2.67029e-05H83.9211H42.2703L42.6025 3.81839Z" fill="#FBF0B2"/>
<path d="M148.328 1.95066C149.242 18.0127 154.89 29.5923 164.648 35.4858C177.895 43.5376 203.06 43.081 216.473 34.5727C222.951 30.4638 228.142 23.4082 230.011 16.2695C230.883 12.8662 231.547 4.93894 231.215 2.15818L230.966 -2.67029e-05H189.564H148.204L148.328 1.95066Z" fill="#FBF0B2"/>
<path d="M254.386 3.81839C256.047 22.9102 263.896 34.4898 278.098 38.7647C284.285 40.6324 288.521 41.2549 295.414 41.2549C306.377 41.2549 316.427 38.6402 323.195 34.0747C329.798 29.5508 334.657 22.4121 336.359 14.6094C336.692 13.0738 337.065 9.17239 337.148 5.89358L337.356 2.67029e-05H295.705H254.054L254.386 3.81839Z" fill="#FBF0B2"/>
<path d="M360.112 1.95066C361.026 18.0127 366.674 29.5923 376.432 35.4858C389.679 43.5376 414.844 43.081 428.257 34.5727C434.735 30.4638 439.926 23.4082 441.795 16.2695C442.667 12.8662 443.331 4.93894 442.999 2.15818L442.75 -2.67029e-05H401.348H359.988L360.112 1.95066Z" fill="#FBF0B2"/>
<path d="M15.3196 66.1157C2.57101 72.2998 -6.10798 82.3022 -9.18092 94.4214C-11.1742 102.307 -10.9666 110.649 -8.5165 120.361C-4.48845 136.299 5.06259 144.268 23.0019 146.716C28.5249 147.463 32.8437 147.463 38.3667 146.716C49.4127 145.222 56.9704 141.985 62.7011 136.34C68.0164 131.069 70.9648 125.259 72.0445 117.788C72.7089 113.14 72.2936 102.556 71.214 97.9492C68.0995 84.4189 60.6247 74.1259 48.7067 66.9458C43.8066 64.0405 43.0591 64.58 44.8032 69.602C47.5855 77.8198 46.0906 83.7549 40.9413 85.0415C40.1108 85.249 36.2488 85.498 32.4284 85.6225C22.9604 85.9546 21.0502 85.332 19.0985 81.4721C18.0188 79.3554 18.2264 74.292 19.5137 69.8925C20.8841 65.2441 20.9672 64.58 19.8875 64.4555C19.4307 64.3725 17.3959 65.1611 15.3196 66.1157Z" fill="#FBF0B2"/>
<path d="M121.835 65.8252C108.505 72.0923 99.0366 83.2568 96.2543 96.0815C94.3441 104.839 95.9637 119.158 99.8256 127.666C103.521 135.884 110.872 142.275 119.551 144.766C130.264 147.92 140.563 148.044 151.692 145.264C165.105 141.86 173.867 133.767 177.148 121.772C177.895 118.992 178.02 117.29 178.061 110.815C178.103 102.722 177.77 100.107 176.026 94.0064C172.995 83.5474 166.392 74.79 156.8 68.4814C149.74 63.7915 148.91 63.9575 150.695 69.7266C153.311 78.3179 152.19 83.2568 147.249 84.7925C144.3 85.7471 131.967 86.0376 129.309 85.249C127.067 84.585 125.489 83.0493 124.741 80.6836C123.952 78.3594 124.451 72.6318 125.738 68.5645C126.361 66.6968 126.735 64.9536 126.61 64.7461C126.195 64.0405 125.074 64.2896 121.835 65.8252Z" fill="#FBF0B2"/>
<path d="M227.104 66.1157C214.355 72.2998 205.676 82.3022 202.603 94.4214C200.61 102.307 200.818 110.649 203.268 120.361C207.296 136.299 216.847 144.268 234.786 146.716C240.309 147.463 244.628 147.463 250.151 146.716C261.197 145.222 268.755 141.985 274.485 136.34C279.801 131.069 282.749 125.259 283.829 117.788C284.493 113.14 284.078 102.556 282.998 97.9492C279.884 84.4189 272.409 74.1259 260.491 66.9458C255.591 64.0405 254.843 64.58 256.587 69.602C259.37 77.8198 257.875 83.7549 252.725 85.0415C251.895 85.249 248.033 85.498 244.213 85.6225C234.745 85.9546 232.834 85.332 230.883 81.4721C229.803 79.3554 230.011 74.292 231.298 69.8925C232.668 65.2441 232.751 64.58 231.672 64.4555C231.215 64.3725 229.18 65.1611 227.104 66.1157Z" fill="#FBF0B2"/>
<path d="M333.619 65.8252C320.289 72.0923 310.821 83.2568 308.039 96.0815C306.128 104.839 307.748 119.158 311.61 127.666C315.306 135.884 322.656 142.275 331.335 144.766C342.049 147.92 352.347 148.044 363.476 145.264C376.889 141.86 385.651 133.767 388.932 121.772C389.679 118.992 389.804 117.29 389.845 110.815C389.887 102.722 389.555 100.107 387.811 94.0064C384.779 83.5474 378.176 74.79 368.584 68.4814C361.524 63.7915 360.694 63.9575 362.479 69.7266C365.096 78.3179 363.974 83.2568 359.033 84.7925C356.084 85.7471 343.751 86.0376 341.093 85.249C338.851 84.585 337.273 83.0493 336.526 80.6836C335.737 78.3594 336.235 72.6318 337.522 68.5645C338.145 66.6968 338.519 64.9536 338.394 64.7461C337.979 64.0405 336.858 64.2896 333.619 65.8252Z" fill="#FBF0B2"/>
<path d="M-37.5432 171.992C-49.2951 177.72 -57.7665 186.726 -61.2962 197.185C-63.331 203.203 -63.9954 212.085 -62.9573 219.141C-60.4657 235.659 -53.6554 245.413 -41.4051 249.854C-30.8159 253.713 -17.0707 254.004 -5.44336 250.601C3.44326 248.027 9.58915 243.711 14.0325 237.029C17.9775 231.094 19.3478 225.823 19.3478 216.443C19.3894 204.863 17.0224 196.106 11.707 187.93C7.59589 181.663 0.82711 175.437 -5.52642 172.117C-7.85189 170.955 -8.1841 170.872 -8.76546 171.411C-9.30531 171.992 -9.26378 172.366 -8.3502 174.939C-5.65099 182.825 -6.35694 188.137 -10.4265 190.254C-11.8384 191.001 -13.2088 191.167 -19.7699 191.458C-28.532 191.831 -30.3176 191.541 -32.3939 189.465C-34.9685 186.892 -35.3423 182.991 -33.6397 176.558C-32.3109 171.619 -32.2278 170.457 -33.0583 170.249C-33.3906 170.208 -35.4253 170.996 -37.5432 171.992Z" fill="#FBF0B2"/>
<path d="M68.7224 171.826C57.6349 177.18 49.039 185.813 45.3846 195.276C41.8964 204.282 41.5227 214.866 44.388 225.947C46.1321 232.837 48.0839 236.863 51.6966 241.179C58.0917 248.816 69.2623 252.925 83.6304 252.925C90.9805 252.925 95.0501 252.302 102.151 250.02C120.506 244.209 128.479 228.313 124.492 205.486C122.79 195.691 118.679 187.722 111.702 180.708C106.844 175.852 99.0366 170.581 97.5832 171.121C96.7111 171.453 96.7527 172.283 97.9154 175.977C99.9502 182.368 99.701 186.436 97.1264 189.009C95.2992 190.876 93.3475 191.25 84.8761 191.499C75.8649 191.748 74.453 191.333 72.3352 187.805C71.5047 186.353 71.3801 185.647 71.4216 182.41C71.4632 179.836 71.7954 177.803 72.4183 175.769C73.581 172.241 73.7056 170.457 72.8335 170.249C72.5013 170.208 70.6326 170.913 68.7224 171.826Z" fill="#FBF0B2"/>
<path d="M174.241 171.992C162.489 177.72 154.017 186.726 150.488 197.185C148.453 203.203 147.789 212.085 148.827 219.141C151.318 235.659 158.129 245.413 170.379 249.854C180.968 253.713 194.713 254.004 206.341 250.601C215.227 248.027 221.373 243.711 225.816 237.029C229.761 231.094 231.132 225.823 231.132 216.443C231.173 204.863 228.806 196.106 223.491 187.93C219.38 181.663 212.611 175.437 206.258 172.117C203.932 170.955 203.6 170.872 203.018 171.411C202.479 171.992 202.52 172.366 203.434 174.939C206.133 182.825 205.427 188.137 201.357 190.254C199.946 191.001 198.575 191.167 192.014 191.458C183.252 191.831 181.466 191.541 179.39 189.465C176.815 186.892 176.442 182.991 178.144 176.558C179.473 171.619 179.556 170.457 178.726 170.249C178.393 170.208 176.359 170.996 174.241 171.992Z" fill="#FBF0B2"/>
<path d="M280.507 171.826C269.419 177.18 260.823 185.813 257.169 195.276C253.681 204.282 253.307 214.866 256.172 225.947C257.916 232.837 259.868 236.863 263.481 241.179C269.876 248.816 281.046 252.925 295.415 252.925C302.765 252.925 306.834 252.302 313.935 250.02C332.29 244.209 340.263 228.313 336.276 205.486C334.574 195.691 330.463 187.722 323.486 180.708C318.628 175.852 310.821 170.581 309.367 171.121C308.495 171.453 308.537 172.283 309.7 175.977C311.734 182.368 311.485 186.436 308.911 189.009C307.083 190.876 305.132 191.25 296.66 191.499C287.649 191.748 286.237 191.333 284.119 187.805C283.289 186.353 283.164 185.647 283.206 182.41C283.247 179.836 283.58 177.803 284.202 175.769C285.365 172.241 285.49 170.457 284.618 170.249C284.285 170.208 282.417 170.913 280.507 171.826Z" fill="#FBF0B2"/>
<path d="M386.025 171.992C374.273 177.72 365.801 186.726 362.272 197.185C360.237 203.203 359.572 212.085 360.611 219.141C363.102 235.659 369.912 245.413 382.163 249.854C392.752 253.713 406.497 254.004 418.125 250.601C427.011 248.027 433.157 243.711 437.6 237.029C441.545 231.094 442.916 225.823 442.916 216.443C442.957 204.863 440.59 196.106 435.275 187.93C431.164 181.663 424.395 175.437 418.041 172.117C415.716 170.955 415.384 170.872 414.802 171.411C414.263 171.992 414.304 172.366 415.218 174.939C417.917 182.825 417.211 188.137 413.141 190.254C411.729 191.001 410.359 191.167 403.798 191.458C395.036 191.831 393.25 191.541 391.174 189.465C388.599 186.892 388.226 182.991 389.928 176.558C391.257 171.619 391.34 170.457 390.51 170.249C390.177 170.208 388.143 170.996 386.025 171.992Z" fill="#FBF0B2"/>
<path d="M15.3196 277.786C2.57101 283.97 -6.10798 293.972 -9.18092 306.091C-11.1742 313.977 -10.9666 322.319 -8.5165 332.031C-4.48845 347.969 5.06259 355.938 23.0019 358.386C28.5249 359.133 32.8437 359.133 38.3667 358.386C49.4127 356.892 56.9704 353.655 62.7011 348.01C68.0164 342.739 70.9648 336.929 72.0445 329.458C72.7089 324.81 72.2936 314.226 71.214 309.619C68.0995 296.089 60.6247 285.796 48.7067 278.616C43.8066 275.71 43.0591 276.25 44.8032 281.272C47.5855 289.49 46.0906 295.425 40.9413 296.711C40.1108 296.919 36.2488 297.168 32.4284 297.292C22.9604 297.625 21.0502 297.002 19.0985 293.142C18.0188 291.025 18.2264 285.962 19.5137 281.562C20.8841 276.914 20.9672 276.25 19.8875 276.125C19.4307 276.042 17.3959 276.831 15.3196 277.786Z" fill="#FBF0B2"/>
<path d="M121.835 277.495C108.505 283.762 99.0366 294.927 96.2543 307.751C94.3441 316.509 95.9637 330.828 99.8256 339.336C103.521 347.554 110.872 353.945 119.551 356.436C130.264 359.59 140.563 359.714 151.692 356.934C165.105 353.53 173.867 345.437 177.148 333.442C177.895 330.662 178.02 328.96 178.061 322.485C178.103 314.392 177.77 311.777 176.026 305.676C172.995 295.217 166.392 286.46 156.8 280.151C149.74 275.461 148.91 275.627 150.695 281.396C153.311 289.988 152.19 294.927 147.249 296.462C144.3 297.417 131.967 297.707 129.309 296.919C127.067 296.255 125.489 294.719 124.741 292.353C123.952 290.029 124.451 284.302 125.738 280.234C126.361 278.367 126.735 276.624 126.61 276.416C126.195 275.71 125.074 275.959 121.835 277.495Z" fill="#FBF0B2"/>
<path d="M227.104 277.786C214.355 283.97 205.676 293.972 202.603 306.091C200.61 313.977 200.818 322.319 203.268 332.031C207.296 347.969 216.847 355.938 234.786 358.386C240.309 359.133 244.628 359.133 250.151 358.386C261.197 356.892 268.755 353.655 274.485 348.01C279.801 342.739 282.749 336.929 283.829 329.458C284.493 324.81 284.078 314.226 282.998 309.619C279.884 296.089 272.409 285.796 260.491 278.616C255.591 275.71 254.843 276.25 256.587 281.272C259.37 289.49 257.875 295.425 252.725 296.711C251.895 296.919 248.033 297.168 244.213 297.292C234.745 297.625 232.834 297.002 230.883 293.142C229.803 291.025 230.011 285.962 231.298 281.562C232.668 276.914 232.751 276.25 231.672 276.125C231.215 276.042 229.18 276.831 227.104 277.786Z" fill="#FBF0B2"/>
<path d="M333.619 277.495C320.289 283.762 310.821 294.927 308.039 307.751C306.128 316.509 307.748 330.828 311.61 339.336C315.306 347.554 322.656 353.945 331.335 356.436C342.049 359.59 352.347 359.714 363.476 356.934C376.889 353.53 385.651 345.437 388.932 333.442C389.679 330.662 389.804 328.96 389.845 322.485C389.887 314.392 389.555 311.777 387.811 305.676C384.779 295.217 378.176 286.46 368.584 280.151C361.524 275.461 360.694 275.627 362.479 281.396C365.096 289.988 363.974 294.927 359.033 296.462C356.084 297.417 343.751 297.707 341.093 296.919C338.851 296.255 337.273 294.719 336.526 292.353C335.737 290.029 336.235 284.302 337.522 280.234C338.145 278.367 338.519 276.624 338.394 276.416C337.979 275.71 336.858 275.959 333.619 277.495Z" fill="#FBF0B2"/>
<path d="M-37.5434 383.662C-53.1157 391.257 -62.4176 404.041 -63.2482 419.065L-63.4973 423.34H-22.0956H19.2646V422.344C19.2646 420.85 18.0603 414.292 17.3128 411.719C15.4441 405.244 11.4991 398.313 6.80668 393.291C3.73373 390.012 -1.87231 385.696 -5.52663 383.787C-7.8521 382.625 -8.18431 382.542 -8.76568 383.081C-9.30552 383.662 -9.26399 384.036 -8.35041 386.609C-5.65121 394.495 -6.35715 399.807 -10.4267 401.924C-11.8386 402.671 -13.209 402.837 -19.7701 403.127C-28.5322 403.501 -30.3178 403.21 -32.3941 401.135C-34.9688 398.562 -35.3425 394.661 -33.6399 388.228C-32.3111 383.289 -32.228 382.126 -33.0586 381.919C-33.3908 381.877 -35.4255 382.666 -37.5434 383.662Z" fill="#FBF0B2"/>
<path d="M68.7224 383.496C57.6349 388.85 49.0389 397.483 45.3846 406.946C43.7235 411.138 42.5193 416.907 42.5193 420.518V423.34H83.8795H125.281L124.99 420.476C123.869 409.353 118.803 398.936 110.705 391.299C106.262 387.107 98.8289 382.334 97.5831 382.791C96.7111 383.123 96.7526 383.953 97.9153 387.646C99.9501 394.038 99.701 398.105 97.1263 400.679C95.2992 402.546 93.3475 402.92 84.8761 403.169C75.8649 403.418 74.453 403.003 72.3352 399.475C71.5046 398.022 71.3801 397.317 71.4216 394.08C71.4631 391.506 71.7953 389.473 72.4182 387.439C73.5809 383.911 73.7055 382.126 72.8335 381.919C72.5013 381.877 70.6326 382.583 68.7224 383.496Z" fill="#FBF0B2"/>
<path d="M174.241 383.662C158.668 391.257 149.367 404.041 148.536 419.065L148.287 423.34H189.689H231.049V422.344C231.049 420.85 229.844 414.292 229.097 411.719C227.228 405.244 223.283 398.313 218.591 393.291C215.518 390.012 209.912 385.696 206.258 383.787C203.932 382.625 203.6 382.542 203.019 383.081C202.479 383.662 202.52 384.036 203.434 386.609C206.133 394.495 205.427 399.807 201.357 401.924C199.946 402.671 198.575 402.837 192.014 403.127C183.252 403.501 181.466 403.21 179.39 401.135C176.815 398.562 176.442 394.661 178.144 388.228C179.473 383.289 179.556 382.126 178.726 381.919C178.393 381.877 176.359 382.666 174.241 383.662Z" fill="#FBF0B2"/>
<path d="M280.507 383.496C269.419 388.85 260.823 397.483 257.169 406.946C255.508 411.138 254.303 416.907 254.303 420.518V423.34H295.664H337.065L336.775 420.476C335.653 409.353 330.587 398.936 322.49 391.299C318.046 387.107 310.613 382.334 309.367 382.791C308.495 383.123 308.537 383.953 309.7 387.646C311.734 394.038 311.485 398.105 308.911 400.679C307.083 402.546 305.132 402.92 296.66 403.169C287.649 403.418 286.237 403.003 284.119 399.475C283.289 398.022 283.164 397.317 283.206 394.08C283.247 391.506 283.579 389.473 284.202 387.439C285.365 383.911 285.49 382.126 284.618 381.919C284.285 381.877 282.417 382.583 280.507 383.496Z" fill="#FBF0B2"/>
<path d="M386.025 383.662C370.452 391.257 361.15 404.041 360.32 419.065L360.071 423.34H401.473H442.833V422.344C442.833 420.85 441.628 414.292 440.881 411.719C439.012 405.244 435.067 398.313 430.375 393.291C427.302 390.012 421.696 385.696 418.041 383.787C415.716 382.625 415.384 382.542 414.802 383.081C414.263 383.662 414.304 384.036 415.218 386.609C417.917 394.495 417.211 399.807 413.141 401.924C411.729 402.671 410.359 402.837 403.798 403.127C395.036 403.501 393.25 403.21 391.174 401.135C388.599 398.562 388.226 394.661 389.928 388.228C391.257 383.289 391.34 382.126 390.51 381.919C390.177 381.877 388.143 382.666 386.025 383.662Z" fill="#FBF0B2"/>
<path d="M-63.3726 424.377C-63.3726 424.917 -58.514 425 -22.0539 425C14.4062 425 19.2647 424.917 19.2647 424.377C19.2647 423.838 14.4062 423.755 -22.0539 423.755C-58.514 423.755 -63.3726 423.838 -63.3726 424.377Z" fill="#FBF0B2"/>
<path d="M42.5193 424.377C42.5193 424.917 47.3779 425 83.8379 425C120.298 425 125.157 424.917 125.157 424.377C125.157 423.838 120.298 423.755 83.8379 423.755C47.3779 423.755 42.5193 423.838 42.5193 424.377Z" fill="#FBF0B2"/>
<path d="M148.411 424.377C148.411 424.917 153.27 425 189.73 425C226.19 425 231.049 424.917 231.049 424.377C231.049 423.838 226.19 423.755 189.73 423.755C153.27 423.755 148.411 423.838 148.411 424.377Z" fill="#FBF0B2"/>
<path d="M254.303 424.377C254.303 424.917 259.162 425 295.622 425C332.082 425 336.941 424.917 336.941 424.377C336.941 423.838 332.082 423.755 295.622 423.755C259.162 423.755 254.303 423.838 254.303 424.377Z" fill="#FBF0B2"/>
<path d="M360.195 424.377C360.195 424.917 365.054 425 401.514 425C437.974 425 442.833 424.917 442.833 424.377C442.833 423.838 437.974 423.755 401.514 423.755C365.054 423.755 360.195 423.838 360.195 424.377Z" fill="#FBF0B2"/>
<path d="M363.231 357.055C363.557 358.028 364.076 358.932 364.692 359.754C369.59 366.265 400.74 409.734 405.107 468.344L276.163 468.344C280.08 459.224 280.157 450.076 280.08 440.376C279.946 424.616 279.291 392.264 276.092 391.755C271.855 391.087 256.89 387.195 256.89 387.195C256.89 387.195 242.777 381.14 247.774 378.609C250.662 377.142 264.795 371.881 276.163 367.71C286.398 363.953 296.407 359.652 306.17 354.809C320.803 347.541 341.839 337.106 350.246 332.989C358.653 328.872 365.559 327.497 369.393 327.043C371.357 326.816 372.963 328.553 372.624 330.503C372.172 333.174 370.74 337.163 366.717 341.966C361.373 348.358 362.257 354.198 363.231 357.055Z" fill="#006BA6"/>
<path d="M321.251 391.915C320.829 391.399 320.897 390.631 321.4 390.19C322.458 389.282 324.569 387.884 327.218 388.202C330.079 388.543 328.077 391.873 326.82 393.602C326.354 394.239 325.522 394.511 324.786 394.221C323.717 393.815 322.188 393.063 321.24 391.916L321.251 391.915Z" fill="#F0F9FF"/>
<path d="M363.512 384.607C366.316 384.662 369.109 384.717 371.913 384.771L373.126 384.799C373.755 384.816 374.235 384.116 374.184 383.536C374.123 382.852 373.548 382.486 372.921 382.479C370.117 382.425 367.324 382.37 364.521 382.316L363.307 382.288C362.679 382.27 362.198 382.97 362.249 383.55C362.31 384.234 362.885 384.6 363.512 384.607Z" fill="#F0F9FF"/>
<path d="M361.752 387.958C364.497 388.998 367.231 390.029 369.975 391.069L371.153 391.518C371.747 391.737 372.431 391.561 372.712 390.962C372.968 390.428 372.751 389.633 372.156 389.404C369.412 388.364 366.678 387.333 363.933 386.292L362.755 385.844C362.162 385.625 361.477 385.8 361.196 386.399C360.941 386.934 361.158 387.728 361.752 387.958Z" fill="#F0F9FF"/>
<path d="M359.123 391.04C361.332 392.4 363.541 393.759 365.751 395.129C366.06 395.32 366.381 395.522 366.69 395.713C367.209 396.033 368.025 395.689 368.249 395.158C368.516 394.518 368.246 393.947 367.693 393.599C365.484 392.24 363.275 390.881 361.065 389.511C360.756 389.319 360.435 389.118 360.126 388.926C359.606 388.607 358.791 388.951 358.567 389.482C358.3 390.122 358.57 390.693 359.123 391.04Z" fill="#F0F9FF"/>
<path d="M290.645 404.075C288.057 405.15 285.468 406.225 282.88 407.3L281.762 407.765C281.178 408.005 280.849 408.66 281.07 409.267C281.291 409.873 281.988 410.198 282.573 409.958C285.161 408.883 287.75 407.808 290.338 406.733L291.456 406.268C292.04 406.029 292.369 405.373 292.148 404.767C291.927 404.16 291.23 403.836 290.645 404.075Z" fill="#F0F9FF"/>
<path d="M292.722 407.002C290.547 408.969 288.382 410.935 286.206 412.892C285.897 413.181 285.577 413.46 285.269 413.748C284.805 414.175 284.591 414.821 284.996 415.38C285.33 415.851 286.154 416.081 286.628 415.652C288.803 413.685 290.968 411.719 293.144 409.762C293.453 409.473 293.773 409.194 294.081 408.906C294.545 408.479 294.759 407.833 294.354 407.274C294.02 406.803 293.196 406.573 292.722 407.002Z" fill="#F0F9FF"/>
<path d="M296.074 409.126C294.515 411.206 292.954 413.275 291.395 415.355C291.17 415.646 290.957 415.947 290.732 416.238C290.368 416.73 290.363 417.492 290.878 417.885C291.359 418.249 292.133 418.264 292.525 417.739C294.085 415.659 295.645 413.59 297.205 411.51C297.43 411.219 297.643 410.918 297.868 410.626C298.232 410.135 298.237 409.372 297.722 408.98C297.24 408.615 296.466 408.601 296.074 409.126Z" fill="#F0F9FF"/>
<path d="M315.415 388.233C313.391 381.953 306.453 378.569 299.918 380.673C293.384 382.778 289.727 389.575 291.751 395.854C293.775 402.134 300.713 405.519 307.248 403.414C313.782 401.31 317.439 394.513 315.415 388.233Z" fill="#F0F9FF"/>
<path d="M315.483 390.589C315.017 385.333 310.376 381.45 305.117 381.916C299.858 382.382 295.973 387.022 296.439 392.278C296.905 397.534 301.546 401.418 306.805 400.951C312.064 400.485 315.95 395.846 315.483 390.589Z" fill="#006BA6"/>
<path d="M356.383 375.044C354.359 368.764 347.421 365.379 340.887 367.484C334.352 369.588 330.696 376.385 332.72 382.665C334.744 388.945 341.682 392.329 348.216 390.225C354.75 388.12 358.407 381.323 356.383 375.044Z" fill="#F0F9FF"/>
<path d="M351.907 378.56C351.441 373.303 346.799 369.42 341.541 369.887C336.282 370.353 332.396 374.992 332.862 380.249C333.329 385.505 337.97 389.388 343.229 388.922C348.488 388.455 352.373 383.816 351.907 378.56Z" fill="#006BA6"/>
</g>
<defs>
<clipPath id="clip0_445_2953">
<rect width="393" height="425" fill="white"/>
</clipPath>
</defs>
</svg>
