<svg width="186" height="200" viewBox="0 0 186 200" fill="none" xmlns="http://www.w3.org/2000/svg">
<g clip-path="url(#clip0_157_8921)">
<path d="M140.942 114.642H29.4226C29.4226 114.642 68.1561 188.809 19.7301 199.824C19.7301 199.824 5.78927 203.495 2.12063 177.06C-0.968359 154.795 0.102883 82.5305 0.521108 60.2805C0.70454 50.5214 2.67827 40.8504 6.61838 31.9137C12.9211 17.6017 25.6953 1.30711 51.2804 0.0881386C97.5052 -2.11483 108.511 37.5386 108.511 37.5386C108.511 37.5386 115.848 19.1805 134.192 18.4462C134.192 18.4462 124.653 39.0072 137.127 38.2729L154.736 37.5386C154.736 37.5386 165.742 37.2302 154.736 17.9248C154.736 17.9248 176.014 16.9775 183.351 45.6161C190.689 74.2547 178.949 96.2843 178.949 96.2843C178.949 96.2843 170.937 110.479 149.82 113.974C146.885 114.459 143.913 114.642 140.942 114.642Z" fill="#AD235C"/>
<path d="M141.617 68.035C141.426 67.5577 141.661 67.0143 142.13 66.816C143.121 66.3974 144.985 65.8687 146.848 66.7279C148.851 67.6531 146.606 69.6138 145.293 70.5831C144.801 70.9429 144.133 70.9355 143.664 70.561C142.974 70.0103 142.035 69.1071 141.617 68.0423V68.035Z" fill="#F0F9FF"/>
<path d="M174.18 72.5657C176.212 73.2633 178.252 73.9683 180.284 74.6659L181.15 74.9669C181.568 75.1138 182.052 74.7981 182.162 74.3868C182.287 73.9316 182.008 73.513 181.583 73.3735C179.55 72.6759 177.511 71.9709 175.478 71.2733L174.612 70.9722C174.194 70.8254 173.71 71.1411 173.6 71.5523C173.475 72.0076 173.754 72.4262 174.18 72.5657Z" fill="#F0F9FF"/>
<path d="M172.154 74.5998C173.915 76.0097 175.676 77.4196 177.445 78.8295C177.694 79.0277 177.936 79.226 178.186 79.4169C178.531 79.696 179.015 79.7547 179.352 79.4169C179.638 79.1306 179.704 78.5284 179.352 78.2494C177.591 76.8395 175.83 75.4296 174.062 74.0197C173.813 73.8214 173.571 73.6231 173.321 73.4322C172.976 73.1532 172.492 73.0944 172.154 73.4322C171.868 73.7186 171.802 74.3207 172.154 74.5998Z" fill="#F0F9FF"/>
<path d="M169.506 76.2374C170.797 77.7501 172.088 79.2628 173.38 80.7755L173.937 81.429C174.216 81.7595 174.818 81.7374 175.104 81.429C175.427 81.0765 175.405 80.6139 175.104 80.2614C173.813 78.7487 172.521 77.236 171.23 75.7233L170.672 75.0698C170.393 74.7393 169.792 74.7614 169.506 75.0698C169.183 75.4223 169.205 75.8849 169.506 76.2374Z" fill="#F0F9FF"/>
<path d="M116.443 69.79C114.3 69.9662 112.158 70.1425 110.015 70.3187L109.091 70.3921C108.643 70.4288 108.269 70.7446 108.269 71.2146C108.269 71.6331 108.65 72.0737 109.091 72.037C111.233 71.8608 113.376 71.6845 115.518 71.5083L116.443 71.4349C116.89 71.3982 117.264 71.0824 117.264 70.6124C117.264 70.1939 116.883 69.7533 116.443 69.79Z" fill="#F0F9FF"/>
<path d="M117.081 72.4923C115.034 73.4175 112.979 74.3428 110.932 75.2754L110.052 75.6719C109.648 75.8555 109.545 76.4429 109.758 76.8028C110 77.2213 110.477 77.2801 110.888 77.0965C112.935 76.1712 114.99 75.246 117.037 74.3134L117.917 73.9169C118.321 73.7333 118.424 73.1458 118.211 72.786C117.969 72.3674 117.492 72.3087 117.081 72.4923Z" fill="#F0F9FF"/>
<path d="M119.245 74.732C117.616 75.8849 115.988 77.0304 114.359 78.1833L113.669 78.6753C113.302 78.9323 113.133 79.3949 113.376 79.8061C113.588 80.166 114.139 80.3642 114.505 80.0999C116.134 78.947 117.763 77.8014 119.392 76.6486L120.082 76.1566C120.449 75.8995 120.617 75.4369 120.375 75.0257C120.163 74.6659 119.612 74.4676 119.245 74.732Z" fill="#F0F9FF"/>
<path d="M107.777 41.9445C107.777 41.9445 90.9015 65.4428 109.245 89.6754C109.245 89.6754 95.3038 68.3801 107.777 41.9445Z" fill="#F0F9FF"/>
<path d="M128.688 73.1532C133.956 73.1532 138.227 69.0436 138.227 63.9742C138.227 58.9047 133.956 54.7951 128.688 54.7951C123.421 54.7951 119.15 58.9047 119.15 63.9742C119.15 69.0436 123.421 73.1532 128.688 73.1532Z" fill="#F0F9FF"/>
<path d="M126.487 71.6846C130.54 71.6846 133.825 68.3969 133.825 64.3413C133.825 60.2858 130.54 56.9981 126.487 56.9981C122.435 56.9981 119.15 60.2858 119.15 64.3413C119.15 68.3969 122.435 71.6846 126.487 71.6846Z" fill="#AD235C"/>
<path d="M161.706 73.1532C166.974 73.1532 171.245 69.0436 171.245 63.9742C171.245 58.9047 166.974 54.7951 161.706 54.7951C156.438 54.7951 152.168 58.9047 152.168 63.9742C152.168 69.0436 156.438 73.1532 161.706 73.1532Z" fill="#F0F9FF"/>
<path d="M159.505 71.6846C163.557 71.6846 166.842 68.3969 166.842 64.3413C166.842 60.2858 163.557 56.9981 159.505 56.9981C155.453 56.9981 152.168 60.2858 152.168 64.3413C152.168 68.3969 155.453 71.6846 159.505 71.6846Z" fill="#AD235C"/>
</g>
<defs>
<clipPath id="clip0_157_8921">
<rect width="185.765" height="200" fill="white"/>
</clipPath>
</defs>
</svg>
