<svg width="50" height="50" viewBox="0 0 50 50" fill="none" xmlns="http://www.w3.org/2000/svg">
<path d="M25 0C11.1928 0 0 11.1928 0 25C0 38.8072 11.1928 50 25 50C38.8072 50 50 38.8072 50 25C50 11.1928 38.8072 0 25 0ZM25 12.2261C29.9439 12.2261 33.9667 16.2489 33.9667 21.1928C33.9667 26.1372 29.9439 30.1594 25 30.1594C20.0556 30.1594 16.0333 26.1372 16.0333 21.1928C16.0333 16.2489 20.0556 12.2261 25 12.2261ZM25 46.5794C18.8139 46.5794 13.265 43.8656 9.46833 39.5667C11.2333 36.3722 13.9928 33.7467 17.2739 32.155C18.39 31.6139 19.6928 31.6228 20.8489 32.1778C22.1506 32.8033 23.5472 33.12 25.0006 33.12C26.4533 33.12 27.8506 32.8028 29.1522 32.1778C30.3094 31.6222 31.6122 31.6139 32.7272 32.155C36.0083 33.7461 38.7672 36.3722 40.5322 39.5667C36.735 43.865 31.1861 46.5794 25 46.5794Z" fill="#035A89"/>
</svg>
