<svg width="163" height="157" viewBox="0 0 163 157" fill="none" xmlns="http://www.w3.org/2000/svg">
<path d="M120.231 32.0555C120.557 33.0286 121.076 33.9324 121.692 34.7546C126.589 41.2649 157.74 84.7342 162.107 143.344L33.1627 143.344C37.0798 134.224 37.1568 125.077 37.0798 115.376C36.9457 99.6162 36.2905 67.2645 33.0916 66.7549C28.8552 66.0868 13.89 62.1951 13.89 62.1951C13.89 62.1951 -0.222779 56.1401 4.77424 53.6094C7.66214 52.1424 21.7947 46.8809 33.1627 42.7101C43.3977 38.9528 53.4069 34.652 63.1697 29.8093C77.8031 22.5411 98.8391 12.106 107.246 7.98893C115.653 3.87191 122.559 2.49748 126.393 2.04265C128.357 1.81627 129.963 3.55269 129.624 5.50331C129.172 8.17379 127.74 12.1628 123.717 16.9661C118.373 23.3584 119.257 29.1983 120.231 32.0555Z" fill="#AD235C"/>
<path d="M78.2501 66.9149C77.8284 66.3991 77.8961 65.6311 78.3999 65.1898C79.4577 64.2818 81.5685 62.8838 84.2179 63.2021C87.0782 63.5434 85.0761 66.8732 83.8196 68.6025C83.3539 69.2388 82.5217 69.5109 81.7859 69.2212C80.7161 68.8151 79.1874 68.0634 78.2397 66.9158L78.2501 66.9149Z" fill="#F0F9FF"/>
<path d="M120.512 59.6076C123.316 59.6617 126.109 59.7167 128.913 59.7707L130.126 59.7988C130.755 59.8161 131.235 59.1159 131.184 58.5359C131.123 57.8524 130.548 57.4859 129.921 57.4789C127.117 57.4249 124.324 57.3699 121.521 57.3158L120.307 57.2877C119.679 57.2704 119.198 57.9706 119.249 58.5506C119.31 59.2341 119.885 59.6006 120.512 59.6076Z" fill="#F0F9FF"/>
<path d="M118.752 62.9578C121.497 63.9982 124.231 65.0292 126.975 66.0697L128.153 66.5184C128.747 66.7371 129.431 66.5617 129.712 65.9627C129.968 65.4285 129.751 64.6336 129.156 64.4045C126.412 63.3641 123.678 62.3331 120.933 61.2926L119.755 60.8439C119.162 60.6251 118.477 60.8006 118.196 61.3996C117.941 61.9338 118.158 62.7287 118.752 62.9578Z" fill="#F0F9FF"/>
<path d="M116.123 66.0404C118.332 67.3997 120.541 68.759 122.751 70.1287C123.06 70.3205 123.381 70.5217 123.69 70.7134C124.209 71.0327 125.025 70.689 125.249 70.1577C125.516 69.5182 125.246 68.9472 124.693 68.5996C122.484 67.2402 120.275 65.8809 118.065 64.5112C117.756 64.3194 117.435 64.1182 117.126 63.9265C116.606 63.6072 115.791 63.9509 115.567 64.4822C115.3 65.1218 115.57 65.6928 116.123 66.0404Z" fill="#F0F9FF"/>
<path d="M47.6452 79.0752C45.0567 80.1503 42.4682 81.2253 39.8797 82.3003L38.7617 82.7648C38.1773 83.0045 37.849 83.6599 38.0699 84.2666C38.2908 84.8733 38.9879 85.1976 39.5723 84.9579C42.1608 83.8829 44.7493 82.8079 47.3378 81.7328L48.4558 81.2684C49.0402 81.0286 49.3685 80.3733 49.1476 79.7666C48.9267 79.1599 48.2296 78.8355 47.6452 79.0752Z" fill="#F0F9FF"/>
<path d="M49.7219 82.0017C47.5467 83.969 45.3819 85.9355 43.2058 87.8924C42.8972 88.1808 42.5773 88.4596 42.2687 88.748C41.8054 89.1752 41.5911 89.8205 41.9957 90.3796C42.3299 90.851 43.1544 91.0806 43.6281 90.6524C45.8033 88.685 47.9681 86.7186 50.1442 84.7616C50.4528 84.4733 50.7727 84.1944 51.0813 83.9061C51.5446 83.4788 51.7589 82.8335 51.3543 82.2744C51.0201 81.803 50.1956 81.5735 49.7219 82.0017Z" fill="#F0F9FF"/>
<path d="M53.0744 84.126C51.5148 86.2057 49.9544 88.2751 48.3949 90.3549C48.1701 90.6462 47.9566 90.947 47.7318 91.2383C47.3681 91.7298 47.3626 92.4923 47.8778 92.885C48.3592 93.2494 49.1333 93.2642 49.5253 92.7389C51.0848 90.6591 52.6452 88.5897 54.2048 86.5099C54.4296 86.2186 54.6431 85.9179 54.8679 85.6265C55.2316 85.135 55.237 84.3726 54.7218 83.9799C54.2405 83.6155 53.4664 83.6006 53.0744 84.126Z" fill="#F0F9FF"/>
<path d="M72.4142 63.2333C70.3903 56.9534 63.4523 53.5687 56.9178 55.6733C50.3834 57.7778 46.7269 64.5747 48.7508 70.8545C50.7748 77.1343 57.7128 80.519 64.2472 78.4145C70.7817 76.3099 74.4382 69.5131 72.4142 63.2333Z" fill="#F0F9FF"/>
<path d="M72.4834 65.5891C72.0173 60.3327 67.3762 56.4496 62.1172 56.916C56.8583 57.3824 52.973 62.0216 53.4391 67.278C53.9053 72.5345 58.5464 76.4176 63.8053 75.9512C69.0643 75.4848 72.9496 70.8455 72.4834 65.5891Z" fill="#AD235C"/>
<path d="M113.383 50.0436C111.359 43.7637 104.421 40.379 97.8866 42.4836C91.3521 44.5881 87.6956 51.385 89.7196 57.6648C91.7435 63.9446 98.6815 67.3293 105.216 65.2248C111.75 63.1202 115.407 56.3234 113.383 50.0436Z" fill="#F0F9FF"/>
<path d="M108.907 53.5598C108.441 48.3034 103.799 44.4203 98.5405 44.8867C93.2816 45.3531 89.3963 49.9923 89.8625 55.2487C90.3286 60.5052 94.9697 64.3883 100.229 63.9219C105.488 63.4555 109.373 58.8162 108.907 53.5598Z" fill="#AD235C"/>
<path d="M57.0277 143.059C54.967 141.608 53.7475 140.588 53.7475 140.588C53.7475 140.588 55.739 141.631 58.782 143.059L57.0277 143.059Z" fill="#F0F9FF"/>
<path d="M88.5799 143.059C84.4487 133.241 67.5605 118.299 67.5605 118.299C67.5605 118.299 86.4513 133.057 91.4021 143.059L88.5799 143.059Z" fill="#F0F9FF"/>
<path d="M141.494 132.044L141.493 132.034C141.493 132.034 133.91 138.413 125.926 143.344L129.936 143.344C136.776 138.155 141.494 132.044 141.494 132.044Z" fill="#F0F9FF"/>
<path d="M123.211 113.238C123.211 113.238 107.158 132.646 105.068 143.344L107.814 143.344C108.675 133.191 123.211 113.238 123.211 113.238Z" fill="#F0F9FF"/>
</svg>
