<svg width="78" height="150" viewBox="0 0 78 150" fill="none" xmlns="http://www.w3.org/2000/svg">
<g clip-path="url(#clip0_245_1852)">
<path d="M46.4209 131.144C46.4209 131.144 53.6893 131.144 58.1311 129.932C58.1311 129.932 64.5919 148.513 72.6679 145.282C80.7439 142.05 70.6489 121.853 70.6489 121.853C70.6489 121.853 76.7059 117.814 72.6679 103.676C72.6679 103.676 78.3211 94.3852 77.1097 92.3655C75.8983 90.3458 68.7712 92.3655 68.7712 92.3655C68.7712 92.3655 60.8245 52.9165 31.3793 48.5296C30.5435 48.4044 29.9499 47.645 30.0428 46.8048C31.0079 38.1847 34.9086 -3.72031 18.9585 0.266599C3.00834 4.25351 14.9124 41.7353 17.3432 48.8043C17.5653 49.4506 17.2706 50.1535 16.6568 50.4565C12.4371 52.5327 -2.46316 61.0923 0.347293 77.4196C3.61404 96.4049 5.81879 128.341 18.5546 133.972C27.2364 137.809 22.1889 110.947 22.1889 110.947C22.1889 110.947 34.9086 151.947 45.0036 149.927C55.0986 147.908 46.4169 131.144 46.4169 131.144H46.4209Z" fill="#006BA6"/>
<path d="M51.1409 112.829C51.0036 112.579 51.0924 112.268 51.3347 112.126C51.8435 111.827 52.8247 111.407 53.9029 111.747C55.0618 112.106 53.9756 113.338 53.3254 113.96C53.0832 114.19 52.7197 114.235 52.4331 114.061C52.0171 113.807 51.4437 113.383 51.1368 112.833L51.1409 112.829Z" fill="#F0F9FF"/>
<path d="M69.1751 112.983C70.334 113.221 71.4929 113.459 72.6558 113.698C72.8214 113.73 72.9869 113.766 73.1525 113.799C73.3907 113.847 73.6451 113.73 73.7097 113.48C73.7703 113.253 73.633 112.971 73.3907 112.922C72.2318 112.684 71.0729 112.445 69.91 112.207C69.7444 112.175 69.5789 112.138 69.4133 112.106C69.1751 112.058 68.9207 112.175 68.8561 112.425C68.7955 112.651 68.9328 112.934 69.1751 112.983Z" fill="#F0F9FF"/>
<path d="M68.3188 114.279C69.3767 114.922 70.4347 115.564 71.4926 116.206C71.6461 116.299 71.7955 116.392 71.9489 116.481C72.4497 116.784 72.906 116 72.4093 115.697C71.3513 115.055 70.2934 114.413 69.2354 113.77C69.082 113.677 68.9326 113.585 68.7791 113.496C68.2784 113.193 67.8221 113.976 68.3188 114.279Z" fill="#F0F9FF"/>
<path d="M66.8976 115.289C67.7092 116.024 68.5209 116.76 69.3325 117.495L69.6838 117.81C69.8615 117.967 70.1562 117.996 70.3258 117.81C70.4874 117.636 70.5156 117.337 70.3258 117.168C69.5142 116.432 68.7026 115.697 67.8909 114.962L67.5396 114.647C67.3619 114.489 67.0672 114.461 66.8976 114.647C66.7361 114.821 66.7078 115.12 66.8976 115.289Z" fill="#F0F9FF"/>
<path d="M37.4645 115.584C36.3056 115.83 35.1507 116.081 33.9918 116.327C33.8262 116.364 33.6607 116.396 33.4951 116.432C33.2569 116.485 33.1155 116.764 33.1761 116.99C33.2448 117.236 33.4951 117.357 33.7334 117.309C34.8923 117.062 36.0471 116.812 37.206 116.566C37.3716 116.529 37.5372 116.497 37.7027 116.461C37.941 116.408 38.0823 116.129 38.0217 115.903C37.9531 115.657 37.7027 115.536 37.4645 115.584Z" fill="#F0F9FF"/>
<path d="M38.1143 116.966C37.0604 117.616 36.0065 118.27 34.9525 118.921L34.5043 119.199C34.0077 119.506 34.4639 120.294 34.9647 119.983C36.0186 119.333 37.0725 118.678 38.1264 118.028L38.5746 117.749C39.0713 117.442 38.615 116.655 38.1143 116.966Z" fill="#F0F9FF"/>
<path d="M39.3624 118.109C38.5548 118.852 37.7472 119.595 36.9437 120.334C36.8306 120.439 36.7135 120.544 36.6004 120.65C36.4268 120.811 36.4268 121.13 36.6004 121.292C36.7862 121.465 37.0567 121.465 37.2425 121.292C38.0501 120.549 38.8577 119.805 39.6612 119.066C39.7743 118.961 39.8914 118.856 40.0045 118.751C40.1781 118.589 40.1781 118.27 40.0045 118.109C39.8187 117.935 39.5482 117.935 39.3624 118.109Z" fill="#F0F9FF"/>
<path d="M44.4422 116.542C47.3173 116.169 49.3574 113.625 48.9988 110.859C48.6403 108.094 46.0189 106.154 43.1438 106.527C40.2687 106.9 38.2287 109.444 38.5872 112.21C38.9458 114.975 41.5671 116.915 44.4422 116.542Z" fill="#F0F9FF"/>
<path d="M44.8134 116.226C47.0435 116.226 48.8514 114.418 48.8514 112.187C48.8514 109.956 47.0435 108.148 44.8134 108.148C42.5833 108.148 40.7754 109.956 40.7754 112.187C40.7754 114.418 42.5833 116.226 44.8134 116.226Z" fill="#006BA6"/>
<path d="M62.4613 114.203C65.3364 113.83 67.3764 111.285 67.0179 108.52C66.6593 105.754 64.0379 103.815 61.1628 104.188C58.2877 104.561 56.2477 107.105 56.6063 109.871C56.9648 112.636 59.5862 114.576 62.4613 114.203Z" fill="#F0F9FF"/>
<path d="M60.9657 114.207C63.1959 114.207 65.0037 112.398 65.0037 110.167C65.0037 107.936 63.1959 106.128 60.9657 106.128C58.7356 106.128 56.9277 107.936 56.9277 110.167C56.9277 112.398 58.7356 114.207 60.9657 114.207Z" fill="#006BA6"/>
<path d="M23.2021 103.058C23.2021 103.058 26.2307 105.696 29.4611 106.907C29.4611 106.907 28.6535 128.72 43.1903 129.932C43.1903 129.932 28.6535 130.74 29.0573 107.311C29.0573 107.311 25.4231 105.675 23.2021 103.058Z" fill="#F0F9FF"/>
<path d="M57.7271 94.7891C57.7271 94.7891 40.3637 95.1931 23.2021 99.7011C23.2021 99.7011 41.9789 96.001 57.7271 94.7891Z" fill="#F0F9FF"/>
</g>
<defs>
<clipPath id="clip0_245_1852">
<rect width="77.2793" height="150" fill="white"/>
</clipPath>
</defs>
</svg>
