<svg width="175" height="61" viewBox="0 0 175 61" fill="none" xmlns="http://www.w3.org/2000/svg">
<path d="M0.629739 53.9837V51.7695L7.33341 42.75H10.7868L4.22535 51.7695L2.62053 51.3023H13.8136V53.9837H0.629739ZM8.28818 56.9699V53.9837L8.38975 51.3023V48.6411H11.4978V56.9699H8.28818ZM17.0636 57.1324C16.5219 57.1324 16.0546 56.9496 15.6619 56.5839C15.2827 56.2047 15.0931 55.724 15.0931 55.1416C15.0931 54.5593 15.2827 54.0921 15.6619 53.74C16.0546 53.3743 16.5219 53.1915 17.0636 53.1915C17.6188 53.1915 18.0861 53.3743 18.4653 53.74C18.8445 54.0921 19.0341 54.5593 19.0341 55.1416C19.0341 55.724 18.8445 56.2047 18.4653 56.5839C18.0861 56.9496 17.6188 57.1324 17.0636 57.1324ZM26.6008 57.2137C25.409 57.2137 24.3662 57.0376 23.4724 56.6855C22.5786 56.3199 21.8811 55.812 21.38 55.1619C20.8789 54.4984 20.6284 53.7264 20.6284 52.8461C20.6284 51.9659 20.8722 51.221 21.3597 50.6116C21.8608 49.9886 22.5582 49.5214 23.4521 49.2099C24.3459 48.8849 25.3955 48.7224 26.6008 48.7224C27.8196 48.7224 28.8759 48.8849 29.7698 49.2099C30.6771 49.5214 31.3746 49.9886 31.8621 50.6116C32.3632 51.221 32.6138 51.9659 32.6138 52.8461C32.6138 53.7264 32.3632 54.4984 31.8621 55.1619C31.361 55.812 30.6568 56.3199 29.7495 56.6855C28.8556 57.0376 27.8061 57.2137 26.6008 57.2137ZM26.6008 54.7963C27.4269 54.7963 28.0769 54.6135 28.5509 54.2478C29.0385 53.8822 29.2822 53.3811 29.2822 52.7446C29.2822 52.1081 29.0385 51.6137 28.5509 51.2616C28.0769 50.896 27.4269 50.7131 26.6008 50.7131C25.7882 50.7131 25.1449 50.896 24.6709 51.2616C24.1969 51.6137 23.9599 52.1081 23.9599 52.7446C23.9599 53.3811 24.1969 53.8822 24.6709 54.2478C25.1449 54.6135 25.7882 54.7963 26.6008 54.7963ZM26.6008 50.3881C25.5038 50.3881 24.5423 50.2392 23.7161 49.9412C22.9036 49.6433 22.2671 49.2099 21.8066 48.6411C21.3597 48.0588 21.1363 47.3681 21.1363 46.5691C21.1363 45.7294 21.3665 45.0116 21.8269 44.4158C22.2874 43.8063 22.9307 43.3391 23.7568 43.0141C24.5829 42.6755 25.5309 42.5062 26.6008 42.5062C27.6977 42.5062 28.6525 42.6755 29.4651 43.0141C30.2912 43.3391 30.9344 43.8063 31.3949 44.4158C31.8689 45.0116 32.1059 45.7294 32.1059 46.5691C32.1059 47.3681 31.8757 48.0588 31.4152 48.6411C30.9683 49.2099 30.3318 49.6433 29.5057 49.9412C28.6796 50.2392 27.7113 50.3881 26.6008 50.3881ZM26.6008 48.4583C27.2914 48.4583 27.8332 48.3025 28.2259 47.991C28.6322 47.6796 28.8353 47.253 28.8353 46.7113C28.8353 46.1425 28.6254 45.7023 28.2056 45.3908C27.7993 45.0794 27.2644 44.9236 26.6008 44.9236C25.9507 44.9236 25.4225 45.0794 25.0163 45.3908C24.61 45.7023 24.4068 46.1425 24.4068 46.7113C24.4068 47.253 24.6032 47.6796 24.9959 47.991C25.3887 48.3025 25.9236 48.4583 26.6008 48.4583Z" fill="#062F4B"/>
<path d="M58.5424 11.4029H71.802V13.8713H66.5811V27.7863H63.7195V13.8713H58.5205L58.5424 11.4029ZM71.234 15.9247H73.6806V18.2183H73.7243C73.8117 17.8907 73.9646 17.5849 74.183 17.279C74.4015 16.9732 74.6636 16.6892 74.9913 16.4489C75.2971 16.1868 75.6466 15.9902 76.0398 15.8373C76.4112 15.6844 76.8044 15.597 77.1976 15.597C77.5034 15.597 77.7218 15.6189 77.8311 15.6189C77.9403 15.6407 78.0714 15.6625 78.1806 15.6625V18.1747C78.0058 18.131 77.8092 18.1091 77.6126 18.0873C77.416 18.0654 77.2413 18.0436 77.0447 18.0436C76.6078 18.0436 76.1927 18.131 75.7995 18.3057C75.4063 18.4805 75.0787 18.7426 74.7728 19.0703C74.4889 19.4198 74.2486 19.8348 74.0738 20.3373C73.8991 20.8397 73.8117 21.4295 73.8117 22.0848V27.7207H71.1903L71.234 15.9247ZM90.1951 27.7863H87.6174V26.1261H87.5737C87.2461 26.7377 86.7655 27.1965 86.132 27.5678C85.4985 27.9392 84.8432 28.1139 84.1878 28.1139C82.6369 28.1139 81.5009 27.7426 80.8019 26.9562C80.1029 26.1916 79.7534 25.012 79.7534 23.461V15.9247H82.3747V23.1989C82.3747 24.2474 82.5713 24.9901 82.9864 25.4052C83.3796 25.8421 83.9475 26.0605 84.6684 26.0605C85.2145 26.0605 85.6733 25.9732 86.0446 25.7984C86.416 25.6236 86.7218 25.4052 86.9402 25.1212C87.1805 24.8372 87.3334 24.4877 87.4427 24.0945C87.5519 23.7013 87.5956 23.2644 87.5956 22.8057V15.9247H90.2169V27.7863H90.1951ZM94.6513 23.9853C94.7387 24.7499 95.0227 25.2741 95.5251 25.6018C96.0276 25.9076 96.6392 26.0605 97.3382 26.0605C97.5785 26.0605 97.8625 26.0387 98.1683 25.995C98.4741 25.9513 98.78 25.8858 99.0421 25.7766C99.3261 25.6673 99.5445 25.5144 99.7193 25.296C99.894 25.0775 99.9814 24.8154 99.9596 24.4877C99.9377 24.1601 99.8285 23.8761 99.5882 23.6576C99.3479 23.4392 99.0639 23.2863 98.7144 23.1334C98.3649 23.0023 97.9499 22.8931 97.4911 22.8057C97.0324 22.7183 96.5737 22.6091 96.0931 22.4999C95.6125 22.3907 95.1319 22.2596 94.6732 22.1067C94.2145 21.9538 93.8213 21.7572 93.4499 21.4732C93.1004 21.211 92.7946 20.8834 92.598 20.4683C92.3795 20.0533 92.2703 19.5727 92.2703 18.9611C92.2703 18.3057 92.4232 17.7815 92.7509 17.3446C93.0567 16.9077 93.4717 16.5582 93.9523 16.296C94.4329 16.0339 94.979 15.8373 95.5688 15.7281C96.1586 15.6189 96.7266 15.5752 97.2508 15.5752C97.8625 15.5752 98.4523 15.6407 98.9984 15.7718C99.5445 15.9028 100.069 16.0994 100.506 16.4053C100.964 16.6892 101.336 17.0824 101.62 17.5412C101.926 17.9999 102.1 18.5679 102.188 19.2232H99.4571C99.3261 18.5897 99.0421 18.1747 98.6052 17.9562C98.1465 17.7378 97.644 17.6286 97.0542 17.6286C96.8795 17.6286 96.6392 17.6504 96.3989 17.6722C96.1368 17.7159 95.9183 17.7596 95.678 17.847C95.4596 17.9344 95.263 18.0654 95.1101 18.2183C94.9572 18.3713 94.8698 18.5897 94.8698 18.8518C94.8698 19.1795 94.979 19.4198 95.1975 19.6164C95.4159 19.813 95.6999 19.9659 96.0712 20.1188C96.4208 20.2499 96.8358 20.3591 97.2945 20.4465C97.7533 20.5339 98.2338 20.6431 98.7144 20.7523C99.195 20.8615 99.6537 20.9926 100.112 21.1455C100.571 21.2984 100.986 21.495 101.336 21.779C101.685 22.0411 101.991 22.3688 102.21 22.762C102.428 23.1552 102.537 23.6576 102.537 24.2256C102.537 24.9246 102.384 25.5144 102.057 26.0168C101.729 26.4974 101.314 26.9125 100.812 27.2183C100.309 27.5241 99.7193 27.7426 99.1076 27.8955C98.4741 28.0265 97.8625 28.1139 97.2508 28.1139C96.5081 28.1139 95.8091 28.0265 95.1756 27.8518C94.5421 27.677 93.9742 27.4149 93.5154 27.0872C93.0567 26.7377 92.6853 26.3227 92.4232 25.7984C92.1611 25.296 92.0082 24.6843 91.9863 23.9635H94.6295V23.9853H94.6513ZM103.28 15.9247H105.268V12.3422H107.889V15.9028H110.248V17.847H107.889V24.1819C107.889 24.4659 107.911 24.6843 107.933 24.9028C107.955 25.0994 108.02 25.2741 108.086 25.4052C108.173 25.5363 108.304 25.6455 108.457 25.711C108.632 25.7766 108.85 25.8202 109.156 25.8202C109.331 25.8202 109.527 25.8202 109.702 25.7984C109.877 25.7766 110.074 25.7547 110.248 25.711V27.7426C109.964 27.7863 109.68 27.8081 109.396 27.8299C109.112 27.8736 108.85 27.8736 108.544 27.8736C107.845 27.8736 107.299 27.8081 106.884 27.677C106.469 27.546 106.142 27.3494 105.901 27.1091C105.661 26.8469 105.508 26.5411 105.421 26.1698C105.333 25.7984 105.29 25.3397 105.268 24.8591V17.8688H103.28V15.881V15.9247ZM112.083 15.9247H114.552V17.5412H114.595C114.967 16.8421 115.469 16.3616 116.125 16.0557C116.78 15.7499 117.479 15.597 118.265 15.597C119.205 15.597 120.013 15.7499 120.712 16.0994C121.411 16.4271 121.979 16.864 122.438 17.4538C122.896 18.0217 123.246 18.6989 123.464 19.4635C123.683 20.228 123.814 21.0581 123.814 21.9101C123.814 22.7183 123.705 23.4829 123.508 24.2256C123.29 24.9683 122.984 25.6455 122.569 26.2134C122.154 26.7814 121.629 27.2401 120.974 27.5896C120.319 27.9392 119.576 28.1139 118.702 28.1139C118.331 28.1139 117.938 28.0702 117.566 28.0047C117.195 27.9392 116.824 27.8299 116.474 27.677C116.125 27.5241 115.797 27.3275 115.513 27.0872C115.207 26.8469 114.967 26.563 114.77 26.2571H114.726V32.177H112.105V15.9247H112.083ZM121.236 21.8664C121.236 21.3421 121.171 20.8178 121.018 20.3154C120.887 19.813 120.668 19.3761 120.384 18.9829C120.1 18.5897 119.751 18.2839 119.358 18.0436C118.942 17.8033 118.462 17.6941 117.938 17.6941C116.845 17.6941 116.015 18.0654 115.447 18.83C114.901 19.5946 114.617 20.6213 114.617 21.8882C114.617 22.4999 114.683 23.046 114.836 23.5484C114.989 24.0508 115.185 24.4877 115.491 24.8591C115.775 25.2304 116.125 25.5144 116.54 25.7329C116.955 25.9513 117.413 26.0605 117.959 26.0605C118.571 26.0605 119.052 25.9295 119.467 25.6892C119.882 25.4489 120.209 25.1212 120.493 24.7499C120.756 24.3567 120.952 23.9198 121.061 23.4173C121.171 22.8931 121.236 22.3907 121.236 21.8664ZM125.845 11.4029H128.467V13.8713H125.845V11.4029ZM125.845 15.9247H128.467V27.7863H125.845V15.9247ZM130.804 11.4029H133.425V27.7863H130.804V11.4029ZM141.42 28.1139C140.481 28.1139 139.629 27.961 138.887 27.6333C138.144 27.3057 137.532 26.8906 137.008 26.3445C136.505 25.7984 136.112 25.1212 135.85 24.3567C135.588 23.5921 135.435 22.7402 135.435 21.8445C135.435 20.9489 135.566 20.1188 135.85 19.3543C136.112 18.5897 136.505 17.9344 137.008 17.3664C137.51 16.8203 138.144 16.3834 138.887 16.0776C139.629 15.7718 140.481 15.597 141.42 15.597C142.36 15.597 143.212 15.7499 143.954 16.0776C144.697 16.3834 145.309 16.8203 145.833 17.3664C146.335 17.9125 146.729 18.5897 146.991 19.3543C147.253 20.1188 147.406 20.9489 147.406 21.8445C147.406 22.762 147.275 23.5921 146.991 24.3567C146.707 25.1212 146.335 25.7766 145.833 26.3445C145.331 26.8906 144.697 27.3275 143.954 27.6333C143.212 27.9392 142.382 28.1139 141.42 28.1139ZM141.42 26.0387C141.988 26.0387 142.513 25.9076 142.928 25.6673C143.365 25.427 143.692 25.0994 143.976 24.7062C144.26 24.313 144.457 23.8542 144.588 23.3737C144.719 22.8712 144.785 22.3688 144.785 21.8445C144.785 21.3421 144.719 20.8397 144.588 20.3373C144.457 19.8348 144.26 19.398 143.976 19.0048C143.692 18.6116 143.343 18.3057 142.928 18.0654C142.491 17.8252 141.988 17.6941 141.42 17.6941C140.853 17.6941 140.328 17.8252 139.913 18.0654C139.476 18.3057 139.149 18.6334 138.865 19.0048C138.581 19.398 138.384 19.8348 138.253 20.3373C138.122 20.8397 138.056 21.3421 138.056 21.8445C138.056 22.3688 138.122 22.8712 138.253 23.3737C138.384 23.8761 138.581 24.313 138.865 24.7062C139.149 25.0994 139.498 25.427 139.913 25.6673C140.35 25.9295 140.853 26.0387 141.42 26.0387ZM148.192 15.9247H150.18V12.3422H152.801V15.9028H155.161V17.847H152.801V24.1819C152.801 24.4659 152.823 24.6843 152.845 24.9028C152.867 25.0994 152.933 25.2741 152.998 25.4052C153.085 25.5363 153.217 25.6455 153.369 25.711C153.544 25.7766 153.763 25.8202 154.068 25.8202C154.243 25.8202 154.44 25.8202 154.615 25.7984C154.789 25.7766 154.986 25.7547 155.161 25.711V27.7426C154.877 27.7863 154.593 27.8081 154.309 27.8299C154.025 27.8736 153.763 27.8736 153.457 27.8736C152.758 27.8736 152.212 27.8081 151.797 27.677C151.382 27.546 151.054 27.3494 150.814 27.1091C150.573 26.8469 150.42 26.5411 150.333 26.1698C150.246 25.7984 150.202 25.3397 150.18 24.8591V17.8688H148.192V15.881V15.9247Z" fill="#062F4B"/>
<path d="M55.4843 11.4028H43.4917L39.8 0L36.0864 11.4028L24.0938 11.381L33.7927 18.4368L30.0791 29.8396L39.7781 22.7838L49.4771 29.8396L45.7854 18.4368L55.4843 11.4028Z" fill="#00B67A"/>
<path d="M46.6153 21.0145L45.7852 18.4368L39.7998 22.7839L46.6153 21.0145Z" fill="#00B67A"/>
<path d="M68.768 43.4824H51.4941V60.7562H68.768V43.4824Z" fill="#00B67A"/>
<path d="M60.1315 54.9984L62.8305 54.2787L63.9101 57.6974L60.1315 54.9984ZM66.2493 50.68H61.571L60.1315 46.3615L58.692 50.68H54.0137L57.7923 53.379L56.3528 57.6974L60.1315 54.9984L62.4706 53.379L66.2493 50.68Z" fill="#F0F9FF"/>
<path d="M89.64 43.4824H72.3662V60.7562H89.64V43.4824Z" fill="#00B67A"/>
<path d="M81.0036 54.9984L83.7026 54.2787L84.7822 57.6975L81.0036 54.9984ZM87.1214 50.68H82.443L81.0036 46.3615L79.5641 50.68H74.8857L78.6644 53.379L77.2249 57.6975L81.0036 54.9984L83.3427 53.379L87.1214 50.68Z" fill="#F0F9FF"/>
<path d="M110.513 43.4824H93.2393V60.7562H110.513V43.4824Z" fill="#00B67A"/>
<path d="M101.876 54.9984L104.575 54.2787L105.654 57.6975L101.876 54.9984ZM107.993 50.68H103.315L101.876 46.3615L100.436 50.68H95.7578L99.5365 53.379L98.097 57.6975L101.876 54.9984L104.215 53.379L107.993 50.68Z" fill="#F0F9FF"/>
<path d="M131.385 43.4824H114.111V60.7562H131.385V43.4824Z" fill="#00B67A"/>
<path d="M122.749 54.9984L125.448 54.2787L126.527 57.6975L122.749 54.9984ZM128.866 50.68H124.188L122.749 46.3615L121.309 50.68H116.631L120.41 53.379L118.97 57.6975L122.749 54.9984L125.088 53.379L128.866 50.68Z" fill="#F0F9FF"/>
<path d="M152.258 43.4824H134.984V60.7562H152.258V43.4824Z" fill="#00B67A"/>
<path d="M143.621 54.9984L146.32 54.2787L147.399 57.6975L143.621 54.9984ZM149.739 50.68H145.06L143.621 46.3615L142.181 50.68H137.503L141.282 53.379L139.842 57.6975L143.621 54.9984L145.96 53.379L149.739 50.68Z" fill="#F0F9FF"/>
<path d="M156.316 45.2771C156.078 44.9157 155.893 44.4988 155.762 44.0262C155.635 43.5497 155.572 43.0374 155.572 42.4894C155.572 41.9414 155.635 41.4292 155.762 40.9527C155.893 40.4722 156.078 40.0552 156.316 39.7018H157.204C156.953 40.1505 156.771 40.6032 156.656 41.0599C156.54 41.5126 156.483 41.9891 156.483 42.4894C156.483 42.9898 156.54 43.4683 156.656 43.925C156.771 44.3776 156.953 44.8284 157.204 45.2771H156.316ZM158.199 44.1215V40.3094L158.616 40.7263H157.366V39.952H159.164V44.1215H158.199ZM161.676 44.193C161.334 44.193 161.028 44.1096 160.758 43.9428C160.488 43.7721 160.276 43.5259 160.121 43.2042C159.966 42.8826 159.889 42.4934 159.889 42.0368C159.889 41.5801 159.966 41.1909 160.121 40.8693C160.276 40.5476 160.488 40.3034 160.758 40.1366C161.028 39.9659 161.334 39.8805 161.676 39.8805C162.021 39.8805 162.327 39.9659 162.593 40.1366C162.863 40.3034 163.075 40.5476 163.23 40.8693C163.385 41.1909 163.463 41.5801 163.463 42.0368C163.463 42.4934 163.385 42.8826 163.23 43.2042C163.075 43.5259 162.863 43.7721 162.593 43.9428C162.327 44.1096 162.021 44.193 161.676 44.193ZM161.676 43.377C161.838 43.377 161.979 43.3313 162.099 43.24C162.222 43.1486 162.317 43.0037 162.385 42.8051C162.456 42.6066 162.492 42.3505 162.492 42.0368C162.492 41.723 162.456 41.4669 162.385 41.2684C162.317 41.0698 162.222 40.9249 162.099 40.8335C161.979 40.7422 161.838 40.6965 161.676 40.6965C161.517 40.6965 161.376 40.7422 161.253 40.8335C161.134 40.9249 161.038 41.0698 160.967 41.2684C160.899 41.4669 160.866 41.723 160.866 42.0368C160.866 42.3505 160.899 42.6066 160.967 42.8051C161.038 43.0037 161.134 43.1486 161.253 43.24C161.376 43.3313 161.517 43.377 161.676 43.377ZM165.718 44.193C165.377 44.193 165.071 44.1096 164.801 43.9428C164.531 43.7721 164.319 43.5259 164.164 43.2042C164.009 42.8826 163.931 42.4934 163.931 42.0368C163.931 41.5801 164.009 41.1909 164.164 40.8693C164.319 40.5476 164.531 40.3034 164.801 40.1366C165.071 39.9659 165.377 39.8805 165.718 39.8805C166.064 39.8805 166.37 39.9659 166.636 40.1366C166.906 40.3034 167.118 40.5476 167.273 40.8693C167.428 41.1909 167.505 41.5801 167.505 42.0368C167.505 42.4934 167.428 42.8826 167.273 43.2042C167.118 43.5259 166.906 43.7721 166.636 43.9428C166.37 44.1096 166.064 44.193 165.718 44.193ZM165.718 43.377C165.881 43.377 166.022 43.3313 166.141 43.24C166.264 43.1486 166.36 43.0037 166.427 42.8051C166.499 42.6066 166.534 42.3505 166.534 42.0368C166.534 41.723 166.499 41.4669 166.427 41.2684C166.36 41.0698 166.264 40.9249 166.141 40.8335C166.022 40.7422 165.881 40.6965 165.718 40.6965C165.56 40.6965 165.419 40.7422 165.296 40.8335C165.176 40.9249 165.081 41.0698 165.01 41.2684C164.942 41.4669 164.908 41.723 164.908 42.0368C164.908 42.3505 164.942 42.6066 165.01 42.8051C165.081 43.0037 165.176 43.1486 165.296 43.24C165.419 43.3313 165.56 43.377 165.718 43.377ZM169.159 43.4127V40.6608H169.928V43.4127H169.159ZM168.129 42.4001V41.6734H170.964V42.4001H168.129ZM172.272 45.2771H171.385C171.643 44.8284 171.827 44.3776 171.939 43.925C172.054 43.4683 172.111 42.9898 172.111 42.4894C172.111 41.9891 172.054 41.5126 171.939 41.0599C171.827 40.6032 171.643 40.1505 171.385 39.7018H172.272C172.518 40.0552 172.705 40.4722 172.832 40.9527C172.959 41.4292 173.023 41.9414 173.023 42.4894C173.023 43.0374 172.959 43.5497 172.832 44.0262C172.705 44.4988 172.518 44.9157 172.272 45.2771Z" fill="#062F4B"/>
</svg>
