<svg width="39" height="38" viewBox="0 0 39 38" fill="none" xmlns="http://www.w3.org/2000/svg">
<path d="M19.6978 0C9.20421 0 0.697754 8.50646 0.697754 19C0.697754 29.4935 9.20421 38 19.6978 38C30.1913 38 38.6978 29.4935 38.6978 19C38.6978 8.50646 30.1913 0 19.6978 0ZM27.4264 15.5642C27.433 15.7265 27.4363 15.8874 27.4363 16.0471C27.4363 20.995 23.6739 26.697 16.7904 26.697C14.7564 26.6998 12.7649 26.1157 11.0547 25.0147C11.3463 25.049 11.6439 25.0655 11.9473 25.0642C13.7009 25.0642 15.3139 24.4684 16.5944 23.463C15.8141 23.4477 15.0579 23.1893 14.4314 22.7238C13.8049 22.2584 13.3392 21.6091 13.0992 20.8664C13.6596 20.9729 14.2369 20.9506 14.7874 20.801C13.9401 20.6305 13.178 20.1717 12.6307 19.5028C12.0833 18.8338 11.7845 17.996 11.785 17.1317V17.0861C12.2897 17.3652 12.8677 17.5354 13.4812 17.5552C12.6871 17.0266 12.125 16.2147 11.9098 15.2854C11.6946 14.3561 11.8425 13.3797 12.3234 12.5558C13.2637 13.7113 14.4361 14.6566 15.7646 15.3306C17.0932 16.0046 18.5484 16.3923 20.0362 16.4686C19.847 15.6657 19.9284 14.8228 20.2678 14.0709C20.6071 13.319 21.1853 12.7003 21.9126 12.3109C22.6398 11.9216 23.4753 11.7834 24.2892 11.9179C25.1031 12.0524 25.8497 12.452 26.4131 13.0546C27.2506 12.8888 28.0537 12.5816 28.7881 12.1461C28.5089 13.0133 27.9245 13.7496 27.1434 14.2183C27.8853 14.1289 28.6097 13.9295 29.2928 13.6266C28.7921 14.3794 28.1599 15.0357 27.4264 15.5642Z" fill="#062F4B"/>
</svg>
