<svg width="87" height="24" viewBox="0 0 87 24" fill="none" xmlns="http://www.w3.org/2000/svg">
<path d="M56.4957 0C50.3893 0 44.9324 2.72607 44.9324 7.76268C44.9324 13.5387 54.6105 13.9376 54.6105 16.8393C54.6105 18.0611 52.9848 19.1548 50.2083 19.1548C46.2678 19.1548 43.3228 17.6266 43.3228 17.6266L42.0626 22.7091C42.0626 22.7091 45.4553 24 49.9597 24C56.6358 24 61.8891 21.14 61.8891 16.0174C61.8891 9.91397 52.1709 9.52685 52.1709 6.83363C52.1709 5.8764 53.5053 4.82775 56.2739 4.82775C59.3976 4.82775 61.9463 5.9392 61.9463 5.9392L63.1796 1.03041C63.1796 1.03041 60.4065 0 56.4957 0ZM0.628624 0.37051L0.480728 1.11145C0.480728 1.11145 3.04971 1.51637 5.36345 2.32419C8.34254 3.25043 8.55483 3.7897 9.05654 5.46451L14.5239 23.6179H21.8531L33.1441 0.37051H25.8318L18.5766 16.1765L15.6161 2.77856C15.3446 1.24521 13.9693 0.37051 12.2859 0.37051H0.628624ZM36.0845 0.37051L30.3482 23.6178H37.3211L43.0372 0.370435H36.0845V0.37051ZM74.9746 0.37051C73.2932 0.37051 72.4024 1.14586 71.7486 2.50074L61.5329 23.6178H68.8452L70.26 20.0983H79.1684L80.0287 23.6178H86.4807L80.852 0.37051H74.9746ZM75.9256 6.65123L78.0931 15.3748H72.2862L75.9256 6.65123Z" fill="#062F4B"/>
</svg>
