<svg width="1116" height="3185" viewBox="0 0 1116 3185" fill="none" xmlns="http://www.w3.org/2000/svg">
<path d="M264 5C248.5 283 300.561 442.556 875.969 667.406C1063.41 748.39 1316.32 974.086 828.484 1229C709.49 1272.67 287 1306.5 256 1328.5" stroke="#C37C0B" stroke-width="10" stroke-linecap="round" stroke-dasharray="18 18"/>
<path d="M263.61 1325C-149.5 1444 13.4996 1826.5 201 1903C538.162 2027.42 409.5 1954 782 2182.5" stroke="#C37C0B" stroke-width="10" stroke-linecap="round" stroke-dasharray="18 18"/>
<path d="M774.5 2177.5C1142.5 2381.78 1292.34 3242.31 211.5 3168.73" stroke="#C37C0B" stroke-width="10" stroke-linejoin="round" stroke-dasharray="18 18"/>
<g clip-path="url(#clip0_314_3473)">
<path d="M265.9 3135.68C265.9 3135.68 252.263 3135.68 243.928 3133.41C243.928 3133.41 231.806 3168.22 216.653 3162.16C201.5 3156.11 220.441 3118.27 220.441 3118.27C220.441 3118.27 209.076 3110.7 216.653 3084.22C216.653 3084.22 206.046 3066.82 208.319 3063.03C210.592 3059.25 223.964 3063.03 223.964 3063.03C223.964 3063.03 238.875 2989.13 294.123 2980.91C295.691 2980.68 296.805 2979.26 296.631 2977.68C294.82 2961.53 287.501 2883.03 317.428 2890.5C347.356 2897.97 325.02 2968.18 320.459 2981.43C320.042 2982.64 320.595 2983.95 321.747 2984.52C329.665 2988.41 357.622 3004.45 352.349 3035.03C346.219 3070.6 342.083 3130.42 318.186 3140.97C301.896 3148.16 311.367 3097.84 311.367 3097.84C311.367 3097.84 287.501 3174.65 268.56 3170.86C249.618 3167.08 265.908 3135.68 265.908 3135.68H265.9Z" fill="#006BA6"/>
<path d="M257.043 3101.37C257.3 3100.9 257.134 3100.32 256.679 3100.05C255.724 3099.49 253.883 3098.7 251.86 3099.34C249.686 3100.01 251.724 3102.32 252.944 3103.49C253.398 3103.92 254.08 3104 254.618 3103.67C255.399 3103.2 256.474 3102.4 257.05 3101.37L257.043 3101.37Z" fill="#F0F9FF"/>
<path d="M223.206 3101.65C221.031 3102.1 218.857 3102.55 216.675 3102.99C216.364 3103.05 216.053 3103.12 215.743 3103.18C215.296 3103.27 214.819 3103.05 214.697 3102.59C214.584 3102.16 214.841 3101.63 215.296 3101.54C217.47 3101.09 219.645 3100.65 221.827 3100.2C222.137 3100.14 222.448 3100.07 222.759 3100.01C223.206 3099.92 223.683 3100.14 223.804 3100.61C223.918 3101.03 223.66 3101.56 223.206 3101.65Z" fill="#F0F9FF"/>
<path d="M224.812 3104.08C222.827 3105.29 220.842 3106.49 218.857 3107.69C218.569 3107.87 218.288 3108.04 218 3108.21C217.061 3108.78 216.205 3107.31 217.137 3106.74C219.122 3105.54 221.107 3104.33 223.092 3103.13C223.38 3102.96 223.66 3102.78 223.948 3102.62C224.888 3102.05 225.744 3103.52 224.812 3104.08Z" fill="#F0F9FF"/>
<path d="M227.479 3105.98C225.956 3107.35 224.433 3108.73 222.91 3110.11L222.251 3110.7C221.918 3110.99 221.365 3111.05 221.046 3110.7C220.743 3110.37 220.69 3109.81 221.046 3109.49C222.569 3108.12 224.092 3106.74 225.615 3105.36L226.274 3104.77C226.608 3104.48 227.161 3104.42 227.479 3104.77C227.782 3105.1 227.835 3105.66 227.479 3105.98Z" fill="#F0F9FF"/>
<path d="M282.705 3106.53C284.879 3106.99 287.046 3107.46 289.221 3107.92C289.531 3107.99 289.842 3108.05 290.153 3108.12C290.6 3108.21 290.865 3108.74 290.751 3109.16C290.622 3109.62 290.153 3109.85 289.706 3109.76C287.531 3109.3 285.364 3108.83 283.19 3108.37C282.879 3108.3 282.568 3108.24 282.258 3108.17C281.811 3108.07 281.546 3107.55 281.659 3107.13C281.788 3106.66 282.258 3106.44 282.705 3106.53Z" fill="#F0F9FF"/>
<path d="M281.485 3109.12C283.462 3110.33 285.44 3111.56 287.417 3112.78L288.258 3113.3C289.19 3113.88 288.334 3115.35 287.394 3114.77C285.417 3113.55 283.439 3112.32 281.462 3111.11L280.621 3110.58C279.689 3110.01 280.545 3108.53 281.485 3109.12Z" fill="#F0F9FF"/>
<path d="M279.144 3111.26C280.659 3112.65 282.174 3114.04 283.682 3115.43C283.894 3115.62 284.114 3115.82 284.326 3116.02C284.652 3116.32 284.652 3116.92 284.326 3117.22C283.977 3117.55 283.47 3117.55 283.121 3117.22C281.606 3115.83 280.091 3114.44 278.583 3113.05C278.371 3112.85 278.151 3112.66 277.939 3112.46C277.613 3112.16 277.613 3111.56 277.939 3111.26C278.287 3110.93 278.795 3110.93 279.144 3111.26Z" fill="#F0F9FF"/>
<path d="M269.611 3108.32C264.217 3107.62 260.389 3102.86 261.062 3097.68C261.735 3092.5 266.653 3088.86 272.048 3089.56C277.442 3090.26 281.27 3095.03 280.597 3100.21C279.925 3105.39 275.006 3109.02 269.611 3108.32Z" fill="#F0F9FF"/>
<path d="M268.916 3107.73C264.731 3107.73 261.339 3104.34 261.339 3100.16C261.339 3095.98 264.731 3092.6 268.916 3092.6C273.1 3092.6 276.492 3095.98 276.492 3100.16C276.492 3104.34 273.1 3107.73 268.916 3107.73Z" fill="#006BA6"/>
<path d="M235.803 3103.94C230.408 3103.24 226.581 3098.47 227.253 3093.29C227.926 3088.11 232.845 3084.48 238.239 3085.18C243.634 3085.88 247.461 3090.64 246.789 3095.82C246.116 3101.01 241.197 3104.64 235.803 3103.94Z" fill="#F0F9FF"/>
<path d="M238.609 3103.95C234.425 3103.95 231.032 3100.56 231.032 3096.38C231.032 3092.2 234.425 3088.81 238.609 3088.81C242.793 3088.81 246.186 3092.2 246.186 3096.38C246.186 3100.56 242.793 3103.95 238.609 3103.95Z" fill="#006BA6"/>
<path d="M309.465 3083.06C309.465 3083.06 303.782 3088 297.721 3090.27C297.721 3090.27 299.237 3131.14 271.961 3133.41C271.961 3133.41 299.237 3134.92 298.479 3091.03C298.479 3091.03 305.298 3087.97 309.465 3083.06Z" fill="#F0F9FF"/>
<path d="M244.685 3067.57C244.685 3067.57 277.265 3068.33 309.465 3076.77C309.465 3076.77 274.234 3069.84 244.685 3067.57Z" fill="#F0F9FF"/>
</g>
<ellipse cx="141.5" cy="3113.5" rx="53.5" ry="52.5" fill="#FAE68E"/>
<path d="M198.781 3160.77H178.859C189.766 3151.95 197.204 3139.56 199.859 3125.79C202.514 3112.02 200.215 3097.75 193.369 3085.51C186.523 3073.27 175.57 3063.85 162.447 3058.9C149.323 3053.95 134.873 3053.81 121.652 3058.49C108.431 3063.16 97.2888 3072.37 90.1957 3084.46C83.1026 3096.56 80.515 3110.78 82.8902 3124.6C85.2655 3138.42 92.4506 3150.96 103.176 3160C113.901 3169.03 127.475 3173.99 141.5 3173.98H198.781C200.534 3173.98 202.215 3173.29 203.455 3172.05C204.694 3170.81 205.39 3169.13 205.39 3167.37C205.39 3165.62 204.694 3163.94 203.455 3162.7C202.215 3161.46 200.534 3160.77 198.781 3160.77ZM141.5 3068.23C148.136 3068.23 154.694 3069.66 160.722 3072.44C157.164 3074.21 153.694 3076.14 150.312 3078.23C144.665 3074.72 138.747 3071.66 132.616 3069.09C135.543 3068.52 138.518 3068.24 141.5 3068.23ZM114.693 3076.83C122.97 3079.15 130.949 3082.42 138.47 3086.58C135.999 3088.55 133.613 3090.6 131.31 3092.75C123.55 3088.77 115.314 3085.81 106.801 3083.93C109.154 3081.27 111.802 3078.89 114.693 3076.83ZM99.1502 3095.9C106.901 3097.18 114.448 3099.48 121.595 3102.75C119.597 3105.04 117.68 3107.41 115.844 3109.85C109.607 3107.22 103.061 3105.38 96.3633 3104.39C97.0129 3101.47 97.9464 3098.63 99.1502 3095.9ZM100.67 3136.23C97.5937 3130.47 95.7799 3124.12 95.3498 3117.6C99.7854 3118.33 104.136 3119.51 108.337 3121.11C105.445 3125.97 102.884 3131.03 100.67 3136.23ZM110.105 3148.47C115.333 3133.41 123.682 3119.63 134.607 3108.03C145.533 3096.42 158.786 3087.26 173.5 3081.13C175.749 3083.29 177.779 3085.66 179.559 3088.22C164.914 3093.79 151.725 3102.61 140.986 3114.02C130.248 3125.43 122.241 3139.12 117.568 3154.08C114.898 3152.46 112.397 3150.58 110.105 3148.47ZM138.564 3160.67C135.588 3160.48 132.637 3160.01 129.752 3159.26C133.762 3145.74 140.887 3133.34 150.555 3123.07C160.222 3112.8 172.163 3104.93 185.419 3100.11C186.345 3102.94 186.995 3105.85 187.358 3108.8C175.85 3113.22 165.488 3120.18 157.044 3129.16C148.6 3138.14 142.29 3148.91 138.586 3160.67H138.564ZM153.105 3159.28C159.539 3143.56 171.569 3130.78 186.873 3123.4C185.183 3131.95 181.122 3139.84 175.154 3146.19C169.187 3152.54 161.553 3157.07 153.127 3159.28H153.105Z" fill="#C37C0B"/>
<defs>
<clipPath id="clip0_314_3473">
<rect width="145" height="281" fill="white" transform="matrix(-1 0 0 1 353 2890)"/>
</clipPath>
</defs>
</svg>
