<svg width="1512" height="3047" viewBox="0 0 1512 3047" fill="none" xmlns="http://www.w3.org/2000/svg">
<g clip-path="url(#clip0_479_2379)">
<path d="M410 -143C394.5 135 446.561 294.556 1021.97 519.406C1209.41 600.39 1462.32 826.086 974.484 1081C855.49 1124.67 433 1158.5 402 1180.5" stroke="#C37C0B" stroke-width="10" stroke-linecap="round" stroke-dasharray="18 18"/>
<path d="M409.61 1177C-3.5 1296 159.5 1678.5 347 1755C684.162 1879.42 555.5 1806 928 2034.5" stroke="#C37C0B" stroke-width="10" stroke-linecap="round" stroke-dasharray="18 18"/>
<path d="M920.5 2029.5C1288.5 2233.78 1438.34 3094.31 357.5 3020.73" stroke="#C37C0B" stroke-width="10" stroke-linejoin="round" stroke-dasharray="18 18"/>
<g clip-path="url(#clip1_479_2379)">
<path d="M411.9 2987.68C411.9 2987.68 398.263 2987.68 389.928 2985.41C389.928 2985.41 377.806 3020.22 362.653 3014.16C347.5 3008.11 366.441 2970.27 366.441 2970.27C366.441 2970.27 355.076 2962.7 362.653 2936.22C362.653 2936.22 352.046 2918.82 354.319 2915.03C356.592 2911.25 369.964 2915.03 369.964 2915.03C369.964 2915.03 384.875 2841.13 440.123 2832.91C441.691 2832.68 442.805 2831.26 442.631 2829.68C440.82 2813.53 433.501 2735.03 463.428 2742.5C493.356 2749.97 471.02 2820.18 466.459 2833.43C466.042 2834.64 466.595 2835.95 467.747 2836.52C475.665 2840.41 503.622 2856.45 498.349 2887.03C492.219 2922.6 488.083 2982.42 464.186 2992.97C447.896 3000.16 457.367 2949.84 457.367 2949.84C457.367 2949.84 433.501 3026.65 414.56 3022.86C395.618 3019.08 411.908 2987.68 411.908 2987.68H411.9Z" fill="#006BA6"/>
<path d="M403.043 2953.37C403.3 2952.9 403.134 2952.32 402.679 2952.05C401.724 2951.49 399.883 2950.7 397.86 2951.34C395.686 2952.01 397.724 2954.32 398.944 2955.49C399.398 2955.92 400.08 2956 400.618 2955.67C401.399 2955.2 402.474 2954.4 403.05 2953.37L403.043 2953.37Z" fill="#F0F9FF"/>
<path d="M369.206 2953.65C367.031 2954.1 364.857 2954.55 362.675 2954.99C362.364 2955.05 362.053 2955.12 361.743 2955.18C361.296 2955.27 360.819 2955.05 360.697 2954.59C360.584 2954.16 360.841 2953.63 361.296 2953.54C363.47 2953.09 365.645 2952.65 367.827 2952.2C368.137 2952.14 368.448 2952.07 368.759 2952.01C369.206 2951.92 369.683 2952.14 369.804 2952.61C369.918 2953.03 369.66 2953.56 369.206 2953.65Z" fill="#F0F9FF"/>
<path d="M370.812 2956.08C368.827 2957.29 366.842 2958.49 364.857 2959.69C364.569 2959.87 364.288 2960.04 364 2960.21C363.061 2960.78 362.205 2959.31 363.137 2958.74C365.122 2957.54 367.107 2956.33 369.092 2955.13C369.38 2954.96 369.66 2954.78 369.948 2954.62C370.888 2954.05 371.744 2955.52 370.812 2956.08Z" fill="#F0F9FF"/>
<path d="M373.479 2957.98C371.956 2959.35 370.433 2960.73 368.91 2962.11L368.251 2962.7C367.918 2962.99 367.365 2963.05 367.046 2962.7C366.743 2962.37 366.69 2961.81 367.046 2961.49C368.569 2960.12 370.092 2958.74 371.615 2957.36L372.274 2956.77C372.608 2956.48 373.161 2956.42 373.479 2956.77C373.782 2957.1 373.835 2957.66 373.479 2957.98Z" fill="#F0F9FF"/>
<path d="M428.705 2958.53C430.879 2958.99 433.046 2959.46 435.221 2959.92C435.531 2959.99 435.842 2960.05 436.153 2960.12C436.6 2960.21 436.865 2960.74 436.751 2961.16C436.622 2961.62 436.153 2961.85 435.706 2961.76C433.531 2961.3 431.364 2960.83 429.19 2960.37C428.879 2960.3 428.568 2960.24 428.258 2960.17C427.811 2960.07 427.546 2959.55 427.659 2959.13C427.788 2958.66 428.258 2958.44 428.705 2958.53Z" fill="#F0F9FF"/>
<path d="M427.485 2961.12C429.462 2962.33 431.44 2963.56 433.417 2964.78L434.258 2965.3C435.19 2965.88 434.334 2967.35 433.394 2966.77C431.417 2965.55 429.439 2964.32 427.462 2963.11L426.621 2962.58C425.689 2962.01 426.545 2960.53 427.485 2961.12Z" fill="#F0F9FF"/>
<path d="M425.144 2963.26C426.659 2964.65 428.174 2966.04 429.682 2967.43C429.894 2967.62 430.114 2967.82 430.326 2968.02C430.652 2968.32 430.652 2968.92 430.326 2969.22C429.977 2969.55 429.47 2969.55 429.121 2969.22C427.606 2967.83 426.091 2966.44 424.583 2965.05C424.371 2964.85 424.151 2964.66 423.939 2964.46C423.613 2964.16 423.613 2963.56 423.939 2963.26C424.287 2962.93 424.795 2962.93 425.144 2963.26Z" fill="#F0F9FF"/>
<path d="M415.611 2960.32C410.217 2959.62 406.389 2954.86 407.062 2949.68C407.735 2944.5 412.653 2940.86 418.048 2941.56C423.442 2942.26 427.27 2947.03 426.597 2952.21C425.925 2957.39 421.006 2961.02 415.611 2960.32Z" fill="#F0F9FF"/>
<path d="M414.916 2959.73C410.731 2959.73 407.339 2956.34 407.339 2952.16C407.339 2947.98 410.731 2944.6 414.916 2944.6C419.1 2944.6 422.492 2947.98 422.492 2952.16C422.492 2956.34 419.1 2959.73 414.916 2959.73Z" fill="#006BA6"/>
<path d="M381.803 2955.94C376.408 2955.24 372.581 2950.47 373.253 2945.29C373.926 2940.11 378.845 2936.48 384.239 2937.18C389.634 2937.88 393.461 2942.64 392.789 2947.82C392.116 2953.01 387.197 2956.64 381.803 2955.94Z" fill="#F0F9FF"/>
<path d="M384.609 2955.95C380.425 2955.95 377.032 2952.56 377.032 2948.38C377.032 2944.2 380.425 2940.81 384.609 2940.81C388.793 2940.81 392.186 2944.2 392.186 2948.38C392.186 2952.56 388.793 2955.95 384.609 2955.95Z" fill="#006BA6"/>
<path d="M455.465 2935.06C455.465 2935.06 449.782 2940 443.721 2942.27C443.721 2942.27 445.237 2983.14 417.961 2985.41C417.961 2985.41 445.237 2986.92 444.479 2943.03C444.479 2943.03 451.298 2939.97 455.465 2935.06Z" fill="#F0F9FF"/>
<path d="M390.685 2919.57C390.685 2919.57 423.265 2920.33 455.465 2928.77C455.465 2928.77 420.234 2921.84 390.685 2919.57Z" fill="#F0F9FF"/>
</g>
<ellipse cx="287.5" cy="2965.5" rx="53.5" ry="52.5" fill="#FAE68E"/>
<path d="M344.781 3012.77H324.859C335.766 3003.95 343.204 2991.56 345.859 2977.79C348.514 2964.02 346.215 2949.75 339.369 2937.51C332.523 2925.27 321.57 2915.85 308.447 2910.9C295.323 2905.95 280.873 2905.81 267.652 2910.49C254.431 2915.16 243.289 2924.37 236.196 2936.46C229.103 2948.56 226.515 2962.78 228.89 2976.6C231.265 2990.42 238.451 3002.96 249.176 3012C259.901 3021.03 273.475 3025.99 287.5 3025.98H344.781C346.534 3025.98 348.215 3025.29 349.455 3024.05C350.694 3022.81 351.39 3021.13 351.39 3019.37C351.39 3017.62 350.694 3015.94 349.455 3014.7C348.215 3013.46 346.534 3012.77 344.781 3012.77ZM287.5 2920.23C294.136 2920.23 300.694 2921.66 306.722 2924.44C303.164 2926.21 299.694 2928.14 296.312 2930.23C290.665 2926.72 284.747 2923.66 278.616 2921.09C281.543 2920.52 284.518 2920.24 287.5 2920.23ZM260.693 2928.83C268.97 2931.15 276.949 2934.42 284.47 2938.58C281.999 2940.55 279.613 2942.6 277.31 2944.75C269.55 2940.77 261.314 2937.81 252.801 2935.93C255.154 2933.27 257.802 2930.89 260.693 2928.83ZM245.15 2947.9C252.901 2949.18 260.448 2951.48 267.595 2954.75C265.597 2957.04 263.68 2959.41 261.844 2961.85C255.607 2959.22 249.061 2957.38 242.363 2956.39C243.013 2953.47 243.946 2950.63 245.15 2947.9ZM246.67 2988.23C243.594 2982.47 241.78 2976.12 241.35 2969.6C245.785 2970.33 250.136 2971.51 254.337 2973.11C251.445 2977.97 248.884 2983.03 246.67 2988.23ZM256.105 3000.47C261.333 2985.41 269.682 2971.63 280.607 2960.03C291.533 2948.42 304.786 2939.26 319.5 2933.13C321.749 2935.29 323.779 2937.66 325.559 2940.22C310.914 2945.79 297.725 2954.61 286.986 2966.02C276.248 2977.43 268.241 2991.12 263.568 3006.08C260.898 3004.46 258.397 3002.58 256.105 3000.47ZM284.564 3012.67C281.588 3012.48 278.637 3012.01 275.752 3011.26C279.762 2997.74 286.887 2985.34 296.555 2975.07C306.222 2964.8 318.163 2956.93 331.419 2952.11C332.345 2954.94 332.995 2957.85 333.358 2960.8C321.85 2965.22 311.488 2972.18 303.044 2981.16C294.6 2990.14 288.29 3000.91 284.586 3012.67H284.564ZM299.105 3011.28C305.539 2995.56 317.569 2982.78 332.873 2975.4C331.183 2983.95 327.122 2991.84 321.154 2998.19C315.187 3004.54 307.553 3009.07 299.127 3011.28H299.105Z" fill="#C37C0B"/>
</g>
<defs>
<clipPath id="clip0_479_2379">
<rect width="1512" height="3047" fill="white"/>
</clipPath>
<clipPath id="clip1_479_2379">
<rect width="145" height="281" fill="white" transform="matrix(-1 0 0 1 499 2742)"/>
</clipPath>
</defs>
</svg>
