<svg width="1216" height="3547" viewBox="0 0 1216 3547" fill="none" xmlns="http://www.w3.org/2000/svg">
<path d="M263.459 -143C247.959 135 300.02 294.556 875.427 519.406C1062.86 600.39 1315.78 826.086 827.943 1081C708.949 1124.67 286.459 1158.5 255.459 1180.5" stroke="#C37C0B" stroke-width="10" stroke-linecap="round" stroke-dasharray="18 18"/>
<path d="M263.065 1177C-150.045 1296 12.955 1678.5 200.455 1755C537.617 1879.41 445.496 1819.5 733.496 1875C956.496 1886 1387.5 2158.85 1132.5 2392.5C821.996 2677 391.805 2136.15 127.496 2470C-111.997 2772.5 220.476 3041.31 507.996 2983.5C873.5 2910 1152 3040 1188 3212.5C1233.42 3430.2 733.493 3651.5 226.003 3481.5" stroke="#C37C0B" stroke-width="10" stroke-linecap="round" stroke-dasharray="18 18"/>
<g clip-path="url(#clip0_514_3144)">
<path d="M273.9 3442.68C273.9 3442.68 260.263 3442.68 251.928 3440.41C251.928 3440.41 239.806 3475.22 224.653 3469.16C209.5 3463.11 228.441 3425.27 228.441 3425.27C228.441 3425.27 217.076 3417.7 224.653 3391.22C224.653 3391.22 214.046 3373.82 216.319 3370.03C218.592 3366.25 231.964 3370.03 231.964 3370.03C231.964 3370.03 246.875 3296.13 302.123 3287.91C303.691 3287.68 304.805 3286.26 304.631 3284.68C302.82 3268.53 295.501 3190.03 325.428 3197.5C355.356 3204.97 333.02 3275.18 328.459 3288.43C328.042 3289.64 328.595 3290.95 329.747 3291.52C337.665 3295.41 365.622 3311.45 360.349 3342.03C354.219 3377.6 350.083 3437.42 326.186 3447.97C309.896 3455.16 319.367 3404.84 319.367 3404.84C319.367 3404.84 295.501 3481.65 276.56 3477.86C257.618 3474.08 273.908 3442.68 273.908 3442.68H273.9Z" fill="#006BA6"/>
<path d="M265.043 3408.37C265.3 3407.9 265.134 3407.32 264.679 3407.05C263.724 3406.49 261.883 3405.7 259.86 3406.34C257.686 3407.01 259.724 3409.32 260.944 3410.49C261.398 3410.92 262.08 3411 262.618 3410.67C263.399 3410.2 264.474 3409.4 265.05 3408.37L265.043 3408.37Z" fill="#F0F9FF"/>
<path d="M231.206 3408.65C229.031 3409.1 226.857 3409.55 224.675 3409.99C224.364 3410.05 224.053 3410.12 223.743 3410.18C223.296 3410.27 222.819 3410.05 222.697 3409.59C222.584 3409.16 222.841 3408.63 223.296 3408.54C225.47 3408.09 227.645 3407.65 229.827 3407.2C230.137 3407.14 230.448 3407.07 230.759 3407.01C231.206 3406.92 231.683 3407.14 231.804 3407.61C231.918 3408.03 231.66 3408.56 231.206 3408.65Z" fill="#F0F9FF"/>
<path d="M232.812 3411.08C230.827 3412.29 228.842 3413.49 226.857 3414.69C226.569 3414.87 226.288 3415.04 226 3415.21C225.061 3415.78 224.205 3414.31 225.137 3413.74C227.122 3412.54 229.107 3411.33 231.092 3410.13C231.38 3409.96 231.66 3409.78 231.948 3409.62C232.888 3409.05 233.744 3410.52 232.812 3411.08Z" fill="#F0F9FF"/>
<path d="M235.479 3412.98C233.956 3414.35 232.433 3415.73 230.91 3417.11L230.251 3417.7C229.918 3417.99 229.365 3418.05 229.046 3417.7C228.743 3417.37 228.69 3416.81 229.046 3416.49C230.569 3415.12 232.092 3413.74 233.615 3412.36L234.274 3411.77C234.608 3411.48 235.161 3411.42 235.479 3411.77C235.782 3412.1 235.835 3412.66 235.479 3412.98Z" fill="#F0F9FF"/>
<path d="M290.705 3413.53C292.879 3413.99 295.046 3414.46 297.221 3414.92C297.531 3414.99 297.842 3415.05 298.153 3415.12C298.6 3415.21 298.865 3415.74 298.751 3416.16C298.622 3416.62 298.153 3416.85 297.706 3416.76C295.531 3416.3 293.364 3415.83 291.19 3415.37C290.879 3415.3 290.568 3415.24 290.258 3415.17C289.811 3415.07 289.546 3414.55 289.659 3414.13C289.788 3413.66 290.258 3413.44 290.705 3413.53Z" fill="#F0F9FF"/>
<path d="M289.485 3416.12C291.462 3417.33 293.44 3418.56 295.417 3419.78L296.258 3420.3C297.19 3420.88 296.334 3422.35 295.394 3421.77C293.417 3420.55 291.439 3419.32 289.462 3418.11L288.621 3417.58C287.689 3417.01 288.545 3415.53 289.485 3416.12Z" fill="#F0F9FF"/>
<path d="M287.144 3418.26C288.659 3419.65 290.174 3421.04 291.682 3422.43C291.894 3422.62 292.114 3422.82 292.326 3423.02C292.652 3423.32 292.652 3423.92 292.326 3424.22C291.977 3424.55 291.47 3424.55 291.121 3424.22C289.606 3422.83 288.091 3421.44 286.583 3420.05C286.371 3419.85 286.151 3419.66 285.939 3419.46C285.613 3419.16 285.613 3418.56 285.939 3418.26C286.287 3417.93 286.795 3417.93 287.144 3418.26Z" fill="#F0F9FF"/>
<path d="M277.611 3415.32C272.217 3414.62 268.389 3409.86 269.062 3404.68C269.735 3399.5 274.653 3395.86 280.048 3396.56C285.442 3397.26 289.27 3402.03 288.597 3407.21C287.925 3412.39 283.006 3416.02 277.611 3415.32Z" fill="#F0F9FF"/>
<path d="M276.916 3414.73C272.731 3414.73 269.339 3411.34 269.339 3407.16C269.339 3402.98 272.731 3399.6 276.916 3399.6C281.1 3399.6 284.492 3402.98 284.492 3407.16C284.492 3411.34 281.1 3414.73 276.916 3414.73Z" fill="#006BA6"/>
<path d="M243.803 3410.94C238.408 3410.24 234.581 3405.47 235.253 3400.29C235.926 3395.11 240.845 3391.48 246.239 3392.18C251.634 3392.88 255.461 3397.64 254.789 3402.82C254.116 3408.01 249.197 3411.64 243.803 3410.94Z" fill="#F0F9FF"/>
<path d="M246.609 3410.95C242.425 3410.95 239.032 3407.56 239.032 3403.38C239.032 3399.2 242.425 3395.81 246.609 3395.81C250.793 3395.81 254.186 3399.2 254.186 3403.38C254.186 3407.56 250.793 3410.95 246.609 3410.95Z" fill="#006BA6"/>
<path d="M317.465 3390.06C317.465 3390.06 311.782 3395 305.721 3397.27C305.721 3397.27 307.237 3438.14 279.961 3440.41C279.961 3440.41 307.237 3441.92 306.479 3398.03C306.479 3398.03 313.298 3394.97 317.465 3390.06Z" fill="#F0F9FF"/>
<path d="M252.685 3374.57C252.685 3374.57 285.265 3375.33 317.465 3383.77C317.465 3383.77 282.234 3376.84 252.685 3374.57Z" fill="#F0F9FF"/>
</g>
<ellipse cx="149.5" cy="3420.5" rx="53.5" ry="52.5" fill="#FAE68E"/>
<path d="M206.781 3467.77H186.859C197.766 3458.95 205.204 3446.56 207.859 3432.79C210.514 3419.02 208.215 3404.75 201.369 3392.51C194.523 3380.27 183.57 3370.85 170.447 3365.9C157.323 3360.95 142.873 3360.81 129.652 3365.49C116.431 3370.16 105.289 3379.37 98.1957 3391.46C91.1026 3403.56 88.515 3417.78 90.8902 3431.6C93.2655 3445.42 100.451 3457.96 111.176 3467C121.901 3476.03 135.475 3480.99 149.5 3480.98H206.781C208.534 3480.98 210.215 3480.29 211.455 3479.05C212.694 3477.81 213.39 3476.13 213.39 3474.37C213.39 3472.62 212.694 3470.94 211.455 3469.7C210.215 3468.46 208.534 3467.77 206.781 3467.77ZM149.5 3375.23C156.136 3375.23 162.694 3376.66 168.722 3379.44C165.164 3381.21 161.694 3383.14 158.312 3385.23C152.665 3381.72 146.747 3378.66 140.616 3376.09C143.543 3375.52 146.518 3375.24 149.5 3375.23ZM122.693 3383.83C130.97 3386.15 138.949 3389.42 146.47 3393.58C143.999 3395.55 141.613 3397.6 139.31 3399.75C131.55 3395.77 123.314 3392.81 114.801 3390.93C117.154 3388.27 119.802 3385.89 122.693 3383.83ZM107.15 3402.9C114.901 3404.18 122.448 3406.48 129.595 3409.75C127.597 3412.04 125.68 3414.41 123.844 3416.85C117.607 3414.22 111.061 3412.38 104.363 3411.39C105.013 3408.47 105.946 3405.63 107.15 3402.9ZM108.67 3443.23C105.594 3437.47 103.78 3431.12 103.35 3424.6C107.785 3425.33 112.136 3426.51 116.337 3428.11C113.445 3432.97 110.884 3438.03 108.67 3443.23ZM118.105 3455.47C123.333 3440.41 131.682 3426.63 142.607 3415.03C153.533 3403.42 166.786 3394.26 181.5 3388.13C183.749 3390.29 185.779 3392.66 187.559 3395.22C172.914 3400.79 159.725 3409.61 148.986 3421.02C138.248 3432.43 130.241 3446.12 125.568 3461.08C122.898 3459.46 120.397 3457.58 118.105 3455.47ZM146.564 3467.67C143.588 3467.48 140.637 3467.01 137.752 3466.26C141.762 3452.74 148.887 3440.34 158.555 3430.07C168.222 3419.8 180.163 3411.93 193.419 3407.11C194.345 3409.94 194.995 3412.85 195.358 3415.8C183.85 3420.22 173.488 3427.18 165.044 3436.16C156.6 3445.14 150.29 3455.91 146.586 3467.67H146.564ZM161.105 3466.28C167.539 3450.56 179.569 3437.78 194.873 3430.4C193.183 3438.95 189.122 3446.84 183.154 3453.19C177.187 3459.54 169.553 3464.07 161.127 3466.28H161.105Z" fill="#C37C0B"/>
<defs>
<clipPath id="clip0_514_3144">
<rect width="145" height="281" fill="white" transform="matrix(-1 0 0 1 361 3197)"/>
</clipPath>
</defs>
</svg>
