<svg width="282" height="295" viewBox="0 0 282 295" fill="none" xmlns="http://www.w3.org/2000/svg">
<g clip-path="url(#clip0_481_2401)">
<path d="M194.9 245.676C194.9 245.676 181.263 245.676 172.928 243.406C172.928 243.406 160.806 278.215 145.653 272.162C130.5 266.108 149.441 228.272 149.441 228.272C149.441 228.272 138.076 220.705 145.653 194.22C145.653 194.22 135.046 176.815 137.319 173.031C139.592 169.248 152.964 173.031 152.964 173.031C152.964 173.031 167.875 99.1303 223.123 90.9123C224.691 90.6777 225.805 89.2551 225.631 87.6811C223.82 71.5328 216.501 -6.96927 246.428 0.499543C276.356 7.96836 254.02 78.1843 249.459 91.4269C249.042 92.6376 249.595 93.9543 250.747 94.5219C258.665 98.4114 286.622 114.446 281.349 145.033C275.219 180.599 271.083 240.425 247.186 250.974C230.896 258.162 240.367 207.841 240.367 207.841C240.367 207.841 216.501 284.648 197.56 280.864C178.618 277.08 194.908 245.676 194.908 245.676H194.9Z" fill="#006BA6"/>
<path d="M186.043 211.367C186.3 210.898 186.134 210.315 185.679 210.05C184.724 209.49 182.883 208.703 180.86 209.339C178.686 210.012 180.724 212.32 181.944 213.486C182.398 213.917 183.08 214 183.618 213.675C184.399 213.198 185.474 212.404 186.05 211.374L186.043 211.367Z" fill="#F0F9FF"/>
<path d="M152.206 211.654C150.031 212.101 147.857 212.547 145.675 212.994C145.364 213.054 145.053 213.122 144.743 213.183C144.296 213.274 143.819 213.054 143.697 212.585C143.584 212.161 143.841 211.632 144.296 211.541C146.47 211.094 148.645 210.648 150.827 210.201C151.137 210.141 151.448 210.073 151.759 210.012C152.206 209.922 152.683 210.141 152.804 210.61C152.918 211.034 152.66 211.564 152.206 211.654Z" fill="#F0F9FF"/>
<path d="M153.812 214.083C151.827 215.287 149.842 216.49 147.857 217.693C147.569 217.867 147.288 218.041 147 218.208C146.061 218.775 145.205 217.307 146.137 216.74C148.122 215.536 150.107 214.333 152.092 213.13C152.38 212.956 152.66 212.782 152.948 212.615C153.888 212.048 154.744 213.516 153.812 214.083Z" fill="#F0F9FF"/>
<path d="M156.479 215.975C154.956 217.352 153.433 218.73 151.91 220.107L151.251 220.697C150.918 220.992 150.365 221.045 150.046 220.697C149.743 220.372 149.69 219.812 150.046 219.494C151.569 218.117 153.092 216.739 154.615 215.362L155.274 214.772C155.608 214.477 156.161 214.424 156.479 214.772C156.782 215.097 156.835 215.657 156.479 215.975Z" fill="#F0F9FF"/>
<path d="M211.705 216.528C213.879 216.989 216.046 217.458 218.221 217.92C218.531 217.988 218.842 218.049 219.153 218.117C219.6 218.215 219.865 218.737 219.751 219.161C219.622 219.622 219.153 219.85 218.706 219.759C216.531 219.297 214.364 218.828 212.19 218.366C211.879 218.298 211.568 218.238 211.258 218.17C210.811 218.071 210.546 217.549 210.659 217.125C210.788 216.664 211.258 216.437 211.705 216.528Z" fill="#F0F9FF"/>
<path d="M210.485 219.116C212.462 220.334 214.44 221.56 216.417 222.778L217.258 223.3C218.19 223.875 217.334 225.351 216.394 224.768C214.417 223.55 212.439 222.324 210.462 221.106L209.621 220.584C208.689 220.009 209.545 218.533 210.485 219.116Z" fill="#F0F9FF"/>
<path d="M208.144 221.257C209.659 222.65 211.174 224.042 212.682 225.427C212.894 225.623 213.114 225.82 213.326 226.017C213.652 226.32 213.652 226.917 213.326 227.22C212.977 227.546 212.47 227.546 212.121 227.22C210.606 225.828 209.091 224.435 207.583 223.051C207.371 222.854 207.151 222.657 206.939 222.46C206.613 222.158 206.613 221.56 206.939 221.257C207.287 220.932 207.795 220.932 208.144 221.257Z" fill="#F0F9FF"/>
<path d="M198.611 218.322C193.217 217.623 189.389 212.857 190.062 207.676C190.735 202.495 195.653 198.862 201.048 199.561C206.442 200.26 210.27 205.026 209.597 210.207C208.925 215.387 204.006 219.021 198.611 218.322Z" fill="#F0F9FF"/>
<path d="M197.916 217.731C193.731 217.731 190.339 214.343 190.339 210.164C190.339 205.985 193.731 202.597 197.916 202.597C202.1 202.597 205.492 205.985 205.492 210.164C205.492 214.343 202.1 217.731 197.916 217.731Z" fill="#006BA6"/>
<path d="M164.803 213.94C159.408 213.241 155.581 208.475 156.253 203.294C156.926 198.113 161.845 194.48 167.239 195.179C172.634 195.878 176.461 200.644 175.789 205.825C175.116 211.005 170.197 214.639 164.803 213.94Z" fill="#F0F9FF"/>
<path d="M167.609 213.947C163.425 213.947 160.032 210.559 160.032 206.38C160.032 202.201 163.425 198.813 167.609 198.813C171.793 198.813 175.186 202.201 175.186 206.38C175.186 210.559 171.793 213.947 167.609 213.947Z" fill="#006BA6"/>
<path d="M238.465 193.062C238.465 193.062 232.782 198.003 226.721 200.274C226.721 200.274 228.237 241.136 200.961 243.407C200.961 243.407 228.237 244.92 227.479 201.03C227.479 201.03 234.298 197.966 238.465 193.062Z" fill="#F0F9FF"/>
<path d="M173.685 177.572C173.685 177.572 206.265 178.328 238.465 186.773C238.465 186.773 203.234 179.842 173.685 177.572Z" fill="#F0F9FF"/>
</g>
<ellipse cx="70.5" cy="223.5" rx="53.5" ry="52.5" fill="#FAE68E"/>
<path d="M127.781 270.765H107.859C118.766 261.948 126.204 249.559 128.859 235.789C131.514 222.018 129.215 207.751 122.369 195.511C115.523 183.271 104.57 173.846 91.4465 168.9C78.3228 163.955 63.8734 163.808 50.652 168.486C37.4307 173.164 26.2888 182.366 19.1957 194.465C12.1026 206.563 9.51498 220.78 11.8902 234.602C14.2655 248.424 21.4506 260.961 32.1757 269.998C42.9008 279.034 56.4752 283.988 70.4998 283.984H127.781C129.534 283.984 131.215 283.288 132.455 282.048C133.694 280.809 134.39 279.128 134.39 277.375C134.39 275.622 133.694 273.941 132.455 272.701C131.215 271.462 129.534 270.765 127.781 270.765ZM70.4998 178.234C77.1357 178.228 83.694 179.662 89.7221 182.437C86.164 184.207 82.6941 186.136 79.3123 188.225C73.6649 184.717 67.7474 181.663 61.6157 179.093C64.5427 178.523 67.5177 178.235 70.4998 178.234ZM43.6933 186.826C51.9699 189.147 59.949 192.42 67.4705 196.581C64.9993 198.545 62.6126 200.601 60.3103 202.749C52.5504 198.775 44.3135 195.809 35.8006 193.926C38.1538 191.268 40.8017 188.886 43.6933 186.826ZM28.1502 205.9C35.9012 207.181 43.4483 209.483 50.5946 212.746C48.5971 215.041 46.6803 217.409 44.8444 219.851C38.6066 217.217 32.0611 215.381 25.3633 214.387C26.0129 211.474 26.9464 208.631 28.1502 205.9ZM29.6704 246.234C26.5937 240.471 24.7799 234.119 24.3498 227.601C28.7854 228.333 33.1364 229.508 37.3373 231.109C34.4453 235.973 31.8838 241.026 29.6704 246.234ZM39.1053 258.466C44.3326 243.411 52.6824 229.629 63.6074 218.026C74.5325 206.422 87.7863 197.258 102.5 191.133C104.749 193.288 106.779 195.661 108.559 198.217C93.9139 203.785 80.7248 212.607 69.9863 224.016C59.2479 235.425 51.2406 249.124 46.5684 264.079C43.8977 262.465 41.3973 260.584 39.1053 258.466ZM67.5641 270.666C64.5882 270.483 61.637 270.013 58.7516 269.262C62.7623 255.737 69.8873 243.342 79.5547 233.069C89.2222 222.796 101.163 214.932 114.419 210.108C115.345 212.935 115.995 215.846 116.358 218.799C104.85 223.219 94.4884 230.178 86.044 239.159C77.5995 248.139 71.2902 258.909 67.5862 270.666H67.5641ZM82.1048 269.284C88.5388 253.56 100.569 240.777 115.873 233.4C114.183 241.946 110.122 249.844 104.154 256.19C98.1865 262.535 90.5529 267.073 82.1268 269.284H82.1048Z" fill="#C37C0B"/>
<defs>
<clipPath id="clip0_481_2401">
<rect width="145" height="281" fill="white" transform="matrix(-1 0 0 1 282 0)"/>
</clipPath>
</defs>
</svg>
