<svg width="39" height="38" viewBox="0 0 39 38" fill="none" xmlns="http://www.w3.org/2000/svg">
<path d="M22.9954 18.6695L18.5501 16.5953C18.1622 16.4152 17.8436 16.6171 17.8436 17.0466V20.9534C17.8436 21.3829 18.1622 21.5848 18.5501 21.4047L22.9934 19.3305C23.3833 19.1484 23.3833 18.8516 22.9954 18.6695ZM19.8228 0C9.32921 0 0.822754 8.50646 0.822754 19C0.822754 29.4935 9.32921 38 19.8228 38C30.3163 38 38.8228 29.4935 38.8228 19C38.8228 8.50646 30.3163 0 19.8228 0ZM19.8228 26.7188C10.0971 26.7188 9.92692 25.842 9.92692 19C9.92692 12.158 10.0971 11.2812 19.8228 11.2812C29.5484 11.2812 29.7186 12.158 29.7186 19C29.7186 25.842 29.5484 26.7188 19.8228 26.7188Z" fill="#062F4B"/>
</svg>
