<svg width="340" height="301" viewBox="0 0 340 301" fill="none" xmlns="http://www.w3.org/2000/svg">
<g clip-path="url(#clip0_120_395)">
<path d="M69.43 173.95C63 126.07 76.21 93.93 80.63 80.29C81.98 76.12 82.67 71.79 82.69 67.41C82.75 51.3 83.04 11.21 84.44 0.0100098C84.44 0.0100098 104.99 3.17001 138.62 39.41C142.77 43.89 148.27 46.9 154.29 47.91C165.93 49.86 184.12 47.23 197.93 45.92C253.97 40.62 297.67 49.84 297.67 49.84C297.67 49.84 287.52 63.58 259.26 81.24C259.26 81.24 261.33 81.19 273.39 125.39C276.04 135.1 278.56 151.63 274.27 175.72" fill="#062F4B"/>
<path d="M162.35 127.38C161.99 126.19 162.65 124.94 163.83 124.55C166.29 123.75 170.87 122.85 175.17 125.28C179.8 127.89 174.02 132.15 170.67 134.2C169.42 134.96 167.82 134.82 166.76 133.82C165.22 132.36 163.14 130.01 162.35 127.38Z" fill="#F0F9FF"/>
<path d="M239.68 143.78C244.43 145.86 249.18 147.95 253.93 150.03C254.6 150.32 255.27 150.62 255.94 150.91C257.25 151.49 258.4 149.55 257.08 148.97C252.33 146.89 247.58 144.8 242.83 142.72C242.16 142.43 241.49 142.13 240.82 141.84C239.51 141.26 238.36 143.2 239.68 143.78Z" fill="#F0F9FF"/>
<path d="M235.02 148.66C238.95 152.37 242.89 156.08 246.82 159.79C247.39 160.33 247.96 160.86 248.52 161.4C249.57 162.39 251.17 160.81 250.11 159.81C246.18 156.1 242.24 152.39 238.31 148.68C237.74 148.14 237.17 147.61 236.61 147.07C235.56 146.08 233.96 147.66 235.02 148.66Z" fill="#F0F9FF"/>
<path d="M228.17 151.84C230.97 155.72 233.77 159.61 236.56 163.49C236.96 164.05 237.36 164.61 237.77 165.16C238.12 165.65 238.75 165.89 239.31 165.56C239.8 165.28 240.07 164.52 239.71 164.02C236.91 160.14 234.11 156.25 231.32 152.37C230.92 151.81 230.52 151.25 230.11 150.7C229.76 150.21 229.13 149.97 228.57 150.3C228.08 150.58 227.81 151.34 228.17 151.84Z" fill="#F0F9FF"/>
<path d="M101.47 127.47C96.3 127.47 91.13 127.47 85.96 127.47C85.22 127.47 84.47 127.47 83.73 127.47C82.28 127.47 82.28 129.72 83.73 129.72C88.9 129.72 94.07 129.72 99.24 129.72C99.98 129.72 100.73 129.72 101.47 129.72C102.92 129.72 102.92 127.47 101.47 127.47Z" fill="#F0F9FF"/>
<path d="M103.18 133.92C98.08 135.73 92.99 137.55 87.89 139.36C87.16 139.62 86.42 139.88 85.69 140.14C84.34 140.62 84.92 142.8 86.29 142.31C91.39 140.5 96.48 138.68 101.58 136.87C102.31 136.61 103.05 136.35 103.78 136.09C105.13 135.61 104.55 133.43 103.18 133.92Z" fill="#F0F9FF"/>
<path d="M107.66 139.84C103.53 142.28 99.4 144.71 95.26 147.15C94.68 147.49 94.09 147.84 93.51 148.18C92.26 148.91 93.39 150.86 94.65 150.12C98.78 147.68 102.91 145.25 107.05 142.81C107.63 142.47 108.22 142.12 108.8 141.78C110.05 141.05 108.92 139.1 107.66 139.84Z" fill="#F0F9FF"/>
<path d="M155.035 116.983C156.036 104.835 146.602 94.1431 133.965 93.1019C121.327 92.0607 110.271 101.064 109.27 113.212C108.269 125.36 117.703 136.052 130.34 137.093C142.978 138.134 154.034 129.13 155.035 116.983Z" fill="#F0F9FF"/>
<path d="M136.62 133.38C146.373 133.38 154.28 125.473 154.28 115.72C154.28 105.967 146.373 98.06 136.62 98.06C126.867 98.06 118.96 105.967 118.96 115.72C118.96 125.473 126.867 133.38 136.62 133.38Z" fill="#062F4B"/>
<path d="M209.905 142.382C222.543 141.341 231.976 130.649 230.975 118.501C229.974 106.354 218.918 97.35 206.281 98.3912C193.643 99.4324 184.209 110.124 185.21 122.272C186.211 134.42 197.267 143.423 209.905 142.382Z" fill="#F0F9FF"/>
<path d="M203.62 138.68C213.373 138.68 221.28 130.773 221.28 121.02C221.28 111.267 213.373 103.36 203.62 103.36C193.867 103.36 185.96 111.267 185.96 121.02C185.96 130.773 193.867 138.68 203.62 138.68Z" fill="#062F4B"/>
<path d="M313.5 209.59C313.41 227.57 313.62 245.57 313.5 263.54C313.43 274.75 314.21 286.1 312.93 297.29C312.74 298.96 311.23 300.24 309.41 300.24H30.66C28.98 300.24 27.59 299.06 27.41 297.51C26.09 286.24 26.89 274.82 26.81 263.53C26.69 245.55 26.9 227.55 26.81 209.58H313.49L313.5 209.59Z" fill="#C37C0B"/>
<path d="M313.5 201.19V209.59H26.82V202.07C27.79 202.07 27.29 201.18 27.78 201.19C122.93 201.61 218.37 201.9 313.51 201.19H313.5Z" fill="#9C580C"/>
<path d="M273.28 155.61C284.97 155.13 296.78 155.1 308.47 154.34C310.78 154.19 313 154.98 314.81 156.32C315.34 156.71 315.35 156.28 315.42 156.38C315.46 156.44 315.5 156.73 316.06 157.56C323.77 169.06 331.81 187.3 339.68 199.72L338.72 201.19C330.32 201.25 321.9 201.11 313.5 201.19C218.36 202.14 122.93 201.75 27.77 201.19C27.28 201.19 27.78 202.38 26.81 202.37C26.74 202.37 27.01 201.2 26.49 201.19C17.66 201.12 8.80001 201.49 -0.00999451 200.9C5.77001 190.3 18.27 164.89 23.61 156.97C24.12 156.22 24.37 156.54 24.89 155.79" fill="#E2A110"/>
</g>
<defs>
<clipPath id="clip0_120_395">
<rect width="339.68" height="300.25" fill="white"/>
</clipPath>
</defs>
</svg>
