<svg width="470" height="426" viewBox="0 0 470 426" fill="none" xmlns="http://www.w3.org/2000/svg">
<mask id="mask0_258_1941" style="mask-type:luminance" maskUnits="userSpaceOnUse" x="8" y="12" width="454" height="402">
<path d="M462 12H8V413.424H462V12Z" fill="white"/>
</mask>
<g mask="url(#mask0_258_1941)">
<path d="M100.797 244.565C92.2027 180.551 109.859 137.581 115.766 119.345C117.571 113.77 118.493 107.981 118.519 102.125C118.6 80.5863 118.987 26.9874 120.858 12.0134C120.858 12.0134 148.325 16.2382 193.273 64.6898C198.82 70.6794 206.171 74.7036 214.217 76.054C229.774 78.661 254.086 75.1448 272.544 73.3934C347.444 66.3075 405.851 78.6343 405.851 78.6343C405.851 78.6343 392.286 97.0042 354.515 120.615C354.515 120.615 357.281 120.548 373.4 179.642C376.942 192.624 380.31 214.724 374.576 246.931" fill="#062F4B"/>
<path d="M224.989 182.302C224.508 180.711 225.39 179.04 226.967 178.519C230.255 177.449 236.377 176.246 242.124 179.495C248.312 182.984 240.587 188.68 236.109 191.421C234.439 192.437 232.3 192.25 230.883 190.913C228.825 188.961 226.045 185.819 224.989 182.302Z" fill="#F0F9FF"/>
<path d="M328.345 204.229C334.693 207.01 341.042 209.804 347.391 212.585C348.286 212.973 349.182 213.374 350.077 213.761C351.828 214.537 353.365 211.943 351.601 211.168C345.252 208.387 338.904 205.593 332.555 202.812C331.659 202.424 330.764 202.023 329.868 201.635C328.118 200.86 326.581 203.453 328.345 204.229Z" fill="#F0F9FF"/>
<path d="M322.116 210.753C327.369 215.713 332.635 220.674 337.888 225.634C338.65 226.356 339.411 227.064 340.16 227.786C341.563 229.11 343.702 226.997 342.285 225.66C337.032 220.7 331.766 215.74 326.514 210.78C325.752 210.058 324.99 209.349 324.242 208.627C322.838 207.304 320.7 209.416 322.116 210.753Z" fill="#F0F9FF"/>
<path d="M312.961 215.005C316.703 220.192 320.446 225.393 324.175 230.58C324.709 231.329 325.244 232.078 325.792 232.813C326.26 233.468 327.102 233.789 327.85 233.348C328.505 232.973 328.866 231.957 328.385 231.289C324.643 226.101 320.9 220.901 317.171 215.713C316.637 214.965 316.102 214.216 315.554 213.48C315.086 212.825 314.244 212.505 313.496 212.946C312.841 213.32 312.48 214.336 312.961 215.005Z" fill="#F0F9FF"/>
<path d="M143.62 182.423C136.71 182.423 129.8 182.423 122.89 182.423C121.901 182.423 120.899 182.423 119.909 182.423C117.971 182.423 117.971 185.431 119.909 185.431C126.819 185.431 133.729 185.431 140.639 185.431C141.628 185.431 142.631 185.431 143.62 185.431C145.558 185.431 145.558 182.423 143.62 182.423Z" fill="#F0F9FF"/>
<path d="M145.905 191.046C139.089 193.466 132.286 195.899 125.47 198.319C124.494 198.667 123.505 199.015 122.529 199.362C120.725 200.004 121.5 202.919 123.331 202.263C130.147 199.844 136.951 197.41 143.767 194.99C144.743 194.643 145.732 194.295 146.707 193.947C148.512 193.306 147.737 190.391 145.905 191.046Z" fill="#F0F9FF"/>
<path d="M151.893 198.961C146.373 202.223 140.853 205.472 135.32 208.734C134.545 209.189 133.756 209.657 132.981 210.111C131.31 211.087 132.821 213.694 134.505 212.705C140.025 209.443 145.545 206.194 151.078 202.932C151.853 202.477 152.642 202.009 153.417 201.555C155.088 200.579 153.577 197.972 151.893 198.961Z" fill="#F0F9FF"/>
<path d="M215.212 168.402C216.55 152.161 203.941 137.866 187.051 136.474C170.16 135.082 155.383 147.119 154.045 163.36C152.707 179.602 165.316 193.897 182.206 195.289C199.098 196.68 213.874 184.642 215.212 168.402Z" fill="#F0F9FF"/>
<path d="M190.6 190.324C203.635 190.324 214.203 179.753 214.203 166.714C214.203 153.674 203.635 143.103 190.6 143.103C177.564 143.103 166.996 153.674 166.996 166.714C166.996 179.753 177.564 190.324 190.6 190.324Z" fill="#062F4B"/>
<path d="M288.549 202.36C305.44 200.968 318.048 186.673 316.71 170.432C315.372 154.192 300.595 142.154 283.705 143.546C266.814 144.938 254.205 159.232 255.543 175.473C256.881 191.715 271.658 203.752 288.549 202.36Z" fill="#F0F9FF"/>
<path d="M280.149 197.41C293.184 197.41 303.752 186.839 303.752 173.799C303.752 160.76 293.184 150.189 280.149 150.189C267.113 150.189 256.545 160.76 256.545 173.799C256.545 186.839 267.113 197.41 280.149 197.41Z" fill="#062F4B"/>
<path d="M427.009 292.215C426.889 316.253 427.169 340.319 427.009 364.344C426.915 379.331 427.958 394.506 426.247 409.466C425.993 411.699 423.975 413.41 421.542 413.41H48.9786C46.7332 413.41 44.8754 411.833 44.6349 409.76C42.8706 394.693 43.9398 379.425 43.8329 364.33C43.6725 340.292 43.9532 316.226 43.8329 292.201H426.996L427.009 292.215Z" fill="#C37C0B"/>
<path d="M427.009 280.984V292.214H43.8463V282.16C45.1427 282.16 44.4745 280.971 45.1294 280.984C172.302 281.545 299.863 281.933 427.022 280.984H427.009Z" fill="#9C580C"/>
<path d="M373.253 220.045C388.877 219.403 404.662 219.363 420.286 218.347C423.374 218.147 426.341 219.203 428.76 220.994C429.468 221.516 429.482 220.941 429.575 221.075C429.629 221.155 429.682 221.542 430.431 222.652C440.735 238.027 451.481 262.413 462 279.019L460.717 280.984C449.49 281.064 438.236 280.877 427.009 280.984C299.849 282.254 172.302 281.733 45.116 280.984C44.4611 280.984 45.1294 282.575 43.8329 282.562C43.7394 282.562 44.1002 280.997 43.4052 280.984C31.6035 280.89 19.7616 281.385 7.9866 280.596C15.7119 266.424 32.4188 232.452 39.556 221.863C40.2376 220.861 40.5717 221.288 41.2668 220.286" fill="#E2A110"/>
</g>
<path d="M77.6858 327.798C82.3032 327.798 85.6964 328.945 87.8652 331.24C90.069 333.536 91.1709 336.546 91.1709 340.271C91.1709 342.83 90.6111 345.05 89.4918 346.931C88.4073 348.812 86.9207 350.28 85.0317 351.334C83.1778 352.35 81.0614 352.858 78.6827 352.858C77.8432 352.858 76.9512 352.783 76.0067 352.632C75.0622 352.444 74.0828 352.162 73.0683 351.785L73.5406 350.205C73.8204 351.033 74.0478 352.067 74.2227 353.309C74.4326 354.513 74.59 355.774 74.6949 357.091C74.8349 358.37 74.9048 359.556 74.9048 360.647C74.9048 363.281 74.3102 365.293 73.1208 366.686C71.9664 368.078 70.2174 368.774 67.8737 368.774C66.0897 368.774 64.6905 368.323 63.676 367.42C62.6966 366.479 61.9969 364.955 61.5772 362.848C61.1924 360.741 61 357.937 61 354.438C61 349.697 61.2624 345.652 61.7871 342.303C62.3468 338.954 63.1338 336.282 64.1483 334.288C65.1627 332.294 66.8243 330.714 69.133 329.547C71.4417 328.38 74.2926 327.798 77.6858 327.798ZM76.2166 344.73C77.9307 344.73 79.3474 344.26 80.4668 343.319C81.6211 342.378 82.1983 341.099 82.1983 339.481C82.1983 338.427 81.8835 337.562 81.2538 336.885C80.6592 336.169 79.6098 335.812 78.1056 335.812C76.9512 335.812 75.9192 336.076 75.0098 336.602C74.1352 337.092 73.4356 337.75 72.9109 338.578C72.4212 339.406 72.1763 340.29 72.1763 341.231C72.1763 342.247 72.5086 343.093 73.1733 343.771C73.8729 344.41 74.8874 344.73 76.2166 344.73ZM118.842 368.04C117.407 368.04 116.305 367.702 115.536 367.025C114.766 366.309 114.242 365.406 113.962 364.315C113.717 363.186 113.594 362.001 113.594 360.759L113.857 360.534C113.332 362.152 112.528 363.544 111.443 364.71C110.394 365.877 109.187 366.78 107.823 367.42C106.493 368.022 105.147 368.323 103.782 368.323C101.719 368.323 99.987 367.853 98.5877 366.912C97.1885 365.934 96.0516 364.39 95.1771 362.283C94.4425 360.515 93.8479 358.145 93.3931 355.172C92.9733 352.199 92.7634 349.114 92.7634 345.915C92.7634 344.448 92.8159 343.112 92.9208 341.908C93.0608 340.666 93.2531 339.632 93.498 338.804C93.9178 337.374 94.6174 336.32 95.5969 335.643C96.6113 334.966 97.8181 334.627 99.2174 334.627C100.861 334.627 102.156 335.21 103.1 336.377C104.08 337.506 104.657 339.086 104.832 341.118C104.937 342.247 105.024 343.545 105.094 345.012C105.164 346.442 105.234 347.853 105.304 349.245C105.374 350.638 105.444 351.842 105.514 352.858C105.654 354.25 105.969 355.285 106.458 355.962C106.948 356.601 107.63 356.921 108.505 356.921C109.519 356.921 110.289 356.395 110.813 355.341C111.373 354.25 111.653 352.763 111.653 350.882C111.653 349.866 111.601 348.719 111.496 347.439C111.426 346.16 111.356 344.918 111.286 343.714C111.216 342.472 111.181 341.456 111.181 340.666C111.181 338.108 111.636 336.282 112.545 335.191C113.489 334.101 114.801 333.555 116.48 333.555C117.845 333.555 119.016 333.875 119.996 334.514C120.975 335.116 121.692 336 122.147 337.167C122.637 338.258 123.057 339.745 123.407 341.626C123.756 343.507 124.036 345.633 124.246 348.004C124.456 350.336 124.561 352.82 124.561 355.454C124.561 359.669 124.141 362.829 123.302 364.936C122.462 367.006 120.975 368.04 118.842 368.04ZM126.685 345.069C126.685 340.704 127.192 337.562 128.207 335.643C129.221 333.686 130.638 332.708 132.457 332.708C133.681 332.708 134.661 333.122 135.395 333.95C136.13 334.74 136.655 335.737 136.969 336.941C137.319 338.108 137.494 339.293 137.494 340.497L137.232 340.384C137.826 338.352 138.718 336.602 139.908 335.135C141.097 333.667 142.549 332.934 144.263 332.934C146.537 332.934 148.216 333.893 149.301 335.812C150.384 337.731 150.927 340.14 150.927 343.037C150.927 346.837 150.367 349.509 149.248 351.052C148.163 352.557 146.711 353.309 144.893 353.309C143.494 353.309 142.461 352.896 141.797 352.067C141.167 351.202 140.905 349.904 141.01 348.173C141.08 346.893 141.027 346.028 140.852 345.577C140.712 345.087 140.485 344.843 140.17 344.843C139.715 344.843 139.383 345.125 139.173 345.69C138.963 346.216 138.858 346.969 138.858 347.947C138.858 348.699 138.946 349.64 139.121 350.769C139.296 351.898 139.488 353.14 139.698 354.494C139.908 355.811 140.1 357.129 140.275 358.445C140.45 359.762 140.537 360.967 140.537 362.058C140.537 364.39 140.013 366.046 138.963 367.025C137.914 368.003 136.445 368.492 134.556 368.492C132.772 368.492 131.303 368.003 130.148 367.025C129.029 366.046 128.277 364.447 127.892 362.227C127.682 360.872 127.472 359.179 127.262 357.147C127.087 355.115 126.947 353.027 126.843 350.882C126.738 348.699 126.685 346.762 126.685 345.069ZM152.255 345.069C152.255 340.704 152.762 337.562 153.776 335.643C154.79 333.686 156.207 332.708 158.026 332.708C159.25 332.708 160.23 333.122 160.965 333.95C161.699 334.74 162.224 335.737 162.539 336.941C162.889 338.108 163.064 339.293 163.064 340.497L162.801 340.384C163.396 338.352 164.288 336.602 165.477 335.135C166.667 333.667 168.118 332.934 169.832 332.934C172.106 332.934 173.785 333.893 174.87 335.812C175.954 337.731 176.496 340.14 176.496 343.037C176.496 346.837 175.936 349.509 174.817 351.052C173.732 352.557 172.281 353.309 170.462 353.309C169.062 353.309 168.031 352.896 167.366 352.067C166.737 351.202 166.474 349.904 166.579 348.173C166.649 346.893 166.596 346.028 166.422 345.577C166.281 345.087 166.054 344.843 165.74 344.843C165.285 344.843 164.953 345.125 164.743 345.69C164.533 346.216 164.428 346.969 164.428 347.947C164.428 348.699 164.516 349.64 164.69 350.769C164.865 351.898 165.057 353.14 165.267 354.494C165.477 355.811 165.67 357.129 165.845 358.445C166.019 359.762 166.107 360.967 166.107 362.058C166.107 364.39 165.582 366.046 164.533 367.025C163.483 368.003 162.014 368.492 160.125 368.492C158.341 368.492 156.872 368.003 155.718 367.025C154.599 366.046 153.846 364.447 153.461 362.227C153.251 360.872 153.042 359.179 152.832 357.147C152.657 355.115 152.517 353.027 152.412 350.882C152.307 348.699 152.255 346.762 152.255 345.069ZM186.534 336.094H185.957C185.642 334.665 185.485 333.347 185.485 332.144C185.485 329.321 186.272 327.102 187.846 325.483C189.42 323.828 192.078 323 195.822 323C198.34 323 200.159 323.433 201.279 324.298C202.398 325.163 202.958 326.424 202.958 328.08C202.958 330.902 201.594 332.464 198.865 332.764C197.885 332.839 197.134 332.99 196.609 333.216C196.119 333.442 195.769 333.799 195.56 334.288C195.384 334.778 195.297 335.455 195.297 336.32L194.72 336.207C195.245 335.869 195.839 335.605 196.504 335.417C197.168 335.229 197.833 335.135 198.498 335.135C200.316 335.135 201.768 335.586 202.853 336.49C203.972 337.355 204.532 338.842 204.532 340.948C204.532 342.942 203.955 344.448 202.801 345.464C201.646 346.48 200.194 346.988 198.445 346.988C197.885 346.988 197.308 346.95 196.714 346.875C196.119 346.762 195.524 346.593 194.93 346.367L195.192 345.746C195.682 347.139 196.101 348.681 196.452 350.374C196.836 352.03 197.134 353.704 197.344 355.398C197.553 357.053 197.658 358.596 197.658 360.026C197.658 361.644 197.396 363.13 196.871 364.485C196.381 365.839 195.612 366.93 194.563 367.758C193.548 368.548 192.254 368.944 190.68 368.944C188.126 368.944 186.307 368.153 185.223 366.573C184.138 364.993 183.596 363.017 183.596 360.647C183.596 359.254 183.683 357.693 183.858 355.962C184.068 354.231 184.365 352.444 184.75 350.6C185.135 348.756 185.59 346.969 186.115 345.238L187.164 345.52C186.01 346.498 184.505 346.988 182.652 346.988C180.868 346.988 179.485 346.536 178.506 345.633C177.527 344.73 177.037 343.357 177.037 341.513C177.037 339.556 177.579 338.051 178.664 336.998C179.748 335.944 181.2 335.417 183.019 335.417C183.718 335.417 184.365 335.492 184.96 335.643C185.555 335.756 186.079 335.907 186.534 336.094ZM222.603 368.831C218.301 368.831 214.873 368.21 212.319 366.968C209.765 365.726 207.912 363.939 206.757 361.606C205.638 359.274 205.078 356.488 205.078 353.253C205.078 349.151 205.865 345.671 207.439 342.811C209.049 339.914 211.234 337.693 213.998 336.151C216.796 334.608 219.963 333.837 223.495 333.837C227.693 333.837 230.772 334.74 232.73 336.546C234.689 338.314 235.669 340.648 235.669 343.545C235.669 345.84 235.074 347.834 233.885 349.528C232.73 351.221 231.104 352.519 229.005 353.422C226.941 354.325 224.545 354.777 221.816 354.777C220.557 354.777 219.333 354.682 218.143 354.494C216.954 354.307 215.887 354.061 214.943 353.761L216.202 350.6C216.097 351.503 216.045 352.406 216.045 353.309C216.045 354.927 216.586 356.075 217.671 356.752C218.79 357.429 220.33 357.768 222.289 357.768C224.178 357.768 225.787 357.561 227.116 357.147C228.445 356.696 229.617 356.263 230.631 355.849C231.646 355.398 232.608 355.172 233.517 355.172C234.147 355.172 234.794 355.341 235.459 355.68C236.124 356.018 236.683 356.545 237.138 357.26C237.593 357.975 237.82 358.935 237.82 360.139C237.82 361.794 237.243 363.281 236.088 364.598C234.934 365.914 233.22 366.95 230.946 367.702C228.707 368.454 225.926 368.831 222.603 368.831ZM219.56 349.133C221.239 349.133 222.691 348.7 223.915 347.834C225.139 346.931 225.752 345.84 225.752 344.561C225.752 343.733 225.472 343.055 224.912 342.529C224.352 342.002 223.583 341.739 222.603 341.739C221.519 341.739 220.487 341.964 219.508 342.416C218.563 342.867 217.793 343.45 217.199 344.166C216.605 344.881 216.307 345.671 216.307 346.536C216.307 347.364 216.586 348.004 217.146 348.455C217.741 348.907 218.546 349.133 219.56 349.133ZM253.591 369C248.518 369 244.793 367.645 242.415 364.936C240.035 362.227 238.846 358.464 238.846 353.648C238.846 349.923 239.546 346.631 240.945 343.771C242.379 340.874 244.426 338.616 247.084 336.998C249.778 335.342 252.996 334.514 256.739 334.514C260.167 334.514 262.791 335.229 264.61 336.659C266.428 338.088 267.338 340.083 267.338 342.642C267.338 344.448 266.778 345.877 265.659 346.931C264.575 347.947 263 348.455 260.937 348.455C260.132 348.455 259.363 348.437 258.628 348.399C257.893 348.324 257.211 348.267 256.582 348.229C255.952 348.192 255.357 348.173 254.798 348.173C253.503 348.173 252.506 348.474 251.807 349.076C251.142 349.678 250.81 350.581 250.81 351.785C250.81 352.876 251.159 353.686 251.859 354.212C252.559 354.739 253.503 355.002 254.693 355.002C255.217 355.002 255.812 354.946 256.477 354.833C257.176 354.682 257.911 354.551 258.681 354.438C259.45 354.325 260.202 354.269 260.937 354.269C262.545 354.269 263.875 354.758 264.925 355.736C265.974 356.677 266.499 358.069 266.499 359.913C266.499 361.757 266.026 363.374 265.082 364.767C264.138 366.121 262.703 367.175 260.779 367.928C258.89 368.643 256.494 369 253.591 369ZM277.647 334.401H277.122C276.948 332.746 277 331.184 277.28 329.717C277.559 328.211 278.155 327.007 279.064 326.104C279.973 325.163 281.285 324.693 282.999 324.693C284.748 324.693 286.025 325.126 286.83 325.991C287.634 326.857 288.036 328.061 288.036 329.604C288.036 331.561 287.617 333.234 286.777 334.627L286.357 334.514C287.581 333.799 288.928 333.442 290.398 333.442C292.217 333.442 293.668 333.912 294.753 334.853C295.872 335.756 296.432 337.318 296.432 339.537C296.432 341.607 295.802 343.188 294.543 344.279C293.284 345.332 291.709 345.859 289.82 345.859C289.156 345.859 288.439 345.821 287.669 345.746C286.935 345.633 286.217 345.464 285.518 345.238L285.78 344.617C286.235 345.746 286.672 347.026 287.092 348.455C287.512 349.848 287.879 351.315 288.194 352.858C288.544 354.363 288.806 355.849 288.981 357.317C289.191 358.746 289.296 360.026 289.296 361.155C289.296 363.563 288.736 365.463 287.617 366.855C286.532 368.248 284.853 368.944 282.579 368.944C281.18 368.944 280.008 368.68 279.064 368.153C278.119 367.627 277.368 366.893 276.808 365.952C276.248 365.011 275.846 363.902 275.601 362.622C275.356 361.305 275.234 359.894 275.234 358.389C275.234 357.109 275.321 355.68 275.496 354.099C275.706 352.481 276.003 350.807 276.388 349.076C276.772 347.345 277.227 345.69 277.752 344.109L278.277 345.52C277.158 346.498 275.741 346.988 274.027 346.988C272.102 346.988 270.599 346.48 269.514 345.464C268.43 344.41 267.888 342.811 267.888 340.666C267.888 338.446 268.465 336.734 269.619 335.53C270.809 334.326 272.4 333.724 274.394 333.724C275.024 333.724 275.618 333.799 276.178 333.95C276.738 334.063 277.227 334.213 277.647 334.401ZM320.354 368.661C317.556 368.661 315.299 368.228 313.585 367.363C311.906 366.498 310.682 365.087 309.912 363.13C309.423 361.85 309.055 360.326 308.81 358.558C308.6 356.752 308.495 354.664 308.495 352.293C308.495 348.756 308.635 345.708 308.915 343.15C309.195 340.591 309.597 338.409 310.122 336.602C310.647 334.796 311.293 333.272 312.063 332.031C313.077 330.375 314.704 329.077 316.943 328.136C319.182 327.158 322.348 326.669 326.44 326.669C329.624 326.669 332.177 327.064 334.101 327.854C336.06 328.606 337.476 329.642 338.351 330.958C339.226 332.275 339.663 333.78 339.663 335.474C339.663 337.957 338.928 339.989 337.459 341.569C335.99 343.112 334.066 344.335 331.687 345.238V345.464C334.276 345.727 336.288 346.611 337.722 348.117C339.191 349.584 339.925 351.729 339.925 354.551C339.925 356.621 339.365 358.52 338.246 360.252C337.127 361.945 335.623 363.431 333.734 364.71C331.88 365.952 329.781 366.93 327.437 367.645C325.129 368.323 322.767 368.661 320.354 368.661ZM323.869 358.615C324.919 358.615 325.846 358.445 326.65 358.107C327.454 357.768 328.084 357.298 328.539 356.696C329.029 356.093 329.274 355.398 329.274 354.607C329.274 353.629 328.871 352.82 328.067 352.18C327.297 351.503 326.09 351.164 324.446 351.164C323.152 351.164 322.05 351.522 321.141 352.237C320.266 352.914 319.829 353.912 319.829 355.228C319.829 356.395 320.161 357.26 320.826 357.825C321.491 358.351 322.505 358.615 323.869 358.615ZM323.869 342.529C325.408 342.529 326.667 342.19 327.647 341.513C328.627 340.836 329.116 339.914 329.116 338.747C329.116 337.882 328.714 337.185 327.91 336.659C327.14 336.094 326.038 335.812 324.604 335.812C323.309 335.812 322.243 336.113 321.403 336.715C320.599 337.318 320.196 338.201 320.196 339.368C320.196 340.422 320.528 341.212 321.193 341.739C321.858 342.265 322.75 342.529 323.869 342.529ZM357.219 368.548C354.07 368.548 351.325 367.89 348.981 366.573C346.672 365.218 344.871 363.299 343.576 360.816C342.317 358.333 341.687 355.379 341.687 351.955C341.687 348.38 342.334 345.257 343.629 342.585C344.923 339.914 346.742 337.826 349.086 336.32C351.464 334.815 354.228 334.063 357.376 334.063C360.734 334.063 363.637 334.796 366.086 336.264C368.57 337.693 370.494 339.707 371.858 342.303C373.222 344.899 373.904 347.929 373.904 351.39C373.904 354.927 373.205 357.975 371.806 360.534C370.441 363.092 368.517 365.068 366.034 366.46C363.55 367.853 360.612 368.548 357.219 368.548ZM357.953 356.921C359.318 356.921 360.402 356.357 361.207 355.228C362.046 354.099 362.466 352.594 362.466 350.713C362.466 348.832 362.046 347.326 361.207 346.198C360.402 345.069 359.318 344.504 357.953 344.504C356.554 344.504 355.435 345.069 354.595 346.198C353.791 347.326 353.388 348.832 353.388 350.713C353.388 352.594 353.791 354.099 354.595 355.228C355.435 356.357 356.554 356.921 357.953 356.921ZM381.135 368.887C379.211 368.887 377.619 368.21 376.36 366.855C375.101 365.463 374.471 363.732 374.471 361.663C374.471 360.082 374.908 358.653 375.783 357.373C376.657 356.056 377.916 354.908 379.561 353.93C381.24 352.952 383.251 352.18 385.595 351.616V351.39C381.782 350.223 378.965 348.681 377.147 346.762C375.363 344.805 374.471 342.68 374.471 340.384C374.471 338.992 374.803 337.788 375.468 336.772C376.132 335.718 377.007 334.909 378.092 334.345C379.175 333.78 380.313 333.498 381.502 333.498C383.216 333.498 384.755 334.025 386.12 335.079C387.484 336.094 388.638 337.506 389.582 339.312C390.527 341.118 391.209 343.188 391.629 345.52H391.839C392.783 341.269 394.13 338.126 395.879 336.094C397.628 334.025 399.569 332.99 401.703 332.99C403.732 332.99 405.289 333.63 406.373 334.909C407.457 336.189 408 337.826 408 339.82C408 342.039 407.142 344.128 405.429 346.085C403.715 348.042 401.144 349.584 397.716 350.713V350.939C401.039 351.993 403.417 353.384 404.852 355.115C406.321 356.809 407.056 358.766 407.056 360.985C407.056 363.055 406.426 364.729 405.167 366.009C403.942 367.25 402.508 367.871 400.864 367.871C399.29 367.871 397.908 367.363 396.719 366.347C395.564 365.293 394.585 363.902 393.78 362.171C393.011 360.402 392.381 358.445 391.891 356.301H391.682C391.086 359.123 390.23 361.475 389.11 363.356C387.991 365.2 386.731 366.592 385.333 367.533C383.968 368.436 382.569 368.887 381.135 368.887Z" fill="#450C25"/>
</svg>
